<svg width="20" height="20" viewBox="0 0 20 20" fill="none" xmlns="http://www.w3.org/2000/svg">
<path d="M16.186 17.4651H3.81395C1.98651 17.4651 0.5 15.9786 0.5 14.1512V5.31395C0.5 3.48651 1.98651 2 3.81395 2H16.186C18.0135 2 19.5 3.48651 19.5 5.31395V14.1512C19.5 15.9786 18.0135 17.4651 16.186 17.4651ZM3.81395 3.32558C2.71752 3.32558 1.82558 4.21752 1.82558 5.31395V14.1512C1.82558 15.2476 2.71752 16.1395 3.81395 16.1395H16.186C17.2825 16.1395 18.1744 15.2476 18.1744 14.1512V5.31395C18.1744 4.21752 17.2825 3.32558 16.186 3.32558H3.81395ZM12.4311 13.2661C12.4311 9.00243 8.96225 5.53356 4.69856 5.53356C4.33261 5.53356 4.03577 5.8304 4.03577 6.19635C4.03577 6.5623 4.33261 6.85914 4.69856 6.85914C8.23132 6.85914 11.1055 9.73335 11.1055 13.2661C11.1055 13.6321 11.4024 13.9289 11.7683 13.9289C12.1343 13.9289 12.4311 13.6321 12.4311 13.2661ZM9.77819 13.2687C9.77819 10.4669 7.49854 8.18728 4.69679 8.18728C4.33084 8.18728 4.034 8.48413 4.034 8.85007C4.034 9.21602 4.33084 9.51287 4.69679 9.51287C6.76761 9.51287 8.4526 11.1979 8.4526 13.2687C8.4526 13.6346 8.74945 13.9315 9.1154 13.9315C9.48134 13.9315 9.77819 13.6346 9.77819 13.2687ZM7.12702 13.2687C7.12702 11.9284 6.03704 10.8384 4.69679 10.8384C4.33084 10.8384 4.034 11.1353 4.034 11.5012C4.034 11.8672 4.33084 12.164 4.69679 12.164C5.30612 12.164 5.80144 12.6594 5.80144 13.2687C5.80144 13.6346 6.09828 13.9315 6.46423 13.9315C6.83018 13.9315 7.12702 13.6346 7.12702 13.2687Z" fill="#717171" stroke="#717171" stroke-width="0.3"/>
</svg>
