<svg width="20" height="20" viewBox="0 0 20 20" fill="none" xmlns="http://www.w3.org/2000/svg">
<path d="M16.5116 2H3.48837C1.56474 2 0 3.56474 0 5.48837V14.7907C0 16.7143 1.56474 18.2791 3.48837 18.2791H16.5116C18.4353 18.2791 20 16.7143 20 14.7907V5.48837C20 3.56474 18.4353 2 16.5116 2ZM6.27814 14.5595C5.89293 14.5595 5.58047 14.2471 5.58047 13.8619C5.58047 13.2205 5.05907 12.6991 4.41767 12.6991C4.03247 12.6991 3.72 12.3866 3.72 12.0014C3.72 11.6162 4.03247 11.3037 4.41767 11.3037C5.82847 11.3037 6.97581 12.4511 6.97581 13.8619C6.97581 14.2471 6.66335 14.5595 6.27814 14.5595ZM9.06884 14.5595C8.68363 14.5595 8.37116 14.2471 8.37116 13.8619C8.37116 11.682 6.59749 9.90837 4.41767 9.90837C4.03247 9.90837 3.72 9.59591 3.72 9.2107C3.72 8.82549 4.03247 8.51302 4.41767 8.51302C7.36688 8.51302 9.76651 10.9127 9.76651 13.8619C9.76651 14.2471 9.45405 14.5595 9.06884 14.5595ZM11.8614 14.5568C11.4762 14.5568 11.1637 14.2444 11.1637 13.8592C11.1637 10.1405 8.13823 7.11498 4.41953 7.11498C4.03433 7.11498 3.72186 6.80251 3.72186 6.4173C3.72186 6.03209 4.03433 5.71963 4.41953 5.71963C8.90763 5.71963 12.5591 9.37107 12.5591 13.8592C12.5591 14.2444 12.2466 14.5568 11.8614 14.5568Z" fill="#652DBF"/>
</svg>
