<svg width="20" height="20" viewBox="0 0 20 20" fill="none" xmlns="http://www.w3.org/2000/svg">
<g clip-path="url(#clip0_3598_187)">
<mask id="mask0_3598_187" style="mask-type:luminance" maskUnits="userSpaceOnUse" x="0" y="0" width="20" height="20">
<path d="M20 0H0V20H20V0Z" fill="white"/>
</mask>
<g mask="url(#mask0_3598_187)">
<path d="M19.4911 17.07C19.4385 16.4759 19.1578 15.9377 18.7011 15.5552C18.2314 15.1607 14.3685 11.9162 13.9004 11.523C14.5801 10.4208 14.9728 9.12363 14.9728 7.73637C14.9728 7.124 14.896 6.52928 14.7521 5.96096L15.9232 4.78994C16.1412 4.89447 16.3852 4.95314 16.6427 4.95314C17.5635 4.95314 18.3127 4.20402 18.3127 3.28319C18.3127 2.36236 17.5635 1.61328 16.6427 1.61328C15.7219 1.61328 14.9728 2.3624 14.9728 3.28323C14.9728 3.54073 15.0315 3.78472 15.136 4.00274L14.3463 4.79242C13.2163 2.2654 10.6788 0.5 7.73637 0.5C3.74624 0.5 0.5 3.74624 0.5 7.73641C0.5 11.7266 3.74624 14.9728 7.73641 14.9728C9.12367 14.9728 10.4208 14.5801 11.5231 13.9005C11.9164 14.3687 15.1623 18.2334 15.5572 18.7035C15.6426 18.8041 15.7379 18.8992 15.8328 18.9787C16.2384 19.3184 16.7399 19.5 17.2628 19.5C17.3293 19.5 17.3962 19.4971 17.4633 19.4911C18.0574 19.4386 18.5956 19.1579 18.9786 18.7006C19.3615 18.2433 19.5436 17.6642 19.4911 17.07ZM16.6427 2.72659C16.9497 2.72659 17.1994 2.9763 17.1994 3.28323C17.1994 3.59016 16.9497 3.83987 16.6427 3.83987C16.3358 3.83987 16.0861 3.59016 16.0861 3.28323C16.0861 2.9763 16.3358 2.72659 16.6427 2.72659ZM7.73637 13.8669C4.3601 13.8669 1.60586 11.1201 1.60586 7.74383C1.60586 4.36756 4.3601 1.60586 7.73637 1.60586C10.3791 1.60586 12.6361 3.29625 13.4921 5.64664L11.7958 7.34294C11.5777 7.23841 11.3337 7.17974 11.0762 7.17974C10.8187 7.17974 10.5747 7.23841 10.3567 7.34294L9.24316 6.22933C9.34766 6.01131 9.40633 5.76732 9.40633 5.50982C9.40633 4.58903 8.6572 3.83987 7.73637 3.83987C6.81555 3.83987 6.06642 4.58899 6.06642 5.50982C6.06642 5.76732 6.12509 6.01131 6.22963 6.22933L5.11605 7.34294C4.898 7.23841 4.65401 7.17974 4.39651 7.17974C3.47571 7.17974 2.72655 7.92886 2.72655 8.84969C2.72655 9.77048 3.47568 10.5196 4.39651 10.5196C5.3173 10.5196 6.06646 9.77052 6.06646 8.84969C6.06646 8.59219 6.00779 8.34819 5.90325 8.13018L7.01683 7.01657C7.23488 7.1211 7.47887 7.17977 7.73637 7.17977C7.99387 7.17977 8.23787 7.1211 8.45588 7.01657L9.56946 8.13018C9.46496 8.34819 9.40629 8.59219 9.40629 8.84969C9.40629 9.77048 10.1554 10.5196 11.0762 10.5196C11.9971 10.5196 12.7462 9.77052 12.7462 8.84969C12.7462 8.59219 12.6875 8.34819 12.583 8.13018L13.8034 6.90969C13.8401 7.18018 13.8595 7.45605 13.8595 7.73641C13.8595 11.1127 11.1127 13.8669 7.73637 13.8669ZM11.6329 8.84969C11.6329 9.15662 11.3832 9.40633 11.0763 9.40633C10.7693 9.40633 10.5196 9.15662 10.5196 8.84969C10.5196 8.54276 10.7693 8.29305 11.0763 8.29305C11.3832 8.29305 11.6329 8.54276 11.6329 8.84969ZM8.29301 5.50982C8.29301 5.81675 8.0433 6.06646 7.73637 6.06646C7.42944 6.06646 7.17974 5.81675 7.17974 5.50982C7.17974 5.20289 7.42944 4.95318 7.73637 4.95318C8.0433 4.95318 8.29301 5.20289 8.29301 5.50982ZM4.95314 8.84969C4.95314 9.15662 4.70344 9.40633 4.39651 9.40633C4.08958 9.40633 3.83987 9.15662 3.83987 8.84969C3.83987 8.54276 4.08958 8.29305 4.39651 8.29305C4.70344 8.29305 4.95314 8.54276 4.95314 8.84969ZM13.1404 14.095L12.4252 13.2435C12.7191 12.9929 12.9928 12.7192 13.2435 12.4252L14.095 13.1404C13.8028 13.4838 13.4837 13.8028 13.1404 14.095ZM18.1251 17.9857C17.933 18.215 17.6632 18.3558 17.3652 18.3821C17.0671 18.4084 16.7769 18.3171 16.5475 18.125C16.5014 18.0864 16.4497 18.0345 16.4077 17.9851L13.8568 14.948C14.2495 14.6143 14.6143 14.2495 14.948 13.8568L17.9856 16.4081C18.2149 16.6002 18.3557 16.87 18.382 17.168C18.4084 17.466 18.3171 17.7563 18.1251 17.9857Z" fill="#717171" stroke="#717171" stroke-width="0.3"/>
</g>
</g>
<defs>
<clipPath id="clip0_3598_187">
<rect width="20" height="20" fill="white"/>
</clipPath>
</defs>
</svg>
