<svg width="20" height="20" viewBox="0 0 20 20" fill="none" xmlns="http://www.w3.org/2000/svg">
<g clip-path="url(#clip0_1884_4848)">
<path d="M16.9936 1.17199C16.0243 1.17199 15.2357 1.96058 15.2357 2.92996C15.2357 3.20058 15.3022 3.4539 15.4118 3.68312L14.572 4.52292C13.3829 1.86183 10.7158 0 7.61784 0C3.41749 0 0 3.41749 0 7.61784C0 11.8182 3.41749 15.2357 7.61784 15.2357C9.07729 15.2357 10.4374 14.8159 11.5973 14.1011L12.4742 15.1478C13.2718 14.4011 14.4002 13.2728 15.1475 12.4746L14.1008 11.5979C14.8158 10.4379 15.2357 9.07752 15.2357 7.6178C15.2357 6.9746 15.1468 6.35319 14.996 5.7562L16.2405 4.51167C16.4697 4.62132 16.7231 4.68784 16.9937 4.68784C17.9631 4.68784 18.7516 3.89925 18.7516 2.92988C18.7516 1.96054 17.963 1.17199 16.9936 1.17199ZM7.61784 14.0637C4.06413 14.0637 1.17199 11.1721 1.17199 7.61784C1.17199 4.06359 4.06413 1.17199 7.61784 1.17199C10.4005 1.17199 12.7704 2.94828 13.671 5.42397L11.8869 7.20803C11.6577 7.09838 11.4044 7.03186 11.1337 7.03186C10.8631 7.03186 10.6098 7.09838 10.3806 7.20803L9.19955 6.02702C9.3092 5.79784 9.37572 5.54448 9.37572 5.27386C9.37572 4.30448 8.58713 3.51589 7.61776 3.51589C6.64839 3.51589 5.85979 4.30448 5.85979 5.27386C5.85979 5.54448 5.92632 5.7978 6.03596 6.02702L4.85495 7.20803C4.62577 7.09838 4.37241 7.03186 4.10179 7.03186C3.13242 7.03186 2.34382 7.82045 2.34382 8.78983C2.34382 9.7592 3.13242 10.5478 4.10179 10.5478C5.07116 10.5478 5.85975 9.7592 5.85975 8.78983C5.85975 8.5192 5.79323 8.26588 5.68358 8.03666L6.8646 6.85565C7.09381 6.9653 7.34713 7.03182 7.61776 7.03182C7.88838 7.03182 8.1417 6.9653 8.37092 6.85565L9.55193 8.03666C9.44229 8.26584 9.37576 8.5192 9.37576 8.78983C9.37576 9.7592 10.1644 10.5478 11.1337 10.5478C12.1031 10.5478 12.8917 9.7592 12.8917 8.78983C12.8917 8.5192 12.8252 8.26588 12.7155 8.03666L13.9988 6.75339C14.0371 7.03694 14.0637 7.32397 14.0637 7.61784C14.0637 11.1721 11.1715 14.0637 7.61784 14.0637Z" fill="#652DBF"/>
<path d="M19.9907 17.4435C19.9358 16.8181 19.6393 16.2515 19.1587 15.8481L16.0462 13.2271C15.2564 14.0746 14.0738 15.2571 13.2269 16.0461L15.8488 19.1625C15.9324 19.2621 16.0353 19.3657 16.1384 19.4521C16.5779 19.8201 17.1135 19.9998 17.6468 19.9998C18.3186 19.9998 18.987 19.7142 19.4506 19.1597C19.8546 18.6785 20.0457 18.069 19.9907 17.4435Z" fill="#652DBF"/>
</g>
<defs>
<clipPath id="clip0_1884_4848">
<rect width="20" height="20" fill="white"/>
</clipPath>
</defs>
</svg>
