<svg width="24" height="24" viewBox="0 0 24 24" fill="none" xmlns="http://www.w3.org/2000/svg">
<path d="M15.2328 5.32278L20.689 10.7789C20.7883 10.8827 20.8662 11.0051 20.9181 11.1391C21.0273 11.4047 21.0273 11.7027 20.9181 11.9684C20.8662 12.1023 20.7883 12.2247 20.689 12.3285L15.2328 17.7847C15.1311 17.8864 15.0103 17.9671 14.8774 18.0222C14.7444 18.0772 14.6019 18.1056 14.458 18.1056C14.1675 18.1056 13.8888 17.9901 13.6833 17.7847C13.4778 17.5792 13.3624 17.3005 13.3624 17.0099C13.3624 16.7193 13.4778 16.4406 13.6833 16.2351L17.2843 12.645H4.09123C3.80182 12.645 3.31961 12.3253 3.31961 12.3253C3.31961 12.3253 3 11.8431 3 11.5537C3 11.2643 3.11497 10.9867 3.31961 10.7821C3.52426 10.5775 3.80182 10.4625 4.09123 10.4625H17.2843L13.6833 6.87233C13.581 6.77089 13.4998 6.6502 13.4444 6.51722C13.389 6.38424 13.3605 6.24161 13.3605 6.09756C13.3605 5.9535 13.389 5.81087 13.4444 5.6779C13.4998 5.54492 13.581 5.42423 13.6833 5.32278C13.7847 5.2205 13.9054 5.13932 14.0384 5.08392C14.1714 5.02852 14.314 5 14.458 5C14.6021 5 14.7447 5.02852 14.8777 5.08392C15.0107 5.13932 15.1314 5.2205 15.2328 5.32278Z" fill="black" stroke="black" stroke-width="0.5"/>
</svg>
