<svg width="32" height="32" viewBox="0 0 32 32" fill="none" xmlns="http://www.w3.org/2000/svg">
<path d="M11 23.18L8.99999 21.179L7.58899 22.589L11 26L17 20L15.59 18.59L11 23.18ZM28 30H24V28H28V16H24V8C23.9987 6.93954 23.5768 5.92289 22.827 5.17303C22.0771 4.42318 21.0604 4.00132 20 4V2C21.5907 2.00185 23.1158 2.63459 24.2406 3.75941C25.3654 4.88422 25.9981 6.40927 26 8V14H28C28.5303 14.0005 29.0387 14.2114 29.4136 14.5864C29.7886 14.9613 29.9995 15.4697 30 16V28C29.9995 28.5303 29.7886 29.0387 29.4136 29.4136C29.0387 29.7886 28.5303 29.9995 28 30Z" fill="black"/>
<path d="M20 14H18V8C18 6.4087 17.3679 4.88258 16.2426 3.75736C15.1174 2.63214 13.5913 2 12 2C10.4087 2 8.88258 2.63214 7.75736 3.75736C6.63214 4.88258 6 6.4087 6 8V14H4C3.46957 14 2.96086 14.2107 2.58579 14.5858C2.21071 14.9609 2 15.4696 2 16V28C2 28.5304 2.21071 29.0391 2.58579 29.4142C2.96086 29.7893 3.46957 30 4 30H20C20.5304 30 21.0391 29.7893 21.4142 29.4142C21.7893 29.0391 22 28.5304 22 28V16C22 15.4696 21.7893 14.9609 21.4142 14.5858C21.0391 14.2107 20.5304 14 20 14ZM8 8C8 6.93913 8.42143 5.92172 9.17157 5.17157C9.92172 4.42143 10.9391 4 12 4C13.0609 4 14.0783 4.42143 14.8284 5.17157C15.5786 5.92172 16 6.93913 16 8V14H8V8ZM20 28H4V16H20V28Z" fill="black"/>
</svg>
