<svg width="16" height="16" viewBox="0 0 16 16" fill="none" xmlns="http://www.w3.org/2000/svg">
<path d="M15 6.99991H3.82999L8.70999 2.11991C9.09999 1.72991 9.09999 1.08991 8.70999 0.699914C8.61747 0.607211 8.50758 0.533663 8.38661 0.483482C8.26564 0.4333 8.13595 0.407471 8.00499 0.407471C7.87402 0.407471 7.74433 0.4333 7.62336 0.483482C7.50239 0.533663 7.3925 0.607211 7.29999 0.699914L0.709986 7.28991C0.617282 7.38243 0.543735 7.49232 0.493553 7.61329C0.443372 7.73426 0.417542 7.86395 0.417542 7.99491C0.417542 8.12588 0.443372 8.25557 0.493553 8.37654C0.543735 8.49751 0.617282 8.6074 0.709986 8.69991L7.29999 15.2899C7.39257 15.3825 7.50248 15.4559 7.62344 15.506C7.74441 15.5561 7.87406 15.5819 8.00499 15.5819C8.13592 15.5819 8.26556 15.5561 8.38653 15.506C8.50749 15.4559 8.6174 15.3825 8.70999 15.2899C8.80257 15.1973 8.87601 15.0874 8.92611 14.9665C8.97622 14.8455 9.00201 14.7158 9.00201 14.5849C9.00201 14.454 8.97622 14.3243 8.92611 14.2034C8.87601 14.0824 8.80257 13.9725 8.70999 13.8799L3.82999 8.99991H15C15.55 8.99991 16 8.54991 16 7.99991C16 7.44991 15.55 6.99991 15 6.99991Z" fill="black"/>
</svg>
