<svg width="20" height="20" viewBox="0 0 20 20" fill="none" xmlns="http://www.w3.org/2000/svg">
<path d="M5.56621 5.06621H6.06621V4.56621C6.06621 2.28527 7.85149 0.5 10.1324 0.5C12.4134 0.5 14.1986 2.28527 14.1986 4.56621V5.06621H14.6986H15.1553C15.5416 5.06621 15.9335 5.14282 16.3336 5.30211C16.8494 5.52497 17.3205 5.98417 17.6435 6.54944L17.659 6.57647L17.6776 6.60137C17.8718 6.86023 17.9481 7.19855 18.044 7.67797C18.0832 7.87406 18.1042 8.09754 18.1273 8.37486C18.1292 8.39773 18.1311 8.42092 18.1331 8.44441C18.1538 8.69511 18.1774 8.98005 18.2206 9.28512L18.7648 14.4555V14.5205C18.7648 17.2581 16.5229 19.5 13.7854 19.5H6.47945C3.7419 19.5 1.5 17.2581 1.5 14.5205V14.4555L2.04424 9.28516C2.08749 8.98006 2.11105 8.69508 2.13178 8.44437C2.13372 8.42089 2.13564 8.39772 2.13754 8.37486C2.16065 8.09754 2.18167 7.87406 2.22088 7.67797C2.31677 7.19855 2.39307 6.86023 2.58721 6.60137L2.60589 6.57647L2.62134 6.54944C2.91615 6.03351 3.36037 5.64349 3.91944 5.31397C4.05234 5.28684 4.1747 5.2606 4.2948 5.23484C4.5613 5.17768 4.81667 5.1229 5.1513 5.06621H5.56621ZM5.20091 5.89269H5.13936L5.07965 5.90762C4.96628 5.93596 4.8899 5.9511 4.81411 5.96611C4.76853 5.97514 4.72315 5.98413 4.67007 5.99592L4.66727 5.99655C4.58557 6.01469 4.42929 6.0494 4.28751 6.15367C3.92415 6.33956 3.5696 6.57154 3.32524 7.01967C3.15658 7.22537 3.06666 7.51431 3.0578 7.88395C3.01138 8.09129 2.98849 8.31166 2.96781 8.53921C2.96321 8.58976 2.95868 8.6413 2.95403 8.69418C2.93496 8.91124 2.91391 9.15074 2.87829 9.4357L2.87727 9.44445L2.32933 14.5586L2.32648 14.5852V14.6119C2.32648 16.8971 4.19418 18.7648 6.47945 18.7648H13.7854C16.0707 18.7648 17.9384 16.8971 17.9384 14.6119V14.5852L17.9355 14.5586L17.3876 9.44445L17.3866 9.4357C17.3509 9.15075 17.3299 8.91125 17.3108 8.69419C17.3062 8.64131 17.3016 8.58976 17.297 8.53921C17.2763 8.31166 17.2535 8.09129 17.207 7.88395C17.1982 7.51431 17.1083 7.22537 16.9396 7.01967C16.6839 6.55079 16.3076 6.31854 15.9268 6.12813C15.7159 6.02265 15.4512 5.89269 14.9726 5.89269H13.4201H6.75343H5.20091ZM6.89269 4.56621V5.06621H7.39269H12.8721H13.3721V4.56621C13.3721 2.73756 11.9611 1.32648 10.1324 1.32648C8.30377 1.32648 6.89269 2.73756 6.89269 4.56621ZM6.47945 8.71918C6.6398 8.71918 6.73457 8.77045 6.788 8.82387C6.84143 8.8773 6.89269 8.97207 6.89269 9.13242C6.89269 10.9611 8.30377 12.3721 10.1324 12.3721C11.9611 12.3721 13.3721 10.9611 13.3721 9.13242C13.3721 8.97207 13.4234 8.8773 13.4768 8.82387C13.5303 8.77045 13.625 8.71918 13.7854 8.71918C13.9457 8.71918 14.0405 8.77045 14.0939 8.82387C14.1474 8.8773 14.1986 8.97207 14.1986 9.13242C14.1986 11.4134 12.4134 13.1986 10.1324 13.1986C7.85149 13.1986 6.06621 11.4134 6.06621 9.13242C6.06621 8.97207 6.11748 8.8773 6.17091 8.82387C6.22433 8.77045 6.3191 8.71918 6.47945 8.71918Z" stroke="#717171"/>
</svg>
