<svg width="20" height="20" viewBox="0 0 20 20" fill="none" xmlns="http://www.w3.org/2000/svg">
<g clip-path="url(#clip0_1884_4971)">
<path d="M1.7058 5.37859L0.0414975 15.8714C-0.115624 16.9071 0.177214 17.95 0.855794 18.75C1.53437 19.5428 2.5272 20 3.57007 20H15.4558C16.4987 20 17.4915 19.5428 18.1701 18.75C18.8487 17.95 19.1415 16.9071 18.9844 15.8714L17.3201 5.37859C17.1558 4.32857 16.2701 3.57143 15.2058 3.57143H13.7343C13.3915 1.54999 11.6343 0 9.51293 0C7.39153 0 5.63437 1.54999 5.29152 3.57143H3.8201C2.75577 3.57143 1.87007 4.32857 1.7058 5.37859ZM9.51293 1.42857C10.8415 1.42857 11.9486 2.34288 12.2701 3.57143H6.7558C7.07724 2.34288 8.18437 1.42857 9.51293 1.42857ZM5.9415 6.42857C6.33435 6.42857 6.65579 6.74286 6.65579 7.14286C6.65579 8.71429 7.93435 10 9.51293 10C11.0915 10 12.3701 8.71429 12.3701 7.14286C12.3701 6.74286 12.6915 6.42857 13.0844 6.42857C13.4772 6.42857 13.7986 6.74286 13.7986 7.14286C13.7986 9.50714 11.8772 11.4286 9.51293 11.4286C7.14865 11.4286 5.22722 9.50714 5.22722 7.14286C5.22722 6.74286 5.54866 6.42857 5.9415 6.42857Z" fill="#652DBF"/>
</g>
<defs>
<clipPath id="clip0_1884_4971">
<rect width="20" height="20" fill="white"/>
</clipPath>
</defs>
</svg>
