<svg width="20" height="20" viewBox="0 0 20 20" fill="none" xmlns="http://www.w3.org/2000/svg">
<g clip-path="url(#clip0_1989_5992)">
<path d="M16.0837 11.5352H14.2026C14.0155 11.5352 13.8361 11.4609 13.7038 11.3286C13.5715 11.1963 13.4972 11.0169 13.4972 10.8298C13.4972 10.6427 13.5715 10.4633 13.7038 10.331C13.8361 10.1987 14.0155 10.1244 14.2026 10.1244H16.0837C16.2707 10.1244 16.4502 10.1987 16.5824 10.331C16.7147 10.4633 16.789 10.6427 16.789 10.8298C16.789 11.0169 16.7147 11.1963 16.5824 11.3286C16.4502 11.4609 16.2707 11.5352 16.0837 11.5352Z" fill="#717171"/>
<path d="M16.0837 14.3567H14.2026C14.0155 14.3567 13.8361 14.2824 13.7038 14.1501C13.5715 14.0178 13.4972 13.8384 13.4972 13.6513C13.4972 13.4642 13.5715 13.2848 13.7038 13.1525C13.8361 13.0202 14.0155 12.9459 14.2026 12.9459H16.0837C16.2707 12.9459 16.4502 13.0202 16.5824 13.1525C16.7147 13.2848 16.789 13.4642 16.789 13.6513C16.789 13.8384 16.7147 14.0178 16.5824 14.1501C16.4502 14.2824 16.2707 14.3567 16.0837 14.3567Z" fill="#717171"/>
<path d="M16.0837 17.1784H14.2026C14.0155 17.1784 13.8361 17.1041 13.7038 16.9718C13.5715 16.8395 13.4972 16.6601 13.4972 16.473C13.4972 16.2859 13.5715 16.1065 13.7038 15.9742C13.8361 15.8419 14.0155 15.7676 14.2026 15.7676H16.0837C16.2707 15.7676 16.4502 15.8419 16.5824 15.9742C16.7147 16.1065 16.789 16.2859 16.789 16.473C16.789 16.6601 16.7147 16.8395 16.5824 16.9718C16.4502 17.1041 16.2707 17.1784 16.0837 17.1784Z" fill="#717171"/>
<path d="M11.8513 20H2.44598C2.01021 19.9975 1.593 19.8233 1.28486 19.5152C0.97672 19.2071 0.802518 18.7898 0.800049 18.3541V1.15177C0.804038 0.96699 0.851193 0.785701 0.937747 0.622392C1.0243 0.459084 1.14785 0.318284 1.29853 0.211245C1.45466 0.103539 1.6342 0.0345663 1.82229 0.0100333C2.01038 -0.0144997 2.2016 0.00611277 2.38014 0.0701649L11.4751 3.36202C11.7915 3.47753 12.065 3.68737 12.2584 3.96321C12.4518 4.23904 12.5559 4.56759 12.5567 4.90449V8.00824C12.5567 8.19532 12.4824 8.37474 12.3501 8.50703C12.2178 8.63932 12.0384 8.71364 11.8513 8.71364C11.6642 8.71364 11.4848 8.63932 11.3525 8.50703C11.2202 8.37474 11.1459 8.19532 11.1459 8.00824V4.90449C11.1453 4.85753 11.1306 4.81182 11.1038 4.77327C11.077 4.73471 11.0392 4.70507 10.9954 4.68817L2.21084 1.49037V18.3541C2.21084 18.4164 2.23562 18.4762 2.27971 18.5203C2.32381 18.5644 2.38362 18.5892 2.44598 18.5892H11.8513C12.0384 18.5892 12.2178 18.6635 12.3501 18.7958C12.4824 18.9281 12.5567 19.1075 12.5567 19.2946C12.5567 19.4817 12.4824 19.6611 12.3501 19.7934C12.2178 19.9257 12.0384 20 11.8513 20Z" fill="#717171"/>
<path d="M17.4945 19.9999H11.8513C11.6649 19.9975 11.4869 19.9224 11.3552 19.7906C11.2234 19.6588 11.1483 19.4808 11.1459 19.2945V10.8297C11.1459 10.6426 11.2202 10.4632 11.3525 10.3309C11.4848 10.1986 11.6642 10.1243 11.8513 10.1243C12.0384 10.1243 12.2178 10.1986 12.3501 10.3309C12.4824 10.4632 12.5567 10.6426 12.5567 10.8297V18.5891H17.4945C17.5568 18.5891 17.6166 18.5643 17.6607 18.5202C17.7048 18.4761 17.7296 18.4163 17.7296 18.354V8.94866C17.7296 8.8863 17.7048 8.82649 17.6607 8.7824C17.6166 8.7383 17.5568 8.71353 17.4945 8.71353H11.8513C11.6642 8.71353 11.4848 8.63921 11.3525 8.50692C11.2202 8.37464 11.1459 8.19522 11.1459 8.00813C11.1459 7.82105 11.2202 7.64163 11.3525 7.50934C11.4848 7.37705 11.6642 7.30273 11.8513 7.30273H17.4945C17.9302 7.3052 18.3474 7.47941 18.6556 7.78754C18.9637 8.09568 19.1379 8.5129 19.1404 8.94866V18.354C19.1379 18.7897 18.9637 19.2069 18.6556 19.5151C18.3474 19.8232 17.9302 19.9974 17.4945 19.9999Z" fill="#717171"/>
<path d="M9.02963 20H4.32698C4.14065 19.9976 3.96265 19.9225 3.83088 19.7907C3.69912 19.659 3.62402 19.481 3.62158 19.2946V15.0623C3.62158 14.7505 3.74545 14.4514 3.96593 14.2309C4.18641 14.0105 4.48544 13.8866 4.79724 13.8866H8.55937C8.87117 13.8866 9.17021 14.0105 9.39068 14.2309C9.61116 14.4514 9.73503 14.7505 9.73503 15.0623V19.2946C9.73259 19.481 9.65749 19.659 9.52573 19.7907C9.39397 19.9225 9.21596 19.9976 9.02963 20ZM5.03238 18.5892H8.32423V15.2974H5.03238V18.5892Z" fill="#717171"/>
<path d="M7.14864 6.83255H4.79732C4.61023 6.83255 4.43081 6.75823 4.29853 6.62594C4.16624 6.49365 4.09192 6.31423 4.09192 6.12715C4.09192 5.94007 4.16624 5.76065 4.29853 5.62836C4.43081 5.49607 4.61023 5.42175 4.79732 5.42175H7.14864C7.33573 5.42175 7.51515 5.49607 7.64743 5.62836C7.77972 5.76065 7.85404 5.94007 7.85404 6.12715C7.85404 6.31423 7.77972 6.49365 7.64743 6.62594C7.51515 6.75823 7.33573 6.83255 7.14864 6.83255Z" fill="#717171"/>
<path d="M8.55944 9.6542H4.79732C4.61023 9.6542 4.43081 9.57988 4.29853 9.4476C4.16624 9.31531 4.09192 9.13589 4.09192 8.94881C4.09192 8.76172 4.16624 8.5823 4.29853 8.45001C4.43081 8.31773 4.61023 8.24341 4.79732 8.24341H8.55944C8.74652 8.24341 8.92594 8.31773 9.05823 8.45001C9.19052 8.5823 9.26484 8.76172 9.26484 8.94881C9.26484 9.13589 9.19052 9.31531 9.05823 9.4476C8.92594 9.57988 8.74652 9.6542 8.55944 9.6542Z" fill="#717171"/>
<path d="M8.55944 12.4757H4.79732C4.61023 12.4757 4.43081 12.4014 4.29853 12.2691C4.16624 12.1368 4.09192 11.9574 4.09192 11.7703C4.09192 11.5833 4.16624 11.4038 4.29853 11.2715C4.43081 11.1393 4.61023 11.0649 4.79732 11.0649H8.55944C8.74652 11.0649 8.92594 11.1393 9.05823 11.2715C9.19052 11.4038 9.26484 11.5833 9.26484 11.7703C9.26484 11.9574 9.19052 12.1368 9.05823 12.2691C8.92594 12.4014 8.74652 12.4757 8.55944 12.4757Z" fill="#717171"/>
</g>
<defs>
<clipPath id="clip0_1989_5992">
<rect width="20" height="20" fill="white"/>
</clipPath>
</defs>
</svg>
