<svg width="20" height="20" viewBox="0 0 20 20" fill="none" xmlns="http://www.w3.org/2000/svg">
<g clip-path="url(#clip0_1884_4846)">
<path d="M16.1538 0H3.84615C1.72538 0 0 1.72538 0 3.84615V16.1538C0 18.2746 1.72538 20 3.84615 20H16.1538C18.2746 20 20 18.2746 20 16.1538V3.84615C20 1.72538 18.2746 0 16.1538 0ZM10.0023 3.71231C11.6992 3.71231 13.0792 5.09231 13.0792 6.78923C13.0792 8.48615 11.6992 9.86615 10.0023 9.86615C8.30538 9.86615 6.92538 8.48615 6.92538 6.78923C6.92538 5.09231 8.30538 3.71231 10.0023 3.71231ZM14.6154 16.5554H5.38462C4.95923 16.5554 4.61538 16.2108 4.61538 15.7862C4.61538 12.8169 7.03154 10.4015 10 10.4015C12.9685 10.4015 15.3846 12.8169 15.3846 15.7862C15.3846 16.2108 15.0408 16.5554 14.6154 16.5554Z" fill="#652DBF"/>
</g>
<defs>
<clipPath id="clip0_1884_4846">
<rect width="20" height="20" fill="white"/>
</clipPath>
</defs>
</svg>
