<svg width="20" height="20" viewBox="0 0 20 20" fill="none" xmlns="http://www.w3.org/2000/svg">
<g clip-path="url(#clip0_3598_199)">
<mask id="mask0_3598_199" style="mask-type:luminance" maskUnits="userSpaceOnUse" x="0" y="0" width="20" height="20">
<path d="M20 0H0V20H20V0Z" fill="white"/>
</mask>
<g mask="url(#mask0_3598_199)">
<path d="M3.84654 0.399902H16.1542C18.0541 0.399902 19.6004 1.9462 19.6004 3.84605V16.1537C19.6004 18.0536 18.0541 19.5999 16.1542 19.5999H3.84654C1.94669 19.5999 0.400391 18.0536 0.400391 16.1537V3.84605C0.400391 1.9462 1.94669 0.399902 3.84654 0.399902ZM16.1542 18.8614C17.6475 18.8614 18.8619 17.647 18.8619 16.1537V3.84605C18.8619 2.35283 17.6475 1.13836 16.1542 1.13836H3.84654C2.35332 1.13836 1.13885 2.35283 1.13885 3.84605V16.1537C1.13885 17.647 2.35332 18.8614 3.84654 18.8614H16.1542Z" stroke="#717171" stroke-width="0.8"/>
<path d="M12.68 6.78875C12.68 8.26476 11.4791 9.46567 10.0031 9.46567C8.52709 9.46567 7.32617 8.26476 7.32617 6.78875C7.32617 5.31274 8.52709 4.11182 10.0031 4.11182C11.4791 4.11182 12.68 5.31274 12.68 6.78875ZM11.9416 6.78875C11.9416 5.71937 11.0725 4.85029 10.0031 4.85029C8.93372 4.85029 8.06463 5.71937 8.06463 6.78875C8.06463 7.85812 8.93372 8.72721 10.0031 8.72721C11.0725 8.72721 11.9416 7.85812 11.9416 6.78875Z" stroke="#717171" stroke-width="0.8"/>
<path d="M5.83986 14.9367L5.74192 15.4167H6.23178H13.7687H14.2584L14.1607 14.9368C13.7667 13.0015 12.0522 11.5397 10.0002 11.5397C7.9482 11.5397 6.23469 13.0016 5.83986 14.9367ZM5.01562 15.7859C5.01562 13.0376 7.25266 10.8013 10.0002 10.8013C12.7479 10.8013 14.9849 13.0376 14.9849 15.7859C14.9849 15.9898 14.8199 16.1551 14.6157 16.1551H5.38486C5.18065 16.1551 5.01562 15.9898 5.01562 15.7859Z" stroke="#717171" stroke-width="0.8"/>
</g>
</g>
<defs>
<clipPath id="clip0_3598_199">
<rect width="20" height="20" fill="white"/>
</clipPath>
</defs>
</svg>
