<svg width="48" height="48" viewBox="0 0 48 48" fill="none" xmlns="http://www.w3.org/2000/svg">
<rect width="48" height="48" rx="4" fill="#652DBF"/>
<path d="M28.9174 8H22.687C19.8646 8 17.6278 8 15.879 8.2368C14.0774 8.48 12.6198 8.992 11.471 10.1456C10.3206 11.2992 9.81017 12.7632 9.56857 14.5712C9.33337 16.328 9.33337 18.5728 9.33337 21.4064V30.7472C9.33337 33.16 10.8054 35.2272 12.8966 36.0944C12.7894 34.6384 12.7894 32.5984 12.7894 30.8992V22.8832C12.7894 20.8336 12.7894 19.0656 12.9782 17.6512C13.1814 16.1344 13.639 14.6816 14.8134 13.5024C15.9878 12.3232 17.4358 11.864 18.9462 11.6592C20.3542 11.4704 22.1142 11.4704 24.1574 11.4704H29.0694C31.111 11.4704 32.8678 11.4704 34.2774 11.6592C33.8549 10.5814 33.1177 9.65583 32.1616 9.00313C31.2055 8.35043 30.075 8.00087 28.9174 8Z" fill="white"/>
<path d="M15.0934 23.0353C15.0934 18.6737 15.0934 16.4929 16.4438 15.1377C17.7926 13.7825 19.9638 13.7825 24.3094 13.7825H28.9174C33.2614 13.7825 35.4342 13.7825 36.7846 15.1377C38.1334 16.4929 38.1334 18.6737 38.1334 23.0353V30.7473C38.1334 35.1089 38.1334 37.2897 36.7846 38.6449C35.4342 40.0001 33.2614 40.0001 28.9174 40.0001H24.3094C19.9654 40.0001 17.7926 40.0001 16.4438 38.6449C15.0934 37.2897 15.0934 35.1089 15.0934 30.7473V23.0353Z" fill="white"/>
</svg>
