<svg width="20" height="20" viewBox="0 0 20 20" fill="none" xmlns="http://www.w3.org/2000/svg">
<g clip-path="url(#clip0_1989_6109)">
<path fillRule="evenodd" clipRule="evenodd" d="M12.0497 6.74447C11.46 7.08494 11.1772 7.6935 11.1176 8.29197C11.0579 8.89187 11.2089 9.54316 11.5455 10.1261C11.8821 10.709 12.3706 11.1654 12.92 11.4137C13.4681 11.6613 14.1365 11.7206 14.7262 11.3801C15.3159 11.0397 15.5987 10.4311 15.6583 9.83266C15.718 9.23273 15.567 8.58147 15.2304 7.99855C14.8939 7.41564 14.4053 6.9592 13.8559 6.71095C13.3078 6.46333 12.6394 6.40403 12.0497 6.74447ZM12.8075 9.39743C12.6062 9.04875 12.5415 8.70004 12.5677 8.4363C12.5941 8.1711 12.699 8.05233 12.7784 8.00648C12.8578 7.96066 13.013 7.92922 13.2559 8.03896C13.4974 8.14809 13.7671 8.37848 13.9684 8.72719C14.1697 9.07588 14.2344 9.42456 14.2082 9.68833C14.1818 9.9535 14.0769 10.0723 13.9975 10.1181C13.9182 10.164 13.7629 10.1954 13.52 10.0857C13.2785 9.97654 13.0088 9.74615 12.8075 9.39743Z" fill="#652DBF"/>
<path d="M5.56813 6.43119C6.1884 6.43119 6.6912 5.92839 6.6912 5.30812C6.6912 4.68788 6.1884 4.18506 5.56813 4.18506C4.94789 4.18506 4.44507 4.68788 4.44507 5.30812C4.44507 5.92839 4.94789 6.43119 5.56813 6.43119Z" fill="#652DBF"/>
<path d="M10.4635 4.70339C10.4635 5.32363 9.96071 5.82645 9.34047 5.82645C8.7202 5.82645 8.21741 5.32363 8.21741 4.70339C8.21741 4.08314 8.7202 3.58032 9.34047 3.58032C9.96071 3.58032 10.4635 4.08314 10.4635 4.70339Z" fill="#652DBF"/>
<path d="M6.47524 13.1119C7.09548 13.1119 7.5983 12.609 7.5983 11.9888C7.5983 11.3685 7.09548 10.8657 6.47524 10.8657C5.85497 10.8657 5.35217 11.3685 5.35217 11.9888C5.35217 12.609 5.85497 13.1119 6.47524 13.1119Z" fill="#652DBF"/>
<path d="M5.75528 8.82118C5.75528 9.44143 5.25246 9.94425 4.63222 9.94425C4.01195 9.94425 3.50916 9.44143 3.50916 8.82118C3.50916 8.20094 4.01195 7.69812 4.63222 7.69812C5.25246 7.69812 5.75528 8.20094 5.75528 8.82118Z" fill="#652DBF"/>
<path fillRule="evenodd" clipRule="evenodd" d="M18.301 5.83452C16.5017 3.14048 13.3505 1.30343 10.1889 0.708852C8.5077 0.392705 6.77039 0.420982 5.2049 0.893423C3.83248 1.3076 2.59213 2.06315 1.63744 3.2273C-1.3827 6.90776 -0.187254 13.1564 4.91104 17.0359C6.45035 18.2117 8.42657 18.9355 10.1798 19.3013C11.0616 19.4853 11.9056 19.5827 12.6337 19.5979C13.3427 19.6127 14.0081 19.5513 14.4951 19.3709C14.8278 19.2477 15.14 19.0919 15.3665 18.8693C15.6274 18.6129 15.7796 18.2559 15.7 17.8536C15.6348 17.5242 15.4316 17.2741 15.2782 17.114C15.1125 16.9409 14.9102 16.7776 14.7196 16.6321C14.5973 16.5387 14.4776 16.4505 14.3611 16.3645C14.0822 16.1588 13.8211 15.9663 13.5856 15.7491C13.2464 15.4362 13.1383 15.224 13.1257 15.0936L13.1255 15.0913L13.1247 15.0821C13.1355 15.0721 13.1573 15.0548 13.1969 15.0327C13.3652 14.9386 13.6718 14.8578 14.1194 14.8105C14.5492 14.7651 15.0307 14.7575 15.5002 14.7595C15.6246 14.76 15.7511 14.7612 15.876 14.7625L15.8789 14.7625C16.2013 14.7657 16.5131 14.7688 16.7523 14.7586L16.7596 14.7582C17.6849 14.7092 18.4568 14.3555 19.0174 13.7481C19.568 13.1514 19.867 12.3628 19.964 11.5122C20.1566 9.82197 19.5735 7.7434 18.301 5.83452ZM2.76431 4.15133C4.35074 2.21667 7.07172 1.6055 9.91954 2.14103C12.7607 2.67535 15.5416 4.32668 17.0891 6.64388C18.2245 8.34719 18.6599 10.0849 18.516 11.3472C18.4448 11.973 18.2369 12.4449 17.9464 12.7597C17.6665 13.0631 17.2641 13.2714 16.6861 13.3027C16.4876 13.3111 16.238 13.3086 15.9375 13.3056C15.8038 13.3042 15.6599 13.3028 15.5061 13.3022C15.0271 13.3002 14.4794 13.3071 13.9663 13.3613C13.4709 13.4136 12.9209 13.5175 12.4861 13.7605C12.2598 13.8869 12.0322 14.0688 11.8722 14.3317C11.7066 14.6038 11.6436 14.9134 11.6752 15.234C11.7423 15.9271 12.203 16.4564 12.5976 16.8203C12.8965 17.096 13.2592 17.3634 13.5586 17.5842C13.6597 17.6588 13.7535 17.728 13.8353 17.7904C13.9249 17.8588 14.0015 17.9198 14.0662 17.9746C14.0422 17.9842 14.0164 17.9942 13.989 18.0044C13.7588 18.0896 13.3108 18.1544 12.6641 18.1409C12.0365 18.1279 11.2824 18.0427 10.4775 17.8747C8.85768 17.5368 7.10669 16.8794 5.79516 15.8775L5.79404 15.8766C1.11834 12.319 0.43711 6.98715 2.76431 4.15133Z" fill="#652DBF"/>
</g>
<defs>
<clipPath id="clip0_1989_6109">
<rect width="20" height="20" fill="white"/>
</clipPath>
</defs>
</svg>
