<svg width="20" height="20" viewBox="0 0 20 20" fill="none" xmlns="http://www.w3.org/2000/svg">
<g clip-path="url(#clip0_1884_4981)">
<path d="M13.3333 0H1.66675C0.750244 0 0 0.749512 0 1.66675V18.3333C0 19.2498 0.750244 20 1.66675 20H10V8.33325C10 6.49478 11.4947 5 13.3333 5H15V1.66675C15 0.749512 14.2498 0 13.3333 0ZM7.5 18.3333H5.83325C5.37275 18.3333 5 17.9607 5 17.5C5 17.0393 5.37275 16.6667 5.83325 16.6667H7.5C7.96074 16.6667 8.33325 17.0393 8.33325 17.5C8.33325 17.9607 7.96074 18.3333 7.5 18.3333Z" fill="#652DBF"/>
<path d="M18.3333 6.66699H13.3333C12.417 6.66699 11.6667 7.41724 11.6667 8.3335V18.3335C11.6667 19.25 12.417 20.0002 13.3333 20.0002H18.3333C19.2498 20.0002 20 19.25 20 18.3335V8.3335C20 7.41724 19.2498 6.66699 18.3333 6.66699ZM15.8333 18.3335C15.3728 18.3335 15 17.961 15 17.5002C15 17.0395 15.3728 16.667 15.8333 16.667C16.294 16.667 16.6667 17.0395 16.6667 17.5002C16.6667 17.961 16.294 18.3335 15.8333 18.3335Z" fill="#652DBF"/>
</g>
<defs>
<clipPath id="clip0_1884_4981">
<rect width="20" height="20" fill="white"/>
</clipPath>
</defs>
</svg>
