<svg width="20" height="20" viewBox="0 0 20 20" fill="none" xmlns="http://www.w3.org/2000/svg">
<g clip-path="url(#clip0_3598_230)">
<mask id="mask0_3598_230" style="mask-type:luminance" maskUnits="userSpaceOnUse" x="0" y="0" width="20" height="20">
<path d="M20 0H0V20H20V0Z" fill="white"/>
</mask>
<g mask="url(#mask0_3598_230)">
<path d="M8.33398 15.8335H6.66748C6.20674 15.8335 5.83398 16.2062 5.83398 16.667C5.83398 17.1275 6.20674 17.5002 6.66748 17.5002H8.33398C8.79472 17.5002 9.16748 17.1275 9.16748 16.667C9.16748 16.2062 8.79472 15.8335 8.33398 15.8335Z" fill="#717171"/>
<path d="M18.3333 6.66675H15V1.66675C15 0.749512 14.2498 0 13.3333 0H1.66675C0.750244 0 0 0.749512 0 1.66675V18.3335C0 19.2498 0.750244 20 1.66675 20H18.3333C19.2498 20 20 19.2498 20 18.3333V8.33325C20 7.41699 19.2498 6.66675 18.3333 6.66675ZM11.6667 8.33325V18.3333H1.66675V1.66675H13.3333V6.66675C12.417 6.66675 11.6667 7.41699 11.6667 8.33325ZM18.3333 18.3333H13.3333V8.33325H18.3333V18.3333Z" fill="#717171"/>
<path d="M15.8332 17.5005C16.2934 17.5005 16.6665 17.1274 16.6665 16.6672C16.6665 16.207 16.2934 15.834 15.8332 15.834C15.373 15.834 15 16.207 15 16.6672C15 17.1274 15.373 17.5005 15.8332 17.5005Z" fill="#717171"/>
</g>
</g>
<defs>
<clipPath id="clip0_3598_230">
<rect width="20" height="20" fill="white"/>
</clipPath>
</defs>
</svg>
