<svg width="29" height="32" viewBox="0 0 29 32" fill="none" xmlns="http://www.w3.org/2000/svg">
<path d="M2 18.8V13.2C2 7.9206 2 5.2802 3.6408 3.6408C5.2802 2 7.9206 2 13.2 2H16C21.2794 2 23.9198 2 25.5592 3.6408C26.4748 4.555 26.8794 5.78 27.0572 7.6M27.2 13.2V18.8C27.2 24.0794 27.2 26.7198 25.5592 28.3592C23.9198 30 21.2794 30 16 30H13.2C7.9206 30 5.2802 30 3.6408 28.3592C2.7252 27.445 2.3206 26.22 2.1428 24.4M9 18.8H16M9 13.2H10.4M20.2 13.2H14.6" stroke="black" stroke-width="3" stroke-linecap="round"/>
</svg>
