<svg width="21" height="24" viewBox="0 0 21 24" fill="none" xmlns="http://www.w3.org/2000/svg">
<path d="M1 21.8421V19.5263C1 18.2979 1.48797 17.1199 2.35656 16.2513C3.22515 15.3827 4.40321 14.8947 5.63158 14.8947H10.2632C10.6592 14.8947 11.0436 14.9445 11.4095 15.0383M16.0526 16.0526V23M16.0526 23L19.5263 19.5263M16.0526 23L12.5789 19.5263M3.31579 5.63158C3.31579 6.85995 3.80376 8.03801 4.67235 8.9066C5.54094 9.77519 6.719 10.2632 7.94737 10.2632C9.17574 10.2632 10.3538 9.77519 11.2224 8.9066C12.091 8.03801 12.5789 6.85995 12.5789 5.63158C12.5789 4.40321 12.091 3.22515 11.2224 2.35656C10.3538 1.48797 9.17574 1 7.94737 1C6.719 1 5.54094 1.48797 4.67235 2.35656C3.80376 3.22515 3.31579 4.40321 3.31579 5.63158Z" stroke="#515151" stroke-width="2" stroke-linecap="round" stroke-linejoin="round"/>
</svg>
