<svg width="256" height="256" viewBox="0 0 256 256" fill="none" xmlns="http://www.w3.org/2000/svg">
<path d="M53 24C47.2643 24 41.6575 25.7888 36.8885 29.1402C32.1194 32.4916 28.4024 37.255 26.2075 42.8281C24.0126 48.4013 23.4383 54.5338 24.5572 60.4502C25.6762 66.3667 28.4382 71.8012 32.4939 76.0667C36.5496 80.3322 41.7169 83.2371 47.3424 84.4139C52.9678 85.5908 58.7988 84.9868 64.0978 82.6783C69.3969 80.3698 73.9261 76.4606 77.1126 71.4449C80.2992 66.4292 82 60.5323 82 54.5C81.9919 46.4135 78.9339 38.6607 73.4971 32.9427C68.0603 27.2247 60.6888 24.0085 53 24ZM45.6468 66.2308H60.3532C58.8558 71.6093 56.3462 76.4571 53 80.2754C49.6539 76.4571 47.1442 71.6093 45.6468 66.2308ZM44.6346 61.5385C43.8948 56.8784 43.8948 52.1216 44.6346 47.4615H61.3654C62.1053 52.1216 62.1053 56.8784 61.3654 61.5385H44.6346ZM28.4616 54.5C28.4596 52.1199 28.7721 49.7511 29.3901 47.4615H40.1145C39.449 52.1277 39.449 56.8722 40.1145 61.5385H29.3901C28.7721 59.2489 28.4596 56.8801 28.4616 54.5ZM60.3532 42.7692H45.6468C47.1442 37.3907 49.6539 32.5429 53 28.7246C56.3462 32.5429 58.8558 37.3907 60.3532 42.7692ZM65.8855 47.4615H76.6099C77.848 52.0635 77.848 56.9365 76.6099 61.5385H65.8855C66.551 56.8722 66.551 52.1277 65.8855 47.4615ZM74.8532 42.7692H64.9737C63.8352 38.0579 61.9234 33.5918 59.3242 29.5721C62.6449 30.5106 65.742 32.1697 68.4164 34.4425C71.0909 36.7154 73.2835 39.5517 74.8532 42.7692ZM46.6758 29.5721C44.0766 33.5918 42.1648 38.0579 41.0264 42.7692H31.1468C32.7165 39.5517 34.9091 36.7154 37.5836 34.4425C40.258 32.1697 43.3551 30.5106 46.6758 29.5721ZM31.1468 66.2308H41.0264C42.1648 70.9421 44.0766 75.4082 46.6758 79.4279C43.3551 78.4893 40.258 76.8303 37.5836 74.5575C34.9091 72.2846 32.7165 69.4482 31.1468 66.2308ZM59.3242 79.4279C61.9234 75.4082 63.8352 70.9421 64.9737 66.2308H74.8532C73.2835 69.4482 71.0909 72.2846 68.4164 74.5575C65.742 76.8303 62.6449 78.4893 59.3242 79.4279Z" fill="#888888"/>
</svg>
