<svg width="20" height="20" viewBox="0 0 20 20" fill="none" xmlns="http://www.w3.org/2000/svg">
<g clip-path="url(#clip0_3598_238)">
<mask id="mask0_3598_238" style="mask-type:luminance" maskUnits="userSpaceOnUse" x="0" y="0" width="20" height="20">
<path d="M20 0H0V20H20V0Z" fill="white"/>
</mask>
<g mask="url(#mask0_3598_238)">
<path d="M10 0.5C4.74936 0.5 0.5 4.74888 0.5 10C0.5 15.2506 4.74888 19.5 10 19.5C15.2506 19.5 19.5 15.2511 19.5 10C19.5 4.74936 15.2511 0.5 10 0.5ZM10 18.1744C5.49262 18.1744 1.82558 14.5074 1.82558 10C1.82558 5.49258 5.49262 1.82558 10 1.82558C14.5074 1.82558 18.1744 5.49258 18.1744 10C18.1744 14.5074 14.5074 18.1744 10 18.1744Z" fill="#717171" stroke="#717171" stroke-width="0.3"/>
<path d="M10.2035 13.1533C9.65065 13.1533 9.20312 13.614 9.20312 14.1668C9.20312 14.7066 9.63749 15.1804 10.2035 15.1804C10.7695 15.1804 11.217 14.7066 11.217 14.1668C11.217 13.614 10.7563 13.1533 10.2035 13.1533Z" fill="#717171"/>
<path d="M10.3744 5.47949C8.59735 5.47949 7.78125 6.53258 7.78125 7.24336C7.78125 7.75672 8.21563 7.99367 8.57102 7.99367C9.28184 7.99367 8.99227 6.98008 10.3348 6.98008C10.993 6.98008 11.5195 7.26969 11.5195 7.8752C11.5195 8.58598 10.7824 8.99402 10.348 9.36258C9.96629 9.6916 9.46614 10.2313 9.46614 11.3634C9.46614 12.0478 9.65043 12.2453 10.19 12.2453C10.835 12.2453 10.9666 11.9557 10.9666 11.7055C10.9666 11.0211 10.9799 10.6262 11.7039 10.0602C12.0593 9.78379 13.178 8.88867 13.178 7.65137C13.178 6.41406 12.0593 5.47949 10.3744 5.47949Z" fill="#717171"/>
</g>
</g>
<defs>
<clipPath id="clip0_3598_238">
<rect width="20" height="20" fill="white"/>
</clipPath>
</defs>
</svg>
