<svg width="20" height="20" viewBox="0 0 20 20" fill="none" xmlns="http://www.w3.org/2000/svg">
<g clip-path="url(#clip0_1989_6102)">
<mask id="mask0_1989_6102" style="mask-type:luminance" maskUnits="userSpaceOnUse" x="0" y="0" width="20" height="20">
<path d="M20 0H0V20H20V0Z" fill="white"/>
</mask>
<g mask="url(#mask0_1989_6102)">
<path d="M18.9879 8.76408L18.9864 8.76263L11.2359 1.01243C10.9056 0.681923 10.4663 0.5 9.99915 0.5C9.53195 0.5 9.09272 0.681923 8.76222 1.01243L1.01578 8.75872C1.01317 8.76133 1.01042 8.76408 1.00795 8.76669C0.329548 9.44901 0.330708 10.5561 1.01129 11.2366C1.32222 11.5477 1.73275 11.7278 2.17183 11.7467C2.1898 11.7485 2.20778 11.7494 2.2259 11.7494H2.53466V17.4529C2.53466 18.5817 3.45311 19.5 4.58191 19.5H7.61415C7.9216 19.5 8.17079 19.2507 8.17079 18.9434V14.4717C8.17079 13.9566 8.58986 13.5377 9.1049 13.5377H10.8934C11.4084 13.5377 11.8274 13.9566 11.8274 14.4717V18.9434C11.8274 19.2507 12.0765 19.5 12.384 19.5H15.4162C16.5452 19.5 17.4635 18.5817 17.4635 17.4529V11.7494H17.7499C18.217 11.7494 18.6562 11.5674 18.9869 11.2368C19.6682 10.5552 19.6685 9.44611 18.9879 8.76408ZM18.1996 10.4497C18.0794 10.5698 17.9197 10.6361 17.7499 10.6361H16.9069C16.5994 10.6361 16.3502 10.8853 16.3502 11.1927V17.4529C16.3502 17.9678 15.9313 18.3867 15.4162 18.3867H12.9406V14.4717C12.9406 13.3429 12.0223 12.4244 10.8934 12.4244H9.1049C7.97596 12.4244 7.05751 13.3429 7.05751 14.4717V18.3867H4.58191C4.06701 18.3867 3.64794 17.9678 3.64794 17.4529V11.1927C3.64794 10.8853 3.39875 10.6361 3.0913 10.6361H2.26271C2.25402 10.6355 2.24546 10.6351 2.23662 10.6349C2.07079 10.632 1.91525 10.5662 1.7987 10.4495C1.55082 10.2016 1.55082 9.79822 1.7987 9.55019L1.79943 9.54947L9.54963 1.79955C9.66966 1.67938 9.82926 1.61328 9.99915 1.61328C10.1689 1.61328 10.3285 1.67938 10.4487 1.79955L18.1971 9.54787L18.2008 9.55135C18.4473 9.79967 18.4469 10.2022 18.1996 10.4497Z" fill="#652DBF"/>
<path d="M1.7987 9.55019C1.55082 9.79822 1.55082 10.2016 1.7987 10.4495C1.91525 10.5662 2.07079 10.632 2.23662 10.6349C2.24546 10.6351 2.25402 10.6355 2.26271 10.6361H3.0913C3.39875 10.6361 3.64794 10.8853 3.64794 11.1927V17.4529C3.64794 17.9678 4.06701 18.3867 4.58191 18.3867H7.05751V14.4717C7.05751 13.3429 7.97596 12.4244 9.1049 12.4244H10.8934C12.0223 12.4244 12.9406 13.3429 12.9406 14.4717V18.3867H15.4162C15.9313 18.3867 16.3502 17.9678 16.3502 17.4529V11.1927C16.3502 10.8853 16.5994 10.6361 16.9069 10.6361H17.7499C17.9197 10.6361 18.0794 10.5698 18.1996 10.4497C18.4469 10.2022 18.4473 9.79967 18.2008 9.55135L18.1971 9.54787L10.4487 1.79955C10.3285 1.67938 10.1689 1.61328 9.99915 1.61328C9.82926 1.61328 9.66966 1.67938 9.54963 1.79955L1.79943 9.54947L1.7987 9.55019ZM18.9879 8.76408L18.9864 8.76263L11.2359 1.01243C10.9056 0.681923 10.4663 0.5 9.99915 0.5C9.53195 0.5 9.09272 0.681923 8.76222 1.01243L1.01578 8.75872C1.01317 8.76133 1.01042 8.76408 1.00795 8.76669C0.329548 9.44901 0.330708 10.5561 1.01129 11.2366C1.32222 11.5477 1.73275 11.7278 2.17183 11.7467C2.1898 11.7485 2.20778 11.7494 2.2259 11.7494H2.53466V17.4529C2.53466 18.5817 3.45311 19.5 4.58191 19.5H7.61415C7.9216 19.5 8.17079 19.2507 8.17079 18.9434V14.4717C8.17079 13.9566 8.58986 13.5377 9.1049 13.5377H10.8934C11.4084 13.5377 11.8274 13.9566 11.8274 14.4717V18.9434C11.8274 19.2507 12.0765 19.5 12.384 19.5H15.4162C16.5452 19.5 17.4635 18.5817 17.4635 17.4529V11.7494H17.7499C18.217 11.7494 18.6562 11.5674 18.9869 11.2368C19.6682 10.5552 19.6685 9.44611 18.9879 8.76408Z" stroke="#652DBF" stroke-width="0.3"/>
</g>
</g>
<defs>
<clipPath id="clip0_1989_6102">
<rect width="20" height="20" fill="white"/>
</clipPath>
</defs>
</svg>
