<svg width="32" height="32" viewBox="0 0 32 32" fill="none" xmlns="http://www.w3.org/2000/svg">
<path d="M13.1763 13.1768C14.6259 11.7272 16.5773 10.8903 18.6267 10.8391C20.6762 10.788 22.6668 11.5265 24.187 12.9019L24.4763 13.1768L28.9956 17.6977C30.4675 19.1722 31.3053 21.1633 31.3304 23.2466C31.3555 25.3298 30.5659 27.3405 29.1299 28.85C27.694 30.3595 25.7253 31.2485 23.6433 31.3274C21.5614 31.4064 19.531 30.669 17.9849 29.2726L17.6972 28.9977L14.3061 25.6066C14.0195 25.319 13.8531 24.9331 13.8407 24.5273C13.8283 24.1215 13.9709 23.7261 14.2394 23.4216C14.5079 23.1171 14.8823 22.9262 15.2865 22.8877C15.6907 22.8492 16.0944 22.9659 16.4156 23.2143L16.5658 23.3469L19.9569 26.7381C20.836 27.6222 22.0249 28.1292 23.2715 28.1514C24.5181 28.1735 25.7243 27.7092 26.6343 26.8568C27.5442 26.0045 28.0863 24.8312 28.1456 23.5858C28.2049 22.3404 27.7766 21.1209 26.9517 20.1859L26.736 19.9574L22.2166 15.4381C21.7714 14.9928 21.2429 14.6396 20.6611 14.3986C20.0794 14.1576 19.4559 14.0336 18.8263 14.0336C18.1966 14.0336 17.5731 14.1576 16.9914 14.3986C16.4097 14.6396 15.8812 14.9928 15.436 15.4381C15.1361 15.7377 14.7295 15.906 14.3056 15.9058C13.8816 15.9057 13.4751 15.7371 13.1755 15.4373C12.8758 15.1374 12.7076 14.7308 12.7077 14.3069C12.7079 13.8829 12.8764 13.4764 13.1763 13.1768ZM3.00613 3.00664C4.45579 1.55707 6.40715 0.720156 8.45658 0.668995C10.506 0.617834 12.4967 1.35634 14.0169 2.73177L14.3061 3.00664L17.6956 6.39935C17.9823 6.68694 18.1487 7.07283 18.161 7.47867C18.1734 7.8845 18.0309 8.27983 17.7624 8.58437C17.4938 8.8889 17.1195 9.07981 16.7153 9.11832C16.3111 9.15682 15.9074 9.04003 15.5862 8.79167L15.436 8.65903L12.0464 5.26951C11.1659 4.39466 9.98028 3.89545 8.73913 3.87691C7.49797 3.85836 6.29801 4.32193 5.39168 5.17009C4.48535 6.01825 3.94331 7.18487 3.8796 8.42452C3.81589 9.66418 4.23547 10.8802 5.05007 11.8168L5.26581 12.047L9.78677 16.5679C10.6858 17.4667 11.905 17.9716 13.1763 17.9716C14.4475 17.9716 15.6668 17.4667 16.5658 16.5679C16.7142 16.4194 16.8903 16.3016 17.0842 16.2212C17.2781 16.1408 17.486 16.0994 17.6959 16.0993C17.9058 16.0993 18.1136 16.1405 18.3076 16.2208C18.5016 16.3011 18.6778 16.4187 18.8263 16.5671C18.9748 16.7155 19.0926 16.8916 19.173 17.0855C19.2533 17.2794 19.2948 17.4873 19.2948 17.6972C19.2949 17.9071 19.2536 18.115 19.1734 18.3089C19.0931 18.5029 18.9755 18.6791 18.8271 18.8276C17.3774 20.2771 15.4261 21.1141 13.3766 21.1652C11.3272 21.2164 9.33652 20.4779 7.81634 19.1025L7.52549 18.8276L3.00613 14.3066C1.50817 12.8082 0.666656 10.7762 0.666656 8.65743C0.666656 6.53867 1.50817 4.50505 3.00613 3.00664Z" fill="black"/>
</svg>
