<svg width="20" height="20" viewBox="0 0 20 20" fill="none" xmlns="http://www.w3.org/2000/svg">
<g clip-path="url(#clip0_3599_258)">
<path d="M16.9662 7.26221L16.9663 7.26203C17.076 7.15229 17.2541 7.15216 17.364 7.26212L19.1135 9.01154C19.6798 9.57785 19.6798 10.5003 19.1135 11.0666L17.364 12.816C17.3089 12.8711 17.2379 12.8984 17.1651 12.8984C17.0925 12.8984 17.0214 12.8711 16.9663 12.816L16.9662 12.8159C16.8564 12.7062 16.8564 12.5282 16.9662 12.4185L16.9663 12.4184L18.2106 11.1738L19.0641 10.3203H17.8571H8.47656C8.32119 10.3203 8.19531 10.1944 8.19531 10.0391C8.19531 9.88369 8.32119 9.75781 8.47656 9.75781H17.8571H19.0641L18.2106 8.90428L16.9663 7.65977L16.9662 7.65966C16.8564 7.54992 16.8564 7.37195 16.9662 7.26221ZM13.6406 15.3125V16.875C13.6406 18.322 12.4627 19.5 11.0156 19.5H3.16406C1.71703 19.5 0.539062 18.322 0.539062 16.875V3.125C0.539062 1.67797 1.71703 0.5 3.16406 0.5H11.0156C12.4627 0.5 13.6406 1.67797 13.6406 3.125V4.6875C13.6406 4.84288 13.5148 4.96875 13.3594 4.96875C13.204 4.96875 13.0781 4.84288 13.0781 4.6875V3.125C13.0781 1.98735 12.1533 1.0625 11.0156 1.0625H3.16406C2.02641 1.0625 1.10156 1.98735 1.10156 3.125V16.875C1.10156 18.0127 2.02641 18.9375 3.16406 18.9375H11.0156C12.1533 18.9375 13.0781 18.0127 13.0781 16.875V15.3125C13.0781 15.1571 13.204 15.0312 13.3594 15.0312C13.5148 15.0312 13.6406 15.1571 13.6406 15.3125Z" stroke="#717171"/>
</g>
<defs>
<clipPath id="clip0_3599_258">
<rect width="20" height="20" fill="white"/>
</clipPath>
</defs>
</svg>
