<svg width="20" height="20" viewBox="0 0 20 20" fill="none" xmlns="http://www.w3.org/2000/svg">
<g clip-path="url(#clip0_3526_22)">
<path d="M16.8955 7.19148L16.8956 7.19134C17.0444 7.04251 17.2857 7.04241 17.4347 7.19141L19.1842 8.94083C19.7895 9.54619 19.7895 10.5319 19.1842 11.1373L17.4347 12.8867C17.3602 12.9613 17.2633 12.9984 17.1651 12.9984C17.067 12.9984 16.9702 12.9613 16.8955 12.8867L16.8955 12.8866C16.7466 12.7378 16.7466 12.4965 16.8955 12.3477L16.8956 12.3476L18.1399 11.1031L18.8227 10.4203H17.8571H8.47656C8.26596 10.4203 8.09531 10.2497 8.09531 10.0391C8.09531 9.82846 8.26596 9.65781 8.47656 9.65781H17.8571H18.8227L18.1399 8.97499L16.8956 7.73048L16.8955 7.73039C16.7466 7.58159 16.7466 7.34028 16.8955 7.19148ZM13.7406 15.3125V16.875C13.7406 18.3773 12.5179 19.6 11.0156 19.6H3.16406C1.6618 19.6 0.439063 18.3773 0.439063 16.875V3.125C0.439063 1.62274 1.6618 0.4 3.16406 0.4H11.0156C12.5179 0.4 13.7406 1.62274 13.7406 3.125V4.6875C13.7406 4.8981 13.57 5.06875 13.3594 5.06875C13.1488 5.06875 12.9781 4.8981 12.9781 4.6875V3.125C12.9781 2.04257 12.0981 1.1625 11.0156 1.1625H3.16406C2.08164 1.1625 1.20156 2.04257 1.20156 3.125V16.875C1.20156 17.9574 2.08164 18.8375 3.16406 18.8375H11.0156C12.0981 18.8375 12.9781 17.9574 12.9781 16.875V15.3125C12.9781 15.1019 13.1488 14.9312 13.3594 14.9312C13.57 14.9312 13.7406 15.1019 13.7406 15.3125Z" stroke="#652DBF" stroke-width="0.8"/>
</g>
<defs>
<clipPath id="clip0_3526_22">
<rect width="20" height="20" fill="white"/>
</clipPath>
</defs>
</svg>
