<svg width="24" height="24" viewBox="0 0 24 24" fill="none" xmlns="http://www.w3.org/2000/svg">
<path d="M4.615 19C4.155 19 3.771 18.846 3.463 18.538C3.15433 18.2293 3 17.845 3 17.385V6.615C3 6.155 3.15433 5.771 3.463 5.463C3.771 5.15433 4.155 5 4.615 5H19.385C19.845 5 20.229 5.15433 20.537 5.463C20.8457 5.771 21 6.155 21 6.615V17.385C21 17.845 20.846 18.229 20.538 18.537C20.2293 18.8457 19.845 19 19.385 19H4.615ZM12 12.115L20 6.885L19.692 6L12 11L4.308 6L4 6.885L12 12.115Z" fill="black"/>
</svg>
