<svg width="12" height="20" viewBox="0 0 12 20" fill="none" xmlns="http://www.w3.org/2000/svg">
<path d="M10.6667 0.666672H1.33333C0.979711 0.666672 0.640573 0.807147 0.390525 1.0572C0.140476 1.30724 0 1.64638 0 2.00001V18C0 18.3536 0.140476 18.6928 0.390525 18.9428C0.640573 19.1929 0.979711 19.3333 1.33333 19.3333H10.6667C11.0203 19.3333 11.3594 19.1929 11.6095 18.9428C11.8595 18.6928 12 18.3536 12 18V2.00001C12 1.64638 11.8595 1.30724 11.6095 1.0572C11.3594 0.807147 11.0203 0.666672 10.6667 0.666672ZM6.66667 18H5.33333V16.6667H6.66667V18ZM1.33333 15.3333V2.00001H10.6667V15.3333H1.33333Z" fill="#515151"/>
</svg>
