<svg width="24" height="24" viewBox="0 0 24 24" fill="none" xmlns="http://www.w3.org/2000/svg">
<path d="M12.75 7C12.75 6.80109 12.671 6.61032 12.5303 6.46967C12.3897 6.32902 12.1989 6.25 12 6.25C11.8011 6.25 11.6103 6.32902 11.4697 6.46967C11.329 6.61032 11.25 6.80109 11.25 7V11.25H7C6.80109 11.25 6.61032 11.329 6.46967 11.4697C6.32902 11.6103 6.25 11.8011 6.25 12C6.25 12.1989 6.32902 12.3897 6.46967 12.5303C6.61032 12.671 6.80109 12.75 7 12.75H11.25V17C11.25 17.1989 11.329 17.3897 11.4697 17.5303C11.6103 17.671 11.8011 17.75 12 17.75C12.1989 17.75 12.3897 17.671 12.5303 17.5303C12.671 17.3897 12.75 17.1989 12.75 17V12.75H17C17.1989 12.75 17.3897 12.671 17.5303 12.5303C17.671 12.3897 17.75 12.1989 17.75 12C17.75 11.8011 17.671 11.6103 17.5303 11.4697C17.3897 11.329 17.1989 11.25 17 11.25H12.75V7Z" fill="#888888"/>
</svg>
