<svg width="136" height="136" viewBox="0 0 136 136" fill="none" xmlns="http://www.w3.org/2000/svg">
<g clip-path="url(#clip0_2198_5004)">
<path d="M115.31 1.98047H20.6905C10.3573 1.98047 1.98059 10.3572 1.98059 20.6904V115.309C1.98059 125.643 10.3573 134.019 20.6905 134.019H115.31C125.643 134.019 134.019 125.643 134.019 115.309V20.6904C134.019 10.3572 125.643 1.98047 115.31 1.98047Z" stroke="black" stroke-width="3" stroke-miterlimit="10"/>
<path d="M87.8058 19.5812C89.0205 19.5812 90.0108 18.5909 90.0108 17.3762C90.0108 16.1614 89.0205 15.1711 87.8058 15.1711C86.591 15.1711 85.6007 16.1614 85.6007 17.3762C85.6007 18.5909 86.591 19.5812 87.8058 19.5812Z" fill="black"/>
<path d="M83.4089 19.5812C84.6237 19.5812 85.6139 18.5909 85.6139 17.3762C85.6139 16.1614 84.6237 15.1711 83.4089 15.1711C82.1941 15.1711 81.2039 16.1614 81.2039 17.3762C81.2039 18.5909 82.1941 19.5812 83.4089 19.5812Z" fill="black"/>
<path d="M78.9989 19.5812C80.2136 19.5812 81.2039 18.5909 81.2039 17.3762C81.2039 16.1614 80.2136 15.1711 78.9989 15.1711C77.7841 15.1711 76.7938 16.1614 76.7938 17.3762C76.7938 18.5909 77.7841 19.5812 78.9989 19.5812Z" fill="black"/>
<path d="M70.205 19.5812C71.4198 19.5812 72.4101 18.5909 72.4101 17.3762C72.4101 16.1614 71.4198 15.1711 70.205 15.1711C68.9903 15.1711 68 16.1614 68 17.3762C68 18.5909 68.9903 19.5812 70.205 19.5812Z" fill="black"/>
<path d="M61.398 19.5812C62.6128 19.5812 63.6031 18.5909 63.6031 17.3762C63.6031 16.1614 62.626 15.1711 61.398 15.1711C60.1701 15.1711 59.193 16.1614 59.193 17.3762C59.193 18.5909 60.1701 19.5812 61.398 19.5812Z" fill="black"/>
<path d="M52.591 19.5812C53.8058 19.5812 54.7961 18.5909 54.7961 17.3762C54.7961 16.1614 53.8058 15.1711 52.591 15.1711C51.3763 15.1711 50.386 16.1614 50.386 17.3762C50.386 18.5909 51.3763 19.5812 52.591 19.5812Z" fill="black"/>
<path d="M48.1942 19.5812C49.4089 19.5812 50.3992 18.5909 50.3992 17.3762C50.3992 16.1614 49.4221 15.1711 48.1942 15.1711C46.9662 15.1711 45.9891 16.1614 45.9891 17.3762C45.9891 18.5909 46.9662 19.5812 48.1942 19.5812Z" fill="black"/>
<path d="M39.3872 19.5812C40.6019 19.5812 41.5922 18.5909 41.5922 17.3762C41.5922 16.1614 40.6019 15.1711 39.3872 15.1711C38.1724 15.1711 37.1821 16.1614 37.1821 17.3762C37.1821 18.5909 38.1724 19.5812 39.3872 19.5812Z" fill="black"/>
<path d="M34.9903 19.5812C36.2051 19.5812 37.1954 18.5909 37.1954 17.3762C37.1954 16.1614 36.2183 15.1711 34.9903 15.1711C33.7624 15.1711 32.7853 16.1614 32.7853 17.3762C32.7853 18.5909 33.7624 19.5812 34.9903 19.5812Z" fill="black"/>
<path d="M30.5934 19.5812C31.8081 19.5812 32.7984 18.5909 32.7984 17.3762C32.7984 16.1614 31.8081 15.1711 30.5934 15.1711C29.3786 15.1711 28.3883 16.1614 28.3883 17.3762C28.3883 18.5909 29.3786 19.5812 30.5934 19.5812Z" fill="black"/>
<path d="M21.7863 19.5812C23.0011 19.5812 23.9914 18.5909 23.9914 17.3762C23.9914 16.1614 23.0143 15.1711 21.7863 15.1711C20.5584 15.1711 19.5813 16.1614 19.5813 17.3762C19.5813 18.5909 20.5584 19.5812 21.7863 19.5812Z" fill="black"/>
<path d="M87.8058 23.9914C89.0205 23.9914 90.0108 23.0143 90.0108 21.7863C90.0108 20.5584 89.0205 19.5813 87.8058 19.5813C86.591 19.5813 85.6007 20.5584 85.6007 21.7863C85.6007 23.0143 86.591 23.9914 87.8058 23.9914Z" fill="black"/>
<path d="M78.9989 23.9914C80.2136 23.9914 81.2039 23.0143 81.2039 21.7863C81.2039 20.5584 80.2136 19.5813 78.9989 19.5813C77.7841 19.5813 76.7938 20.5584 76.7938 21.7863C76.7938 23.0143 77.7841 23.9914 78.9989 23.9914Z" fill="black"/>
<path d="M74.6019 23.9914C75.8167 23.9914 76.8069 23.0143 76.8069 21.7863C76.8069 20.5584 75.8167 19.5813 74.6019 19.5813C73.3871 19.5813 72.3969 20.5584 72.3969 21.7863C72.3969 23.0143 73.3871 23.9914 74.6019 23.9914Z" fill="black"/>
<path d="M70.205 23.9914C71.4198 23.9914 72.4101 23.0143 72.4101 21.7863C72.4101 20.5584 71.4198 19.5813 70.205 19.5813C68.9903 19.5813 68 20.5584 68 21.7863C68 23.0143 68.9903 23.9914 70.205 23.9914Z" fill="black"/>
<path d="M65.7949 23.9914C67.0097 23.9914 67.9999 23.0143 67.9999 21.7863C67.9999 20.5584 67.0097 19.5813 65.7949 19.5813C64.5801 19.5813 63.5898 20.5584 63.5898 21.7863C63.5898 23.0143 64.5801 23.9914 65.7949 23.9914Z" fill="black"/>
<path d="M57.0012 23.9914C58.2159 23.9914 59.2062 23.0143 59.2062 21.7863C59.2062 20.5584 58.2159 19.5813 57.0012 19.5813C55.7864 19.5813 54.7961 20.5584 54.7961 21.7863C54.7961 23.0143 55.7864 23.9914 57.0012 23.9914Z" fill="black"/>
<path d="M52.591 23.9914C53.8058 23.9914 54.7961 23.0143 54.7961 21.7863C54.7961 20.5584 53.8058 19.5813 52.591 19.5813C51.3763 19.5813 50.386 20.5584 50.386 21.7863C50.386 23.0143 51.3763 23.9914 52.591 23.9914Z" fill="black"/>
<path d="M43.7972 23.9914C45.012 23.9914 46.0023 23.0143 46.0023 21.7863C46.0023 20.5584 45.012 19.5813 43.7972 19.5813C42.5825 19.5813 41.5922 20.5584 41.5922 21.7863C41.5922 23.0143 42.5825 23.9914 43.7972 23.9914Z" fill="black"/>
<path d="M39.3872 23.9914C40.6019 23.9914 41.5922 23.0143 41.5922 21.7863C41.5922 20.5584 40.6019 19.5813 39.3872 19.5813C38.1724 19.5813 37.1821 20.5584 37.1821 21.7863C37.1821 23.0143 38.1724 23.9914 39.3872 23.9914Z" fill="black"/>
<path d="M34.9903 23.9914C36.2051 23.9914 37.1954 23.0143 37.1954 21.7863C37.1954 20.5584 36.2183 19.5813 34.9903 19.5813C33.7624 19.5813 32.7853 20.5584 32.7853 21.7863C32.7853 23.0143 33.7624 23.9914 34.9903 23.9914Z" fill="black"/>
<path d="M26.1833 23.9914C27.3981 23.9914 28.3884 23.0143 28.3884 21.7863C28.3884 20.5584 27.3981 19.5813 26.1833 19.5813C24.9686 19.5813 23.9783 20.5584 23.9783 21.7863C23.9783 23.0143 24.9686 23.9914 26.1833 23.9914Z" fill="black"/>
<path d="M21.7863 23.9914C23.0011 23.9914 23.9914 23.0143 23.9914 21.7863C23.9914 20.5584 23.0143 19.5813 21.7863 19.5813C20.5584 19.5813 19.5813 20.5584 19.5813 21.7863C19.5813 23.0143 20.5584 23.9914 21.7863 23.9914Z" fill="black"/>
<path d="M83.4089 28.3881C84.6237 28.3881 85.6139 27.3978 85.6139 26.1831C85.6139 24.9683 84.6237 23.978 83.4089 23.978C82.1941 23.978 81.2039 24.9683 81.2039 26.1831C81.2039 27.3978 82.1941 28.3881 83.4089 28.3881Z" fill="black"/>
<path d="M78.9989 28.3881C80.2136 28.3881 81.2039 27.3978 81.2039 26.1831C81.2039 24.9683 80.2136 23.978 78.9989 23.978C77.7841 23.978 76.7938 24.9683 76.7938 26.1831C76.7938 27.3978 77.7841 28.3881 78.9989 28.3881Z" fill="black"/>
<path d="M65.7949 28.3881C67.0097 28.3881 67.9999 27.3978 67.9999 26.1831C67.9999 24.9683 67.0097 23.978 65.7949 23.978C64.5801 23.978 63.5898 24.9683 63.5898 26.1831C63.5898 27.3978 64.5801 28.3881 65.7949 28.3881Z" fill="black"/>
<path d="M61.398 28.3881C62.6128 28.3881 63.6031 27.3978 63.6031 26.1831C63.6031 24.9683 62.626 23.978 61.398 23.978C60.1701 23.978 59.193 24.9683 59.193 26.1831C59.193 27.3978 60.1701 28.3881 61.398 28.3881Z" fill="black"/>
<path d="M57.0012 28.3881C58.2159 28.3881 59.2062 27.3978 59.2062 26.1831C59.2062 24.9683 58.2159 23.978 57.0012 23.978C55.7864 23.978 54.7961 24.9683 54.7961 26.1831C54.7961 27.3978 55.7864 28.3881 57.0012 28.3881Z" fill="black"/>
<path d="M48.1942 28.3881C49.4089 28.3881 50.3992 27.3978 50.3992 26.1831C50.3992 24.9683 49.4221 23.978 48.1942 23.978C46.9662 23.978 45.9891 24.9683 45.9891 26.1831C45.9891 27.3978 46.9662 28.3881 48.1942 28.3881Z" fill="black"/>
<path d="M43.7972 28.3881C45.012 28.3881 46.0023 27.3978 46.0023 26.1831C46.0023 24.9683 45.012 23.978 43.7972 23.978C42.5825 23.978 41.5922 24.9683 41.5922 26.1831C41.5922 27.3978 42.5825 28.3881 43.7972 28.3881Z" fill="black"/>
<path d="M34.9903 28.3881C36.2051 28.3881 37.1954 27.3978 37.1954 26.1831C37.1954 24.9683 36.2183 23.978 34.9903 23.978C33.7624 23.978 32.7853 24.9683 32.7853 26.1831C32.7853 27.3978 33.7624 28.3881 34.9903 28.3881Z" fill="black"/>
<path d="M26.1833 28.3881C27.3981 28.3881 28.3884 27.3978 28.3884 26.1831C28.3884 24.9683 27.3981 23.978 26.1833 23.978C24.9686 23.978 23.9783 24.9683 23.9783 26.1831C23.9783 27.3978 24.9686 28.3881 26.1833 28.3881Z" fill="black"/>
<path d="M17.3895 28.3881C18.6043 28.3881 19.5945 27.3978 19.5945 26.1831C19.5945 24.9683 18.6043 23.978 17.3895 23.978C16.1747 23.978 15.1844 24.9683 15.1844 26.1831C15.1844 27.3978 16.1747 28.3881 17.3895 28.3881Z" fill="black"/>
<path d="M87.8058 32.7851C89.0205 32.7851 90.0108 31.7948 90.0108 30.58C90.0108 29.3653 89.0205 28.375 87.8058 28.375C86.591 28.375 85.6007 29.3653 85.6007 30.58C85.6007 31.7948 86.591 32.7851 87.8058 32.7851Z" fill="black"/>
<path d="M83.4089 32.7851C84.6237 32.7851 85.6139 31.7948 85.6139 30.58C85.6139 29.3653 84.6237 28.375 83.4089 28.375C82.1941 28.375 81.2039 29.3653 81.2039 30.58C81.2039 31.7948 82.1941 32.7851 83.4089 32.7851Z" fill="black"/>
<path d="M78.9989 32.7851C80.2136 32.7851 81.2039 31.7948 81.2039 30.58C81.2039 29.3653 80.2136 28.375 78.9989 28.375C77.7841 28.375 76.7938 29.3653 76.7938 30.58C76.7938 31.7948 77.7841 32.7851 78.9989 32.7851Z" fill="black"/>
<path d="M65.7949 32.7851C67.0097 32.7851 67.9999 31.7948 67.9999 30.58C67.9999 29.3653 67.0097 28.375 65.7949 28.375C64.5801 28.375 63.5898 29.3653 63.5898 30.58C63.5898 31.7948 64.5801 32.7851 65.7949 32.7851Z" fill="black"/>
<path d="M61.398 32.7851C62.6128 32.7851 63.6031 31.7948 63.6031 30.58C63.6031 29.3653 62.626 28.375 61.398 28.375C60.1701 28.375 59.193 29.3653 59.193 30.58C59.193 31.7948 60.1701 32.7851 61.398 32.7851Z" fill="black"/>
<path d="M52.591 32.7851C53.8058 32.7851 54.7961 31.7948 54.7961 30.58C54.7961 29.3653 53.8058 28.375 52.591 28.375C51.3763 28.375 50.386 29.3653 50.386 30.58C50.386 31.7948 51.3763 32.7851 52.591 32.7851Z" fill="black"/>
<path d="M21.7863 32.7851C23.0011 32.7851 23.9914 31.7948 23.9914 30.58C23.9914 29.3653 23.0143 28.375 21.7863 28.375C20.5584 28.375 19.5813 29.3653 19.5813 30.58C19.5813 31.7948 20.5584 32.7851 21.7863 32.7851Z" fill="black"/>
<path d="M17.3895 32.7851C18.6043 32.7851 19.5945 31.7948 19.5945 30.58C19.5945 29.3653 18.6043 28.375 17.3895 28.375C16.1747 28.375 15.1844 29.3653 15.1844 30.58C15.1844 31.7948 16.1747 32.7851 17.3895 32.7851Z" fill="black"/>
<path d="M87.8058 37.1953C89.0205 37.1953 90.0108 36.2182 90.0108 34.9902C90.0108 33.7622 89.0205 32.7852 87.8058 32.7852C86.591 32.7852 85.6007 33.7622 85.6007 34.9902C85.6007 36.2182 86.591 37.1953 87.8058 37.1953Z" fill="black"/>
<path d="M78.9989 37.1953C80.2136 37.1953 81.2039 36.2182 81.2039 34.9902C81.2039 33.7622 80.2136 32.7852 78.9989 32.7852C77.7841 32.7852 76.7938 33.7622 76.7938 34.9902C76.7938 36.2182 77.7841 37.1953 78.9989 37.1953Z" fill="black"/>
<path d="M74.6019 37.1953C75.8167 37.1953 76.8069 36.2182 76.8069 34.9902C76.8069 33.7622 75.8167 32.7852 74.6019 32.7852C73.3871 32.7852 72.3969 33.7622 72.3969 34.9902C72.3969 36.2182 73.3871 37.1953 74.6019 37.1953Z" fill="black"/>
<path d="M65.7949 37.1953C67.0097 37.1953 67.9999 36.2182 67.9999 34.9902C67.9999 33.7622 67.0097 32.7852 65.7949 32.7852C64.5801 32.7852 63.5898 33.7622 63.5898 34.9902C63.5898 36.2182 64.5801 37.1953 65.7949 37.1953Z" fill="black"/>
<path d="M61.398 37.1953C62.6128 37.1953 63.6031 36.2182 63.6031 34.9902C63.6031 33.7622 62.626 32.7852 61.398 32.7852C60.1701 32.7852 59.193 33.7622 59.193 34.9902C59.193 36.2182 60.1701 37.1953 61.398 37.1953Z" fill="black"/>
<path d="M52.591 37.1953C53.8058 37.1953 54.7961 36.2182 54.7961 34.9902C54.7961 33.7622 53.8058 32.7852 52.591 32.7852C51.3763 32.7852 50.386 33.7622 50.386 34.9902C50.386 36.2182 51.3763 37.1953 52.591 37.1953Z" fill="black"/>
<path d="M21.7863 37.1953C23.0011 37.1953 23.9914 36.2182 23.9914 34.9902C23.9914 33.7622 23.0143 32.7852 21.7863 32.7852C20.5584 32.7852 19.5813 33.7622 19.5813 34.9902C19.5813 36.2182 20.5584 37.1953 21.7863 37.1953Z" fill="black"/>
<path d="M87.8058 41.5922C89.0205 41.5922 90.0108 40.6019 90.0108 39.3872C90.0108 38.1724 89.0205 37.1821 87.8058 37.1821C86.591 37.1821 85.6007 38.1724 85.6007 39.3872C85.6007 40.6019 86.591 41.5922 87.8058 41.5922Z" fill="black"/>
<path d="M78.9989 41.5922C80.2136 41.5922 81.2039 40.6019 81.2039 39.3872C81.2039 38.1724 80.2136 37.1821 78.9989 37.1821C77.7841 37.1821 76.7938 38.1724 76.7938 39.3872C76.7938 40.6019 77.7841 41.5922 78.9989 41.5922Z" fill="black"/>
<path d="M70.205 41.5922C71.4198 41.5922 72.4101 40.6019 72.4101 39.3872C72.4101 38.1724 71.4198 37.1821 70.205 37.1821C68.9903 37.1821 68 38.1724 68 39.3872C68 40.6019 68.9903 41.5922 70.205 41.5922Z" fill="black"/>
<path d="M61.398 41.5922C62.6128 41.5922 63.6031 40.6019 63.6031 39.3872C63.6031 38.1724 62.626 37.1821 61.398 37.1821C60.1701 37.1821 59.193 38.1724 59.193 39.3872C59.193 40.6019 60.1701 41.5922 61.398 41.5922Z" fill="black"/>
<path d="M57.0012 41.5922C58.2159 41.5922 59.2062 40.6019 59.2062 39.3872C59.2062 38.1724 58.2159 37.1821 57.0012 37.1821C55.7864 37.1821 54.7961 38.1724 54.7961 39.3872C54.7961 40.6019 55.7864 41.5922 57.0012 41.5922Z" fill="black"/>
<path d="M26.1833 41.5922C27.3981 41.5922 28.3884 40.6019 28.3884 39.3872C28.3884 38.1724 27.3981 37.1821 26.1833 37.1821C24.9686 37.1821 23.9783 38.1724 23.9783 39.3872C23.9783 40.6019 24.9686 41.5922 26.1833 41.5922Z" fill="black"/>
<path d="M21.7863 41.5922C23.0011 41.5922 23.9914 40.6019 23.9914 39.3872C23.9914 38.1724 23.0143 37.1821 21.7863 37.1821C20.5584 37.1821 19.5813 38.1724 19.5813 39.3872C19.5813 40.6019 20.5584 41.5922 21.7863 41.5922Z" fill="black"/>
<path d="M17.3895 41.5922C18.6043 41.5922 19.5945 40.6019 19.5945 39.3872C19.5945 38.1724 18.6043 37.1821 17.3895 37.1821C16.1747 37.1821 15.1844 38.1724 15.1844 39.3872C15.1844 40.6019 16.1747 41.5922 17.3895 41.5922Z" fill="black"/>
<path d="M83.4089 45.989C84.6237 45.989 85.6139 44.9987 85.6139 43.7839C85.6139 42.5691 84.6237 41.5789 83.4089 41.5789C82.1941 41.5789 81.2039 42.5691 81.2039 43.7839C81.2039 44.9987 82.1941 45.989 83.4089 45.989Z" fill="black"/>
<path d="M78.9989 45.989C80.2136 45.989 81.2039 44.9987 81.2039 43.7839C81.2039 42.5691 80.2136 41.5789 78.9989 41.5789C77.7841 41.5789 76.7938 42.5691 76.7938 43.7839C76.7938 44.9987 77.7841 45.989 78.9989 45.989Z" fill="black"/>
<path d="M74.6019 45.989C75.8167 45.989 76.8069 44.9987 76.8069 43.7839C76.8069 42.5691 75.8167 41.5789 74.6019 41.5789C73.3871 41.5789 72.3969 42.5691 72.3969 43.7839C72.3969 44.9987 73.3871 45.989 74.6019 45.989Z" fill="black"/>
<path d="M70.205 45.989C71.4198 45.989 72.4101 44.9987 72.4101 43.7839C72.4101 42.5691 71.4198 41.5789 70.205 41.5789C68.9903 41.5789 68 42.5691 68 43.7839C68 44.9987 68.9903 45.989 70.205 45.989Z" fill="black"/>
<path d="M65.7949 45.989C67.0097 45.989 67.9999 44.9987 67.9999 43.7839C67.9999 42.5691 67.0097 41.5789 65.7949 41.5789C64.5801 41.5789 63.5898 42.5691 63.5898 43.7839C63.5898 44.9987 64.5801 45.989 65.7949 45.989Z" fill="black"/>
<path d="M57.0012 45.989C58.2159 45.989 59.2062 44.9987 59.2062 43.7839C59.2062 42.5691 58.2159 41.5789 57.0012 41.5789C55.7864 41.5789 54.7961 42.5691 54.7961 43.7839C54.7961 44.9987 55.7864 45.989 57.0012 45.989Z" fill="black"/>
<path d="M52.591 45.989C53.8058 45.989 54.7961 44.9987 54.7961 43.7839C54.7961 42.5691 53.8058 41.5789 52.591 41.5789C51.3763 41.5789 50.386 42.5691 50.386 43.7839C50.386 44.9987 51.3763 45.989 52.591 45.989Z" fill="black"/>
<path d="M26.1833 45.989C27.3981 45.989 28.3884 44.9987 28.3884 43.7839C28.3884 42.5691 27.3981 41.5789 26.1833 41.5789C24.9686 41.5789 23.9783 42.5691 23.9783 43.7839C23.9783 44.9987 24.9686 45.989 26.1833 45.989Z" fill="black"/>
<path d="M32.7852 41.5922C34 41.5922 34.9903 40.6019 34.9903 39.3872C34.9903 38.1724 34 37.1821 32.7852 37.1821C31.5705 37.1821 30.5802 38.1724 30.5802 39.3872C30.5802 40.6019 31.5705 41.5922 32.7852 41.5922Z" fill="black"/>
<path d="M26.8698 36.601C28.0846 36.601 29.0749 35.6107 29.0749 34.396C29.0749 33.1812 28.0846 32.1909 26.8698 32.1909C25.6551 32.1909 24.6648 33.1812 24.6648 34.396C24.6648 35.6107 25.6551 36.601 26.8698 36.601Z" fill="black"/>
<path d="M31.9666 34.9902C33.1814 34.9902 34.1717 33.9999 34.1717 32.7851C34.1717 31.5704 33.1814 30.5801 31.9666 30.5801C30.7519 30.5801 29.7616 31.5704 29.7616 32.7851C29.7616 33.9999 30.7519 34.9902 31.9666 34.9902Z" fill="black"/>
<path d="M30.5934 30.5932C31.8081 30.5932 32.7984 29.6029 32.7984 28.3882C32.7984 27.1734 31.8081 26.1831 30.5934 26.1831C29.3786 26.1831 28.3883 27.1734 28.3883 28.3882C28.3883 29.6029 29.3786 30.5932 30.5934 30.5932Z" fill="black"/>
<path d="M17.3895 21.7863C18.6043 21.7863 19.5945 20.796 19.5945 19.5813C19.5945 18.3665 18.6043 17.3762 17.3895 17.3762C16.1747 17.3762 15.1844 18.3665 15.1844 19.5813C15.1844 20.796 16.1747 21.7863 17.3895 21.7863Z" fill="black"/>
<path d="M30.5934 49.2241C31.8081 49.2241 32.7984 48.2338 32.7984 47.019C32.7984 45.8043 31.8081 44.814 30.5934 44.814C29.3786 44.814 28.3883 45.8043 28.3883 47.019C28.3883 48.2338 29.3786 49.2241 30.5934 49.2241Z" fill="black"/>
<path d="M17.3895 45.989C18.6043 45.989 19.5945 44.9987 19.5945 43.7839C19.5945 42.5691 18.6043 41.5789 17.3895 41.5789C16.1747 41.5789 15.1844 42.5691 15.1844 43.7839C15.1844 44.9987 16.1747 45.989 17.3895 45.989Z" fill="black"/>
<path d="M118.61 50.3991C119.825 50.3991 120.815 49.422 120.815 48.1941C120.815 46.9661 119.825 45.989 118.61 45.989C117.396 45.989 116.405 46.9661 116.405 48.1941C116.405 49.422 117.396 50.3991 118.61 50.3991Z" fill="black"/>
<path d="M114.214 50.3991C115.428 50.3991 116.419 49.422 116.419 48.1941C116.419 46.9661 115.428 45.989 114.214 45.989C112.999 45.989 112.009 46.9661 112.009 48.1941C112.009 49.422 112.999 50.3991 114.214 50.3991Z" fill="black"/>
<path d="M109.817 50.3991C111.031 50.3991 112.022 49.422 112.022 48.1941C112.022 46.9661 111.031 45.989 109.817 45.989C108.602 45.989 107.612 46.9661 107.612 48.1941C107.612 49.422 108.602 50.3991 109.817 50.3991Z" fill="black"/>
<path d="M101.01 50.3991C102.224 50.3991 103.215 49.422 103.215 48.1941C103.215 46.9661 102.224 45.989 101.01 45.989C99.795 45.989 98.8047 46.9661 98.8047 48.1941C98.8047 49.422 99.795 50.3991 101.01 50.3991Z" fill="black"/>
<path d="M92.2027 50.3991C93.4175 50.3991 94.4078 49.422 94.4078 48.1941C94.4078 46.9661 93.4175 45.989 92.2027 45.989C90.988 45.989 89.9977 46.9661 89.9977 48.1941C89.9977 49.422 90.988 50.3991 92.2027 50.3991Z" fill="black"/>
<path d="M87.8058 50.3991C89.0205 50.3991 90.0108 49.422 90.0108 48.1941C90.0108 46.9661 89.0205 45.989 87.8058 45.989C86.591 45.989 85.6007 46.9661 85.6007 48.1941C85.6007 49.422 86.591 50.3991 87.8058 50.3991Z" fill="black"/>
<path d="M78.9989 50.3991C80.2136 50.3991 81.2039 49.422 81.2039 48.1941C81.2039 46.9661 80.2136 45.989 78.9989 45.989C77.7841 45.989 76.7938 46.9661 76.7938 48.1941C76.7938 49.422 77.7841 50.3991 78.9989 50.3991Z" fill="black"/>
<path d="M74.6019 50.3991C75.8167 50.3991 76.8069 49.422 76.8069 48.1941C76.8069 46.9661 75.8167 45.989 74.6019 45.989C73.3871 45.989 72.3969 46.9661 72.3969 48.1941C72.3969 49.422 73.3871 50.3991 74.6019 50.3991Z" fill="black"/>
<path d="M65.7949 50.3991C67.0097 50.3991 67.9999 49.422 67.9999 48.1941C67.9999 46.9661 67.0097 45.989 65.7949 45.989C64.5801 45.989 63.5898 46.9661 63.5898 48.1941C63.5898 49.422 64.5801 50.3991 65.7949 50.3991Z" fill="black"/>
<path d="M52.591 50.3991C53.8058 50.3991 54.7961 49.422 54.7961 48.1941C54.7961 46.9661 53.8058 45.989 52.591 45.989C51.3763 45.989 50.386 46.9661 50.386 48.1941C50.386 49.422 51.3763 50.3991 52.591 50.3991Z" fill="black"/>
<path d="M21.7863 50.3991C23.0011 50.3991 23.9914 49.422 23.9914 48.1941C23.9914 46.9661 23.0143 45.989 21.7863 45.989C20.5584 45.989 19.5813 46.9661 19.5813 48.1941C19.5813 49.422 20.5584 50.3991 21.7863 50.3991Z" fill="black"/>
<path d="M118.61 54.7961C119.825 54.7961 120.815 53.8058 120.815 52.591C120.815 51.3763 119.825 50.386 118.61 50.386C117.396 50.386 116.405 51.3763 116.405 52.591C116.405 53.8058 117.396 54.7961 118.61 54.7961Z" fill="black"/>
<path d="M109.817 54.7961C111.031 54.7961 112.022 53.8058 112.022 52.591C112.022 51.3763 111.031 50.386 109.817 50.386C108.602 50.386 107.612 51.3763 107.612 52.591C107.612 53.8058 108.602 54.7961 109.817 54.7961Z" fill="black"/>
<path d="M101.01 54.7961C102.224 54.7961 103.215 53.8058 103.215 52.591C103.215 51.3763 102.224 50.386 101.01 50.386C99.795 50.386 98.8047 51.3763 98.8047 52.591C98.8047 53.8058 99.795 54.7961 101.01 54.7961Z" fill="black"/>
<path d="M92.2027 54.7961C93.4175 54.7961 94.4078 53.8058 94.4078 52.591C94.4078 51.3763 93.4175 50.386 92.2027 50.386C90.988 50.386 89.9977 51.3763 89.9977 52.591C89.9977 53.8058 90.988 54.7961 92.2027 54.7961Z" fill="black"/>
<path d="M83.4089 54.7961C84.6237 54.7961 85.6139 53.8058 85.6139 52.591C85.6139 51.3763 84.6237 50.386 83.4089 50.386C82.1941 50.386 81.2039 51.3763 81.2039 52.591C81.2039 53.8058 82.1941 54.7961 83.4089 54.7961Z" fill="black"/>
<path d="M78.9989 54.7961C80.2136 54.7961 81.2039 53.8058 81.2039 52.591C81.2039 51.3763 80.2136 50.386 78.9989 50.386C77.7841 50.386 76.7938 51.3763 76.7938 52.591C76.7938 53.8058 77.7841 54.7961 78.9989 54.7961Z" fill="black"/>
<path d="M74.6019 54.7961C75.8167 54.7961 76.8069 53.8058 76.8069 52.591C76.8069 51.3763 75.8167 50.386 74.6019 50.386C73.3871 50.386 72.3969 51.3763 72.3969 52.591C72.3969 53.8058 73.3871 54.7961 74.6019 54.7961Z" fill="black"/>
<path d="M65.7949 54.7961C67.0097 54.7961 67.9999 53.8058 67.9999 52.591C67.9999 51.3763 67.0097 50.386 65.7949 50.386C64.5801 50.386 63.5898 51.3763 63.5898 52.591C63.5898 53.8058 64.5801 54.7961 65.7949 54.7961Z" fill="black"/>
<path d="M57.0012 54.7961C58.2159 54.7961 59.2062 53.8058 59.2062 52.591C59.2062 51.3763 58.2159 50.386 57.0012 50.386C55.7864 50.386 54.7961 51.3763 54.7961 52.591C54.7961 53.8058 55.7864 54.7961 57.0012 54.7961Z" fill="black"/>
<path d="M43.7972 54.7961C45.012 54.7961 46.0023 53.8058 46.0023 52.591C46.0023 51.3763 45.012 50.386 43.7972 50.386C42.5825 50.386 41.5922 51.3763 41.5922 52.591C41.5922 53.8058 42.5825 54.7961 43.7972 54.7961Z" fill="black"/>
<path d="M39.3872 54.7961C40.6019 54.7961 41.5922 53.8058 41.5922 52.591C41.5922 51.3763 40.6019 50.386 39.3872 50.386C38.1724 50.386 37.1821 51.3763 37.1821 52.591C37.1821 53.8058 38.1724 54.7961 39.3872 54.7961Z" fill="black"/>
<path d="M39.3872 49.2241C40.6019 49.2241 41.5922 48.2338 41.5922 47.019C41.5922 45.8043 40.6019 44.814 39.3872 44.814C38.1724 44.814 37.1821 45.8043 37.1821 47.019C37.1821 48.2338 38.1724 49.2241 39.3872 49.2241Z" fill="black"/>
<path d="M45.9891 41.5922C47.2039 41.5922 48.1942 40.6019 48.1942 39.3872C48.1942 38.1724 47.2039 37.1821 45.9891 37.1821C44.7744 37.1821 43.7841 38.1724 43.7841 39.3872C43.7841 40.6019 44.7744 41.5922 45.9891 41.5922Z" fill="black"/>
<path d="M50.3993 41.5922C51.614 41.5922 52.6043 40.6019 52.6043 39.3872C52.6043 38.1724 51.614 37.1821 50.3993 37.1821C49.1845 37.1821 48.1942 38.1724 48.1942 39.3872C48.1942 40.6019 49.1845 41.5922 50.3993 41.5922Z" fill="black"/>
<path d="M30.5934 54.7961C31.8081 54.7961 32.7984 53.8058 32.7984 52.591C32.7984 51.3763 31.8081 50.386 30.5934 50.386C29.3786 50.386 28.3883 51.3763 28.3883 52.591C28.3883 53.8058 29.3786 54.7961 30.5934 54.7961Z" fill="black"/>
<path d="M26.1833 54.7961C27.3981 54.7961 28.3884 53.8058 28.3884 52.591C28.3884 51.3763 27.3981 50.386 26.1833 50.386C24.9686 50.386 23.9783 51.3763 23.9783 52.591C23.9783 53.8058 24.9686 54.7961 26.1833 54.7961Z" fill="black"/>
<path d="M17.3895 54.7961C18.6043 54.7961 19.5945 53.8058 19.5945 52.591C19.5945 51.3763 18.6043 50.386 17.3895 50.386C16.1747 50.386 15.1844 51.3763 15.1844 52.591C15.1844 53.8058 16.1747 54.7961 17.3895 54.7961Z" fill="black"/>
<path d="M118.61 59.1928C119.825 59.1928 120.815 58.2025 120.815 56.9878C120.815 55.773 119.825 54.7827 118.61 54.7827C117.396 54.7827 116.405 55.773 116.405 56.9878C116.405 58.2025 117.396 59.1928 118.61 59.1928Z" fill="black"/>
<path d="M109.817 59.1928C111.031 59.1928 112.022 58.2025 112.022 56.9878C112.022 55.773 111.031 54.7827 109.817 54.7827C108.602 54.7827 107.612 55.773 107.612 56.9878C107.612 58.2025 108.602 59.1928 109.817 59.1928Z" fill="black"/>
<path d="M105.407 59.1928C106.621 59.1928 107.612 58.2025 107.612 56.9878C107.612 55.773 106.621 54.7827 105.407 54.7827C104.192 54.7827 103.202 55.773 103.202 56.9878C103.202 58.2025 104.192 59.1928 105.407 59.1928Z" fill="black"/>
<path d="M101.01 59.1928C102.224 59.1928 103.215 58.2025 103.215 56.9878C103.215 55.773 102.224 54.7827 101.01 54.7827C99.795 54.7827 98.8047 55.773 98.8047 56.9878C98.8047 58.2025 99.795 59.1928 101.01 59.1928Z" fill="black"/>
<path d="M96.6128 59.1928C97.8275 59.1928 98.8178 58.2025 98.8178 56.9878C98.8178 55.773 97.8275 54.7827 96.6128 54.7827C95.398 54.7827 94.4077 55.773 94.4077 56.9878C94.4077 58.2025 95.398 59.1928 96.6128 59.1928Z" fill="black"/>
<path d="M92.2027 59.1928C93.4175 59.1928 94.4078 58.2025 94.4078 56.9878C94.4078 55.773 93.4175 54.7827 92.2027 54.7827C90.988 54.7827 89.9977 55.773 89.9977 56.9878C89.9977 58.2025 90.988 59.1928 92.2027 59.1928Z" fill="black"/>
<path d="M87.8058 59.1928C89.0205 59.1928 90.0108 58.2025 90.0108 56.9878C90.0108 55.773 89.0205 54.7827 87.8058 54.7827C86.591 54.7827 85.6007 55.773 85.6007 56.9878C85.6007 58.2025 86.591 59.1928 87.8058 59.1928Z" fill="black"/>
<path d="M74.6019 59.1928C75.8167 59.1928 76.8069 58.2025 76.8069 56.9878C76.8069 55.773 75.8167 54.7827 74.6019 54.7827C73.3871 54.7827 72.3969 55.773 72.3969 56.9878C72.3969 58.2025 73.3871 59.1928 74.6019 59.1928Z" fill="black"/>
<path d="M65.7949 59.1928C67.0097 59.1928 67.9999 58.2025 67.9999 56.9878C67.9999 55.773 67.0097 54.7827 65.7949 54.7827C64.5801 54.7827 63.5898 55.773 63.5898 56.9878C63.5898 58.2025 64.5801 59.1928 65.7949 59.1928Z" fill="black"/>
<path d="M57.0012 59.1928C58.2159 59.1928 59.2062 58.2025 59.2062 56.9878C59.2062 55.773 58.2159 54.7827 57.0012 54.7827C55.7864 54.7827 54.7961 55.773 54.7961 56.9878C54.7961 58.2025 55.7864 59.1928 57.0012 59.1928Z" fill="black"/>
<path d="M52.591 59.1928C53.8058 59.1928 54.7961 58.2025 54.7961 56.9878C54.7961 55.773 53.8058 54.7827 52.591 54.7827C51.3763 54.7827 50.386 55.773 50.386 56.9878C50.386 58.2025 51.3763 59.1928 52.591 59.1928Z" fill="black"/>
<path d="M39.3872 59.1928C40.6019 59.1928 41.5922 58.2025 41.5922 56.9878C41.5922 55.773 40.6019 54.7827 39.3872 54.7827C38.1724 54.7827 37.1821 55.773 37.1821 56.9878C37.1821 58.2025 38.1724 59.1928 39.3872 59.1928Z" fill="black"/>
<path d="M30.5934 59.1928C31.8081 59.1928 32.7984 58.2025 32.7984 56.9878C32.7984 55.773 31.8081 54.7827 30.5934 54.7827C29.3786 54.7827 28.3883 55.773 28.3883 56.9878C28.3883 58.2025 29.3786 59.1928 30.5934 59.1928Z" fill="black"/>
<path d="M17.3895 59.1928C18.6043 59.1928 19.5945 58.2025 19.5945 56.9878C19.5945 55.773 18.6043 54.7827 17.3895 54.7827C16.1747 54.7827 15.1844 55.773 15.1844 56.9878C15.1844 58.2025 16.1747 59.1928 17.3895 59.1928Z" fill="black"/>
<path d="M114.214 63.603C115.428 63.603 116.419 62.6259 116.419 61.3979C116.419 60.17 115.428 59.1929 114.214 59.1929C112.999 59.1929 112.009 60.17 112.009 61.3979C112.009 62.6259 112.999 63.603 114.214 63.603Z" fill="black"/>
<path d="M109.817 63.603C111.031 63.603 112.022 62.6259 112.022 61.3979C112.022 60.17 111.031 59.1929 109.817 59.1929C108.602 59.1929 107.612 60.17 107.612 61.3979C107.612 62.6259 108.602 63.603 109.817 63.603Z" fill="black"/>
<path d="M96.6128 63.603C97.8275 63.603 98.8178 62.6259 98.8178 61.3979C98.8178 60.17 97.8275 59.1929 96.6128 59.1929C95.398 59.1929 94.4077 60.17 94.4077 61.3979C94.4077 62.6259 95.398 63.603 96.6128 63.603Z" fill="black"/>
<path d="M87.8058 63.603C89.0205 63.603 90.0108 62.6259 90.0108 61.3979C90.0108 60.17 89.0205 59.1929 87.8058 59.1929C86.591 59.1929 85.6007 60.17 85.6007 61.3979C85.6007 62.6259 86.591 63.603 87.8058 63.603Z" fill="black"/>
<path d="M83.4089 63.603C84.6237 63.603 85.6139 62.6259 85.6139 61.3979C85.6139 60.17 84.6237 59.1929 83.4089 59.1929C82.1941 59.1929 81.2039 60.17 81.2039 61.3979C81.2039 62.6259 82.1941 63.603 83.4089 63.603Z" fill="black"/>
<path d="M70.205 63.603C71.4198 63.603 72.4101 62.6259 72.4101 61.3979C72.4101 60.17 71.4198 59.1929 70.205 59.1929C68.9903 59.1929 68 60.17 68 61.3979C68 62.6259 68.9903 63.603 70.205 63.603Z" fill="black"/>
<path d="M61.398 63.603C62.6128 63.603 63.6031 62.6259 63.6031 61.3979C63.6031 60.17 62.626 59.1929 61.398 59.1929C60.1701 59.1929 59.193 60.17 59.193 61.3979C59.193 62.6259 60.1701 63.603 61.398 63.603Z" fill="black"/>
<path d="M57.0012 63.603C58.2159 63.603 59.2062 62.6259 59.2062 61.3979C59.2062 60.17 58.2159 59.1929 57.0012 59.1929C55.7864 59.1929 54.7961 60.17 54.7961 61.3979C54.7961 62.6259 55.7864 63.603 57.0012 63.603Z" fill="black"/>
<path d="M43.7972 63.603C45.012 63.603 46.0023 62.6259 46.0023 61.3979C46.0023 60.17 45.012 59.1929 43.7972 59.1929C42.5825 59.1929 41.5922 60.17 41.5922 61.3979C41.5922 62.6259 42.5825 63.603 43.7972 63.603Z" fill="black"/>
<path d="M39.3872 63.603C40.6019 63.603 41.5922 62.6259 41.5922 61.3979C41.5922 60.17 40.6019 59.1929 39.3872 59.1929C38.1724 59.1929 37.1821 60.17 37.1821 61.3979C37.1821 62.6259 38.1724 63.603 39.3872 63.603Z" fill="black"/>
<path d="M34.9903 63.603C36.2051 63.603 37.1954 62.6259 37.1954 61.3979C37.1954 60.17 36.2183 59.1929 34.9903 59.1929C33.7624 59.1929 32.7853 60.17 32.7853 61.3979C32.7853 62.6259 33.7624 63.603 34.9903 63.603Z" fill="black"/>
<path d="M26.1833 63.603C27.3981 63.603 28.3884 62.6259 28.3884 61.3979C28.3884 60.17 27.3981 59.1929 26.1833 59.1929C24.9686 59.1929 23.9783 60.17 23.9783 61.3979C23.9783 62.6259 24.9686 63.603 26.1833 63.603Z" fill="black"/>
<path d="M21.7863 63.603C23.0011 63.603 23.9914 62.6259 23.9914 61.3979C23.9914 60.17 23.0143 59.1929 21.7863 59.1929C20.5584 59.1929 19.5813 60.17 19.5813 61.3979C19.5813 62.6259 20.5584 63.603 21.7863 63.603Z" fill="black"/>
<path d="M17.3895 63.603C18.6043 63.603 19.5945 62.6259 19.5945 61.3979C19.5945 60.17 18.6043 59.1929 17.3895 59.1929C16.1747 59.1929 15.1844 60.17 15.1844 61.3979C15.1844 62.6259 16.1747 63.603 17.3895 63.603Z" fill="black"/>
<path d="M118.61 67.9999C119.825 67.9999 120.815 67.0097 120.815 65.7949C120.815 64.5801 119.825 63.5898 118.61 63.5898C117.396 63.5898 116.405 64.5801 116.405 65.7949C116.405 67.0097 117.396 67.9999 118.61 67.9999Z" fill="black"/>
<path d="M114.214 67.9999C115.428 67.9999 116.419 67.0097 116.419 65.7949C116.419 64.5801 115.428 63.5898 114.214 63.5898C112.999 63.5898 112.009 64.5801 112.009 65.7949C112.009 67.0097 112.999 67.9999 114.214 67.9999Z" fill="black"/>
<path d="M109.817 67.9999C111.031 67.9999 112.022 67.0097 112.022 65.7949C112.022 64.5801 111.031 63.5898 109.817 63.5898C108.602 63.5898 107.612 64.5801 107.612 65.7949C107.612 67.0097 108.602 67.9999 109.817 67.9999Z" fill="black"/>
<path d="M105.407 67.9999C106.621 67.9999 107.612 67.0097 107.612 65.7949C107.612 64.5801 106.621 63.5898 105.407 63.5898C104.192 63.5898 103.202 64.5801 103.202 65.7949C103.202 67.0097 104.192 67.9999 105.407 67.9999Z" fill="black"/>
<path d="M101.01 67.9999C102.224 67.9999 103.215 67.0097 103.215 65.7949C103.215 64.5801 102.224 63.5898 101.01 63.5898C99.795 63.5898 98.8047 64.5801 98.8047 65.7949C98.8047 67.0097 99.795 67.9999 101.01 67.9999Z" fill="black"/>
<path d="M96.6128 67.9999C97.8275 67.9999 98.8178 67.0097 98.8178 65.7949C98.8178 64.5801 97.8275 63.5898 96.6128 63.5898C95.398 63.5898 94.4077 64.5801 94.4077 65.7949C94.4077 67.0097 95.398 67.9999 96.6128 67.9999Z" fill="black"/>
<path d="M92.2027 67.9999C93.4175 67.9999 94.4078 67.0097 94.4078 65.7949C94.4078 64.5801 93.4175 63.5898 92.2027 63.5898C90.988 63.5898 89.9977 64.5801 89.9977 65.7949C89.9977 67.0097 90.988 67.9999 92.2027 67.9999Z" fill="black"/>
<path d="M83.4089 67.9999C84.6237 67.9999 85.6139 67.0097 85.6139 65.7949C85.6139 64.5801 84.6237 63.5898 83.4089 63.5898C82.1941 63.5898 81.2039 64.5801 81.2039 65.7949C81.2039 67.0097 82.1941 67.9999 83.4089 67.9999Z" fill="black"/>
<path d="M78.9989 67.9999C80.2136 67.9999 81.2039 67.0097 81.2039 65.7949C81.2039 64.5801 80.2136 63.5898 78.9989 63.5898C77.7841 63.5898 76.7938 64.5801 76.7938 65.7949C76.7938 67.0097 77.7841 67.9999 78.9989 67.9999Z" fill="black"/>
<path d="M74.6019 67.9999C75.8167 67.9999 76.8069 67.0097 76.8069 65.7949C76.8069 64.5801 75.8167 63.5898 74.6019 63.5898C73.3871 63.5898 72.3969 64.5801 72.3969 65.7949C72.3969 67.0097 73.3871 67.9999 74.6019 67.9999Z" fill="black"/>
<path d="M70.205 67.9999C71.4198 67.9999 72.4101 67.0097 72.4101 65.7949C72.4101 64.5801 71.4198 63.5898 70.205 63.5898C68.9903 63.5898 68 64.5801 68 65.7949C68 67.0097 68.9903 67.9999 70.205 67.9999Z" fill="black"/>
<path d="M61.398 67.9999C62.6128 67.9999 63.6031 67.0097 63.6031 65.7949C63.6031 64.5801 62.626 63.5898 61.398 63.5898C60.1701 63.5898 59.193 64.5801 59.193 65.7949C59.193 67.0097 60.1701 67.9999 61.398 67.9999Z" fill="black"/>
<path d="M57.0012 67.9999C58.2159 67.9999 59.2062 67.0097 59.2062 65.7949C59.2062 64.5801 58.2159 63.5898 57.0012 63.5898C55.7864 63.5898 54.7961 64.5801 54.7961 65.7949C54.7961 67.0097 55.7864 67.9999 57.0012 67.9999Z" fill="black"/>
<path d="M48.1942 67.9999C49.4089 67.9999 50.3992 67.0097 50.3992 65.7949C50.3992 64.5801 49.4221 63.5898 48.1942 63.5898C46.9662 63.5898 45.9891 64.5801 45.9891 65.7949C45.9891 67.0097 46.9662 67.9999 48.1942 67.9999Z" fill="black"/>
<path d="M43.7972 67.9999C45.012 67.9999 46.0023 67.0097 46.0023 65.7949C46.0023 64.5801 45.012 63.5898 43.7972 63.5898C42.5825 63.5898 41.5922 64.5801 41.5922 65.7949C41.5922 67.0097 42.5825 67.9999 43.7972 67.9999Z" fill="black"/>
<path d="M30.5934 67.9999C31.8081 67.9999 32.7984 67.0097 32.7984 65.7949C32.7984 64.5801 31.8081 63.5898 30.5934 63.5898C29.3786 63.5898 28.3883 64.5801 28.3883 65.7949C28.3883 67.0097 29.3786 67.9999 30.5934 67.9999Z" fill="black"/>
<path d="M21.7863 67.9999C23.0011 67.9999 23.9914 67.0097 23.9914 65.7949C23.9914 64.5801 23.0143 63.5898 21.7863 63.5898C20.5584 63.5898 19.5813 64.5801 19.5813 65.7949C19.5813 67.0097 20.5584 67.9999 21.7863 67.9999Z" fill="black"/>
<path d="M118.61 72.3967C119.825 72.3967 120.815 71.4064 120.815 70.1916C120.815 68.9769 119.825 67.9866 118.61 67.9866C117.396 67.9866 116.405 68.9769 116.405 70.1916C116.405 71.4064 117.396 72.3967 118.61 72.3967Z" fill="black"/>
<path d="M114.214 72.3967C115.428 72.3967 116.419 71.4064 116.419 70.1916C116.419 68.9769 115.428 67.9866 114.214 67.9866C112.999 67.9866 112.009 68.9769 112.009 70.1916C112.009 71.4064 112.999 72.3967 114.214 72.3967Z" fill="black"/>
<path d="M105.407 72.3967C106.621 72.3967 107.612 71.4064 107.612 70.1916C107.612 68.9769 106.621 67.9866 105.407 67.9866C104.192 67.9866 103.202 68.9769 103.202 70.1916C103.202 71.4064 104.192 72.3967 105.407 72.3967Z" fill="black"/>
<path d="M96.6128 72.3967C97.8275 72.3967 98.8178 71.4064 98.8178 70.1916C98.8178 68.9769 97.8275 67.9866 96.6128 67.9866C95.398 67.9866 94.4077 68.9769 94.4077 70.1916C94.4077 71.4064 95.398 72.3967 96.6128 72.3967Z" fill="black"/>
<path d="M87.8058 72.3967C89.0205 72.3967 90.0108 71.4064 90.0108 70.1916C90.0108 68.9769 89.0205 67.9866 87.8058 67.9866C86.591 67.9866 85.6007 68.9769 85.6007 70.1916C85.6007 71.4064 86.591 72.3967 87.8058 72.3967Z" fill="black"/>
<path d="M83.4089 72.3967C84.6237 72.3967 85.6139 71.4064 85.6139 70.1916C85.6139 68.9769 84.6237 67.9866 83.4089 67.9866C82.1941 67.9866 81.2039 68.9769 81.2039 70.1916C81.2039 71.4064 82.1941 72.3967 83.4089 72.3967Z" fill="black"/>
<path d="M61.398 72.3967C62.6128 72.3967 63.6031 71.4064 63.6031 70.1916C63.6031 68.9769 62.626 67.9866 61.398 67.9866C60.1701 67.9866 59.193 68.9769 59.193 70.1916C59.193 71.4064 60.1701 72.3967 61.398 72.3967Z" fill="black"/>
<path d="M57.0012 72.3967C58.2159 72.3967 59.2062 71.4064 59.2062 70.1916C59.2062 68.9769 58.2159 67.9866 57.0012 67.9866C55.7864 67.9866 54.7961 68.9769 54.7961 70.1916C54.7961 71.4064 55.7864 72.3967 57.0012 72.3967Z" fill="black"/>
<path d="M48.1942 72.3967C49.4089 72.3967 50.3992 71.4064 50.3992 70.1916C50.3992 68.9769 49.4221 67.9866 48.1942 67.9866C46.9662 67.9866 45.9891 68.9769 45.9891 70.1916C45.9891 71.4064 46.9662 72.3967 48.1942 72.3967Z" fill="black"/>
<path d="M39.3872 72.3967C40.6019 72.3967 41.5922 71.4064 41.5922 70.1916C41.5922 68.9769 40.6019 67.9866 39.3872 67.9866C38.1724 67.9866 37.1821 68.9769 37.1821 70.1916C37.1821 71.4064 38.1724 72.3967 39.3872 72.3967Z" fill="black"/>
<path d="M34.9903 72.3967C36.2051 72.3967 37.1954 71.4064 37.1954 70.1916C37.1954 68.9769 36.2183 67.9866 34.9903 67.9866C33.7624 67.9866 32.7853 68.9769 32.7853 70.1916C32.7853 71.4064 33.7624 72.3967 34.9903 72.3967Z" fill="black"/>
<path d="M30.5934 72.3967C31.8081 72.3967 32.7984 71.4064 32.7984 70.1916C32.7984 68.9769 31.8081 67.9866 30.5934 67.9866C29.3786 67.9866 28.3883 68.9769 28.3883 70.1916C28.3883 71.4064 29.3786 72.3967 30.5934 72.3967Z" fill="black"/>
<path d="M26.1833 72.3967C27.3981 72.3967 28.3884 71.4064 28.3884 70.1916C28.3884 68.9769 27.3981 67.9866 26.1833 67.9866C24.9686 67.9866 23.9783 68.9769 23.9783 70.1916C23.9783 71.4064 24.9686 72.3967 26.1833 72.3967Z" fill="black"/>
<path d="M17.3895 72.3967C18.6043 72.3967 19.5945 71.4064 19.5945 70.1916C19.5945 68.9769 18.6043 67.9866 17.3895 67.9866C16.1747 67.9866 15.1844 68.9769 15.1844 70.1916C15.1844 71.4064 16.1747 72.3967 17.3895 72.3967Z" fill="black"/>
<path d="M114.214 76.8068C115.431 76.8068 116.419 75.8196 116.419 74.6018C116.419 73.384 115.431 72.3967 114.214 72.3967C112.996 72.3967 112.009 73.384 112.009 74.6018C112.009 75.8196 112.996 76.8068 114.214 76.8068Z" fill="black"/>
<path d="M109.817 76.8068C111.031 76.8068 112.022 75.8165 112.022 74.6018C112.022 73.387 111.031 72.3967 109.817 72.3967C108.602 72.3967 107.612 73.387 107.612 74.6018C107.612 75.8165 108.602 76.8068 109.817 76.8068Z" fill="black"/>
<path d="M105.407 76.8068C106.621 76.8068 107.612 75.8165 107.612 74.6018C107.612 73.387 106.621 72.3967 105.407 72.3967C104.192 72.3967 103.202 73.387 103.202 74.6018C103.202 75.8165 104.192 76.8068 105.407 76.8068Z" fill="black"/>
<path d="M101.01 76.8068C102.228 76.8068 103.215 75.8196 103.215 74.6018C103.215 73.384 102.228 72.3967 101.01 72.3967C99.7919 72.3967 98.8047 73.384 98.8047 74.6018C98.8047 75.8196 99.7919 76.8068 101.01 76.8068Z" fill="black"/>
<path d="M96.6128 76.8068C97.8275 76.8068 98.8178 75.8165 98.8178 74.6018C98.8178 73.387 97.8275 72.3967 96.6128 72.3967C95.398 72.3967 94.4077 73.387 94.4077 74.6018C94.4077 75.8165 95.398 76.8068 96.6128 76.8068Z" fill="black"/>
<path d="M92.2027 76.8068C93.4175 76.8068 94.4078 75.8165 94.4078 74.6018C94.4078 73.387 93.4175 72.3967 92.2027 72.3967C90.988 72.3967 89.9977 73.387 89.9977 74.6018C89.9977 75.8165 90.988 76.8068 92.2027 76.8068Z" fill="black"/>
<path d="M87.8058 76.8068C89.0236 76.8068 90.0108 75.8196 90.0108 74.6018C90.0108 73.384 89.0236 72.3967 87.8058 72.3967C86.5879 72.3967 85.6007 73.384 85.6007 74.6018C85.6007 75.8196 86.5879 76.8068 87.8058 76.8068Z" fill="black"/>
<path d="M83.4089 76.8068C84.6237 76.8068 85.6139 75.8165 85.6139 74.6018C85.6139 73.387 84.6237 72.3967 83.4089 72.3967C82.1941 72.3967 81.2039 73.387 81.2039 74.6018C81.2039 75.8165 82.1941 76.8068 83.4089 76.8068Z" fill="black"/>
<path d="M78.9989 76.8068C80.2136 76.8068 81.2039 75.8165 81.2039 74.6018C81.2039 73.387 80.2136 72.3967 78.9989 72.3967C77.7841 72.3967 76.7938 73.387 76.7938 74.6018C76.7938 75.8165 77.7841 76.8068 78.9989 76.8068Z" fill="black"/>
<path d="M74.6019 76.8068C75.8197 76.8068 76.8069 75.8196 76.8069 74.6018C76.8069 73.384 75.8197 72.3967 74.6019 72.3967C73.3841 72.3967 72.3969 73.384 72.3969 74.6018C72.3969 75.8196 73.3841 76.8068 74.6019 76.8068Z" fill="black"/>
<path d="M65.7949 76.8068C67.0097 76.8068 67.9999 75.8165 67.9999 74.6018C67.9999 73.387 67.0097 72.3967 65.7949 72.3967C64.5801 72.3967 63.5898 73.387 63.5898 74.6018C63.5898 75.8165 64.5801 76.8068 65.7949 76.8068Z" fill="black"/>
<path d="M61.398 76.8068C62.6128 76.8068 63.6031 75.8165 63.6031 74.6018C63.6031 73.387 62.626 72.3967 61.398 72.3967C60.1701 72.3967 59.193 73.387 59.193 74.6018C59.193 75.8165 60.1701 76.8068 61.398 76.8068Z" fill="black"/>
<path d="M48.1942 76.8068C49.4089 76.8068 50.3992 75.8165 50.3992 74.6018C50.3992 73.387 49.4221 72.3967 48.1942 72.3967C46.9662 72.3967 45.9891 73.387 45.9891 74.6018C45.9891 75.8165 46.9662 76.8068 48.1942 76.8068Z" fill="black"/>
<path d="M43.7972 76.8068C45.012 76.8068 46.0023 75.8165 46.0023 74.6018C46.0023 73.387 45.012 72.3967 43.7972 72.3967C42.5825 72.3967 41.5922 73.387 41.5922 74.6018C41.5922 75.8165 42.5825 76.8068 43.7972 76.8068Z" fill="black"/>
<path d="M34.9903 76.8068C36.2051 76.8068 37.1954 75.8165 37.1954 74.6018C37.1954 73.387 36.2183 72.3967 34.9903 72.3967C33.7624 72.3967 32.7853 73.387 32.7853 74.6018C32.7853 75.8165 33.7624 76.8068 34.9903 76.8068Z" fill="black"/>
<path d="M26.1833 76.8068C27.3981 76.8068 28.3884 75.8165 28.3884 74.6018C28.3884 73.387 27.3981 72.3967 26.1833 72.3967C24.9686 72.3967 23.9783 73.387 23.9783 74.6018C23.9783 75.8165 24.9686 76.8068 26.1833 76.8068Z" fill="black"/>
<path d="M17.3895 76.8068C18.6043 76.8068 19.5945 75.8165 19.5945 74.6018C19.5945 73.387 18.6043 72.3967 17.3895 72.3967C16.1747 72.3967 15.1844 73.387 15.1844 74.6018C15.1844 75.8165 16.1747 76.8068 17.3895 76.8068Z" fill="black"/>
<path d="M118.61 81.2038C119.825 81.2038 120.815 80.2135 120.815 78.9988C120.815 77.784 119.825 76.7937 118.61 76.7937C117.396 76.7937 116.405 77.784 116.405 78.9988C116.405 80.2135 117.396 81.2038 118.61 81.2038Z" fill="black"/>
<path d="M109.817 81.2038C111.031 81.2038 112.022 80.2135 112.022 78.9988C112.022 77.784 111.031 76.7937 109.817 76.7937C108.602 76.7937 107.612 77.784 107.612 78.9988C107.612 80.2135 108.602 81.2038 109.817 81.2038Z" fill="black"/>
<path d="M92.2027 81.2038C93.4175 81.2038 94.4078 80.2135 94.4078 78.9988C94.4078 77.784 93.4175 76.7937 92.2027 76.7937C90.988 76.7937 89.9977 77.784 89.9977 78.9988C89.9977 80.2135 90.988 81.2038 92.2027 81.2038Z" fill="black"/>
<path d="M87.8058 81.2038C89.0205 81.2038 90.0108 80.2135 90.0108 78.9988C90.0108 77.784 89.0205 76.7937 87.8058 76.7937C86.591 76.7937 85.6007 77.784 85.6007 78.9988C85.6007 80.2135 86.591 81.2038 87.8058 81.2038Z" fill="black"/>
<path d="M78.9989 81.2038C80.2136 81.2038 81.2039 80.2135 81.2039 78.9988C81.2039 77.784 80.2136 76.7937 78.9989 76.7937C77.7841 76.7937 76.7938 77.784 76.7938 78.9988C76.7938 80.2135 77.7841 81.2038 78.9989 81.2038Z" fill="black"/>
<path d="M65.7949 81.2038C67.0097 81.2038 67.9999 80.2135 67.9999 78.9988C67.9999 77.784 67.0097 76.7937 65.7949 76.7937C64.5801 76.7937 63.5898 77.784 63.5898 78.9988C63.5898 80.2135 64.5801 81.2038 65.7949 81.2038Z" fill="black"/>
<path d="M61.398 81.2038C62.6128 81.2038 63.6031 80.2135 63.6031 78.9988C63.6031 77.784 62.626 76.7937 61.398 76.7937C60.1701 76.7937 59.193 77.784 59.193 78.9988C59.193 80.2135 60.1701 81.2038 61.398 81.2038Z" fill="black"/>
<path d="M57.0012 81.2038C58.2159 81.2038 59.2062 80.2135 59.2062 78.9988C59.2062 77.784 58.2159 76.7937 57.0012 76.7937C55.7864 76.7937 54.7961 77.784 54.7961 78.9988C54.7961 80.2135 55.7864 81.2038 57.0012 81.2038Z" fill="black"/>
<path d="M52.591 81.2038C53.8058 81.2038 54.7961 80.2135 54.7961 78.9988C54.7961 77.784 53.8058 76.7937 52.591 76.7937C51.3763 76.7937 50.386 77.784 50.386 78.9988C50.386 80.2135 51.3763 81.2038 52.591 81.2038Z" fill="black"/>
<path d="M43.7972 81.2038C45.012 81.2038 46.0023 80.2135 46.0023 78.9988C46.0023 77.784 45.012 76.7937 43.7972 76.7937C42.5825 76.7937 41.5922 77.784 41.5922 78.9988C41.5922 80.2135 42.5825 81.2038 43.7972 81.2038Z" fill="black"/>
<path d="M39.3872 81.2038C40.6019 81.2038 41.5922 80.2135 41.5922 78.9988C41.5922 77.784 40.6019 76.7937 39.3872 76.7937C38.1724 76.7937 37.1821 77.784 37.1821 78.9988C37.1821 80.2135 38.1724 81.2038 39.3872 81.2038Z" fill="black"/>
<path d="M34.9903 81.2038C36.2051 81.2038 37.1954 80.2135 37.1954 78.9988C37.1954 77.784 36.2183 76.7937 34.9903 76.7937C33.7624 76.7937 32.7853 77.784 32.7853 78.9988C32.7853 80.2135 33.7624 81.2038 34.9903 81.2038Z" fill="black"/>
<path d="M30.5934 81.2038C31.8081 81.2038 32.7984 80.2135 32.7984 78.9988C32.7984 77.784 31.8081 76.7937 30.5934 76.7937C29.3786 76.7937 28.3883 77.784 28.3883 78.9988C28.3883 80.2135 29.3786 81.2038 30.5934 81.2038Z" fill="black"/>
<path d="M17.3895 81.2038C18.6043 81.2038 19.5945 80.2135 19.5945 78.9988C19.5945 77.784 18.6043 76.7937 17.3895 76.7937C16.1747 76.7937 15.1844 77.784 15.1844 78.9988C15.1844 80.2135 16.1747 81.2038 17.3895 81.2038Z" fill="black"/>
<path d="M118.61 85.6008C119.825 85.6008 120.815 84.6105 120.815 83.3957C120.815 82.181 119.825 81.1907 118.61 81.1907C117.396 81.1907 116.405 82.181 116.405 83.3957C116.405 84.6105 117.396 85.6008 118.61 85.6008Z" fill="black"/>
<path d="M114.214 85.6008C115.428 85.6008 116.419 84.6105 116.419 83.3957C116.419 82.181 115.428 81.1907 114.214 81.1907C112.999 81.1907 112.009 82.181 112.009 83.3957C112.009 84.6105 112.999 85.6008 114.214 85.6008Z" fill="black"/>
<path d="M105.407 85.6008C106.621 85.6008 107.612 84.6105 107.612 83.3957C107.612 82.181 106.621 81.1907 105.407 81.1907C104.192 81.1907 103.202 82.181 103.202 83.3957C103.202 84.6105 104.192 85.6008 105.407 85.6008Z" fill="black"/>
<path d="M96.6128 85.6008C97.8275 85.6008 98.8178 84.6105 98.8178 83.3957C98.8178 82.181 97.8275 81.1907 96.6128 81.1907C95.398 81.1907 94.4077 82.181 94.4077 83.3957C94.4077 84.6105 95.398 85.6008 96.6128 85.6008Z" fill="black"/>
<path d="M92.2027 85.6008C93.4175 85.6008 94.4078 84.6105 94.4078 83.3957C94.4078 82.181 93.4175 81.1907 92.2027 81.1907C90.988 81.1907 89.9977 82.181 89.9977 83.3957C89.9977 84.6105 90.988 85.6008 92.2027 85.6008Z" fill="black"/>
<path d="M87.8058 85.6008C89.0205 85.6008 90.0108 84.6105 90.0108 83.3957C90.0108 82.181 89.0205 81.1907 87.8058 81.1907C86.591 81.1907 85.6007 82.181 85.6007 83.3957C85.6007 84.6105 86.591 85.6008 87.8058 85.6008Z" fill="black"/>
<path d="M83.4089 85.6008C84.6237 85.6008 85.6139 84.6105 85.6139 83.3957C85.6139 82.181 84.6237 81.1907 83.4089 81.1907C82.1941 81.1907 81.2039 82.181 81.2039 83.3957C81.2039 84.6105 82.1941 85.6008 83.4089 85.6008Z" fill="black"/>
<path d="M74.6019 85.6008C75.8167 85.6008 76.8069 84.6105 76.8069 83.3957C76.8069 82.181 75.8167 81.1907 74.6019 81.1907C73.3871 81.1907 72.3969 82.181 72.3969 83.3957C72.3969 84.6105 73.3871 85.6008 74.6019 85.6008Z" fill="black"/>
<path d="M70.205 85.6008C71.4198 85.6008 72.4101 84.6105 72.4101 83.3957C72.4101 82.181 71.4198 81.1907 70.205 81.1907C68.9903 81.1907 68 82.181 68 83.3957C68 84.6105 68.9903 85.6008 70.205 85.6008Z" fill="black"/>
<path d="M65.7949 85.6008C67.0097 85.6008 67.9999 84.6105 67.9999 83.3957C67.9999 82.181 67.0097 81.1907 65.7949 81.1907C64.5801 81.1907 63.5898 82.181 63.5898 83.3957C63.5898 84.6105 64.5801 85.6008 65.7949 85.6008Z" fill="black"/>
<path d="M57.0012 85.6008C58.2159 85.6008 59.2062 84.6105 59.2062 83.3957C59.2062 82.181 58.2159 81.1907 57.0012 81.1907C55.7864 81.1907 54.7961 82.181 54.7961 83.3957C54.7961 84.6105 55.7864 85.6008 57.0012 85.6008Z" fill="black"/>
<path d="M48.1942 85.6008C49.4089 85.6008 50.3992 84.6105 50.3992 83.3957C50.3992 82.181 49.4221 81.1907 48.1942 81.1907C46.9662 81.1907 45.9891 82.181 45.9891 83.3957C45.9891 84.6105 46.9662 85.6008 48.1942 85.6008Z" fill="black"/>
<path d="M43.7972 85.6008C45.012 85.6008 46.0023 84.6105 46.0023 83.3957C46.0023 82.181 45.012 81.1907 43.7972 81.1907C42.5825 81.1907 41.5922 82.181 41.5922 83.3957C41.5922 84.6105 42.5825 85.6008 43.7972 85.6008Z" fill="black"/>
<path d="M30.5934 85.6008C31.8081 85.6008 32.7984 84.6105 32.7984 83.3957C32.7984 82.181 31.8081 81.1907 30.5934 81.1907C29.3786 81.1907 28.3883 82.181 28.3883 83.3957C28.3883 84.6105 29.3786 85.6008 30.5934 85.6008Z" fill="black"/>
<path d="M26.1833 85.6008C27.3981 85.6008 28.3884 84.6105 28.3884 83.3957C28.3884 82.181 27.3981 81.1907 26.1833 81.1907C24.9686 81.1907 23.9783 82.181 23.9783 83.3957C23.9783 84.6105 24.9686 85.6008 26.1833 85.6008Z" fill="black"/>
<path d="M17.3895 85.6008C18.6043 85.6008 19.5945 84.6105 19.5945 83.3957C19.5945 82.181 18.6043 81.1907 17.3895 81.1907C16.1747 81.1907 15.1844 82.181 15.1844 83.3957C15.1844 84.6105 16.1747 85.6008 17.3895 85.6008Z" fill="black"/>
<path d="M114.214 90.0107C115.431 90.0107 116.419 89.0234 116.419 87.8056C116.419 86.5878 115.431 85.6006 114.214 85.6006C112.996 85.6006 112.009 86.5878 112.009 87.8056C112.009 89.0234 112.996 90.0107 114.214 90.0107Z" fill="black"/>
<path d="M109.817 90.0107C111.031 90.0107 112.022 89.0204 112.022 87.8056C112.022 86.5909 111.031 85.6006 109.817 85.6006C108.602 85.6006 107.612 86.5909 107.612 87.8056C107.612 89.0204 108.602 90.0107 109.817 90.0107Z" fill="black"/>
<path d="M105.407 90.0107C106.621 90.0107 107.612 89.0204 107.612 87.8056C107.612 86.5909 106.621 85.6006 105.407 85.6006C104.192 85.6006 103.202 86.5909 103.202 87.8056C103.202 89.0204 104.192 90.0107 105.407 90.0107Z" fill="black"/>
<path d="M101.01 90.0107C102.228 90.0107 103.215 89.0234 103.215 87.8056C103.215 86.5878 102.228 85.6006 101.01 85.6006C99.7919 85.6006 98.8047 86.5878 98.8047 87.8056C98.8047 89.0234 99.7919 90.0107 101.01 90.0107Z" fill="black"/>
<path d="M96.6128 90.0107C97.8275 90.0107 98.8178 89.0204 98.8178 87.8056C98.8178 86.5909 97.8275 85.6006 96.6128 85.6006C95.398 85.6006 94.4077 86.5909 94.4077 87.8056C94.4077 89.0204 95.398 90.0107 96.6128 90.0107Z" fill="black"/>
<path d="M87.8058 90.0107C89.0236 90.0107 90.0108 89.0234 90.0108 87.8056C90.0108 86.5878 89.0236 85.6006 87.8058 85.6006C86.5879 85.6006 85.6007 86.5878 85.6007 87.8056C85.6007 89.0234 86.5879 90.0107 87.8058 90.0107Z" fill="black"/>
<path d="M83.4089 90.0107C84.6237 90.0107 85.6139 89.0204 85.6139 87.8056C85.6139 86.5909 84.6237 85.6006 83.4089 85.6006C82.1941 85.6006 81.2039 86.5909 81.2039 87.8056C81.2039 89.0204 82.1941 90.0107 83.4089 90.0107Z" fill="black"/>
<path d="M78.9989 90.0107C80.2136 90.0107 81.2039 89.0204 81.2039 87.8056C81.2039 86.5909 80.2136 85.6006 78.9989 85.6006C77.7841 85.6006 76.7938 86.5909 76.7938 87.8056C76.7938 89.0204 77.7841 90.0107 78.9989 90.0107Z" fill="black"/>
<path d="M70.205 90.0107C71.4198 90.0107 72.4101 89.0204 72.4101 87.8056C72.4101 86.5909 71.4198 85.6006 70.205 85.6006C68.9903 85.6006 68 86.5909 68 87.8056C68 89.0204 68.9903 90.0107 70.205 90.0107Z" fill="black"/>
<path d="M65.7949 90.0107C67.0097 90.0107 67.9999 89.0204 67.9999 87.8056C67.9999 86.5909 67.0097 85.6006 65.7949 85.6006C64.5801 85.6006 63.5898 86.5909 63.5898 87.8056C63.5898 89.0204 64.5801 90.0107 65.7949 90.0107Z" fill="black"/>
<path d="M61.398 90.0107C62.6128 90.0107 63.6031 89.0204 63.6031 87.8056C63.6031 86.5909 62.626 85.6006 61.398 85.6006C60.1701 85.6006 59.193 86.5909 59.193 87.8056C59.193 89.0204 60.1701 90.0107 61.398 90.0107Z" fill="black"/>
<path d="M57.0012 90.0107C58.2159 90.0107 59.2062 89.0204 59.2062 87.8056C59.2062 86.5909 58.2159 85.6006 57.0012 85.6006C55.7864 85.6006 54.7961 86.5909 54.7961 87.8056C54.7961 89.0204 55.7864 90.0107 57.0012 90.0107Z" fill="black"/>
<path d="M48.1942 90.0107C49.4089 90.0107 50.3992 89.0204 50.3992 87.8056C50.3992 86.5909 49.4221 85.6006 48.1942 85.6006C46.9662 85.6006 45.9891 86.5909 45.9891 87.8056C45.9891 89.0204 46.9662 90.0107 48.1942 90.0107Z" fill="black"/>
<path d="M43.7972 90.0107C45.012 90.0107 46.0023 89.0204 46.0023 87.8056C46.0023 86.5909 45.012 85.6006 43.7972 85.6006C42.5825 85.6006 41.5922 86.5909 41.5922 87.8056C41.5922 89.0204 42.5825 90.0107 43.7972 90.0107Z" fill="black"/>
<path d="M34.9903 90.0107C36.2051 90.0107 37.1954 89.0204 37.1954 87.8056C37.1954 86.5909 36.2183 85.6006 34.9903 85.6006C33.7624 85.6006 32.7853 86.5909 32.7853 87.8056C32.7853 89.0204 33.7624 90.0107 34.9903 90.0107Z" fill="black"/>
<path d="M30.5934 90.0107C31.8081 90.0107 32.7984 89.0204 32.7984 87.8056C32.7984 86.5909 31.8081 85.6006 30.5934 85.6006C29.3786 85.6006 28.3883 86.5909 28.3883 87.8056C28.3883 89.0204 29.3786 90.0107 30.5934 90.0107Z" fill="black"/>
<path d="M21.7863 90.0107C23.0011 90.0107 23.9914 89.0204 23.9914 87.8056C23.9914 86.5909 23.0143 85.6006 21.7863 85.6006C20.5584 85.6006 19.5813 86.5909 19.5813 87.8056C19.5813 89.0204 20.5584 90.0107 21.7863 90.0107Z" fill="black"/>
<path d="M87.8058 94.4077C89.0205 94.4077 90.0108 93.4174 90.0108 92.2026C90.0108 90.9878 89.0205 89.9976 87.8058 89.9976C86.591 89.9976 85.6007 90.9878 85.6007 92.2026C85.6007 93.4174 86.591 94.4077 87.8058 94.4077Z" fill="black"/>
<path d="M78.9989 94.4077C80.2136 94.4077 81.2039 93.4174 81.2039 92.2026C81.2039 90.9878 80.2136 89.9976 78.9989 89.9976C77.7841 89.9976 76.7938 90.9878 76.7938 92.2026C76.7938 93.4174 77.7841 94.4077 78.9989 94.4077Z" fill="black"/>
<path d="M74.6019 94.4077C75.8167 94.4077 76.8069 93.4174 76.8069 92.2026C76.8069 90.9878 75.8167 89.9976 74.6019 89.9976C73.3871 89.9976 72.3969 90.9878 72.3969 92.2026C72.3969 93.4174 73.3871 94.4077 74.6019 94.4077Z" fill="black"/>
<path d="M70.205 94.4077C71.4198 94.4077 72.4101 93.4174 72.4101 92.2026C72.4101 90.9878 71.4198 89.9976 70.205 89.9976C68.9903 89.9976 68 90.9878 68 92.2026C68 93.4174 68.9903 94.4077 70.205 94.4077Z" fill="black"/>
<path d="M57.0012 94.4077C58.2159 94.4077 59.2062 93.4174 59.2062 92.2026C59.2062 90.9878 58.2159 89.9976 57.0012 89.9976C55.7864 89.9976 54.7961 90.9878 54.7961 92.2026C54.7961 93.4174 55.7864 94.4077 57.0012 94.4077Z" fill="black"/>
<path d="M52.591 94.4077C53.8058 94.4077 54.7961 93.4174 54.7961 92.2026C54.7961 90.9878 53.8058 89.9976 52.591 89.9976C51.3763 89.9976 50.386 90.9878 50.386 92.2026C50.386 93.4174 51.3763 94.4077 52.591 94.4077Z" fill="black"/>
<path d="M48.1942 94.4077C49.4089 94.4077 50.3992 93.4174 50.3992 92.2026C50.3992 90.9878 49.4221 89.9976 48.1942 89.9976C46.9662 89.9976 45.9891 90.9878 45.9891 92.2026C45.9891 93.4174 46.9662 94.4077 48.1942 94.4077Z" fill="black"/>
<path d="M87.8058 98.8046C89.0205 98.8046 90.0108 97.8143 90.0108 96.5996C90.0108 95.3848 89.0205 94.3945 87.8058 94.3945C86.591 94.3945 85.6007 95.3848 85.6007 96.5996C85.6007 97.8143 86.591 98.8046 87.8058 98.8046Z" fill="black"/>
<path d="M83.4089 98.8046C84.6237 98.8046 85.6139 97.8143 85.6139 96.5996C85.6139 95.3848 84.6237 94.3945 83.4089 94.3945C82.1941 94.3945 81.2039 95.3848 81.2039 96.5996C81.2039 97.8143 82.1941 98.8046 83.4089 98.8046Z" fill="black"/>
<path d="M70.205 98.8046C71.4198 98.8046 72.4101 97.8143 72.4101 96.5996C72.4101 95.3848 71.4198 94.3945 70.205 94.3945C68.9903 94.3945 68 95.3848 68 96.5996C68 97.8143 68.9903 98.8046 70.205 98.8046Z" fill="black"/>
<path d="M65.7949 98.8046C67.0097 98.8046 67.9999 97.8143 67.9999 96.5996C67.9999 95.3848 67.0097 94.3945 65.7949 94.3945C64.5801 94.3945 63.5898 95.3848 63.5898 96.5996C63.5898 97.8143 64.5801 98.8046 65.7949 98.8046Z" fill="black"/>
<path d="M61.398 98.8046C62.6128 98.8046 63.6031 97.8143 63.6031 96.5996C63.6031 95.3848 62.626 94.3945 61.398 94.3945C60.1701 94.3945 59.193 95.3848 59.193 96.5996C59.193 97.8143 60.1701 98.8046 61.398 98.8046Z" fill="black"/>
<path d="M52.591 98.8046C53.8058 98.8046 54.7961 97.8143 54.7961 96.5996C54.7961 95.3848 53.8058 94.3945 52.591 94.3945C51.3763 94.3945 50.386 95.3848 50.386 96.5996C50.386 97.8143 51.3763 98.8046 52.591 98.8046Z" fill="black"/>
<path d="M87.8058 103.215C89.0236 103.215 90.0108 102.227 90.0108 101.009C90.0108 99.7917 89.0236 98.8044 87.8058 98.8044C86.5879 98.8044 85.6007 99.7917 85.6007 101.009C85.6007 102.227 86.5879 103.215 87.8058 103.215Z" fill="black"/>
<path d="M83.4089 103.215C84.6237 103.215 85.6139 102.224 85.6139 101.009C85.6139 99.7947 84.6237 98.8044 83.4089 98.8044C82.1941 98.8044 81.2039 99.7947 81.2039 101.009C81.2039 102.224 82.1941 103.215 83.4089 103.215Z" fill="black"/>
<path d="M78.9989 103.215C80.2136 103.215 81.2039 102.224 81.2039 101.009C81.2039 99.7947 80.2136 98.8044 78.9989 98.8044C77.7841 98.8044 76.7938 99.7947 76.7938 101.009C76.7938 102.224 77.7841 103.215 78.9989 103.215Z" fill="black"/>
<path d="M74.6019 103.215C75.8197 103.215 76.8069 102.227 76.8069 101.009C76.8069 99.7917 75.8197 98.8044 74.6019 98.8044C73.3841 98.8044 72.3969 99.7917 72.3969 101.009C72.3969 102.227 73.3841 103.215 74.6019 103.215Z" fill="black"/>
<path d="M65.7949 103.215C67.0097 103.215 67.9999 102.224 67.9999 101.009C67.9999 99.7947 67.0097 98.8044 65.7949 98.8044C64.5801 98.8044 63.5898 99.7947 63.5898 101.009C63.5898 102.224 64.5801 103.215 65.7949 103.215Z" fill="black"/>
<path d="M57.0012 103.215C58.2159 103.215 59.2062 102.224 59.2062 101.009C59.2062 99.7947 58.2159 98.8044 57.0012 98.8044C55.7864 98.8044 54.7961 99.7947 54.7961 101.009C54.7961 102.224 55.7864 103.215 57.0012 103.215Z" fill="black"/>
<path d="M48.1942 103.215C49.4089 103.215 50.3992 102.224 50.3992 101.009C50.3992 99.7947 49.4221 98.8044 48.1942 98.8044C46.9662 98.8044 45.9891 99.7947 45.9891 101.009C45.9891 102.224 46.9662 103.215 48.1942 103.215Z" fill="black"/>
<path d="M74.6019 107.612C75.8167 107.612 76.8069 106.621 76.8069 105.406C76.8069 104.192 75.8167 103.201 74.6019 103.201C73.3871 103.201 72.3969 104.192 72.3969 105.406C72.3969 106.621 73.3871 107.612 74.6019 107.612Z" fill="black"/>
<path d="M70.205 107.612C71.4198 107.612 72.4101 106.621 72.4101 105.406C72.4101 104.192 71.4198 103.201 70.205 103.201C68.9903 103.201 68 104.192 68 105.406C68 106.621 68.9903 107.612 70.205 107.612Z" fill="black"/>
<path d="M65.7949 107.612C67.0097 107.612 67.9999 106.621 67.9999 105.406C67.9999 104.192 67.0097 103.201 65.7949 103.201C64.5801 103.201 63.5898 104.192 63.5898 105.406C63.5898 106.621 64.5801 107.612 65.7949 107.612Z" fill="black"/>
<path d="M61.398 107.612C62.6128 107.612 63.6031 106.621 63.6031 105.406C63.6031 104.192 62.626 103.201 61.398 103.201C60.1701 103.201 59.193 104.192 59.193 105.406C59.193 106.621 60.1701 107.612 61.398 107.612Z" fill="black"/>
<path d="M57.0012 107.612C58.2159 107.612 59.2062 106.621 59.2062 105.406C59.2062 104.192 58.2159 103.201 57.0012 103.201C55.7864 103.201 54.7961 104.192 54.7961 105.406C54.7961 106.621 55.7864 107.612 57.0012 107.612Z" fill="black"/>
<path d="M52.591 107.612C53.8058 107.612 54.7961 106.621 54.7961 105.406C54.7961 104.192 53.8058 103.201 52.591 103.201C51.3763 103.201 50.386 104.192 50.386 105.406C50.386 106.621 51.3763 107.612 52.591 107.612Z" fill="black"/>
<path d="M87.8058 112.008C89.0205 112.008 90.0108 111.018 90.0108 109.803C90.0108 108.589 89.0205 107.598 87.8058 107.598C86.591 107.598 85.6007 108.589 85.6007 109.803C85.6007 111.018 86.591 112.008 87.8058 112.008Z" fill="black"/>
<path d="M83.4089 112.008C84.6237 112.008 85.6139 111.018 85.6139 109.803C85.6139 108.589 84.6237 107.598 83.4089 107.598C82.1941 107.598 81.2039 108.589 81.2039 109.803C81.2039 111.018 82.1941 112.008 83.4089 112.008Z" fill="black"/>
<path d="M78.9989 112.008C80.2136 112.008 81.2039 111.018 81.2039 109.803C81.2039 108.589 80.2136 107.598 78.9989 107.598C77.7841 107.598 76.7938 108.589 76.7938 109.803C76.7938 111.018 77.7841 112.008 78.9989 112.008Z" fill="black"/>
<path d="M74.6019 112.008C75.8167 112.008 76.8069 111.018 76.8069 109.803C76.8069 108.589 75.8167 107.598 74.6019 107.598C73.3871 107.598 72.3969 108.589 72.3969 109.803C72.3969 111.018 73.3871 112.008 74.6019 112.008Z" fill="black"/>
<path d="M70.205 112.008C71.4198 112.008 72.4101 111.018 72.4101 109.803C72.4101 108.589 71.4198 107.598 70.205 107.598C68.9903 107.598 68 108.589 68 109.803C68 111.018 68.9903 112.008 70.205 112.008Z" fill="black"/>
<path d="M65.7949 112.008C67.0097 112.008 67.9999 111.018 67.9999 109.803C67.9999 108.589 67.0097 107.598 65.7949 107.598C64.5801 107.598 63.5898 108.589 63.5898 109.803C63.5898 111.018 64.5801 112.008 65.7949 112.008Z" fill="black"/>
<path d="M57.0012 112.008C58.2159 112.008 59.2062 111.018 59.2062 109.803C59.2062 108.589 58.2159 107.598 57.0012 107.598C55.7864 107.598 54.7961 108.589 54.7961 109.803C54.7961 111.018 55.7864 112.008 57.0012 112.008Z" fill="black"/>
<path d="M52.591 112.008C53.8058 112.008 54.7961 111.018 54.7961 109.803C54.7961 108.589 53.8058 107.598 52.591 107.598C51.3763 107.598 50.386 108.589 50.386 109.803C50.386 111.018 51.3763 112.008 52.591 112.008Z" fill="black"/>
<path d="M48.1942 112.008C49.4089 112.008 50.3992 111.018 50.3992 109.803C50.3992 108.589 49.4221 107.598 48.1942 107.598C46.9662 107.598 45.9891 108.589 45.9891 109.803C45.9891 111.018 46.9662 112.008 48.1942 112.008Z" fill="black"/>
<path d="M87.8058 116.419C89.0236 116.419 90.0108 115.431 90.0108 114.214C90.0108 112.996 89.0236 112.009 87.8058 112.009C86.5879 112.009 85.6007 112.996 85.6007 114.214C85.6007 115.431 86.5879 116.419 87.8058 116.419Z" fill="black"/>
<path d="M83.4089 116.419C84.6237 116.419 85.6139 115.428 85.6139 114.214C85.6139 112.999 84.6237 112.009 83.4089 112.009C82.1941 112.009 81.2039 112.999 81.2039 114.214C81.2039 115.428 82.1941 116.419 83.4089 116.419Z" fill="black"/>
<path d="M78.9989 116.419C80.2136 116.419 81.2039 115.428 81.2039 114.214C81.2039 112.999 80.2136 112.009 78.9989 112.009C77.7841 112.009 76.7938 112.999 76.7938 114.214C76.7938 115.428 77.7841 116.419 78.9989 116.419Z" fill="black"/>
<path d="M74.6019 116.419C75.8197 116.419 76.8069 115.431 76.8069 114.214C76.8069 112.996 75.8197 112.009 74.6019 112.009C73.3841 112.009 72.3969 112.996 72.3969 114.214C72.3969 115.431 73.3841 116.419 74.6019 116.419Z" fill="black"/>
<path d="M57.0012 116.419C58.2159 116.419 59.2062 115.428 59.2062 114.214C59.2062 112.999 58.2159 112.009 57.0012 112.009C55.7864 112.009 54.7961 112.999 54.7961 114.214C54.7961 115.428 55.7864 116.419 57.0012 116.419Z" fill="black"/>
<path d="M52.591 116.419C53.8058 116.419 54.7961 115.428 54.7961 114.214C54.7961 112.999 53.8058 112.009 52.591 112.009C51.3763 112.009 50.386 112.999 50.386 114.214C50.386 115.428 51.3763 116.419 52.591 116.419Z" fill="black"/>
<path d="M87.8058 120.815C89.0205 120.815 90.0108 119.825 90.0108 118.61C90.0108 117.396 89.0205 116.405 87.8058 116.405C86.591 116.405 85.6007 117.396 85.6007 118.61C85.6007 119.825 86.591 120.815 87.8058 120.815Z" fill="black"/>
<path d="M78.9989 120.815C80.2136 120.815 81.2039 119.825 81.2039 118.61C81.2039 117.396 80.2136 116.405 78.9989 116.405C77.7841 116.405 76.7938 117.396 76.7938 118.61C76.7938 119.825 77.7841 120.815 78.9989 120.815Z" fill="black"/>
<path d="M65.7949 120.815C67.0097 120.815 67.9999 119.825 67.9999 118.61C67.9999 117.396 67.0097 116.405 65.7949 116.405C64.5801 116.405 63.5898 117.396 63.5898 118.61C63.5898 119.825 64.5801 120.815 65.7949 120.815Z" fill="black"/>
<path d="M61.398 120.815C62.6128 120.815 63.6031 119.825 63.6031 118.61C63.6031 117.396 62.626 116.405 61.398 116.405C60.1701 116.405 59.193 117.396 59.193 118.61C59.193 119.825 60.1701 120.815 61.398 120.815Z" fill="black"/>
<path d="M57.0012 120.815C58.2159 120.815 59.2062 119.825 59.2062 118.61C59.2062 117.396 58.2159 116.405 57.0012 116.405C55.7864 116.405 54.7961 117.396 54.7961 118.61C54.7961 119.825 55.7864 120.815 57.0012 120.815Z" fill="black"/>
<path d="M48.1942 120.815C49.4089 120.815 50.3992 119.825 50.3992 118.61C50.3992 117.396 49.4221 116.405 48.1942 116.405C46.9662 116.405 45.9891 117.396 45.9891 118.61C45.9891 119.825 46.9662 120.815 48.1942 120.815Z" fill="black"/>
<path d="M117.815 120.815C119.472 120.815 120.815 119.472 120.815 117.815V97.4077C120.815 95.7509 119.472 94.4077 117.815 94.4077H97.4077C95.7509 94.4077 94.4077 95.7509 94.4077 97.4077V117.815C94.4077 119.472 95.7509 120.815 97.4077 120.815H117.815ZM98.8046 101.805C98.8046 100.148 100.148 98.8046 101.805 98.8046H113.405C115.062 98.8046 116.405 100.148 116.405 101.805V113.405C116.405 115.062 115.062 116.405 113.405 116.405H101.805C100.148 116.405 98.8046 115.062 98.8046 113.405V101.805Z" fill="black"/>
<path d="M111.214 114.213C112.87 114.213 114.214 112.87 114.214 111.213V104.01C114.214 102.353 112.87 101.01 111.214 101.01H104.01C102.353 101.01 101.01 102.353 101.01 104.01V111.213C101.01 112.87 102.353 114.213 104.01 114.213H111.214ZM105.407 107.605C105.407 106.391 106.391 105.406 107.605 105.406C108.819 105.406 109.803 106.391 109.803 107.605C109.803 108.819 108.819 109.803 107.605 109.803C106.391 109.803 105.407 108.819 105.407 107.605Z" fill="black"/>
<path d="M117.815 41.5921C119.472 41.5921 120.815 40.2489 120.815 38.5921V18.1843C120.815 16.5275 119.472 15.1843 117.815 15.1843H97.4077C95.7509 15.1843 94.4077 16.5275 94.4077 18.1843V38.5921C94.4077 40.249 95.7509 41.5921 97.4077 41.5921H117.815ZM98.8046 22.5812C98.8046 20.9244 100.148 19.5812 101.805 19.5812H113.405C115.062 19.5812 116.405 20.9244 116.405 22.5812V34.182C116.405 35.8389 115.062 37.182 113.405 37.182H101.805C100.148 37.182 98.8046 35.8389 98.8046 34.182V22.5812Z" fill="black"/>
<path d="M111.214 34.9903C112.87 34.9903 114.214 33.6471 114.214 31.9903V24.7864C114.214 23.1295 112.87 21.7864 111.214 21.7864H104.01C102.353 21.7864 101.01 23.1295 101.01 24.7864V31.9903C101.01 33.6471 102.353 34.9903 104.01 34.9903H111.214ZM105.407 28.3817C105.407 27.1675 106.391 26.1833 107.605 26.1833C108.819 26.1833 109.803 27.1675 109.803 28.3817C109.803 29.5959 108.819 30.5802 107.605 30.5802C106.391 30.5802 105.407 29.5959 105.407 28.3817Z" fill="black"/>
<path d="M38.5922 120.815C40.2491 120.815 41.5922 119.472 41.5922 117.815V97.4077C41.5922 95.7509 40.2491 94.4077 38.5922 94.4077H18.1844C16.5276 94.4077 15.1844 95.7509 15.1844 97.4077V117.815C15.1844 119.472 16.5276 120.815 18.1844 120.815H38.5922ZM19.5813 101.805C19.5813 100.148 20.9245 98.8046 22.5813 98.8046H34.1821C35.839 98.8046 37.1821 100.148 37.1821 101.805V113.405C37.1821 115.062 35.839 116.405 34.1821 116.405H22.5813C20.9245 116.405 19.5813 115.062 19.5813 113.405V101.805Z" fill="black"/>
<path d="M31.9903 114.213C33.6471 114.213 34.9903 112.87 34.9903 111.213V104.01C34.9903 102.353 33.6471 101.01 31.9903 101.01H24.7864C23.1295 101.01 21.7864 102.353 21.7864 104.01V111.213C21.7864 112.87 23.1295 114.213 24.7864 114.213H31.9903ZM26.1833 107.605C26.1833 106.391 27.1675 105.406 28.3817 105.406C29.5959 105.406 30.5802 106.391 30.5802 107.605C30.5802 108.819 29.5959 109.803 28.3817 109.803C27.1675 109.803 26.1833 108.819 26.1833 107.605Z" fill="black"/>
<path d="M39.3872 41.5922C40.6019 41.5922 41.5922 40.6019 41.5922 39.3872C41.5922 38.1724 40.6019 37.1821 39.3872 37.1821C38.1724 37.1821 37.1821 38.1724 37.1821 39.3872C37.1821 40.6019 38.1724 41.5922 39.3872 41.5922Z" fill="black"/>
<path d="M34.9903 45.989C36.2051 45.989 37.1954 44.9987 37.1954 43.7839C37.1954 42.5691 36.2051 41.5789 34.9903 41.5789C33.7756 41.5789 32.7853 42.5691 32.7853 43.7839C32.7853 44.9987 33.7756 45.989 34.9903 45.989Z" fill="black"/>
<path d="M34.9903 52.591C36.2051 52.591 37.1954 51.6007 37.1954 50.386C37.1954 49.1712 36.2051 48.1809 34.9903 48.1809C33.7756 48.1809 32.7853 49.1712 32.7853 50.386C32.7853 51.6007 33.7756 52.591 34.9903 52.591Z" fill="black"/>
<path d="M45.9891 34.9902C47.2039 34.9902 48.1942 33.9999 48.1942 32.7851C48.1942 31.5704 47.2039 30.5801 45.9891 30.5801C44.7744 30.5801 43.7841 31.5704 43.7841 32.7851C43.7841 33.9999 44.7744 34.9902 45.9891 34.9902Z" fill="black"/>
<path d="M46.0023 48.194C47.217 48.194 48.2073 47.2037 48.2073 45.989C48.2073 44.7742 47.217 43.7839 46.0023 43.7839C44.7875 43.7839 43.7972 44.7742 43.7972 45.989C43.7972 47.2037 44.7875 48.194 46.0023 48.194Z" fill="black"/>
<path d="M39.4004 34.9902C40.6151 34.9902 41.6054 33.9999 41.6054 32.7851C41.6054 31.5704 40.6151 30.5801 39.4004 30.5801C38.1856 30.5801 37.1953 31.5704 37.1953 32.7851C37.1953 33.9999 38.1856 34.9902 39.4004 34.9902Z" fill="black"/>
<path d="M39.3872 29.4841C40.6019 29.4841 41.5922 28.4938 41.5922 27.279C41.5922 26.0643 40.6019 25.074 39.3872 25.074C38.1724 25.074 37.1821 26.0643 37.1821 27.279C37.1821 28.4938 38.1724 29.4841 39.3872 29.4841Z" fill="black"/>
</g>
<defs>
<clipPath id="clip0_2198_5004">
<rect width="136" height="136" fill="white"/>
</clipPath>
</defs>
</svg>
