<svg width="60" height="60" viewBox="0 0 60 60" fill="none" xmlns="http://www.w3.org/2000/svg">
<g clip-path="url(#clip0_1120_5867)">
<path d="M18.75 3.75H3.75V18.75H18.75V3.75ZM22.5 0V22.5H0V0H22.5ZM7.5 7.5H15V15H7.5V7.5ZM56.25 3.75H41.25V18.75H56.25V3.75ZM60 0V22.5H37.5V0H60ZM45 7.5H52.5V15H45V7.5ZM18.75 41.25H3.75V56.25H18.75V41.25ZM22.5 37.5V60H0V37.5H22.5ZM7.5 45H15V52.5H7.5V45ZM26.25 0H30V3.75H26.25V0ZM30 3.75H33.75V7.5H30V3.75ZM26.25 7.5H30V11.25H26.25V7.5ZM30 11.25H33.75V15H30V11.25ZM26.25 15H30V18.75H26.25V15ZM30 18.75H33.75V22.5H30V18.75ZM26.25 22.5H30V26.25H26.25V22.5ZM26.25 30H30V33.75H26.25V30ZM30 33.75H33.75V37.5H30V33.75ZM26.25 37.5H30V41.25H26.25V37.5ZM30 41.25H33.75V45H30V41.25ZM26.25 45H30V48.75H26.25V45ZM30 48.75H33.75V52.5H30V48.75ZM26.25 52.5H30V56.25H26.25V52.5ZM30 56.25H33.75V60H30V56.25ZM56.25 30H60V33.75H56.25V30ZM3.75 30H7.5V33.75H3.75V30ZM7.5 26.25H11.25V30H7.5V26.25ZM0 26.25H3.75V30H0V26.25ZM15 26.25H18.75V30H15V26.25ZM18.75 30H22.5V33.75H18.75V30ZM22.5 26.25H26.25V30H22.5V26.25ZM33.75 30H37.5V33.75H33.75V30ZM37.5 26.25H41.25V30H37.5V26.25ZM41.25 30H45V33.75H41.25V30ZM45 26.25H48.75V30H45V26.25ZM48.75 30H52.5V33.75H48.75V30ZM52.5 26.25H56.25V30H52.5V26.25ZM56.25 37.5H60V41.25H56.25V37.5ZM33.75 37.5H37.5V41.25H33.75V37.5ZM37.5 33.75H41.25V37.5H37.5V33.75ZM41.25 37.5H45V41.25H41.25V37.5ZM48.75 37.5H52.5V41.25H48.75V37.5ZM52.5 33.75H56.25V37.5H52.5V33.75ZM56.25 45H60V48.75H56.25V45ZM33.75 45H37.5V48.75H33.75V45ZM37.5 41.25H41.25V45H37.5V41.25ZM45 41.25H48.75V45H45V41.25ZM48.75 45H52.5V48.75H48.75V45ZM52.5 41.25H56.25V45H52.5V41.25ZM56.25 52.5H60V56.25H56.25V52.5ZM37.5 48.75H41.25V52.5H37.5V48.75ZM41.25 52.5H45V56.25H41.25V52.5ZM45 48.75H48.75V52.5H45V48.75ZM48.75 52.5H52.5V56.25H48.75V52.5ZM37.5 56.25H41.25V60H37.5V56.25ZM45 56.25H48.75V60H45V56.25ZM52.5 56.25H56.25V60H52.5V56.25Z" fill="black"/>
</g>
<defs>
<clipPath id="clip0_1120_5867">
<rect width="60" height="60" fill="white"/>
</clipPath>
</defs>
</svg>
