<svg width="20" height="20" viewBox="0 0 20 20" fill="none" xmlns="http://www.w3.org/2000/svg">
<g clip-path="url(#clip0_1793_1564)">
<path d="M11.611 19.0882L12.1152 18.2361L10.9152 17.5254L10.4101 18.3775L11.611 19.0882ZM7.88456 18.2361L8.38874 19.0882L9.58873 18.3775L9.08547 17.5254L7.88456 18.2361ZM10.4101 18.3775C10.3666 18.447 10.3062 18.5044 10.2344 18.5442C10.1626 18.584 10.0819 18.6049 9.99988 18.6049C9.91783 18.6049 9.83713 18.584 9.76536 18.5442C9.6936 18.5044 9.63313 18.447 9.58965 18.3775L8.38874 19.0882C9.1078 20.3039 10.891 20.3039 11.611 19.0882L10.4101 18.3775ZM8.60455 1.39533H11.3952V3.87399e-07H8.60455V1.39533ZM18.6044 8.60455V9.53477H19.9998V8.60455H18.6044ZM1.39533 9.53477V8.60455H0V9.53477H1.39533ZM0 9.53477C0 10.6092 -4.50495e-08 11.4492 0.046511 12.1273C0.0930221 12.811 0.188835 13.3803 0.407437 13.9068L1.69672 13.3729C1.55998 13.0454 1.47998 12.6454 1.43812 12.0324C1.39533 11.4129 1.39533 10.6278 1.39533 9.53477H0ZM6.09574 15.8063C4.92738 15.7859 4.3153 15.7114 3.8353 15.5124L3.30229 16.8017C4.05112 17.1124 4.9032 17.1821 6.07156 17.2026L6.09574 15.8063ZM0.407437 13.9068C0.676239 14.5558 1.07024 15.1455 1.56694 15.6422C2.06364 16.1389 2.65331 16.5329 3.30229 16.8017L3.8353 15.5124C2.86664 15.1111 2.09797 14.3415 1.69672 13.3729L0.407437 13.9068ZM18.6044 9.53477C18.6044 10.6278 18.6044 11.4129 18.5616 12.0324C18.5198 12.6454 18.4398 13.0454 18.304 13.3729L19.5923 13.9068C19.8109 13.3803 19.9067 12.811 19.9542 12.1273C20.0007 11.4492 19.9998 10.6092 19.9998 9.53477H18.6044ZM13.9282 17.2007C15.0966 17.1812 15.9487 17.1124 16.6975 16.8017L16.1635 15.5124C15.6845 15.7114 15.0724 15.7859 13.905 15.8063L13.9282 17.2007ZM18.304 13.3729C17.9027 14.3415 17.1331 15.1111 16.1645 15.5124L16.6975 16.8017C17.3465 16.5329 17.9361 16.1389 18.4328 15.6422C18.9295 15.1455 19.3235 14.5558 19.5923 13.9068L18.304 13.3729ZM11.3952 1.39533C12.931 1.39533 14.0343 1.39533 14.8947 1.47812C15.7449 1.55905 16.2854 1.71347 16.717 1.97765L17.4454 0.787898C16.7579 0.367438 15.9784 0.179533 15.0268 0.0883715C14.0854 -0.000929808 12.904 3.87399e-07 11.3952 3.87399e-07V1.39533ZM19.9998 8.60455C19.9998 7.09573 19.9998 5.91528 19.9105 4.97297C19.8202 4.02135 19.6323 3.24089 19.2119 2.55439L18.0212 3.28275C18.2863 3.71438 18.4407 4.25483 18.5216 5.10599C18.6035 5.96551 18.6044 7.06875 18.6044 8.60455H19.9998ZM16.7161 1.97765C17.2483 2.3035 17.6959 2.75073 18.0221 3.28275L19.2119 2.55439C18.7707 1.83438 18.1654 1.22904 17.4454 0.787898L16.7161 1.97765ZM8.60455 3.87399e-07C7.09573 3.87399e-07 5.91528 4.15841e-07 4.97297 0.0883715C4.02135 0.179533 3.24089 0.367438 2.55439 0.787898L3.28275 1.97858C3.71438 1.71347 4.25483 1.55905 5.10599 1.47812C5.96551 1.39626 7.06875 1.39533 8.60455 1.39533V3.87399e-07ZM1.39533 8.60455C1.39533 7.06875 1.39533 5.96551 1.47812 5.10506C1.55905 4.25483 1.71347 3.71438 1.97765 3.28275L0.787898 2.55532C0.367437 3.24182 0.179533 4.02135 0.0883711 4.97297C2.77228e-08 5.91621 0 7.09573 0 8.60455H1.39533ZM2.55439 0.787898C1.83438 1.22904 1.22904 1.83531 0.787898 2.55532L1.97858 3.28275C2.30429 2.75095 2.75118 2.30374 3.28275 1.97765L2.55439 0.787898ZM9.08455 17.5254C8.89664 17.2063 8.73106 16.9245 8.5692 16.7031C8.40272 16.4603 8.18645 16.2558 7.93479 16.1031L7.2334 17.3096C7.27712 17.3356 7.33759 17.3821 7.44177 17.5254C7.55433 17.6798 7.68177 17.8937 7.88456 18.2361L9.08455 17.5254ZM6.07156 17.2007C6.48085 17.2082 6.73853 17.2138 6.93573 17.2351C7.11992 17.2556 7.19154 17.2854 7.2334 17.3096L7.93479 16.1031C7.67434 15.9588 7.38603 15.8719 7.08922 15.8482C6.81201 15.8175 6.47899 15.8128 6.09574 15.8063L6.07156 17.2007ZM12.1152 18.2361C12.318 17.8947 12.4454 17.6798 12.558 17.5254C12.6622 17.3821 12.7226 17.3356 12.7664 17.3096L12.065 16.1031C11.7952 16.2612 11.5999 16.4705 11.4306 16.7031C11.2696 16.9245 11.1031 17.2054 10.9143 17.5254L12.1152 18.2361ZM13.905 15.8063C13.5217 15.8128 13.1878 15.8175 12.9105 15.8482C12.6212 15.8807 12.3375 15.9449 12.065 16.1031L12.7664 17.3096C12.8082 17.2854 12.8798 17.2556 13.064 17.2351C13.2612 17.2138 13.5198 17.2072 13.9291 17.2007L13.905 15.8063Z" fill="black"/>
<path opacity="0.5" d="M6.27881 9.06934H6.28718M9.99132 9.06934H9.9997M13.7122 9.06934H13.7206" stroke="black" stroke-width="2" stroke-linecap="round" stroke-linejoin="round"/>
</g>
<defs>
<clipPath id="clip0_1793_1564">
<rect width="20" height="20" fill="white"/>
</clipPath>
</defs>
</svg>
