<svg width="20" height="20" viewBox="0 0 20 20" fill="none" xmlns="http://www.w3.org/2000/svg">
<g clip-path="url(#clip0_3599_256)">
<path d="M19.1207 11.5896L18.2887 10.9047C17.7188 10.4355 17.7198 9.56352 18.2887 9.09527L19.1207 8.41035C19.7128 7.92289 19.8643 7.08703 19.4808 6.42277L17.8379 3.57723C17.4544 2.91301 16.6546 2.62629 15.9366 2.89527L14.9274 3.27336C14.2362 3.53227 13.4815 3.09559 13.3604 2.36863L13.1832 1.30559C13.0571 0.549102 12.4089 0 11.642 0H8.35625C7.58926 0 6.94105 0.549102 6.815 1.30562L6.63781 2.36863C6.51644 3.09688 5.76074 3.53184 5.07078 3.2734L4.0616 2.89527C3.34352 2.62629 2.54383 2.91305 2.16027 3.57723L0.517421 6.42273C0.133945 7.08691 0.285351 7.92281 0.877499 8.41031L1.70949 9.09523C2.27949 9.56445 2.27836 10.4364 1.70949 10.9047L0.87746 11.5896C0.285351 12.0771 0.133905 12.913 0.517382 13.5772L2.16027 16.4227C2.54379 17.0869 3.34332 17.3737 4.0616 17.1047L5.07074 16.7266C5.76211 16.4676 6.51664 16.9046 6.63777 17.6313L6.81496 18.6943C6.94105 19.4509 7.58926 20 8.35621 20H11.642C12.4089 20 13.0571 19.4509 13.1832 18.6944L13.3603 17.6314C13.4816 16.9034 14.2373 16.4681 14.9274 16.7267L15.9366 17.1047C16.6548 17.3738 17.4544 17.087 17.8379 16.4228L19.4809 13.5772C19.8643 12.913 19.7128 12.0771 19.1207 11.5896ZM16.4848 15.6415L15.4756 15.2634C13.8623 14.6591 12.1018 15.6787 11.8191 17.3745L11.642 18.4375H8.35625L8.17906 17.3745C7.8959 15.6754 6.13273 14.6603 4.52262 15.2634L3.51344 15.6415L1.87059 12.796L2.70258 12.1111C4.03262 11.0161 4.02984 8.9816 2.70258 7.88895L1.87059 7.20402L3.51348 4.35848L4.52262 4.73656C6.1359 5.34086 7.89644 4.32133 8.17906 2.62551L8.35621 1.5625H11.642L11.8191 2.62551C12.1023 4.3248 13.8655 5.33961 15.4755 4.73656L16.4847 4.35848L18.128 7.20363C18.128 7.20363 18.1279 7.20375 18.1275 7.20398L17.2956 7.88891C15.9656 8.98375 15.9682 11.0183 17.2955 12.111L18.1276 12.7959L16.4848 15.6415ZM9.9991 6.14582C7.87391 6.14582 6.14492 7.8748 6.14492 10C6.14492 12.1252 7.87391 13.8542 9.9991 13.8542C12.1243 13.8542 13.8533 12.1252 13.8533 10C13.8533 7.8748 12.1243 6.14582 9.9991 6.14582ZM9.9991 12.2917C8.73547 12.2917 7.70742 11.2636 7.70742 10C7.70742 8.73637 8.73547 7.70832 9.9991 7.70832C11.2627 7.70832 12.2908 8.73637 12.2908 10C12.2908 11.2636 11.2627 12.2917 9.9991 12.2917Z" fill="#717171"/>
</g>
<defs>
<clipPath id="clip0_3599_256">
<rect width="20" height="20" fill="white"/>
</clipPath>
</defs>
</svg>
