<svg width="20" height="20" viewBox="0 0 20 20" fill="none" xmlns="http://www.w3.org/2000/svg">
<g clip-path="url(#clip0_3518_80)">
<path d="M19.4003 12.1917L17.562 10.7542C17.5853 10.5325 17.6053 10.2734 17.6053 9.99918C17.6053 9.725 17.5862 9.46586 17.562 9.24418L19.402 7.80586C19.7437 7.53586 19.837 7.05668 19.6195 6.65754L17.7078 3.35C17.5037 2.97668 17.0562 2.785 16.602 2.9525L14.4328 3.82332C14.017 3.52332 13.5812 3.27 13.1303 3.0675L12.8003 0.76668C12.7462 0.33 12.3662 0 11.917 0H8.0837C7.63452 0 7.25538 0.33 7.20202 0.76L6.8712 3.06918C6.43452 3.26586 6.00538 3.51586 5.5712 3.825L3.3962 2.95168C2.98866 2.79418 2.50116 2.97082 2.29866 3.3425L0.384521 6.65418C0.1587 7.03586 0.252021 7.53168 0.6012 7.80836L2.43952 9.24586C2.41034 9.52668 2.3962 9.77086 2.3962 10C2.3962 10.2292 2.41038 10.4734 2.43952 10.755L0.599521 12.1934C0.257841 12.4642 0.165341 12.9434 0.382841 13.3417L2.29452 16.6492C2.4987 17.0217 2.94202 17.215 3.40034 17.0467L5.56952 16.1759C5.98452 16.475 6.42034 16.7284 6.8712 16.9317L7.2012 19.2317C7.25534 19.67 7.63452 20 8.08452 20H11.9178C12.367 20 12.747 19.67 12.8003 19.24L13.1312 16.9317C13.5678 16.7342 13.9962 16.485 14.4312 16.175L16.6062 17.0483C16.7112 17.0891 16.8203 17.11 16.9328 17.11C17.2562 17.11 17.5537 16.9333 17.7037 16.6583L19.6237 13.3333C19.837 12.9433 19.7437 12.4642 19.4003 12.1917ZM10.0003 13.3333C8.16202 13.3333 6.66702 11.8383 6.66702 10C6.66702 8.16168 8.16202 6.66668 10.0003 6.66668C11.8387 6.66668 13.3337 8.16168 13.3337 10C13.3337 11.8383 11.8387 13.3333 10.0003 13.3333Z" fill="#652DBF"/>
</g>
<defs>
<clipPath id="clip0_3518_80">
<rect width="20" height="20" fill="white"/>
</clipPath>
</defs>
</svg>
