<svg width="24" height="24" viewBox="0 0 24 24" fill="none" xmlns="http://www.w3.org/2000/svg">
<path d="M12.6093 5.84897C12.6093 5.50378 12.8892 5.22397 13.2343 5.22397H16.2553C17.6325 5.22397 18.7553 6.34391 18.7553 7.72397V10.7656C18.7553 11.1108 18.4755 11.3906 18.1303 11.3906C17.7851 11.3906 17.5053 11.1108 17.5053 10.7656C17.4923 7.59241 17.5349 7.68428 17.4671 7.41675L9.98362 14.9003C9.73953 15.1444 9.34378 15.1443 9.09972 14.9003C8.85562 14.6562 8.85562 14.2605 9.09972 14.0164L16.5952 6.52094C16.3031 6.43831 16.369 6.48975 13.2343 6.474C12.8892 6.47397 12.6093 6.19416 12.6093 5.84897ZM19.375 13.8333C19.0298 13.8333 18.75 14.1132 18.75 14.4583V15.3634C18.75 16.9376 17.6715 17.6978 17.5731 17.8347C16.9828 18.4249 16.1981 18.75 15.3634 18.75H8.63662C7.80191 18.75 7.01716 18.4249 6.42694 17.8347C6.33178 17.7024 5.25 16.9292 5.25 15.3634V8.63662C5.25 7.06241 6.32847 6.30222 6.42694 6.16528C7.01716 5.57506 7.80191 5.25 8.63662 5.25H9.54166C9.88684 5.25 10.1667 4.97019 10.1667 4.625C10.1667 4.27981 9.88684 4 9.54166 4H8.63662C7.468 4 6.36934 4.45509 5.54303 5.28141C5.44919 5.41441 4 6.49981 4 8.63662V15.3634C4 17.5004 5.45016 18.587 5.54303 18.7186C6.36934 19.5449 7.46803 20 8.63662 20H15.3634C16.532 20 17.6307 19.5449 18.457 18.7186C18.5508 18.5856 20 17.5002 20 15.3634V14.4583C20 14.1132 19.7202 13.8333 19.375 13.8333Z" fill="black" stroke="black" stroke-width="0.3"/>
</svg>
