<svg width="20" height="20" viewBox="0 0 20 20" fill="none" xmlns="http://www.w3.org/2000/svg">
<g clip-path="url(#clip0_1989_6155)">
<path fillRule="evenodd" clipRule="evenodd" d="M5.60502 12.1182C8.14561 12.1182 10.2092 14.1827 10.2092 16.7253C10.2092 17.3775 9.79833 17.946 9.04268 18.337C8.20837 18.769 6.90795 19 5.60502 19C4.30126 19 3.00084 18.769 2.16653 18.337C1.41088 17.946 1 17.3775 1 16.7253C1 14.1827 3.0636 12.1182 5.60502 12.1182ZM5.60502 13.374C3.75649 13.374 2.25523 14.8759 2.25523 16.7253C2.25523 16.953 2.47866 17.0845 2.7431 17.2218C3.43598 17.5801 4.52218 17.7442 5.60502 17.7442C6.68703 17.7442 7.77322 17.5801 8.46611 17.2218C8.73055 17.0845 8.95398 16.953 8.95398 16.7253C8.95398 14.8759 7.45356 13.374 5.60502 13.374Z" fill="#652DBF" stroke="#652DBF" stroke-width="0.4"/>
<path fillRule="evenodd" clipRule="evenodd" d="M14.395 5.42041C16.9364 5.42041 19 7.48497 19 10.0276C19 10.6798 18.5891 11.2482 17.8334 11.6392C16.9991 12.0712 15.6987 12.3023 14.395 12.3023C13.092 12.3023 11.7916 12.0712 10.9573 11.6392C10.2017 11.2482 9.79077 10.6798 9.79077 10.0276C9.79077 7.48497 11.8544 5.42041 14.395 5.42041ZM14.395 6.67622C12.5464 6.67622 11.046 8.17818 11.046 10.0276C11.046 10.2553 11.2694 10.3867 11.5339 10.524C12.2268 10.8824 13.3129 11.0465 14.395 11.0465C15.4778 11.0465 16.564 10.8824 17.2569 10.524C17.5213 10.3867 17.7447 10.2553 17.7447 10.0276C17.7447 8.17818 16.2435 6.67622 14.395 6.67622Z" fill="#652DBF" stroke="#652DBF" stroke-width="0.4"/>
<path fillRule="evenodd" clipRule="evenodd" d="M5.60511 7.69763C7.1708 7.69763 8.44193 8.96935 8.44193 10.5358C8.44193 12.1022 7.1708 13.3739 5.60511 13.3739C4.03942 13.3739 2.76746 12.1022 2.76746 10.5358C2.76746 8.96935 4.03942 7.69763 5.60511 7.69763ZM5.60511 8.95345C4.73147 8.95345 4.02269 9.66256 4.02269 10.5358C4.02269 11.409 4.73147 12.1181 5.60511 12.1181C6.47792 12.1181 7.1867 11.409 7.1867 10.5358C7.1867 9.66256 6.47792 8.95345 5.60511 8.95345Z" fill="#652DBF" stroke="#652DBF" stroke-width="0.4"/>
<path fillRule="evenodd" clipRule="evenodd" d="M14.3949 1C15.9606 1 17.2326 2.27172 17.2326 3.83814C17.2326 5.40456 15.9606 6.67628 14.3949 6.67628C12.8292 6.67628 11.5581 5.40456 11.5581 3.83814C11.5581 2.27172 12.8292 1 14.3949 1ZM14.3949 2.25581C13.5221 2.25581 12.8133 2.96493 12.8133 3.83814C12.8133 4.71135 13.5221 5.42047 14.3949 5.42047C15.2686 5.42047 15.9774 4.71135 15.9774 3.83814C15.9774 2.96493 15.2686 2.25581 14.3949 2.25581Z" fill="#652DBF" stroke="#652DBF" stroke-width="0.4"/>
<path fillRule="evenodd" clipRule="evenodd" d="M17.7447 14.1852C17.7447 13.8386 18.0267 13.5581 18.3723 13.5581C18.7187 13.5581 18.9999 13.8402 18.9999 14.1868L18.9974 16.7002C18.9957 17.9702 17.9664 19 16.6962 19H12.092C11.7455 19 11.4644 18.7187 11.4644 18.3721C11.4644 18.0255 11.7455 17.7442 12.092 17.7442H16.6962C17.2736 17.7442 17.7413 17.2762 17.7422 16.6985L17.7447 14.1852Z" fill="#652DBF" stroke="#652DBF" stroke-width="0.4"/>
<path fillRule="evenodd" clipRule="evenodd" d="M2.25938 5.81479C2.25938 6.1614 1.97737 6.44186 1.63093 6.44186C1.28449 6.44186 1.00415 6.15972 1.00415 5.81312L1.00666 3.29981C1.0075 2.02977 2.03762 1 3.30792 1H9.58156C9.928 1 10.2092 1.2813 10.2092 1.62791C10.2092 1.97451 9.928 2.25581 9.58156 2.25581H3.30792C2.73051 2.25581 2.26273 2.72381 2.26189 3.30149L2.25938 5.81479Z" fill="#652DBF" stroke="#652DBF" stroke-width="0.4"/>
</g>
<defs>
<clipPath id="clip0_1989_6155">
<rect width="20" height="20" fill="white"/>
</clipPath>
</defs>
</svg>
