<svg width="24" height="24" viewBox="0 0 24 24" fill="none" xmlns="http://www.w3.org/2000/svg">
<path fillRule="evenodd" clipRule="evenodd" d="M2.02881 11.25C2.21799 8.73474 3.3507 6.38388 5.19997 4.6685C7.04924 2.95313 9.47845 1.99996 12.0008 2C11.1708 2 10.4308 2.364 9.82081 2.921C9.21581 3.475 8.70481 4.249 8.29081 5.163C7.87481 6.083 7.55081 7.159 7.33181 8.326C7.15329 9.29141 7.047 10.2688 7.01381 11.25H2.02881ZM2.02881 12.75H7.01381C7.04981 13.752 7.15681 14.738 7.33181 15.674C7.55181 16.841 7.87481 17.917 8.29081 18.837C8.70481 19.751 9.21581 20.525 9.82081 21.079C10.4308 21.636 11.1708 22 12.0008 22C6.73081 22 2.41181 17.923 2.02881 12.75Z" fill="black"/>
<path d="M12.0007 3.39453C11.7257 3.39453 11.3707 3.51153 10.9577 3.88953C10.5417 4.27053 10.1247 4.86753 9.75675 5.68053C9.39075 6.48853 9.09375 7.46353 8.88975 8.55353C8.72975 9.41153 8.62975 10.3215 8.59375 11.2495H15.4077C15.3752 10.3448 15.2762 9.44375 15.1117 8.55353C14.9077 7.46353 14.6118 6.48853 14.2448 5.68053C13.8767 4.86753 13.4607 4.27053 13.0447 3.89053C12.6307 3.51153 12.2757 3.39453 12.0007 3.39453ZM8.88975 15.4455C9.09375 16.5355 9.39075 17.5105 9.75675 18.3185C10.1247 19.1315 10.5417 19.7285 10.9567 20.1085C11.3707 20.4875 11.7267 20.6045 12.0007 20.6045C12.2757 20.6045 12.6307 20.4875 13.0437 20.1095C13.4607 19.7285 13.8767 19.1315 14.2448 18.3185C14.6108 17.5105 14.9077 16.5355 15.1117 15.4455C15.2727 14.5875 15.3727 13.6775 15.4077 12.7495H8.59375C8.62875 13.6775 8.72875 14.5875 8.88975 15.4455Z" fill="black"/>
<path d="M12.001 2C12.832 2 13.571 2.364 14.181 2.921C14.786 3.475 15.298 4.249 15.711 5.163C16.128 6.083 16.451 7.159 16.67 8.326C16.845 9.262 16.952 10.248 16.988 11.25H21.973C21.784 8.73465 20.6514 6.38366 18.8021 4.66824C16.9527 2.95281 14.5234 1.99972 12.001 2ZM16.67 15.674C16.451 16.841 16.128 17.917 15.711 18.837C15.298 19.751 14.786 20.525 14.181 21.079C13.571 21.636 12.832 22 12.001 22C17.271 22 21.59 17.923 21.973 12.75H16.988C16.9548 13.7312 16.8485 14.7086 16.67 15.674Z" fill="black"/>
</svg>
