<svg width="24" height="24" viewBox="0 0 24 24" fill="none" xmlns="http://www.w3.org/2000/svg">
<g clip-path="url(#clip0_797_130)">
<path d="M7.87576 16.1267L16.1264 7.87599M10.626 3.75065L11.2627 3.01359C12.5523 1.72418 14.3012 0.999871 16.1249 1C17.9485 1.00013 19.6974 1.72468 20.9868 3.01427C22.2762 4.30386 23.0005 6.05285 23.0004 7.87647C23.0002 9.7001 22.2757 11.449 20.9861 12.7384L20.2518 13.3764M13.3762 20.252L12.8303 20.9863C11.5257 22.2764 9.76488 23 7.93008 23C6.09528 23 4.3345 22.2764 3.02986 20.9863C2.3868 20.3505 1.87627 19.5934 1.52784 18.7588C1.17941 17.9243 1 17.0289 1 16.1246C1 15.2203 1.17941 14.3249 1.52784 13.4904C1.87627 12.6559 2.3868 11.8987 3.02986 11.2629L3.75042 10.6262" stroke="black" stroke-width="2" stroke-linecap="round" stroke-linejoin="round"/>
</g>
<defs>
<clipPath id="clip0_797_130">
<rect width="24" height="24" fill="white"/>
</clipPath>
</defs>
</svg>
