<svg width="20" height="20" viewBox="0 0 20 20" fill="none" xmlns="http://www.w3.org/2000/svg">
<g clip-path="url(#clip0_2083_4838)">
<path d="M0.78125 3.90625V3.125C0.78125 1.83059 1.83059 0.78125 3.125 0.78125H3.90625M19.2188 3.90625V3.125C19.2188 1.83059 18.1694 0.78125 16.875 0.78125H16.0938M0.78125 16.0938V16.875C0.78125 18.1694 1.83059 19.2188 3.125 19.2188H3.90625M16.0938 19.2188H16.875C18.1694 19.2188 19.2188 18.1694 19.2188 16.875V16.0938M8.4375 3.75H3.75V8.4375M11.5625 16.25H16.25V11.5625M16.25 5.3125V3.75H11.5625M6.09375 6.875H7.65625M9.21875 8.4375H11.5625V6.09375M14.6875 8.4375H16.25M11.5625 10.7812V13.125H13.9062M8.4375 11.5625H3.75V16.25H8.4375V11.5625Z" stroke="#717171" stroke-width="1.6" stroke-miterlimit="10"/>
</g>
<defs>
<clipPath id="clip0_2083_4838">
<rect width="20" height="20" fill="white"/>
</clipPath>
</defs>
</svg>
