<svg width="365" height="220" viewBox="0 0 365 220" fill="none" xmlns="http://www.w3.org/2000/svg">
<path d="M358.825 219.871H6.17471C2.76416 219.871 0 217.096 0 213.672V6.1992C0 2.77511 2.76416 0 6.17471 0H358.825C362.236 0 365 2.77511 365 6.1992V213.668C365.003 217.093 362.236 219.871 358.825 219.871Z" fill="url(#paint0_linear_1421_4954)"/>
<path d="M358.861 217.694H8.31366C4.92345 217.694 2.17578 214.946 2.17578 211.556V6.13782C2.17578 2.74764 4.92345 0 8.31366 0H358.861C362.251 0 364.999 2.74764 364.999 6.13782V211.553C365.002 214.943 362.251 217.694 358.861 217.694Z" fill="#010E21"/>
<mask id="mask0_1421_4954" style="mask-type:luminance" maskUnits="userSpaceOnUse" x="123" y="85" width="121" height="47">
<path d="M243.261 85.8986H123.932V131.795H243.261V85.8986Z" fill="white"/>
</mask>
<g mask="url(#mask0_1421_4954)">
<path d="M208.221 101.681C207.624 101.681 207.021 101.472 206.532 101.05L202.156 97.2592C201.082 96.326 200.966 94.6982 201.899 93.6242C202.832 92.5503 204.457 92.4309 205.534 93.3642L209.91 97.1552C210.984 98.0884 211.1 99.7162 210.17 100.79C209.659 101.378 208.943 101.681 208.221 101.681Z" fill="#652DBF"/>
<path d="M216.601 97.7152C215.264 97.7152 214.132 96.6811 214.034 95.3256L213.611 89.5488C213.507 88.1291 214.575 86.896 215.995 86.792C217.409 86.6849 218.651 87.7558 218.755 89.1755L219.177 94.9523C219.281 96.372 218.213 97.6051 216.794 97.7091C216.729 97.7152 216.665 97.7152 216.601 97.7152Z" fill="#652DBF"/>
<path d="M124.36 113.69V95.0902L130.336 92.0702V100.5H135.516V105.87H130.336V113.69C130.336 114.36 130.495 114.926 130.807 115.388C131.122 115.85 131.517 116.166 131.991 116.331C132.368 116.472 132.769 116.542 133.188 116.542C133.283 116.542 133.39 116.536 133.503 116.521C134.032 116.478 134.522 116.331 134.972 116.08L137.028 120.673C136.049 121.875 134.461 122.475 132.267 122.475C131.217 122.447 130.229 122.245 129.299 121.866C128.369 121.49 127.53 120.942 126.784 120.229C126.034 119.516 125.443 118.598 125.012 117.472C124.578 116.349 124.36 115.089 124.36 113.69Z" fill="white"/>
<path d="M139.166 116.205C139.166 115.116 139.328 114.14 139.659 113.28C139.986 112.42 140.381 111.723 140.843 111.184C141.305 110.649 141.935 110.181 142.74 109.789C143.541 109.397 144.26 109.113 144.891 108.929C145.518 108.746 146.341 108.608 147.354 108.51C148.367 108.412 149.138 108.357 149.673 108.342C150.202 108.326 150.937 108.32 151.876 108.32C151.931 108.32 151.971 108.32 151.992 108.32C152.014 108.32 152.044 108.32 152.087 108.32C152.13 108.32 152.164 108.32 152.191 108.32C151.968 105.943 150.652 104.756 148.247 104.756C147.452 104.756 146.696 104.927 145.983 105.27C145.27 105.612 144.716 106.111 144.325 106.769L140.341 104.756C140.678 103.875 141.277 103.082 142.146 102.375C143.012 101.668 144.025 101.121 145.188 100.729C146.347 100.337 147.534 100.142 148.752 100.142C149.939 100.142 151.081 100.328 152.17 100.699C153.259 101.069 154.26 101.629 155.168 102.375C156.077 103.125 156.805 104.138 157.35 105.417C157.895 106.696 158.167 108.161 158.167 109.81V122.141H153.427L153.091 120.253C150.588 121.737 148.296 122.475 146.213 122.475C144.169 122.475 142.486 121.89 141.158 120.724C139.83 119.559 139.166 118.05 139.166 116.205ZM145.142 115.263C145.142 116.202 145.457 116.937 146.084 117.475C146.714 118.014 147.501 118.283 148.455 118.283C149.49 118.283 150.383 117.98 151.139 117.371C151.895 116.762 152.271 115.893 152.271 114.761L152.228 111.931H150.992C150.515 111.931 150.105 111.94 149.753 111.961C149.404 111.983 148.979 112.023 148.474 112.087C147.972 112.151 147.544 112.255 147.195 112.402C146.846 112.549 146.503 112.742 146.167 112.977C145.83 113.216 145.576 113.528 145.402 113.91C145.227 114.293 145.142 114.746 145.142 115.263Z" fill="white"/>
<path d="M161.585 130.907V100.5H167.564V102.47C169.381 100.919 171.486 100.142 173.876 100.142C175.565 100.142 177.064 100.677 178.374 101.745C179.68 102.813 180.659 104.18 181.311 105.851C181.96 107.522 182.284 109.312 182.284 111.224C182.284 112.399 182.189 113.519 182.003 114.581C181.813 115.645 181.498 116.661 181.06 117.637C180.62 118.61 180.075 119.449 179.423 120.155C178.775 120.862 177.951 121.425 176.96 121.847C175.966 122.267 174.864 122.475 173.646 122.475C171.269 122.475 169.243 121.704 167.564 120.158V130.904L161.585 130.907ZM168.182 106.683C167.334 107.828 166.912 109.342 166.912 111.227C166.912 113.112 167.334 114.626 168.182 115.771C169.026 116.915 170.134 117.487 171.505 117.487C172.943 117.487 174.105 116.915 174.987 115.771C175.868 114.626 176.308 113.112 176.308 111.227C176.308 109.345 175.868 107.831 174.987 106.683C174.105 105.539 172.943 104.967 171.505 104.967C170.134 104.967 169.026 105.539 168.182 106.683Z" fill="white"/>
<path d="M184.423 111.236C184.423 110.202 184.561 109.168 184.842 108.134C185.12 107.099 185.558 106.105 186.152 105.144C186.745 104.187 187.452 103.339 188.269 102.596C189.086 101.855 190.083 101.261 191.267 100.812C192.449 100.365 193.715 100.142 195.074 100.142C196.261 100.142 197.35 100.273 198.345 100.539C199.339 100.806 200.174 101.167 200.863 101.619C201.545 102.075 202.163 102.608 202.708 103.223C203.252 103.838 203.684 104.48 203.996 105.15C204.311 105.82 204.574 106.515 204.792 107.228C205.006 107.941 205.159 108.62 205.241 109.263C205.312 109.905 205.351 110.52 205.367 111.108C205.367 111.248 205.367 111.386 205.367 111.527C205.367 111.919 205.351 112.267 205.324 112.573C205.281 112.965 205.226 113.274 205.156 113.497H190.392C190.631 114.602 191.209 115.48 192.133 116.129C193.057 116.777 194.19 117.105 195.53 117.105C196.396 117.105 197.209 116.936 197.971 116.6C198.733 116.263 199.312 115.817 199.703 115.257L204.336 117.922C203.314 119.292 201.952 120.391 200.248 121.223C198.54 122.055 196.815 122.472 195.068 122.472C193.36 122.472 191.818 122.153 190.444 121.517C189.068 120.88 187.948 120.033 187.088 118.968C186.228 117.906 185.567 116.71 185.105 115.382C184.655 114.06 184.423 112.677 184.423 111.236ZM190.316 109.076H199.795C199.529 107.803 198.978 106.803 198.149 106.068C197.317 105.334 196.295 104.967 195.077 104.967C193.761 104.967 192.678 105.34 191.827 106.09C190.974 106.836 190.469 107.834 190.316 109.076Z" fill="white"/>
<path d="M207.505 111.331C207.505 107.975 208.472 105.27 210.409 103.22C212.345 101.17 214.897 100.145 218.073 100.145C219.793 100.145 221.427 100.5 222.981 101.216C224.532 101.929 225.729 102.88 226.567 104.067L221.849 106.693C221.457 106.203 220.937 105.808 220.288 105.505C219.637 105.205 218.957 105.052 218.245 105.052C216.806 105.052 215.653 105.625 214.784 106.766C213.918 107.907 213.487 109.416 213.487 111.291C213.487 113.142 213.921 114.636 214.796 115.777C215.668 116.918 216.819 117.49 218.245 117.49C218.957 117.49 219.64 117.34 220.288 117.037C220.937 116.738 221.457 116.343 221.849 115.85L226.567 118.469C225.686 119.669 224.468 120.636 222.917 121.373C221.365 122.111 219.75 122.481 218.073 122.481C214.897 122.481 212.345 121.459 210.409 119.412C208.472 117.362 207.505 114.669 207.505 111.331Z" fill="white"/>
<path d="M230.431 113.69V95.0902L236.409 92.0702V100.5H241.59V105.87H236.409V113.69C236.409 114.36 236.565 114.926 236.881 115.388C237.193 115.85 237.59 116.166 238.065 116.331C238.441 116.472 238.842 116.542 239.261 116.542C239.359 116.542 239.463 116.536 239.576 116.521C240.106 116.478 240.595 116.331 241.042 116.08L243.098 120.673C242.119 121.875 240.531 122.475 238.337 122.475C237.288 122.447 236.299 122.245 235.369 121.866C234.439 121.49 233.598 120.942 232.854 120.229C232.104 119.516 231.514 118.598 231.082 117.472C230.648 116.349 230.431 115.089 230.431 113.69Z" fill="white"/>
</g>
<defs>
<linearGradient id="paint0_linear_1421_4954" x1="1.4513" y1="1.08846" x2="366.451" y2="216.605" gradientUnits="userSpaceOnUse">
<stop stop-color="#001C46"/>
<stop offset="1"/>
</linearGradient>
</defs>
</svg>
