<svg width="20" height="20" viewBox="0 0 20 20" fill="none" xmlns="http://www.w3.org/2000/svg">
<path d="M11.8122 1.16595L18.8331 4.22272C19.3038 4.43171 19.6735 4.81723 19.8627 5.29624C20.0519 5.77524 20.0453 6.30939 19.8445 6.78361L15.0133 18.4638C14.917 18.7009 14.7743 18.9165 14.5936 19.0979C14.4129 19.2792 14.1978 19.4227 13.961 19.5199C13.7241 19.6171 13.4703 19.6661 13.2143 19.664C12.9583 19.6618 12.7053 19.6087 12.4701 19.5076L5.45711 16.4537C4.98497 16.2454 4.61367 15.8598 4.42334 15.3802C4.23302 14.9005 4.23894 14.3652 4.43982 13.8899L9.27096 2.21073C9.36723 1.9737 9.50978 1.75824 9.6903 1.57695C9.87081 1.39567 10.0857 1.25219 10.3223 1.15491C10.5589 1.05763 10.8125 1.0085 11.0684 1.0104C11.3242 1.01229 11.5771 1.06517 11.8122 1.16595ZM6.2623 1C5.76684 0.999843 5.28963 1.18697 4.92633 1.52386C4.56303 1.86075 4.34049 2.32252 4.30333 2.81658L4.29843 2.96387V6.40066C4.2987 6.65093 4.39454 6.89166 4.56635 7.07365C4.73815 7.25563 4.97297 7.36515 5.22282 7.37982C5.47266 7.39448 5.71868 7.3132 5.9106 7.15256C6.10253 6.99193 6.22587 6.76407 6.25543 6.51554L6.2623 6.40066V2.96387H7.24424C7.49451 2.9636 7.73524 2.86776 7.91723 2.69596C8.09922 2.52415 8.20873 2.28933 8.2234 2.03948C8.23807 1.78964 8.15678 1.54362 7.99614 1.3517C7.83551 1.15978 7.60765 1.03643 7.35912 1.00687L7.24424 1H6.2623ZM3.23793 3.56286C3.13621 3.3234 2.94361 3.13409 2.70243 3.03652C2.46126 2.93894 2.19121 2.94107 1.9516 3.04243C1.69924 3.14848 1.45572 3.24864 1.19649 3.35076C0.741044 3.54409 0.375362 3.90222 0.172557 4.35352C-0.0302475 4.80483 -0.05523 5.31605 0.102607 5.78498L0.157597 5.92834L2.41409 11.2053C2.51338 11.4343 2.69618 11.6169 2.92531 11.716C3.15443 11.8151 3.41269 11.8231 3.64757 11.7386C3.88244 11.6541 4.0763 11.4832 4.18973 11.2609C4.30315 11.0385 4.32762 10.7813 4.25817 10.5415L4.21889 10.4335L1.96436 5.15949L2.32375 5.01416L2.71849 4.85018C2.8373 4.79982 2.94502 4.72653 3.03548 4.63451C3.12595 4.54249 3.1974 4.43354 3.24573 4.3139C3.29406 4.19425 3.31834 4.06624 3.31717 3.93721C3.316 3.80817 3.28941 3.68063 3.23891 3.56188L3.23793 3.56286Z" fill="#652DBF"/>
</svg>
