<svg width="156" height="60" viewBox="0 0 156 60" fill="none" xmlns="http://www.w3.org/2000/svg">
<g clip-path="url(#clip0_629_14)">
<mask id="mask0_629_14" style="mask-type:luminance" maskUnits="userSpaceOnUse" x="0" y="0" width="156" height="60">
<path d="M156 0H0V60H156V0Z" fill="white"/>
</mask>
<g mask="url(#mask0_629_14)">
<path d="M110.206 20.6326C109.424 20.6326 108.638 20.3617 108 19.809L102.281 14.8517C100.876 13.6326 100.724 11.5054 101.943 10.099C103.163 8.69357 105.287 8.53994 106.696 9.75994L112.415 14.7172C113.82 15.9363 113.973 18.0644 112.754 19.4699C112.086 20.2381 111.149 20.6326 110.206 20.6326Z" fill="white"/>
<path d="M121.155 15.4508C119.406 15.4508 117.928 14.099 117.799 12.3272L117.248 4.7754C117.114 2.91903 118.508 1.3054 120.364 1.16994C122.212 1.03085 123.834 2.42903 123.97 4.2854L124.521 11.8363C124.656 13.6926 123.261 15.3063 121.406 15.4417C121.321 15.4481 121.237 15.4508 121.155 15.4508Z" fill="white"/>
<path d="M0.570068 36.3335V12.0172L8.38279 8.06995V19.0899H15.1546V26.1081H8.38279V36.3335C8.38279 37.2108 8.58916 37.9499 9.00007 38.5526C9.41188 39.1563 9.92734 39.5681 10.5492 39.7863C11.0428 39.9699 11.5637 40.0617 12.1119 40.0617C12.2373 40.0617 12.3755 40.0526 12.5228 40.0345C13.2164 39.9781 13.8555 39.7872 14.4428 39.4572L17.1292 45.4617C15.8492 47.0335 13.7737 47.819 10.9055 47.819C9.53552 47.7817 8.24189 47.5172 7.02552 47.0245C5.80916 46.5308 4.71189 45.8172 3.73643 44.8854C2.75734 43.9535 1.98461 42.7517 1.42007 41.2799C0.851886 39.8099 0.570068 38.1608 0.570068 36.3335Z" fill="white"/>
<path d="M19.9255 39.6217C19.9255 38.1972 20.1392 36.9217 20.5692 35.7981C20.9964 34.6745 21.5146 33.7617 22.1174 33.0563C22.721 32.3554 23.5464 31.7463 24.5992 31.2336C25.6492 30.7227 26.5855 30.349 27.4092 30.1108C28.231 29.8727 29.3037 29.6908 30.6301 29.5617C31.9546 29.4345 32.9628 29.3617 33.6601 29.3427C34.3528 29.3245 35.3128 29.3154 36.5383 29.3154C36.6092 29.3154 36.6619 29.3154 36.6892 29.3154C36.7164 29.3154 36.7583 29.3154 36.8128 29.3154C36.8674 29.3154 36.911 29.3154 36.9501 29.3154C36.6564 26.209 34.9374 24.6545 31.7955 24.6545C30.7546 24.6545 29.7683 24.8799 28.8355 25.3263C27.9028 25.7745 27.1801 26.4281 26.6692 27.2863L21.4601 24.6545C21.8992 23.5036 22.6837 22.4672 23.8183 21.5436C24.951 20.6208 26.2746 19.9045 27.7937 19.3917C29.3101 18.8808 30.8637 18.6245 32.4546 18.6245C34.0064 18.6245 35.4974 18.8672 36.9228 19.3508C38.3483 19.8363 39.6528 20.5672 40.8437 21.5436C42.031 22.5227 42.9828 23.8472 43.6946 25.519C44.4074 27.1917 44.7637 29.1063 44.7637 31.2617V47.3799H38.5683L38.1301 44.9136C34.8564 46.8517 31.861 47.819 29.1383 47.819C26.4674 47.819 24.2655 47.0563 22.531 45.5299C20.7919 44.0045 19.9255 42.0345 19.9255 39.6217ZM27.7383 38.389C27.7383 39.6154 28.1492 40.5772 28.9719 41.2817C29.7946 41.9863 30.8246 42.3372 32.0701 42.3372C33.421 42.3372 34.591 41.9399 35.5783 41.1445C36.5655 40.349 37.0592 39.2117 37.0592 37.7317L37.0037 34.0308H35.3864C34.7637 34.0308 34.2246 34.0445 33.7683 34.0717C33.311 34.099 32.7546 34.1527 32.0964 34.2363C31.4392 34.319 30.8801 34.4545 30.4246 34.6472C29.9674 34.8399 29.5201 35.0908 29.081 35.4008C28.6419 35.7127 28.3074 36.119 28.0792 36.6217C27.8501 37.1236 27.7383 37.7127 27.7383 38.389Z" fill="white"/>
<path d="M49.231 58.8399V19.0899H57.0455V21.6672C59.42 19.639 62.1728 18.6245 65.2973 18.6245C67.5064 18.6245 69.4664 19.3236 71.1773 20.7208C72.8846 22.1172 74.1664 23.9063 75.0155 26.0881C75.8646 28.2708 76.2891 30.6117 76.2891 33.1127C76.2891 34.6481 76.1664 36.1136 75.9191 37.5017C75.671 38.8936 75.261 40.2236 74.6864 41.4963C74.111 42.7663 73.3964 43.8645 72.5473 44.789C71.6973 45.7145 70.6219 46.449 69.3255 46.999C68.0264 47.5481 66.5837 47.8208 64.9946 47.8208C61.8855 47.8208 59.2373 46.8136 57.0446 44.7936V58.8408L49.231 58.8399ZM57.8537 27.1727C56.7464 28.669 56.1955 30.649 56.1955 33.1117C56.1955 35.5745 56.7464 37.5563 57.8537 39.0508C58.9582 40.5472 60.4064 41.2963 62.1991 41.2963C64.08 41.2963 65.5982 40.5481 66.7501 39.0508C67.9028 37.5554 68.4782 35.5745 68.4782 33.1117C68.4782 30.6499 67.9028 28.6699 66.7501 27.1727C65.5982 25.6772 64.08 24.929 62.1991 24.929C60.4055 24.929 58.9582 25.6772 57.8537 27.1727Z" fill="white"/>
<path d="M79.0864 33.1255C79.0864 31.7746 79.2682 30.4227 79.6355 29.0691C80.0001 27.7173 80.5701 26.4155 81.3482 25.1627C82.1246 23.9118 83.0482 22.8009 84.1182 21.8309C85.1873 20.8637 86.4919 20.0864 88.0392 19.5009C89.5819 18.9173 91.2401 18.6237 93.0155 18.6237C94.5664 18.6237 95.9919 18.7973 97.2901 19.1446C98.5891 19.4927 99.6837 19.9637 100.581 20.5564C101.475 21.1518 102.281 21.85 102.994 22.6537C103.706 23.4582 104.268 24.2991 104.679 25.1755C105.089 26.0518 105.436 26.9582 105.721 27.89C106.003 28.8218 106.201 29.7091 106.31 30.5482C106.402 31.3891 106.456 32.1918 106.475 32.9609C106.475 33.1437 106.475 33.3264 106.475 33.5091C106.475 34.0209 106.456 34.4773 106.419 34.8791C106.365 35.3918 106.291 35.7946 106.201 36.0855H86.901C87.211 37.53 87.9701 38.6773 89.1764 39.5264C90.3828 40.3755 91.8628 40.8009 93.6173 40.8009C94.7501 40.8009 95.8128 40.5818 96.811 40.1428C97.8073 39.7037 98.5619 39.12 99.0737 38.3873L105.132 41.87C103.796 43.6609 102.015 45.0991 99.7864 46.1873C97.5546 47.2755 95.2982 47.8182 93.0155 47.8182C90.7837 47.8182 88.7673 47.4027 86.971 46.5709C85.1701 45.7409 83.7082 44.63 82.5837 43.2409C81.4601 41.8527 80.5955 40.2891 79.9919 38.5518C79.3882 36.8173 79.0864 35.0091 79.0864 33.1255ZM86.7901 30.3027H99.1819C98.8328 28.64 98.1155 27.3291 97.0301 26.3691C95.9419 25.41 94.6046 24.93 93.0146 24.93C91.2946 24.93 89.8773 25.42 88.7646 26.3964C87.6482 27.3746 86.9901 28.6764 86.7901 30.3027Z" fill="white"/>
<path d="M109.27 33.2491C109.27 28.8591 110.535 25.3246 113.067 22.6437C115.598 19.9637 118.936 18.6237 123.087 18.6237C125.335 18.6237 127.473 19.0891 129.503 20.0218C131.532 20.9537 133.094 22.1973 134.19 23.7509L128.023 27.1809C127.509 26.54 126.829 26.0237 125.98 25.6291C125.129 25.2355 124.238 25.0382 123.306 25.0382C121.425 25.0382 119.916 25.7855 118.782 27.2773C117.648 28.77 117.084 30.7418 117.084 33.1927C117.084 35.6109 117.654 37.5646 118.797 39.0564C119.937 40.5482 121.442 41.2955 123.306 41.2955C124.238 41.2955 125.13 41.0982 125.98 40.7046C126.83 40.3109 127.509 39.7946 128.023 39.1537L134.19 42.5773C133.038 44.1437 131.447 45.4091 129.42 46.3737C127.392 47.3391 125.28 47.82 123.087 47.82C118.936 47.82 115.598 46.4827 113.067 43.8082C110.535 41.1337 109.27 37.6137 109.27 33.2491Z" fill="white"/>
<path d="M139.235 36.3335V12.0172L147.049 8.06995V19.0899H153.819V26.1081H147.049V36.3335C147.049 37.2108 147.255 37.9499 147.666 38.5526C148.076 39.1563 148.592 39.5681 149.215 39.7863C149.707 39.9699 150.228 40.0617 150.777 40.0617C150.903 40.0617 151.04 40.0526 151.188 40.0345C151.882 39.9781 152.521 39.7872 153.106 39.4572L155.794 45.4617C154.514 47.0335 152.439 47.819 149.57 47.819C148.199 47.7817 146.906 47.5172 145.691 47.0245C144.474 46.5308 143.376 45.8172 142.401 44.8854C141.422 43.9535 140.648 42.7517 140.085 41.2799C139.518 39.8099 139.235 38.1608 139.235 36.3335Z" fill="white"/>
</g>
</g>
<defs>
<clipPath id="clip0_629_14">
<rect width="156" height="60" fill="white"/>
</clipPath>
</defs>
</svg>
