<svg width="20" height="20" viewBox="0 0 20 20" fill="none" xmlns="http://www.w3.org/2000/svg">
<path d="M7.25004 2H6.27C6.01008 2 5.76081 2.10325 5.57702 2.28705C5.39322 2.47084 5.28997 2.72011 5.28997 2.98003V6.41015M2.34987 3.96007C2.09115 4.06983 1.84026 4.17273 1.59721 4.26878C1.35797 4.37029 1.16885 4.56268 1.07144 4.80363C0.974033 5.04457 0.976318 5.31434 1.07779 5.5536L3.32991 10.8203M18.4185 5.13316L11.423 2.08624C11.3076 2.03677 11.1834 2.0109 11.0578 2.01017C10.9322 2.00945 10.8078 2.03387 10.6918 2.082C10.5758 2.13014 10.4706 2.20101 10.3824 2.29044C10.2942 2.37987 10.2249 2.48605 10.1784 2.60272L5.35269 14.2671C5.25239 14.5036 5.24898 14.7701 5.34319 15.0091C5.43741 15.2481 5.62171 15.4406 5.85643 15.545L12.8509 18.592C12.9664 18.6416 13.0907 18.6676 13.2164 18.6684C13.3421 18.6692 13.4666 18.6448 13.5828 18.5967C13.6989 18.5485 13.8042 18.4776 13.8924 18.3881C13.9806 18.2986 14.0501 18.1923 14.0965 18.0755L18.9222 6.41015C19.0225 6.17362 19.0259 5.90716 18.9317 5.66814C18.8375 5.42912 18.6532 5.23764 18.4185 5.13316Z" stroke="#717171" stroke-width="1.8" stroke-linecap="round" stroke-linejoin="round"/>
</svg>
