<svg width="64" height="64" viewBox="0 0 64 64" fill="none" xmlns="http://www.w3.org/2000/svg">
<g filter="url(#filter0_d_2093_4844)">
<circle cx="32" cy="32" r="30" fill="#EAEAEA"/>
</g>
<path d="M16 44C16 41.8783 16.8429 39.8434 18.3431 38.3431C19.8434 36.8429 21.8783 36 24 36H40C42.1217 36 44.1566 36.8429 45.6569 38.3431C47.1571 39.8434 48 41.8783 48 44C48 45.0609 47.5786 46.0783 46.8284 46.8284C46.0783 47.5786 45.0609 48 44 48H20C18.9391 48 17.9217 47.5786 17.1716 46.8284C16.4214 46.0783 16 45.0609 16 44Z" stroke="#515151" stroke-width="2.5" stroke-linejoin="round"/>
<path d="M32 28C35.3137 28 38 25.3137 38 22C38 18.6863 35.3137 16 32 16C28.6863 16 26 18.6863 26 22C26 25.3137 28.6863 28 32 28Z" stroke="#515151" stroke-width="2.5"/>
<defs>
<filter id="filter0_d_2093_4844" x="0" y="0" width="64" height="64" filterUnits="userSpaceOnUse" color-interpolation-filters="sRGB">
<feFlood flood-opacity="0" result="BackgroundImageFix"/>
<feColorMatrix in="SourceAlpha" type="matrix" values="0 0 0 0 0 0 0 0 0 0 0 0 0 0 0 0 0 0 127 0" result="hardAlpha"/>
<feOffset/>
<feGaussianBlur stdDeviation="1"/>
<feComposite in2="hardAlpha" operator="out"/>
<feColorMatrix type="matrix" values="0 0 0 0 0 0 0 0 0 0 0 0 0 0 0 0 0 0 0.25 0"/>
<feBlend mode="normal" in2="BackgroundImageFix" result="effect1_dropShadow_2093_4844"/>
<feBlend mode="normal" in="SourceGraphic" in2="effect1_dropShadow_2093_4844" result="shape"/>
</filter>
</defs>
</svg>
