<svg width="12" height="12" viewBox="0 0 12 12" fill="none" xmlns="http://www.w3.org/2000/svg">
<path d="M6.75 1C6.75 0.801088 6.67098 0.610322 6.53033 0.46967C6.38968 0.329018 6.19891 0.25 6 0.25C5.80109 0.25 5.61032 0.329018 5.46967 0.46967C5.32902 0.610322 5.25 0.801088 5.25 1V5.25H1C0.801088 5.25 0.610322 5.32902 0.46967 5.46967C0.329018 5.61032 0.25 5.80109 0.25 6C0.25 6.19891 0.329018 6.38968 0.46967 6.53033C0.610322 6.67098 0.801088 6.75 1 6.75H5.25V11C5.25 11.1989 5.32902 11.3897 5.46967 11.5303C5.61032 11.671 5.80109 11.75 6 11.75C6.19891 11.75 6.38968 11.671 6.53033 11.5303C6.67098 11.3897 6.75 11.1989 6.75 11V6.75H11C11.1989 6.75 11.3897 6.67098 11.5303 6.53033C11.671 6.38968 11.75 6.19891 11.75 6C11.75 5.80109 11.671 5.61032 11.5303 5.46967C11.3897 5.32902 11.1989 5.25 11 5.25H6.75V1Z" fill="black"/>
</svg>
