<svg width="32" height="32" viewBox="0 0 32 32" fill="none" xmlns="http://www.w3.org/2000/svg">
<g clip-path="url(#clip0_1934_49)">
<path fill-rule="evenodd" clip-rule="evenodd" d="M3.28 0C1.48 0 0 1.48 0 3.28V28.76C0 30.52 1.48 32 3.28 32H28.76C30.56 32 32.04 30.52 32.04 28.72V3.28C32 1.48 30.52 0 28.72 0H3.28ZM25.64 20.4V8.16C25.64 7.84 25.56 7.52 25.44 7.24C25.32 6.96 25.12 6.68 24.88 6.48C24.64 6.28 24.36 6.12 24.04 6.04C23.72 5.96 23.4 5.96 23.12 6L13.4 7.68C12.88 7.76 12.44 8.04 12.12 8.4C11.8 8.8 11.6 9.28 11.6 9.8V18.56C10.8 18.36 10 18.4 9.28 18.68C8.52 18.96 7.92 19.44 7.48 20.12C7.04 20.76 6.8 21.56 6.84 22.36C6.88 23.16 7.12 23.92 7.6 24.56C8.08 25.2 8.76 25.64 9.48 25.88C10.24 26.12 11.04 26.12 11.8 25.84C12.56 25.6 13.2 25.12 13.68 24.48C14.16 23.84 14.4 23.08 14.4 22.28V13.44C14.4 13.28 14.48 13.08 14.56 12.96C14.68 12.84 14.84 12.76 15 12.72L22.12 11.6C22.24 11.6 22.32 11.6 22.44 11.6C22.56 11.64 22.64 11.68 22.72 11.76C22.8 11.84 22.88 11.92 22.92 12C22.96 12.08 23 12.2 23 12.32V16.8C22.24 16.56 21.44 16.6 20.68 16.84C19.92 17.12 19.28 17.6 18.84 18.24C18.4 18.88 18.16 19.68 18.16 20.44C18.16 21.24 18.44 22 18.92 22.64C19.4 23.28 20.04 23.76 20.8 24C21.56 24.24 22.36 24.24 23.12 24C23.88 23.76 24.52 23.28 25 22.64C25.4 21.96 25.64 21.2 25.64 20.4Z" fill="url(#paint0_linear_1934_49)"/>
</g>
<defs>
<linearGradient id="paint0_linear_1934_49" x1="6.79536" y1="16" x2="25.6572" y2="16" gradientUnits="userSpaceOnUse">
<stop stop-color="#FFA68D"/>
<stop offset="1" stop-color="#FD3A84"/>
</linearGradient>
<clipPath id="clip0_1934_49">
<rect width="32" height="32" fill="white"/>
</clipPath>
</defs>
</svg>
