<svg width="32" height="32" viewBox="0 0 32 32" fill="none" xmlns="http://www.w3.org/2000/svg">
<g clip-path="url(#clip0_1934_154)">
<mask id="mask0_1934_154" style="mask-type:luminance" maskUnits="userSpaceOnUse" x="0" y="0" width="32" height="32">
<path d="M32 0H0V32H32V0Z" fill="white"/>
</mask>
<g mask="url(#mask0_1934_154)">
<path fill-rule="evenodd" clip-rule="evenodd" d="M28.76 0H3.28C1.48 0 0 1.48 0 3.28V28.72C0 30.52 1.48 32 3.28 32.04H28.72C30.52 32.04 32 30.56 32 28.76V3.28C32 1.48 30.52 0 28.76 0ZM16.52 6.24004L15.88 7.36004L15.24 6.20004C14.84 5.52004 13.92 5.28004 13.24 5.68004C12.5599 6.08004 12.32 7.00004 12.72 7.68004L14.2 10.24L9.43995 18.48H5.71995C4.43995 18.48 3.55995 20.08 4.99995 21.4H18.96C19.6 20.2 18.7999 18.48 17.32 18.48H12.8L19.0399 7.72004C19.4399 7.00004 19.1999 6.12004 18.52 5.72004C17.7999 5.32004 16.92 5.56004 16.52 6.24004ZM8.83995 25.36L10.24 22.92C9.47995 22 8.51995 21.72 7.35995 22.08L6.31995 23.88C5.91995 24.6 6.15995 25.48 6.83995 25.88C7.55995 26.28 8.43995 26.04 8.83995 25.36ZM26.8399 18.52H22.32C20.4 15.2 18.96 12.72 18 11.08C17.12 11.8 16.28 13.88 17.4799 16C18.68 18.08 20.4799 21.2 22.88 25.4C23.28 26.08 24.2 26.32 24.8799 25.92C25.5599 25.52 25.7999 24.6 25.4 23.92L24 21.44H26.12C27.4 21.44 28.2799 19.84 26.8399 18.52Z" fill="url(#paint0_linear_1934_154)"/>
</g>
</g>
<defs>
<linearGradient id="paint0_linear_1934_154" x1="16" y1="0" x2="16" y2="32.04" gradientUnits="userSpaceOnUse">
<stop stop-color="#0ED2FC"/>
<stop offset="1" stop-color="#0C59EF"/>
</linearGradient>
<clipPath id="clip0_1934_154">
<rect width="32" height="32" fill="white"/>
</clipPath>
</defs>
</svg>
