<svg width="32" height="32" viewBox="0 0 32 32" fill="none" xmlns="http://www.w3.org/2000/svg">
<g clip-path="url(#clip0_1934_243)">
<path fill-rule="evenodd" clip-rule="evenodd" d="M28.76 0H3.28C1.48 0 0 1.48 0 3.28V28.72C0 30.52 1.48 32 3.28 32.04H28.72C30.52 32.04 32 30.56 32 28.76V3.28C32 1.48 30.52 0 28.76 0ZM18.9601 12.48C18.1201 12.44 17.2801 12.68 16.5201 13.12C16.2343 13.2833 16.0944 13.3633 16.0258 13.3227C15.9601 13.2838 15.9601 13.1338 15.9601 12.84V12.16V9.60004C15.9601 8.96004 15.8801 8.84004 15.2401 8.84004H14.6801C14.0801 8.84004 14.0401 8.84004 14.0401 9.44004V13.24V17.04C14.0401 17.0682 14.0393 17.0971 14.0385 17.1264C14.0336 17.3059 14.0282 17.5025 14.2001 17.64C14.6001 17.96 15.0001 18.24 15.4801 18.48C15.7201 18.6 15.8801 18.52 15.9201 18.2V17.44C15.8801 16.8 16.0801 16.28 16.4001 15.76C17.5601 14 20.0001 13.92 21.2401 15.6C22.1201 16.76 22.0401 18.08 21.6801 19.44C20.3601 21.16 18.7601 21.36 17.1201 20.92C15.9601 20.6 14.9601 19.92 13.9601 19.24C13.5125 18.9338 13.0927 18.6137 12.6761 18.296C12.3853 18.0743 12.0961 17.8538 11.8001 17.64C10.0801 16.36 8.04008 16.32 5.84008 17.56C5.68008 17.64 5.56008 17.76 5.44008 17.92C4.24008 19.64 3.92008 20.16 4.80008 20.2C4.93826 20.2 5.07887 20.1976 5.22131 20.1951C5.65617 20.1876 6.10813 20.1798 6.56008 20.24C6.48664 19.983 6.58175 19.8271 6.69067 19.6485C6.7004 19.6326 6.71024 19.6164 6.72008 19.6C7.28008 18.72 8.28008 18.32 9.28008 18.6C9.76008 18.72 10.1601 18.92 10.5601 19.16C11.4401 19.72 12.3201 20.32 13.1601 20.96C14.8801 22.24 16.7201 23.16 18.9601 22.96C20.4801 22.84 21.7201 22.28 22.7201 21.12C23.8401 19.8 24.0801 18.12 23.6801 16.16L23.5601 15.8C22.6801 13.68 21.0801 12.56 18.9601 12.48Z" fill="#3DBDA3"/>
</g>
<defs>
<clipPath id="clip0_1934_243">
<rect width="32" height="32" fill="white"/>
</clipPath>
</defs>
</svg>
