<svg width="32" height="32" viewBox="0 0 32 32" fill="none" xmlns="http://www.w3.org/2000/svg">
<g clip-path="url(#clip0_1934_254)">
<path fill-rule="evenodd" clip-rule="evenodd" d="M0.700195 3.2802C0.700195 1.83634 1.83634 0.700195 3.2802 0.700195H28.7602C30.1683 0.700195 31.3402 1.84056 31.3402 3.2802V28.7602C31.3402 30.1683 30.1998 31.3402 28.7602 31.3402H3.2802C1.8721 31.3402 0.700195 30.1998 0.700195 28.7602V3.2802ZM3.2802 -0.299805C1.28405 -0.299805 -0.299805 1.28405 -0.299805 3.2802V28.7602C-0.299805 30.7606 1.32829 32.3402 3.2802 32.3402H28.7602C30.7606 32.3402 32.3402 30.7121 32.3402 28.7602V3.2802C32.3402 1.27983 30.7121 -0.299805 28.7602 -0.299805H3.2802ZM28.7602 0.000195324H3.2802C1.4802 0.000195324 0.000195324 1.4802 0.000195324 3.2802V28.7202C0.000195324 30.5202 1.4802 32.0002 3.2802 32.0402H28.7202C30.5202 32.0402 32.0002 30.5602 32.0002 28.7602V3.2802C32.0002 1.4802 30.5202 0.000195324 28.7602 0.000195324ZM20.0802 19.4402L19.984 19.5214C19.2419 20.1489 18.33 20.9202 16.7202 20.9202H15.7202C14.5202 20.9202 13.4002 20.4802 12.6002 19.6802L12.598 19.678C11.8646 18.9433 11.4297 17.9104 11.4016 16.7954C11.4014 16.7866 11.4012 16.7777 11.4011 16.7688C11.4005 16.7394 11.4002 16.7099 11.4002 16.6803V16.6802V15.3203C11.4002 15.2818 11.4007 15.2433 11.4016 15.205M20.0802 19.4402L20.1519 19.3761ZM11.4017 15.2016C11.4306 14.0905 11.8653 13.0948 12.5979 12.3225ZM19.984 12.479L20.0802 12.5603C20.0484 12.5335 20.0164 12.5064 19.984 12.479ZM20.1524 19.3758C20.8845 18.7252 21.5761 18.2014 23.2802 18.2402ZM23.2802 18.2402C23.5287 18.2402 23.7457 18.2717 23.9871 18.3067ZM23.9871 18.3067L24.0802 18.3202ZM24.0802 18.3202C24.0002 18.6002 23.8802 18.8402 23.7202 19.0802ZM23.7202 19.0802L22.5202 21.1202ZM22.5202 21.1202C21.9602 22.0402 21.2002 22.8002 20.2802 23.3202ZM20.2802 23.3202C19.3602 23.8402 18.3202 24.1202 17.2402 24.1202ZM17.2402 24.1202H14.8802ZM14.8802 24.1202C13.8002 24.1202 12.7602 23.8402 11.8402 23.3202ZM11.8402 23.3202C10.9202 22.8002 10.1202 22.0402 9.60019 21.1202ZM9.60019 21.1202L8.40019 19.0802ZM8.40019 19.0802C7.8802 18.1602 7.6002 17.1202 7.6002 16.0402ZM7.6002 16.0402C7.6002 14.9602 7.8802 13.9202 8.40019 13.0002ZM8.40019 13.0002L9.60019 10.9602ZM9.60019 10.9602C10.1602 10.0402 10.9202 9.28016 11.8402 8.76016ZM11.8402 8.76016C12.7602 8.24016 13.8002 7.96016 14.8802 7.96016ZM14.8802 7.96016H17.2402ZM17.2402 7.96016C18.3202 7.96016 19.3602 8.24016 20.2802 8.76016ZM20.2802 8.76016C21.2002 9.28016 22.0002 10.0402 22.5202 10.9602ZM22.5202 10.9602L23.7202 13.0002ZM23.7202 13.0002L23.7202 13.0002ZM23.7202 13.0002C23.8402 13.2402 23.9602 13.4802 24.0802 13.7602ZM24.0802 13.7602L23.9871 13.7736ZM23.9871 13.7736C23.7457 13.8087 23.5287 13.8402 23.2802 13.8402ZM23.2802 13.8402C21.5202 13.8402 20.8402 13.2402 20.0802 12.5602ZM20.0802 12.5602C19.3202 11.8802 18.4002 11.0802 16.7202 11.0802ZM16.7202 11.0802H15.7202ZM15.7202 11.0802C14.4802 11.0802 13.4002 11.5202 12.6002 12.3202ZM12.6002 12.3202L12.5979 12.3225ZM24.4402 17.0403C25.2802 17.2003 26.0802 17.5203 26.7602 18.0403C27.4402 18.5203 27.3202 19.0803 27.2402 19.4403C26.4402 22.0803 24.6802 24.3603 22.3202 25.8403C19.9602 27.3203 17.1202 27.8803 14.3602 27.4803C11.6002 27.0403 9.0802 25.6403 7.2402 23.5603C5.4002 21.4803 4.4002 18.7603 4.4002 16.0003C4.4002 13.2403 5.3602 10.5603 7.2002 8.44027C9.0402 6.32027 11.5602 4.92027 14.3202 4.52027C17.0802 4.08027 19.9202 4.68027 22.2802 6.16027C24.6402 7.64027 26.3602 9.92027 27.2002 12.5603L27.2059 12.5831C27.2872 12.9064 27.4243 13.4515 26.7602 13.9203C26.0802 14.4403 25.2802 14.7603 24.4402 14.9203C24.4002 14.5203 24.2802 14.1603 24.1202 13.7603C24.8002 13.6403 25.4802 13.3603 26.0402 12.9603C25.3202 10.6003 23.7602 8.56027 21.6402 7.24027C19.5202 5.92027 17.0402 5.40027 14.5602 5.76027C12.1202 6.12027 9.8802 7.36027 8.2402 9.24027C6.6002 11.1203 5.7202 13.5203 5.7202 16.0003C5.7202 18.4803 6.6002 20.8803 8.2402 22.7603C9.8402 24.6403 12.0802 25.8803 14.5602 26.2403C17.0002 26.6003 19.5202 26.0803 21.6402 24.7603C23.7602 23.4403 25.3202 21.4003 26.0402 19.0403C25.4802 18.6003 24.8002 18.3603 24.1202 18.2403C24.2402 17.8803 24.3602 17.4803 24.4402 17.0803V17.0403Z" fill="#006BFF"/>
<path d="M16.7602 12.3203H15.7602C13.9202 12.3203 12.6802 13.6403 12.6802 15.3203V16.6803C12.6802 18.3603 13.8802 19.6803 15.7602 19.6803H16.7602C19.4402 19.6803 19.2402 16.9603 23.3202 16.9603C23.7202 16.9603 24.0802 17.0003 24.4802 17.0803C24.6002 16.4003 24.6002 15.6803 24.4802 15.0003C24.1202 15.0803 23.7202 15.1203 23.3202 15.1203C19.2402 15.0403 19.4402 12.3203 16.7602 12.3203Z" fill="#0AE8F0"/>
</g>
<defs>
<clipPath id="clip0_1934_254">
<rect width="32" height="32" fill="white"/>
</clipPath>
</defs>
</svg>
