<svg width="32" height="32" viewBox="0 0 32 32" fill="none" xmlns="http://www.w3.org/2000/svg">
<g clip-path="url(#clip0_1934_106)">
<path fill-rule="evenodd" clip-rule="evenodd" d="M28.76 0H3.28C1.48 0 0 1.48 0 3.28V28.72C0 30.52 1.48 32 3.28 32.04H28.72C30.52 32.04 32 30.56 32 28.76V3.28C32 1.48 30.52 0 28.76 0ZM22.12 11.88C21.92 12.12 21.48 12.12 21.24 11.88C20.2 10.96 18.56 10.28 16.88 10.2C15.56 10.2 14.24 10.68 14.24 11.88C14.24 13.0631 15.436 13.4944 16.9121 14.0267C17.0331 14.0703 17.1559 14.1146 17.28 14.16C20.12 15.16 22.48 16.36 22.48 19.24C22.48 22.36 20.12 24.48 16.24 24.76L15.88 26.44C15.84 26.6 15.76 26.76 15.64 26.84C15.56 26.96 15.4 27 15.24 27H12.8C12.36 27 12.08 26.6 12.16 26.2L12.52 24.4C11.04 24 9.68004 23.24 8.64004 22.2C8.52004 22.08 8.44004 21.88 8.44004 21.72C8.44004 21.56 8.52004 21.36 8.64004 21.24L10 19.88C10.04 19.8 10.12 19.76 10.2 19.72C10.28 19.68 10.36 19.68 10.44 19.68C10.52 19.68 10.6 19.68 10.68 19.72C10.76 19.76 10.8 19.8 10.88 19.88C12.2 21.2 13.88 21.72 15.48 21.72C17.24 21.72 18.44 21 18.44 19.76C18.44 18.6408 17.3962 18.2523 15.4384 17.5236C15.297 17.471 15.1509 17.4166 15 17.36C12.6 16.52 10.36 15.24 10.36 12.36C10.36 9 13.12 7.36 16.32 7.2L16.68 5.52C16.72 5.4 16.8 5.24 16.92 5.16C17.04 5.04 17.16 5 17.32 5H19.72C20.12 5 20.44 5.4 20.36 5.8L19.96 7.72C21.2 8.12 22.32 8.8 23.32 9.64C23.6 9.88 23.64 10.36 23.36 10.6L22.12 11.88Z" fill="#00D632"/>
</g>
<defs>
<clipPath id="clip0_1934_106">
<rect width="32" height="32" fill="white"/>
</clipPath>
</defs>
</svg>
