<svg width="32" height="32" viewBox="0 0 32 32" fill="none" xmlns="http://www.w3.org/2000/svg">
<g clip-path="url(#clip0_1934_178)">
<mask id="mask0_1934_178" style="mask-type:luminance" maskUnits="userSpaceOnUse" x="0" y="0" width="32" height="32">
<path d="M3.28 0H32V32H0V3.28C0 1.48 1.48 0 3.28 0Z" fill="white"/>
</mask>
<g mask="url(#mask0_1934_178)">
<path fill-rule="evenodd" clip-rule="evenodd" d="M24.76 0H7.24C3.24 0 0 3.24 0 7.24V24.76C0 28.76 3.24 32 7.24 32H24.76C28.76 32 32 28.76 32 24.76V7.24C32 3.24 28.76 0 24.76 0ZM22.04 9.67992C21.36 9.51992 20.44 9.67992 20.44 9.67992L20.32 10.1199C21.76 10.3599 23.16 10.8399 24.48 11.5199L24.6 11.1199C24.48 10.7199 23.56 10.1199 23.56 10.1199C24.8 7.63992 23.72 5.31992 23.72 5.31992L23.04 6.27992C23.04 8.87992 22.04 9.67992 22.04 9.67992ZM15.12 24.8799C10.32 26.9599 6.04004 26.7599 6.04004 26.7599C8.08004 25.7999 10 24.5199 11.68 22.9599C12.76 23.6799 13.92 24.3199 15.12 24.8799ZM17.56 18.2799C18.88 18.9599 20.28 19.4799 21.76 19.7599C20.28 21.3999 18.56 22.7999 16.64 23.8799C15.28 23.3199 13.96 22.5999 12.72 21.7599C13.96 20.3599 14.96 18.8399 15.8 17.1999L15.8001 17.2C16.1601 17.4399 16.5201 17.6799 16.92 17.9199C15.52 20.5599 14 22.1599 14 22.1599C15.48 20.9599 16.64 19.5999 17.56 18.2799ZM20.64 12.5999L19.12 12.2399C18.8 13.7599 18.36 15.2399 17.76 16.6399C17.36 16.3999 16.96 16.1199 16.56 15.8399C17.16 14.3199 17.6 12.6799 17.88 11.0399C20.8 11.0399 23.68 11.9599 26.08 13.5999C25.36 15.3999 24.4 17.1199 23.24 18.6799C21.6 18.3999 20 17.8799 18.56 17.0799C20.04 14.5999 20.64 12.5999 20.64 12.5999Z" fill="#FF5722"/>
</g>
</g>
<defs>
<clipPath id="clip0_1934_178">
<rect width="32" height="32" fill="white"/>
</clipPath>
</defs>
</svg>
