<svg width="32" height="32" viewBox="0 0 32 32" fill="none" xmlns="http://www.w3.org/2000/svg">
<g clip-path="url(#clip0_1934_112)">
<path fill-rule="evenodd" clip-rule="evenodd" d="M28.76 0H3.28C1.48 0 0 1.48 0 3.28V28.72C0 30.52 1.48 32 3.28 32.04H28.72C30.52 32.04 32 30.56 32 28.76V3.28C32 1.48 30.52 0 28.76 0ZM14.2001 9.32C14.2001 8.48 14.7601 7.84 15.6801 7.64C16.1201 7.56 16.5601 7.6 16.8801 7.76C17.1201 7.88 17.5601 8.36 17.5601 8.48C17.5601 8.48 17.8001 8.44 18.0801 8.36C18.7201 8.16 19.2401 8.2 19.7201 8.56C20.1601 8.88 20.3601 9.32 20.6801 10.68C21.0001 12.08 21.3201 13 21.9201 13.96L22.3601 14.72L22.5601 14.36C22.6801 14.16 22.9201 13.8 23.1201 13.6C24.4401 12.2 26.5601 12.72 26.5601 14.44C26.5601 14.84 26.4801 15.08 26.1201 15.88C25.6001 17 25.4001 17.68 25.4001 18.52C25.4001 20 24.9601 21.64 24.3201 22.72C23.9201 23.44 23.0801 24.24 22.3601 24.68C19.8801 26.16 16.6801 25.64 14.7201 23.44C13.3201 21.92 11.5201 18.52 10.5201 15.64C10.0801 14.36 10.0401 13.72 10.3201 13.16C10.5201 12.72 11.0401 12.36 11.6001 12.32L12.0401 12.24L12.0001 11.76C11.8801 10.6 12.6401 9.72 13.7601 9.72H14.2001V9.32ZM16.8801 9.6C16.8001 9.2 16.6801 8.92 16.5601 8.8C16.3201 8.56 15.9201 8.52 15.6001 8.76C15.0401 9.04 15.0401 9.4 15.6401 11.8C15.7601 12.32 15.9601 13.04 16.0801 13.4C16.3201 14.08 17.0001 15.6 17.1601 15.68C17.2401 15.76 18.3201 15.32 18.4801 15.16C18.5201 15.12 18.3601 14.68 18.1201 14.12C17.4001 12.52 17.3601 12.32 16.8801 9.6ZM19.6401 10.68C19.5201 9.96 19.3201 9.48 19.1201 9.36C18.8401 9.2 18.3601 9.28 18.0801 9.48C18.0113 9.54878 17.9662 9.5939 17.9382 9.64791C17.8848 9.75096 17.8938 9.88633 17.9201 10.28C18.0401 11.2 18.4401 12.68 18.8801 13.68C19.2939 14.5628 19.4223 14.8367 19.6327 14.9349C19.7274 14.979 19.8387 14.9876 20.0001 15C20.4401 15.04 20.4401 15.04 20.4401 15.28C20.4401 15.5088 20.4037 15.5195 19.811 15.6933C19.7821 15.7018 19.7518 15.7107 19.7201 15.72C18.6401 16 17.7601 16.48 17.0401 17.16C16.3601 17.8 16.2401 17.84 15.9601 17.48C15.7601 17.24 15.8401 17 16.1601 16.6L16.3601 16.36L15.9201 15.48C15.3601 14.32 15.1201 13.68 14.8001 12.4C14.4401 10.88 14.3601 10.76 13.7201 10.76C13.2801 10.76 13.0001 11.04 13.0001 11.6C13.0001 12.4 14.0001 15.28 14.8001 16.8C15.2801 17.64 15.2801 17.96 14.8401 18C14.6801 18 14.5201 17.96 14.4401 17.92C14.1601 17.68 13.1201 15.52 12.8001 14.48C12.5601 13.8 12.3201 13.36 12.0801 13.32C11.6001 13.2 11.1201 13.52 11.1201 14C11.1201 14.64 12.1201 17.28 13.1201 19.2C14.4801 21.84 15.7201 23.4 16.9601 24C19.0401 25.04 21.2801 24.68 22.8801 23.04C23.8001 22.12 24.2401 20.88 24.3601 18.92C24.4801 17.28 24.6401 16.72 25.3201 15.28C25.6401 14.6 25.6401 14.32 25.3601 14.04C25.1201 13.8 24.8401 13.76 24.4001 13.96C23.7601 14.24 23.3601 14.8 23.0001 15.8C22.8801 16.16 22.6801 16.4 22.0401 17.08C21.4001 17.72 21.2001 17.96 21.1201 18.28C20.9736 18.8169 20.9314 18.9965 20.8209 19.0639C20.7502 19.107 20.6516 19.1044 20.4801 19.12L20.0801 19.16V18.68C20.0801 18 20.4401 17.32 21.2401 16.56C21.6001 16.24 21.8801 15.88 21.8401 15.84C21.8401 15.76 21.6001 15.4 21.3601 15.04C20.4801 13.68 19.9201 12.2 19.6401 10.68ZM5.60006 10.36C5.56006 10.04 5.72006 9.64 5.96006 9.48C6.20006 9.32 6.36006 9.32 6.80006 9.6C7.36006 9.96 8.84006 11.08 9.00006 11.28C9.12006 11.44 9.12006 11.48 8.96006 11.76C8.68006 12.24 8.40006 12.2 6.88006 11.32C5.80006 10.68 5.64006 10.56 5.60006 10.36ZM4.92006 15.72C4.68006 15.4 4.80006 14.6 5.12006 14.52C5.32006 14.44 5.84006 14.52 7.20006 14.76C8.48006 15 8.72006 15.12 8.64006 15.52C8.56006 16 8.48006 16 7.40006 16C5.84006 16 5.08006 15.92 4.92006 15.72ZM6.40006 19.8C6.56006 19.56 6.76006 19.48 8.36006 18.92C8.88006 18.76 9.36006 18.6 9.40006 18.56C9.56006 18.56 9.80006 18.76 9.88006 19C10.0001 19.4 9.76006 19.6 8.28006 20.36C7.00006 21.04 6.96006 21.04 6.72006 20.92C6.56006 20.8 6.44006 20.64 6.36006 20.4C6.24006 20.04 6.24006 20 6.40006 19.8Z" fill="#FFE450"/>
</g>
<defs>
<clipPath id="clip0_1934_112">
<rect width="32" height="32" fill="white"/>
</clipPath>
</defs>
</svg>
