<svg width="32" height="32" viewBox="0 0 32 32" fill="none" xmlns="http://www.w3.org/2000/svg">
<path fill-rule="evenodd" clip-rule="evenodd" d="M0 4.17C0 1.86697 1.86697 0 4.17 0H27.83C30.133 0 32 1.86697 32 4.17V27.83C32 30.133 30.133 32 27.83 32H4.17C1.86697 32 0 30.133 0 27.83V4.17ZM24.4571 7.54274C22.4002 5.48575 19.0536 5.48575 16.9966 7.54274L13.9314 10.6079C13.3965 11.1428 12.9631 11.8252 12.6838 12.6584C12.6814 12.6592 12.6791 12.6602 12.6768 12.6612C12.6745 12.6621 12.6722 12.6631 12.6699 12.6639C12.0346 14.5751 12.5164 16.6534 13.9314 18.0684C14.3542 18.4912 14.8516 18.8393 15.3904 19.0963L15.5893 18.8974C16.2773 18.2093 16.2773 17.0986 15.5893 16.4105C14.4454 15.2666 14.4454 13.4097 15.5893 12.2658L18.6545 9.20059C19.7984 8.05665 21.6553 8.05665 22.7992 9.20059C23.9432 10.3445 23.9432 12.2014 22.7992 13.3453L20.4718 15.6727C20.7821 16.6323 20.8479 17.6484 20.6977 18.6375C20.9428 18.4666 21.1787 18.2817 21.3919 18.0684L24.4571 15.0032C26.5141 12.9463 26.5141 9.59969 24.4571 7.54274ZM16.6089 12.904C17.156 13.1528 17.6533 13.5009 18.0761 13.9237C19.4911 15.3387 19.9729 17.417 19.3376 19.3283C19.3353 19.329 19.333 19.33 19.3307 19.331L19.3306 19.331L19.3273 19.3324L19.3237 19.3338C19.0444 20.1669 18.611 20.8493 18.0761 21.3842L15.0033 24.4572C12.9463 26.5142 9.59973 26.5143 7.54274 24.4572C5.48575 22.4002 5.48575 19.0537 7.54274 16.9967L10.6156 13.9237C10.8288 13.7105 11.0647 13.5256 11.3098 13.3546C11.1597 14.3437 11.2254 15.3598 11.5357 16.3194L9.20067 18.6546C8.05673 19.7986 8.05673 21.6554 9.20067 22.7994C10.3446 23.9433 12.2015 23.9433 13.3454 22.7994L16.4182 19.7263C17.5622 18.5824 17.5622 16.7256 16.4182 15.5816C15.7302 14.8935 15.7302 13.7828 16.4182 13.0948L16.6089 12.904ZM23.0497 22.2133L22.2208 21.3844C21.9917 21.1553 21.6209 21.1553 21.3918 21.3844C21.1627 21.6135 21.1627 21.9843 21.3918 22.2133L22.2208 23.0423C22.4499 23.2714 22.8206 23.2714 23.0497 23.0423C23.2788 22.8132 23.2788 22.4424 23.0497 22.2133ZM9.78666 8.95002L10.6156 9.77897C10.8447 10.008 10.8447 10.3788 10.6156 10.6079C10.3865 10.837 10.0158 10.837 9.78666 10.6079L8.95771 9.77897C8.72861 9.5499 8.72861 9.17912 8.95771 8.95002C9.18678 8.72092 9.55756 8.72092 9.78666 8.95002ZM25.2143 17.8569L24.0817 17.5533C23.7688 17.4695 23.4475 17.6549 23.3637 17.9678C23.2798 18.2826 23.4674 18.6027 23.7782 18.6859L24.9107 18.9894C25.2236 19.0732 25.545 18.8878 25.6287 18.5749C25.7117 18.262 25.5271 17.9391 25.2143 17.8569ZM7.09671 13.0024L8.22925 13.306C8.54093 13.3877 8.7271 13.7108 8.64374 14.0241C8.55995 14.337 8.23858 14.5223 7.92569 14.4386L6.79316 14.135C6.48234 14.0518 6.2948 13.7316 6.37866 13.4169C6.46245 13.104 6.78382 12.9186 7.09671 13.0024ZM18.9972 24.9031L18.6936 23.7706C18.6094 23.4565 18.2885 23.2723 17.9756 23.3561C17.6627 23.4399 17.4773 23.7613 17.5611 24.0742L17.8647 25.2067C17.9479 25.5175 18.268 25.705 18.5827 25.6212C18.8956 25.5374 19.081 25.216 18.9972 24.9031ZM14.1429 6.78535L14.4465 7.91789C14.5303 8.23078 14.3449 8.55218 14.032 8.63593C13.8224 8.69179 13.6086 8.62703 13.4654 8.48375C13.395 8.41332 13.3415 8.32425 13.314 8.22144L13.0104 7.0889C12.9266 6.77601 13.112 6.45465 13.4249 6.37086C13.7378 6.28789 14.0595 6.47125 14.1429 6.78535Z" fill="black"/>
</svg>
