<svg width="32" height="32" viewBox="0 0 32 32" fill="none" xmlns="http://www.w3.org/2000/svg">
<g clip-path="url(#clip0_1934_142)">
<mask id="mask0_1934_142" style="mask-type:luminance" maskUnits="userSpaceOnUse" x="0" y="0" width="32" height="32">
<path d="M32 0H0V32H32V0Z" fill="white"/>
</mask>
<g mask="url(#mask0_1934_142)">
<path fill-rule="evenodd" clip-rule="evenodd" d="M24 32H8C6.9494 32.0001 5.90904 31.7933 4.9384 31.3913C3.96774 30.9893 3.08578 30.4 2.34288 29.6571C1.59999 28.9142 1.01072 28.0323 0.608724 27.0616C0.206727 26.091 -0.000118163 25.0506 5.06411e-08 24V8C-0.000118163 6.9494 0.206727 5.90904 0.608724 4.9384C1.01072 3.96774 1.59999 3.08578 2.34288 2.34288C3.08578 1.59999 3.96774 1.01072 4.9384 0.608724C5.90904 0.206727 6.9494 -0.000118163 8 5.06411e-08H24C25.0506 -0.000118163 26.091 0.206727 27.0616 0.608724C28.0323 1.01072 28.9142 1.59999 29.6571 2.34288C30.4 3.08578 30.9893 3.96774 31.3913 4.9384C31.7933 5.90904 32.0001 6.9494 32 8V24C32.0001 25.0506 31.7933 26.091 31.3913 27.0616C30.9893 28.0323 30.4 28.9142 29.6571 29.6571C28.9142 30.4 28.0323 30.9893 27.0616 31.3913C26.091 31.7933 25.0506 32.0001 24 32Z" fill="#7387DC"/>
<path fill-rule="evenodd" clip-rule="evenodd" d="M15 9H24C25.1536 8.99992 26.2632 8.55684 27.0995 7.7622C27.9358 6.9676 28.4351 5.88212 28.4941 4.73C28.5532 3.57788 28.1675 2.44708 27.4168 1.57113C26.666 0.695184 25.6076 0.140991 24.46 0.023C24.305 0.0145 24.155 5.06411e-08 24 5.06411e-08H8C6.9494 -0.000118163 5.90904 0.206727 4.9384 0.608724C3.96774 1.01072 3.08578 1.59999 2.34288 2.34288C1.59999 3.08578 1.01072 3.96774 0.608724 4.9384C0.206727 5.90904 -0.000118163 6.9494 5.06411e-08 8V24C5.06411e-08 20.0218 1.58035 16.2064 4.3934 13.3934C7.20644 10.5804 11.0218 9 15 9Z" fill="#8CA0F5"/>
<path fill-rule="evenodd" clip-rule="evenodd" d="M24 16C22.4178 16 20.871 16.4692 19.5554 17.3482C18.2398 18.2273 17.2145 19.4767 16.609 20.9385C16.0035 22.4004 15.845 24.0089 16.1537 25.5607C16.4624 27.1126 17.2243 28.538 18.3432 29.6568C19.462 30.7757 20.8874 31.5376 22.4393 31.8463C23.9911 32.155 25.5997 31.9965 27.0615 31.391C28.5233 30.7855 29.7727 29.7602 30.6518 28.4446C31.5308 27.129 32 25.5822 32 24V8C32.0001 9.0506 31.7933 10.091 31.3913 11.0616C30.9893 12.0323 30.4 12.9142 29.6571 13.6571C28.9142 14.4 28.0323 14.9893 27.0616 15.3913C26.091 15.7933 25.0506 16.0001 24 16Z" fill="#5A6EC3"/>
<path d="M13.9149 15.7317C13.6594 15.7099 13.4033 15.7657 13.1801 15.892C12.9569 16.0182 12.777 16.2089 12.664 16.439C12.551 16.6691 12.5101 16.9281 12.5467 17.1819C12.5833 17.4356 12.6957 17.6725 12.8691 17.8613C13.0426 18.0501 13.269 18.1822 13.5187 18.2402C13.7685 18.2983 14.0299 18.2795 14.2689 18.1864C14.5078 18.0933 14.713 17.9303 14.8577 17.7187C15.0024 17.507 15.0799 17.2565 15.0799 17.0001C15.0936 16.6775 14.9785 16.3625 14.76 16.1247C14.5416 15.8868 14.2376 15.7454 13.9149 15.7317Z" fill="white"/>
<path d="M18.0848 15.7317C17.8293 15.7099 17.5733 15.7657 17.3501 15.892C17.1269 16.0182 16.947 16.2089 16.834 16.439C16.7209 16.6691 16.6801 16.9281 16.7167 17.1819C16.7533 17.4356 16.8656 17.6725 17.0391 17.8613C17.2125 18.0501 17.4389 18.1822 17.6887 18.2402C17.9385 18.2983 18.1999 18.2795 18.4388 18.1864C18.6777 18.0933 18.883 17.9303 19.0277 17.7187C19.1724 17.507 19.2498 17.2565 19.2498 17.0001C19.2635 16.6775 19.1485 16.3625 18.93 16.1247C18.7115 15.8868 18.4075 15.7454 18.0848 15.7317Z" fill="white"/>
<path d="M26 8.49707C26.0008 8.18851 25.9408 7.88275 25.8233 7.59739C25.7058 7.31203 25.5333 7.05263 25.3155 6.83399C25.0977 6.61535 24.8389 6.44179 24.554 6.32327C24.2691 6.20471 23.9636 6.14347 23.655 6.14307H8.34501C8.03641 6.14347 7.73093 6.20471 7.44601 6.32327C7.16109 6.44179 6.90233 6.61535 6.68453 6.83399C6.46677 7.05263 6.29421 7.31203 6.17673 7.59739C6.05929 7.88275 5.99921 8.18851 6.00001 8.49707V23.6456C5.99917 23.9542 6.05921 24.26 6.17665 24.5454C6.29405 24.8308 6.46661 25.0903 6.68441 25.309C6.90221 25.5277 7.16097 25.7012 7.44593 25.8198C7.73085 25.9384 8.03637 25.9997 8.34501 26.0001H20.595C20.6725 26.0003 20.7489 25.9825 20.8183 25.9481C20.8877 25.9136 20.948 25.8634 20.9946 25.8015C21.0412 25.7397 21.0728 25.6677 21.0867 25.5915C21.1007 25.5153 21.0966 25.4369 21.075 25.3626C20.905 24.7771 20.685 24.0001 20.685 24.0001C20.685 24.0001 23.66 26.7976 25.155 28.2076C25.2261 28.2749 25.3154 28.3198 25.4118 28.3369C25.5082 28.354 25.6075 28.3425 25.6973 28.3037C25.7873 28.265 25.8638 28.2008 25.9176 28.119C25.9714 28.0372 26 27.9415 26 27.8436V8.49707ZM19.34 21.0611C19.2896 21.0634 19.2394 21.0538 19.1933 21.0332C19.1473 21.0125 19.1068 20.9813 19.075 20.9421L18.72 20.5056C18.6877 20.4658 18.6652 20.4189 18.6545 20.3688C18.6438 20.3187 18.645 20.2667 18.6582 20.2172C18.6714 20.1677 18.696 20.1219 18.7302 20.0838C18.7644 20.0456 18.8072 20.0161 18.855 19.9976C19.5106 19.7678 20.0808 19.344 20.49 18.7826C19.1457 19.6299 17.5891 20.0796 16 20.0796C14.411 20.0796 12.8543 19.6299 11.51 18.7826C11.9192 19.344 12.4894 19.7678 13.145 19.9976C13.1928 20.0161 13.2356 20.0456 13.2698 20.0838C13.304 20.1219 13.3287 20.1677 13.3418 20.2172C13.355 20.2667 13.3562 20.3187 13.3455 20.3688C13.3348 20.4189 13.3123 20.4658 13.28 20.5056L12.925 20.9421C12.8932 20.9813 12.8527 21.0125 12.8067 21.0332C12.7607 21.0538 12.7104 21.0634 12.66 21.0611C12.0072 21.056 11.3648 20.8967 10.7852 20.5961C10.2056 20.2955 9.70529 19.8623 9.32501 19.3316C9.36209 17.0147 9.92457 14.7365 10.97 12.6686C11.8785 11.963 12.9772 11.5453 14.125 11.4691C14.143 11.4687 14.1607 11.4723 14.1772 11.4796C14.1936 11.4868 14.2082 11.4976 14.22 11.5111C14.2337 11.5262 14.2433 11.5445 14.248 11.5643C14.2527 11.5842 14.2522 11.6049 14.2468 11.6245C14.2413 11.6441 14.2309 11.6621 14.2166 11.6766C14.2023 11.6911 14.1846 11.7018 14.165 11.7076C13.1896 11.9868 12.2811 12.4616 11.495 13.1031C12.8758 12.3457 14.4252 11.9486 16 11.9486C17.5748 11.9486 19.1243 12.3457 20.505 13.1031C19.7189 12.4616 18.8104 11.9868 17.835 11.7076C17.8155 11.7018 17.7977 11.6911 17.7834 11.6766C17.7691 11.6621 17.7588 11.6441 17.7532 11.6245C17.7478 11.6049 17.7473 11.5842 17.752 11.5643C17.7567 11.5445 17.7663 11.5262 17.78 11.5111C17.7918 11.4976 17.8064 11.4868 17.8229 11.4796C17.8393 11.4723 17.8571 11.4687 17.875 11.4691C19.0228 11.5453 20.1215 11.963 21.03 12.6686C22.0755 14.7365 22.6379 17.0147 22.675 19.3316C22.2947 19.8623 21.7944 20.2955 21.2149 20.5961C20.6353 20.8967 19.9928 21.056 19.34 21.0611Z" fill="white"/>
</g>
</g>
<defs>
<clipPath id="clip0_1934_142">
<rect width="32" height="32" fill="white"/>
</clipPath>
</defs>
</svg>
