<svg width="32" height="32" viewBox="0 0 32 32" fill="none" xmlns="http://www.w3.org/2000/svg">
<g clip-path="url(#clip0_1934_234)">
<mask id="mask0_1934_234" style="mask-type:luminance" maskUnits="userSpaceOnUse" x="0" y="0" width="32" height="32">
<path d="M31.9604 0H0.355469V32H31.9604V0Z" fill="white"/>
</mask>
<g mask="url(#mask0_1934_234)">
<path fill-rule="evenodd" clip-rule="evenodd" d="M28.7209 0H3.55542C1.77765 0 0.355424 1.48 0.315918 3.28V28.76C0.315918 30.56 1.77765 32.04 3.55542 32.04H28.7209C30.4986 32.04 31.9604 30.56 31.9604 28.76V3.28C31.9604 1.48 30.4986 0 28.7209 0ZM9.6393 15.64V13.24C9.6393 13.16 9.6393 13.12 9.79732 13.12H11.8121C12.1677 13.12 12.3652 13.4 12.4837 14L12.6418 14.44H12.9578C12.9973 13.16 13.0368 12.6 13.0368 12.6C13.0368 12.6 12.1677 12.68 11.6541 12.68H9.08621L7.743 12.64V13L8.17757 13.08C8.53312 13.16 8.61214 13.24 8.61214 13.52C8.61214 13.52 8.65164 14.4 8.65164 15.84C8.65164 17.32 8.61214 18.2 8.61214 18.2C8.61214 18.48 8.49362 18.56 8.17757 18.64L7.743 18.72V19.08L9.12572 19.04H11.4566C11.9702 19.04 13.1949 19.08 13.1949 19.08C13.2053 18.9956 13.2239 18.8333 13.2465 18.6371C13.3095 18.0894 13.4028 17.2778 13.4319 17.16H13.1158L12.7603 17.96C12.4837 18.56 12.0887 18.6 11.6541 18.6H10.3109C9.87634 18.6 9.6788 18.44 9.6788 18.04V16.04C9.6788 16.04 10.627 16.04 10.943 16.08C11.18 16.12 11.3381 16.2 11.4171 16.52L11.4961 16.96H11.8911L11.8516 15.8L11.8911 14.64H11.4961L11.3776 15.16C11.3399 15.5028 11.2665 15.5192 10.9525 15.5891C10.9368 15.5926 10.9204 15.5962 10.9035 15.6C10.4689 15.64 9.6393 15.64 9.6393 15.64ZM15.2492 13.52H14.8541C14.6566 14.56 14.1825 14.96 13.5504 15.08V15.4H14.301V18.12C14.301 18.84 14.8146 19.24 15.4467 19.24C15.9603 19.24 16.5134 19 16.7109 18.56L16.5134 18.32C16.3949 18.48 16.1578 18.68 15.8023 18.68C15.4467 18.68 15.2097 18.4 15.2097 17.72V15.32L16.4739 15.4L16.5529 14.8L15.2492 14.88V13.52ZM17.8566 18.28L17.6195 17.68H17.343L17.3465 17.7188C17.3847 18.1436 17.4197 18.5318 17.343 18.92C17.343 18.92 18.0146 19.2 18.6862 19.2C19.5553 19.2 20.306 18.76 20.306 17.92C20.306 17.1077 19.6395 16.8015 19.0382 16.5252C18.5439 16.2981 18.0936 16.0912 18.0936 15.64C18.0936 15.2 18.4887 15.04 18.8837 15.04C19.1998 15.04 19.4368 15.16 19.5158 15.32L19.7529 15.96L20.0689 15.92C20.0689 15.6 20.0689 15.16 20.1479 14.84C19.8319 14.72 19.2788 14.64 18.8837 14.64C18.0146 14.64 17.343 15.04 17.343 15.88C17.343 16.6715 17.9531 16.9482 18.5208 17.2056C19.0146 17.4296 19.4763 17.639 19.4763 18.16C19.4763 18.52 19.2393 18.8 18.6862 18.8C18.1726 18.8 17.9356 18.52 17.8566 18.28ZM20.3454 19.5601C20.2664 20.0001 20.1874 20.44 20.1084 20.8C20.3455 20.96 20.6615 21.08 21.0171 21.08C21.6492 21.08 22.5183 20.92 23.3479 19L24.7702 15.64C24.8887 15.36 24.9282 15.32 25.2442 15.2L25.4023 15.08V14.76L24.5726 14.8L23.664 14.76V15.08L23.901 15.16C24.1381 15.2 24.2171 15.32 24.2171 15.48C24.2171 15.5294 24.202 15.5636 24.1811 15.6108C24.1682 15.64 24.1532 15.6742 24.1381 15.72C24.0591 16 23.427 17.52 23.1109 18.2C22.7553 17.2 22.2418 15.76 22.1628 15.56C22.1232 15.52 22.1233 15.48 22.1233 15.44C22.1233 15.32 22.2023 15.2 22.4788 15.16L22.7553 15.08V14.76L21.5702 14.84L20.622 14.8V15.08L20.78 15.16C20.9776 15.2 21.0171 15.24 21.1751 15.6C21.5381 16.4576 21.9308 17.4503 22.235 18.2195C22.4274 18.706 22.5845 19.103 22.6763 19.32C22.1628 20.24 21.6492 20.48 21.2146 20.48C20.9381 20.48 20.859 20.36 20.8195 20.2L20.701 19.52L20.3455 19.56L20.3454 19.5601Z" fill="#F45800"/>
</g>
</g>
<defs>
<clipPath id="clip0_1934_234">
<rect width="32" height="32" fill="white"/>
</clipPath>
</defs>
</svg>
