<svg width="32" height="32" viewBox="0 0 32 32" fill="none" xmlns="http://www.w3.org/2000/svg">
<g clip-path="url(#clip0_1934_91)">
<mask id="mask0_1934_91" style="mask-type:luminance" maskUnits="userSpaceOnUse" x="0" y="0" width="32" height="32">
<path d="M32 0H0V32H32V0Z" fill="white"/>
</mask>
<g mask="url(#mask0_1934_91)">
<path fill-rule="evenodd" clip-rule="evenodd" d="M3.28 0H28.76C30.52 0 32 1.48 32 3.28V28.76C32 30.56 30.52 32.04 28.72 32.04H3.28C1.48 32 0 30.52 0 28.72V3.28C0 1.48 1.48 0 3.28 0ZM12.6801 8.84004H17.0001C19.2401 8.88004 20.4801 10.08 20.5201 12.36V19.24C20.5201 19.56 20.4801 19.96 20.4001 20.28C20.2001 21.52 19.3201 22.52 18.0801 22.76C17.7201 22.84 17.2801 22.88 16.9201 22.88H8.56005C8.08006 22.88 7.60006 22.84 7.16006 22.68C5.88005 22.36 5.00005 21.24 4.96005 19.8C4.92005 17.16 4.88005 14.52 4.96005 11.84C5.00005 10.12 6.24006 8.88004 8.00006 8.84004C9.01339 8.81338 10.0623 8.82227 11.1112 8.83115C11.6356 8.8356 12.1601 8.84004 12.6801 8.84004ZM27.12 20.6399V15.8399C27.16 14.2399 27.16 12.5999 27.04 10.9599C27.04 9.75992 26.08 9.23992 25.04 9.83992C25.007 9.86192 24.971 9.88391 24.9336 9.90673C24.8351 9.96693 24.727 10.0329 24.64 10.1199C23.64 10.9599 22.64 11.7999 21.64 12.6799C21.2 13.0799 21 13.5599 21 14.1599C21.016 14.6402 21.0192 15.127 21.0224 15.6149C21.0272 16.3462 21.032 17.0802 21.08 17.7999C21.12 18.1599 21.28 18.5999 21.56 18.8799C22.64 19.8799 23.76 20.7999 24.88 21.7199L24.88 21.7199C25.36 22.1199 25.88 22.3199 26.44 21.9999C27 21.7199 27.12 21.1999 27.12 20.6399Z" fill="url(#paint0_linear_1934_91)"/>
</g>
</g>
<defs>
<linearGradient id="paint0_linear_1934_91" x1="16" y1="0" x2="16" y2="32.04" gradientUnits="userSpaceOnUse">
<stop stop-color="#89FA6A"/>
<stop offset="1" stop-color="#1ADB1D"/>
</linearGradient>
<clipPath id="clip0_1934_91">
<rect width="32" height="32" fill="white"/>
</clipPath>
</defs>
</svg>
