<svg width="32" height="32" viewBox="0 0 32 32" fill="none" xmlns="http://www.w3.org/2000/svg">
<path fill-rule="evenodd" clip-rule="evenodd" d="M4.17 0C1.86697 0 0 1.86697 0 4.17V27.83C0 30.133 1.86697 32 4.17 32H27.83C30.133 32 32 30.133 32 27.83V4.17C32 1.86697 30.133 0 27.83 0H4.17ZM14.3752 19.0118C14.3138 18.9885 14.2578 18.9529 14.2107 18.9071C14.1122 18.7921 14.0611 18.644 14.0678 18.4928V18.1357V17.7785C14.0611 17.6273 14.1122 17.4792 14.2107 17.3642C14.2578 17.3185 14.3138 17.2828 14.3752 17.2595C14.4366 17.2362 14.5022 17.2256 14.5678 17.2285C14.6335 17.2252 14.6992 17.2355 14.7606 17.2589C14.8221 17.2822 14.8781 17.3181 14.925 17.3642C15.0234 17.4792 15.0745 17.6273 15.0678 17.7785V18.1357V18.4928C15.0745 18.644 15.0234 18.7921 14.925 18.9071C14.8781 18.9532 14.8221 18.9891 14.7606 19.0124C14.6992 19.0358 14.6335 19.0461 14.5678 19.0428C14.5022 19.0457 14.4366 19.0352 14.3752 19.0118ZM11.4394 17.4286C11.3299 17.3328 11.1884 17.2818 11.043 17.2857H10.6251V19H11.043C11.117 19.0053 11.1913 18.9953 11.2613 18.9708C11.3314 18.9462 11.3956 18.9075 11.4501 18.8572C11.5458 18.7424 11.5943 18.5956 11.5858 18.4464V18.125V17.8072C11.5863 17.667 11.5341 17.5319 11.4394 17.4286ZM22.6643 6.96786L24.7179 9.02143C25.0248 9.32802 25.2683 9.69213 25.4343 10.0929C25.6004 10.4937 25.6858 10.9233 25.6857 11.3571V23.8571C25.6857 24.4255 25.46 24.9705 25.0581 25.3724C24.6562 25.7742 24.1112 26 23.5429 26H12.8286C12.2603 26 11.7152 25.7742 11.3133 25.3724C10.9115 24.9705 10.6857 24.4255 10.6857 23.8571V22.7857H8.54286C7.97454 22.7857 7.42949 22.5599 7.02763 22.1581C6.62576 21.7562 6.4 21.2112 6.4 20.6429V15.6429C6.4 15.0745 6.62576 14.5295 7.02763 14.1276C7.42949 13.7258 7.97454 13.5 8.54286 13.5H20.6857C21.254 13.5 21.7991 13.7258 22.2009 14.1276C22.6028 14.5295 22.8286 15.0745 22.8286 15.6429V20.6429C22.8286 21.2112 22.6028 21.7562 22.2009 22.1581C21.7991 22.5599 21.254 22.7857 20.6857 22.7857H12.1143V23.8571C12.1143 24.0466 12.1895 24.2283 12.3235 24.3622C12.4574 24.4962 12.6391 24.5714 12.8286 24.5714H23.5429C23.7323 24.5714 23.914 24.4962 24.0479 24.3622C24.1819 24.2283 24.2571 24.0466 24.2571 23.8571V11.7143H22.1143C21.546 11.7143 21.0009 11.4885 20.5991 11.0867C20.1972 10.6848 19.9714 10.1397 19.9714 9.57143V7.42857H12.8286C12.6391 7.42857 12.4574 7.50383 12.3235 7.63778C12.1895 7.77174 12.1143 7.95342 12.1143 8.14286V11.3571C12.1143 11.5466 12.039 11.7283 11.9051 11.8622C11.7711 11.9962 11.5894 12.0714 11.4 12.0714C11.2106 12.0714 11.0289 11.9962 10.8949 11.8622C10.761 11.7283 10.6857 11.5466 10.6857 11.3571V8.14286C10.6857 7.57454 10.9115 7.02949 11.3133 6.62763C11.7152 6.22576 12.2603 6 12.8286 6H20.6857V6.02143C21.4344 6.10012 22.1331 6.43435 22.6643 6.96786ZM21.6092 10.0765C21.7432 10.2105 21.9248 10.2857 22.1143 10.2857H23.9C23.8433 10.2022 23.78 10.1234 23.7107 10.05L21.6536 7.99286C21.5752 7.91659 21.4904 7.84728 21.4 7.78571V9.57143C21.4 9.76087 21.4753 9.94255 21.6092 10.0765ZM16.8177 17.2918C16.7561 17.4402 16.727 17.6001 16.7321 17.7607C16.7286 17.8429 16.7286 17.9714 16.7571 18.1464V18.525C16.7514 18.6862 16.7804 18.8468 16.842 18.9959C16.9036 19.145 16.9964 19.2791 17.1143 19.3893C17.3837 19.6026 17.721 19.7116 18.0643 19.6964C18.2977 19.6997 18.5294 19.6573 18.7464 19.5714C18.9357 19.4986 19.1013 19.3751 19.225 19.2143C19.3432 19.0413 19.401 18.8342 19.3893 18.625C19.3896 18.6128 19.3872 18.6008 19.3822 18.5896C19.3773 18.5785 19.3699 18.5686 19.3607 18.5607C19.3517 18.5522 19.341 18.5456 19.3293 18.5413C19.3177 18.537 19.3053 18.5351 19.2929 18.5357H18.6857C18.654 18.5342 18.6227 18.5429 18.5964 18.5607C18.572 18.5849 18.5558 18.6161 18.55 18.65C18.5268 18.7665 18.4621 18.8706 18.3679 18.9429C18.2707 19.0038 18.1574 19.0337 18.0429 19.0286C17.7095 19.0286 17.5429 18.8488 17.5429 18.4893V18.1321V17.775C17.5524 17.4155 17.719 17.2357 18.0429 17.2357C18.157 17.2295 18.2703 17.2582 18.3679 17.3179C18.4607 17.3914 18.5251 17.4949 18.55 17.6107C18.5585 17.6444 18.5757 17.6752 18.6 17.7C18.6259 17.7186 18.6575 17.7274 18.6893 17.725H19.2964C19.3214 17.7258 19.3458 17.7168 19.3643 17.7C19.3733 17.6919 19.3805 17.682 19.3855 17.6709C19.3904 17.6598 19.3929 17.6478 19.3929 17.6357C19.3911 17.4351 19.3261 17.2401 19.2071 17.0786C19.0833 16.9179 18.9178 16.7944 18.7286 16.7214C18.5115 16.6356 18.2798 16.5931 18.0464 16.5964C17.7012 16.5785 17.3611 16.6863 17.0893 16.9C16.9719 17.0098 16.8793 17.1433 16.8177 17.2918ZM13.3229 17.2861C13.2613 17.4365 13.2328 17.5983 13.2393 17.7607V17.7857C13.2373 17.8274 13.2364 17.8847 13.2354 17.95C13.2346 18.002 13.2337 18.0592 13.2321 18.1179V18.475C13.2254 18.6374 13.2538 18.7993 13.3155 18.9497C13.3771 19.1002 13.4705 19.2355 13.5893 19.3464C13.863 19.5584 14.2044 19.6637 14.55 19.6429C14.8944 19.6628 15.2343 19.5576 15.5071 19.3464C15.6255 19.2352 15.7187 19.0998 15.7803 18.9495C15.8419 18.7991 15.8706 18.6373 15.8643 18.475V18.1179V17.7607C15.8708 17.5983 15.8423 17.4365 15.7806 17.2861C15.719 17.1357 15.6257 17.0004 15.5071 16.8893C15.2368 16.6752 14.8981 16.5661 14.5536 16.5821C14.2079 16.5652 13.8677 16.6743 13.5964 16.8893C13.4778 17.0004 13.3846 17.1357 13.3229 17.2861ZM9.925 19.6429H11.075C11.9345 19.6429 12.3714 19.2512 12.3857 18.4679V18.1429V17.8143C12.3917 17.6525 12.3629 17.4913 12.3013 17.3416C12.2397 17.1919 12.1467 17.0571 12.0286 16.9464C11.7477 16.729 11.3974 16.6212 11.0429 16.6429H9.925C9.91035 16.6421 9.89571 16.6446 9.88213 16.6502C9.86856 16.6557 9.85637 16.6642 9.84643 16.675C9.827 16.6964 9.81675 16.7247 9.81786 16.7536V19.5357C9.81875 19.5638 9.83033 19.5906 9.85023 19.6105C9.87013 19.6304 9.89687 19.642 9.925 19.6429Z" fill="black"/>
</svg>
