<svg width="32" height="32" viewBox="0 0 32 32" fill="none" xmlns="http://www.w3.org/2000/svg">
<g clip-path="url(#clip0_1934_196)">
<path fill-rule="evenodd" clip-rule="evenodd" d="M28.76 0H3.28C1.48 0 0 1.48 0 3.28V28.72C0 30.52 1.48 32 3.28 32.04H28.72C30.52 32.04 32 30.56 32 28.76V3.28C32 1.48 30.52 0 28.76 0ZM7.68008 12.4V12.2C10.0401 12.96 12.9201 13.4 16.0401 13.4C19.1201 13.4 22.0001 12.96 24.3601 12.2V12.4C24.3601 13.4 24.3201 14.4 24.1601 15.4C21.9601 15.92 19.1201 16.24 16.0401 16.24C12.9601 16.24 10.1601 15.92 7.96008 15.4C7.76008 14.4 7.68008 13.4 7.68008 12.4ZM8.44008 17.4C8.80008 18.36 9.28008 19.32 9.92008 20.32C11.7601 20.6 13.8001 20.76 15.9601 20.76C18.2401 20.76 20.3601 20.6 22.2401 20.28C22.8801 19.32 23.3201 18.32 23.6401 17.36C21.4001 17.84 18.7601 18.08 15.9601 18.08C13.2401 18.08 10.6401 17.84 8.44008 17.4ZM16.0001 26.32C14.1201 24.96 12.6401 23.64 11.4801 22.32C12.9201 22.48 14.4401 22.56 16.0001 22.52C17.6401 22.52 19.2401 22.44 20.7201 22.28C19.5601 23.56 18.0001 24.92 16.0001 26.32ZM16.0001 6.95996C19.8401 6.95996 23.0801 7.51996 24.0401 10.4C21.8401 11.16 19.0401 11.6 16.0001 11.6C12.9601 11.6 10.1601 11.16 7.96008 10.4C8.92008 7.51996 12.1601 6.95996 16.0001 6.95996Z" fill="url(#paint0_linear_1934_196)"/>
</g>
<defs>
<linearGradient id="paint0_linear_1934_196" x1="1.60148e-06" y1="-0.200001" x2="32" y2="32.2" gradientUnits="userSpaceOnUse">
<stop stop-color="#ACDCD5"/>
<stop offset="1" stop-color="#399CB4"/>
</linearGradient>
<clipPath id="clip0_1934_196">
<rect width="32" height="32" fill="white"/>
</clipPath>
</defs>
</svg>
