<svg width="32" height="32" viewBox="0 0 32 32" fill="none" xmlns="http://www.w3.org/2000/svg">
<g clip-path="url(#clip0_1934_220)">
<mask id="mask0_1934_220" style="mask-type:luminance" maskUnits="userSpaceOnUse" x="0" y="0" width="32" height="32">
<path d="M32 0H0V32H32V0Z" fill="white"/>
</mask>
<g mask="url(#mask0_1934_220)">
<path d="M2.0001 2.17723C-0.514563 4.78922 0.000102699 7.5639 0.000102699 15.9932C0.000102699 22.9932 -1.22123 30.0106 5.17078 31.6626C7.16678 32.1759 24.8521 32.1759 26.8454 31.6599C29.5068 30.9732 31.6721 28.8146 31.9681 25.0506C32.0094 24.5252 32.0094 7.47058 31.9668 6.93458C31.6521 2.92523 29.1841 0.614566 25.9321 0.146566C25.1868 0.0385656 25.0374 0.0065656 21.2134 -0.000101087C7.64942 0.0065656 4.6761 -0.597434 2.0001 2.17723Z" fill="url(#paint0_linear_1934_220)"/>
<path d="M15.9973 4.18523C11.1559 4.18523 6.55858 3.75457 4.80258 8.26123C4.07726 10.1226 4.18258 12.5399 4.18258 16.0012C4.18258 19.0386 4.08526 21.8932 4.80258 23.7399C6.55458 28.2492 11.1893 27.8172 15.9946 27.8172C20.6306 27.8172 25.4106 28.2999 27.1879 23.7399C27.9146 21.8599 27.8079 19.4786 27.8079 16.0012C27.8079 11.3852 28.0626 8.40523 25.8239 6.16791C23.5573 3.90124 20.4919 4.18523 15.9919 4.18523H15.9973ZM14.9386 6.31459C25.0373 6.29859 26.3226 5.17591 25.6133 20.7719C25.3613 26.2879 21.1613 25.6826 15.9986 25.6826C6.58526 25.6826 6.31458 25.4132 6.31458 15.9959C6.31458 6.46923 7.06126 6.31991 14.9386 6.31191V6.31459ZM22.3039 8.27591C21.5213 8.27591 20.8866 8.91059 20.8866 9.69323C20.8866 10.4759 21.5213 11.1106 22.3039 11.1106C23.0866 11.1106 23.7213 10.4759 23.7213 9.69323C23.7213 8.91059 23.0866 8.27591 22.3039 8.27591ZM15.9973 9.93323C12.6466 9.93323 9.93058 12.6506 9.93058 16.0012C9.93058 19.3519 12.6466 22.0679 15.9973 22.0679C19.3479 22.0679 22.0626 19.3519 22.0626 16.0012C22.0626 12.6506 19.3479 9.93323 15.9973 9.93323ZM15.9973 12.0626C21.2039 12.0626 21.2106 19.9399 15.9973 19.9399C10.7919 19.9399 10.7839 12.0626 15.9973 12.0626Z" fill="white"/>
</g>
</g>
<defs>
<linearGradient id="paint0_linear_1934_220" x1="2.06146" y1="29.956" x2="31.8021" y2="4.21586" gradientUnits="userSpaceOnUse">
<stop stop-color="#FFDD55"/>
<stop offset="0.5" stop-color="#FF543E"/>
<stop offset="1" stop-color="#C837AB"/>
</linearGradient>
<clipPath id="clip0_1934_220">
<rect width="32" height="32" fill="white"/>
</clipPath>
</defs>
</svg>
