<svg width="32" height="33" viewBox="0 0 32 33" fill="none" xmlns="http://www.w3.org/2000/svg">
<g clip-path="url(#clip0_1934_201)">
<mask id="mask0_1934_201" style="mask-type:luminance" maskUnits="userSpaceOnUse" x="0" y="0" width="32" height="33">
<path d="M32 0.5H0V32.5H32V0.5Z" fill="white"/>
</mask>
<g mask="url(#mask0_1934_201)">
<path d="M28.72 0.5H3.28C1.48 0.5 0 1.98 0 3.78V29.26C0 31.02 1.48 32.5 3.28 32.5H28.76C30.56 32.5 32.04 31.02 32.04 29.22V3.78C32 1.98 30.52 0.5 28.72 0.5Z" fill="#0077B5"/>
<path d="M11.5199 9.22C11.5199 9.74 11.3599 10.3 11.0799 10.74C10.7999 11.18 10.3599 11.54 9.83986 11.74C9.35986 11.94 8.79986 12.02 8.27986 11.9C7.75986 11.78 7.27986 11.54 6.87986 11.14C6.47986 10.74 6.23986 10.26 6.11986 9.74C5.99986 9.22 6.07986 8.66 6.27986 8.18C6.47986 7.7 6.83986 7.26 7.27986 6.94C7.71986 6.66 8.23986 6.5 8.79986 6.5C9.51986 6.5 10.1999 6.78 10.7199 7.3C11.2399 7.82 11.5199 8.5 11.5199 9.22Z" fill="white"/>
<path d="M10.9202 13.7801V25.8201C10.9202 25.9001 10.9202 25.9801 10.8802 26.0601C10.8402 26.1401 10.8002 26.2201 10.7202 26.3001C10.6402 26.3801 10.6002 26.4201 10.5202 26.4601C10.4002 26.5001 10.3202 26.5001 10.2402 26.5001H7.36021C7.28021 26.5001 7.20021 26.5001 7.12021 26.4601C7.04021 26.4201 6.96021 26.3801 6.92021 26.3001C6.84021 26.2201 6.80021 26.1801 6.76021 26.1001C6.72021 26.0201 6.72021 25.9401 6.72021 25.8601V13.7801C6.72021 13.6201 6.80021 13.4201 6.92021 13.3001C7.04021 13.1801 7.20022 13.1001 7.40022 13.1001H10.2802C10.4402 13.1001 10.6402 13.1801 10.7602 13.3001C10.8402 13.4201 10.9202 13.5801 10.9202 13.7801Z" fill="white"/>
<path d="M25.9198 20.0599V25.8999C25.9198 25.9799 25.9198 26.0599 25.8798 26.1399C25.8398 26.2199 25.7998 26.2999 25.7598 26.3399C25.7198 26.3799 25.6398 26.4599 25.5598 26.4599C25.4798 26.4999 25.3998 26.4999 25.3198 26.4999H22.2398C22.1598 26.4999 22.0798 26.4999 21.9998 26.4599C21.9198 26.4199 21.8398 26.3799 21.7998 26.3399C21.7598 26.2999 21.6798 26.2199 21.6798 26.1399C21.5998 26.0599 21.5998 25.9399 21.5998 25.8599V20.2199C21.5998 19.3799 21.8398 16.5399 19.3998 16.5399C17.4798 16.5399 17.1198 18.4999 17.0398 19.3799V25.8999C17.0398 26.0599 16.9598 26.2199 16.8798 26.3399C16.7198 26.4199 16.5998 26.4999 16.3998 26.4999H13.3998C13.3198 26.4999 13.2398 26.4999 13.1598 26.4599C13.0798 26.4199 12.9998 26.3799 12.9598 26.3399C12.9198 26.2999 12.8398 26.2199 12.8398 26.1399C12.7998 26.0599 12.7998 25.9799 12.7998 25.8999V13.7399C12.7998 13.6599 12.7998 13.5799 12.8398 13.4999C12.8798 13.4199 12.9198 13.3399 12.9598 13.2999C12.9998 13.2599 13.0798 13.1799 13.1598 13.1799C13.2398 13.1399 13.3198 13.1399 13.3998 13.1399H16.3998C16.5598 13.1399 16.7198 13.2199 16.8398 13.3399C16.9598 13.4599 17.0398 13.6199 17.0398 13.7799V14.8199C17.7598 13.6999 18.7998 12.8999 21.0398 12.8999C25.9598 12.8999 25.9198 17.4999 25.9198 20.0599Z" fill="white"/>
</g>
</g>
<defs>
<clipPath id="clip0_1934_201">
<rect width="32" height="32" fill="white" transform="translate(0 0.5)"/>
</clipPath>
</defs>
</svg>
