<svg width="32" height="32" viewBox="0 0 32 32" fill="none" xmlns="http://www.w3.org/2000/svg">
<g clip-path="url(#clip0_1934_227)">
<path fill-rule="evenodd" clip-rule="evenodd" d="M0.700195 3.2802C0.700195 1.83634 1.83634 0.700195 3.2802 0.700195H28.7602C30.1683 0.700195 31.3402 1.84056 31.3402 3.2802V28.7602C31.3402 30.1683 30.1998 31.3402 28.7602 31.3402H3.2802C1.8721 31.3402 0.700195 30.1998 0.700195 28.7602V3.2802ZM3.2802 -0.299805C1.28405 -0.299805 -0.299805 1.28405 -0.299805 3.2802V28.7602C-0.299805 30.7606 1.32829 32.3402 3.2802 32.3402H28.7602C30.7606 32.3402 32.3402 30.7121 32.3402 28.7602V3.2802C32.3402 1.27983 30.7121 -0.299805 28.7602 -0.299805H3.2802ZM28.7602 0.000195324H3.2802C1.4802 0.000195324 0.000195324 1.4802 0.000195324 3.2802V28.7202C0.000195324 30.5202 1.4802 32.0002 3.2802 32.0402H28.7202C30.5202 32.0402 32.0002 30.5602 32.0002 28.7602V3.2802C32.0002 1.4802 30.5202 0.000195324 28.7602 0.000195324ZM13.2002 20.2801C12.4002 20.2801 11.8402 19.4001 12.2402 18.6801L15.8002 11.9201L13.2002 6.6401C12.8002 5.8401 11.6402 5.8001 11.2002 6.6001L4.52018 18.6801C4.12018 19.4001 4.64018 20.2801 5.48018 20.2801H9.96018V24.7201C9.96018 25.3201 10.4402 25.8401 11.0802 25.8401H13.2802C13.8802 25.8401 14.4002 25.3601 14.4002 24.7201V20.2801H13.2002ZM20.9203 6.6001L27.6003 18.6801C28.0003 19.4001 27.4803 20.2801 26.6803 20.2801H22.1603V24.7201C22.1603 25.3601 21.6403 25.8401 21.0403 25.8401H18.8403C18.2003 25.8401 17.7203 25.3201 17.7203 24.7201V20.2801H18.9203C19.7603 20.2801 20.2803 19.4001 19.8803 18.6801L16.2803 11.9601L18.9203 6.6401C19.3203 5.8401 20.4803 5.8001 20.9203 6.6001Z" fill="#28BE7A"/>
</g>
<defs>
<clipPath id="clip0_1934_227">
<rect width="32" height="32" fill="white"/>
</clipPath>
</defs>
</svg>
