<svg width="32" height="32" viewBox="0 0 32 32" fill="none" xmlns="http://www.w3.org/2000/svg">
<g clip-path="url(#clip0_1934_117)">
<mask id="mask0_1934_117" style="mask-type:luminance" maskUnits="userSpaceOnUse" x="0" y="0" width="32" height="32">
<path d="M32 0H0V32H32V0Z" fill="white"/>
</mask>
<g mask="url(#mask0_1934_117)">
<path d="M25.7113 0H6.28868C4.62128 0.00147363 3.02258 0.664504 1.84354 1.84354C0.664504 3.02258 0.00147363 4.62128 0 6.28868V25.7113C0.00147363 27.3787 0.664504 28.9774 1.84354 30.1564C3.02258 31.3355 4.62128 31.9985 6.28868 32H25.7113C27.3787 31.9985 28.9774 31.3355 30.1564 30.1564C31.3355 28.9774 31.9985 27.3787 32 25.7113V6.28868C31.9985 4.62128 31.3355 3.02258 30.1564 1.84354C28.9774 0.664504 27.3787 0.00147363 25.7113 0ZM16.3116 26.0174C16.2725 26.0614 16.2245 26.0965 16.1708 26.1206C16.1171 26.1447 16.0589 26.1571 16 26.1571C15.9411 26.1571 15.8829 26.1447 15.8292 26.1206C15.7755 26.0965 15.7275 26.0614 15.6884 26.0174C15.399 25.6946 8.5426 18.0035 8.5426 13.7739C8.5426 9.41636 11.8817 5.86572 16 5.86572C20.1183 5.86572 23.4574 9.39408 23.4574 13.7739C23.4574 18.0035 16.601 25.6946 16.3116 26.0174Z" fill="#4285F4"/>
<path d="M16.0001 16.2336C17.749 16.2336 19.1667 14.8159 19.1667 13.067C19.1667 11.3182 17.749 9.90039 16.0001 9.90039C14.2512 9.90039 12.8335 11.3182 12.8335 13.067C12.8335 14.8159 14.2512 16.2336 16.0001 16.2336Z" fill="#4285F4"/>
</g>
</g>
<defs>
<clipPath id="clip0_1934_117">
<rect width="32" height="32" fill="white"/>
</clipPath>
</defs>
</svg>
