<svg width="32" height="32" viewBox="0 0 32 32" fill="none" xmlns="http://www.w3.org/2000/svg">
<g clip-path="url(#clip0_1934_357)">
<path d="M3.28 0H28.76C30.52 0 32 1.48 32 3.28V28.76C32 30.56 30.52 32.04 28.72 32.04H3.28C1.48 32 0 30.52 0 28.72V3.28C0 1.48 1.48 0 3.28 0Z" fill="#0B0A25"/>
<path fill-rule="evenodd" clip-rule="evenodd" d="M19.7602 18.5601L10.1202 23.8801C8.16021 24.9601 5.72021 23.5201 5.72021 21.2801V10.6801C5.72021 8.44012 8.12021 7.00012 10.1202 8.08012L19.7602 13.3601C21.8002 14.4801 21.8002 17.4401 19.7602 18.5601ZM18.8402 16.9201C19.6002 16.5201 19.6002 15.4401 18.8402 15.0401L9.24021 9.72012C8.52021 9.32012 7.64021 9.84012 7.64021 10.6801V21.2801C7.64021 22.1201 8.52021 22.6401 9.24021 22.2401L18.8402 16.9201Z" fill="#F57720"/>
<path fill-rule="evenodd" clip-rule="evenodd" d="M19.7602 18.5601L10.1202 23.8801C8.16021 24.9601 5.72021 23.5201 5.72021 21.2801V10.6801C5.72021 8.44012 8.12021 7.00012 10.1202 8.08012L19.7602 13.3601C21.8002 14.4801 21.8002 17.4401 19.7602 18.5601ZM18.8402 16.9201C19.6002 16.5201 19.6002 15.4401 18.8402 15.0401L9.24021 9.72012C8.52021 9.32012 7.64021 9.84012 7.64021 10.6801V21.2801C7.64021 22.1201 8.52021 22.6401 9.24021 22.2401L18.8402 16.9201Z" fill="url(#paint0_radial_1934_357)"/>
<path fill-rule="evenodd" clip-rule="evenodd" d="M19.7602 18.5601L10.1202 23.8801C8.16021 24.9601 5.72021 23.5201 5.72021 21.2801V10.6801C5.72021 8.44012 8.12021 7.00012 10.1202 8.08012L19.7602 13.3601C21.8002 14.4801 21.8002 17.4401 19.7602 18.5601ZM18.8402 16.9201C19.6002 16.5201 19.6002 15.4401 18.8402 15.0401L9.24021 9.72012C8.52021 9.32012 7.64021 9.84012 7.64021 10.6801V21.2801C7.64021 22.1201 8.52021 22.6401 9.24021 22.2401L18.8402 16.9201Z" fill="url(#paint1_radial_1934_357)"/>
<path fill-rule="evenodd" clip-rule="evenodd" d="M14 12.3601L15.96 13.4401L22.68 9.76012C23.4 9.36012 24.28 9.88012 24.28 10.7201V21.3201C24.28 22.1601 23.4 22.6801 22.68 22.2801L15.96 18.6001L14 19.6001L21.76 23.8801C23.72 24.9601 26.16 23.5201 26.16 21.2801V10.6801C26.16 8.44012 23.76 7.00012 21.76 8.08012L14 12.3601Z" fill="#F57720"/>
<path fill-rule="evenodd" clip-rule="evenodd" d="M14 12.3601L15.96 13.4401L22.68 9.76012C23.4 9.36012 24.28 9.88012 24.28 10.7201V21.3201C24.28 22.1601 23.4 22.6801 22.68 22.2801L15.96 18.6001L14 19.6001L21.76 23.8801C23.72 24.9601 26.16 23.5201 26.16 21.2801V10.6801C26.16 8.44012 23.76 7.00012 21.76 8.08012L14 12.3601Z" fill="url(#paint2_radial_1934_357)"/>
<path fill-rule="evenodd" clip-rule="evenodd" d="M19.7602 18.5601L10.1202 23.8801C8.16021 24.9601 5.72021 23.5201 5.72021 21.2801V10.6801C5.72021 8.44012 8.12021 7.00012 10.1202 8.08012L19.7602 13.3601C21.8002 14.4801 21.8002 17.4401 19.7602 18.5601ZM18.8402 16.9201C19.6002 16.5201 19.6002 15.4401 18.8402 15.0401L9.24021 9.72012C8.52021 9.32012 7.64021 9.84012 7.64021 10.6801V21.2801C7.64021 22.1201 8.52021 22.6401 9.24021 22.2401L18.8402 16.9201Z" fill="#F57720"/>
<path fill-rule="evenodd" clip-rule="evenodd" d="M19.7602 18.5601L10.1202 23.8801C8.16021 24.9601 5.72021 23.5201 5.72021 21.2801V10.6801C5.72021 8.44012 8.12021 7.00012 10.1202 8.08012L19.7602 13.3601C21.8002 14.4801 21.8002 17.4401 19.7602 18.5601ZM18.8402 16.9201C19.6002 16.5201 19.6002 15.4401 18.8402 15.0401L9.24021 9.72012C8.52021 9.32012 7.64021 9.84012 7.64021 10.6801V21.2801C7.64021 22.1201 8.52021 22.6401 9.24021 22.2401L18.8402 16.9201Z" fill="url(#paint3_radial_1934_357)"/>
<path fill-rule="evenodd" clip-rule="evenodd" d="M14 12.3601L15.96 13.4401L22.68 9.76012C23.4 9.36012 24.28 9.88012 24.28 10.7201V21.3201C24.28 22.1601 23.4 22.6801 22.68 22.2801L15.96 18.6001L14 19.6001L21.76 23.8801C23.72 24.9601 26.16 23.5201 26.16 21.2801V10.6801C26.16 8.44012 23.76 7.00012 21.76 8.08012L14 12.3601Z" fill="url(#paint4_radial_1934_357)"/>
<path fill-rule="evenodd" clip-rule="evenodd" d="M19.7597 18.5601L10.1197 23.8801C8.15973 24.9601 5.71973 23.5201 5.71973 21.2801V10.6801C5.71973 8.44012 8.11973 7.00012 10.1197 8.08012L19.7597 13.3601C21.7997 14.4801 21.7997 17.4401 19.7597 18.5601ZM18.8397 16.9201C19.5997 16.5201 19.5997 15.4401 18.8397 15.0401L9.23973 9.72012C8.51973 9.32012 7.63973 9.84012 7.63973 10.6801V21.2801C7.63973 22.1201 8.51973 22.6401 9.23973 22.2401L18.8397 16.9201Z" fill="url(#paint5_radial_1934_357)"/>
</g>
<defs>
<radialGradient id="paint0_radial_1934_357" cx="0" cy="0" r="1" gradientUnits="userSpaceOnUse" gradientTransform="translate(7.49078 22.2593) rotate(-53.1301) scale(13.4774 14.3234)">
<stop offset="0.5938" stop-color="#FB1963"/>
<stop offset="1" stop-color="#FB1664" stop-opacity="0"/>
</radialGradient>
<radialGradient id="paint1_radial_1934_357" cx="0" cy="0" r="1" gradientUnits="userSpaceOnUse" gradientTransform="translate(7.89618 22.7915) rotate(-56.3098) scale(7.28904 7.74657)">
<stop stop-color="#C108EE"/>
<stop offset="1" stop-color="#BC07F7" stop-opacity="0"/>
</radialGradient>
<radialGradient id="paint2_radial_1934_357" cx="0" cy="0" r="1" gradientUnits="userSpaceOnUse" gradientTransform="translate(24.3948 9.68302) rotate(126.87) scale(13.4774 14.3234)">
<stop offset="0.5938" stop-color="#FB1963"/>
<stop offset="1" stop-color="#FB1664" stop-opacity="0"/>
</radialGradient>
<radialGradient id="paint3_radial_1934_357" cx="0" cy="0" r="1" gradientUnits="userSpaceOnUse" gradientTransform="translate(7.49078 22.2593) rotate(-53.1301) scale(13.4774 14.3234)">
<stop offset="0.5938" stop-color="#FB1963"/>
<stop offset="1" stop-color="#FB1664" stop-opacity="0"/>
</radialGradient>
<radialGradient id="paint4_radial_1934_357" cx="0" cy="0" r="1" gradientUnits="userSpaceOnUse" gradientTransform="translate(23.9853 9.13792) rotate(123.69) scale(7.28904 7.74654)">
<stop stop-color="#C108EE"/>
<stop offset="1" stop-color="#BC07F7" stop-opacity="0"/>
</radialGradient>
<radialGradient id="paint5_radial_1934_357" cx="0" cy="0" r="1" gradientUnits="userSpaceOnUse" gradientTransform="translate(7.89569 22.7915) rotate(-56.3098) scale(7.28904 7.74657)">
<stop stop-color="#C108EE"/>
<stop offset="1" stop-color="#BC07F7" stop-opacity="0"/>
</radialGradient>
<clipPath id="clip0_1934_357">
<rect width="32" height="32" fill="white"/>
</clipPath>
</defs>
</svg>
