<svg width="32" height="32" viewBox="0 0 32 32" fill="none" xmlns="http://www.w3.org/2000/svg">
<g clip-path="url(#clip0_1934_65)">
<mask id="mask0_1934_65" style="mask-type:luminance" maskUnits="userSpaceOnUse" x="0" y="0" width="32" height="32">
<path d="M32 0H0V32H32V0Z" fill="white"/>
</mask>
<g mask="url(#mask0_1934_65)">
<path fill-rule="evenodd" clip-rule="evenodd" d="M3.28 0H28.72C30.52 0 32 1.48 32.04 3.28V28.72C32.04 30.52 30.56 32 28.76 32H3.28C1.48 32 0 30.52 0 28.76V3.28C0 1.48 1.48 0 3.28 0ZM4.11992 15.44C4.11992 10.16 9.43992 5.84004 15.9999 5.84004C22.5599 5.84004 27.8799 10.16 27.8799 15.44C27.8799 20.72 22.5599 25.04 15.9999 25.04C14.3999 25.04 12.8799 24.76 11.5199 24.32L6.23992 26.08C5.67992 26.28 5.15992 25.76 5.35992 25.2L6.63992 21.36C5.07992 19.76 4.11992 17.68 4.11992 15.44ZM8.83992 15.44C8.83992 16.52 9.71992 17.4 10.7999 17.4C11.8799 17.4 12.7599 16.52 12.7599 15.44C12.7599 14.36 11.8799 13.48 10.7999 13.48C9.71992 13.48 8.83992 14.36 8.83992 15.44ZM14.0399 15.44C14.0399 16.52 14.9199 17.4 15.9999 17.4C17.0799 17.4 17.9599 16.52 17.9599 15.44C17.9599 14.36 17.0799 13.48 15.9999 13.48C14.9199 13.48 14.0399 14.36 14.0399 15.44ZM19.2399 15.44C19.2399 16.52 20.1199 17.4 21.1999 17.4C22.2799 17.4 23.1599 16.52 23.1599 15.44C23.1599 14.36 22.2799 13.48 21.1999 13.48C20.1199 13.48 19.2399 14.36 19.2399 15.44Z" fill="#1E88E5"/>
</g>
</g>
<defs>
<clipPath id="clip0_1934_65">
<rect width="32" height="32" fill="white"/>
</clipPath>
</defs>
</svg>
