<svg width="32" height="32" viewBox="0 0 32 32" fill="none" xmlns="http://www.w3.org/2000/svg">
<path fill-rule="evenodd" clip-rule="evenodd" d="M3.28 0H28.76C30.52 0 32 1.47815 32 3.2759V28.7241C32 30.5218 30.52 32 28.72 32H3.28C1.48 31.96 0 30.4819 0 28.6841V3.2759C0 1.47815 1.48 0 3.28 0ZM9.84 19.6554H23C23.6 19.6554 23.64 19.6954 23.6 20.3346C23.44 21.9326 22.72 23.4507 21.52 24.5693C20.32 25.6879 18.76 26.2871 17.12 26.3271C15.4652 26.3537 13.7926 26.3448 12.1259 26.3359C11.2948 26.3315 10.4652 26.3271 9.64 26.3271C9.32 26.3271 9.2 26.2072 9.2 25.8876V20.2946C9.2 19.6954 9.24 19.6554 9.84 19.6554ZM11.36 16.6991C10.28 15.7004 9.56 14.382 9.32 12.9039C9.24 12.4644 9.2 12.0649 9.2 11.5855V6.19225C9.2 5.63295 9.24 5.593 9.8 5.593C10.7 5.593 11.61 5.60299 12.52 5.61298C13.43 5.62296 14.34 5.63295 15.24 5.63295C15.8 5.63295 15.84 5.6729 15.84 6.2322V17.9376C15.84 18.417 15.8 18.4569 15.32 18.417C13.84 18.2971 12.44 17.6979 11.36 16.6991ZM23.12 18.4969H17.48C17.08 18.4969 17 18.417 17 18.0574V12.3845C17 11.985 17.12 11.9051 17.48 11.9451C18.88 12.0649 20.16 12.5843 21.24 13.4632C22.28 14.3421 23.04 15.5406 23.4 16.8589C23.4115 16.9166 23.4231 16.9734 23.4345 17.0297C23.5023 17.363 23.5658 17.6756 23.6 18.0175C23.64 18.417 23.56 18.4969 23.12 18.4969Z" fill="#008272"/>
</svg>
