<svg width="32" height="32" viewBox="0 0 32 32" fill="none" xmlns="http://www.w3.org/2000/svg">
<g clip-path="url(#clip0_1934_278)">
<mask id="mask0_1934_278" style="mask-type:luminance" maskUnits="userSpaceOnUse" x="0" y="0" width="32" height="32">
<path d="M32 0H0V32H32V0Z" fill="white"/>
</mask>
<g mask="url(#mask0_1934_278)">
<path fill-rule="evenodd" clip-rule="evenodd" d="M0.700195 3.2802C0.700195 1.83634 1.83634 0.700195 3.2802 0.700195H28.7602C30.1683 0.700195 31.3402 1.84056 31.3402 3.2802V28.7602C31.3402 30.1683 30.1998 31.3402 28.7602 31.3402H3.2802C1.8721 31.3402 0.700195 30.1998 0.700195 28.7602V3.2802ZM3.2802 -0.299805C1.28405 -0.299805 -0.299805 1.28405 -0.299805 3.2802V28.7602C-0.299805 30.7606 1.32829 32.3402 3.2802 32.3402H28.7602C30.7606 32.3402 32.3402 30.7121 32.3402 28.7602V3.2802C32.3402 1.27983 30.7121 -0.299805 28.7602 -0.299805H3.2802ZM28.7602 0.000195324H3.2802C1.4802 0.000195324 0.000195324 1.4802 0.000195324 3.2802V28.7202C0.000195324 30.5202 1.4802 32.0002 3.2802 32.0402H28.7202C30.5202 32.0402 32.0002 30.5602 32.0002 28.7602V3.2802C32.0002 1.4802 30.5202 0.000195324 28.7602 0.000195324ZM6.47897 17.303L6.54626 17.1684L11.122 10.0357C11.1893 9.90108 11.3238 9.96837 11.3911 10.0357C12.1313 11.7179 12.8042 13.8712 12.4678 15.1497C12.3332 15.688 11.9967 16.4282 11.593 17.1011C11.5593 17.1347 11.5257 17.1852 11.4921 17.2357C11.4584 17.2861 11.4248 17.3366 11.3911 17.3702C11.3911 17.4375 11.3238 17.4375 11.2565 17.4375H6.54626C6.47897 17.5048 6.41168 17.3702 6.47897 17.303ZM26.8002 19.7254V18.5815C26.8002 18.5142 26.6656 18.4469 26.5983 18.4469L21.2824 19.9946L21.2151 20.0619L21.2151 20.0619C20.6095 20.6675 20.1385 21.1385 20.0039 21.2058C19.7348 21.475 19.2637 21.6095 18.86 21.6095H16.9086V19.6581H18.4563C18.5236 19.6581 18.5908 19.5909 18.5908 19.5909L18.7927 19.389C18.9273 19.3217 18.9946 19.2544 19.1292 19.1198L19.1292 19.1198L19.331 18.918C19.3647 18.8843 19.3983 18.8338 19.432 18.7834C19.4656 18.7329 19.4993 18.6824 19.5329 18.6488C19.6002 18.5815 19.6507 18.5142 19.7011 18.4469C19.7516 18.3796 19.8021 18.3123 19.8694 18.2451C20.0039 18.1105 20.0712 18.0432 20.1385 17.9086L20.1385 17.9086C20.2731 17.774 20.3404 17.7067 20.4077 17.5722C20.4413 17.5385 20.475 17.488 20.5086 17.4376C20.5423 17.3871 20.5759 17.3366 20.6095 17.303C20.6095 17.2357 20.6768 17.1011 20.7441 17.0338C20.8938 16.8342 20.9695 16.6716 21.0535 16.4911C21.0828 16.4282 21.1131 16.3632 21.1479 16.2937C21.1815 16.2264 21.1983 16.1591 21.2151 16.0918C21.232 16.0245 21.2488 15.9572 21.2824 15.8899C21.3497 15.7553 21.417 15.6208 21.417 15.4862C21.4843 15.217 21.4843 14.8806 21.4843 14.6114V14.6114C21.417 14.5441 21.417 14.4095 21.417 14.3423C21.417 14.3086 21.4002 14.275 21.3834 14.2413C21.3666 14.2077 21.3497 14.174 21.3497 14.1404C21.3388 14.0967 21.3279 14.0512 21.3167 14.0046C21.2588 13.7638 21.1933 13.4911 21.0806 13.2656C21.0511 13.2066 21.0345 13.1476 21.0195 13.0943C21.0003 13.026 20.9838 12.967 20.946 12.9292L20.5423 12.3236C20.5423 12.2563 20.475 12.189 20.4077 12.1217C20.3404 12.0544 20.2899 11.9703 20.2394 11.8862C20.189 11.8021 20.1385 11.718 20.0712 11.6507C20.0376 11.5834 19.9871 11.5329 19.9366 11.4824C19.8862 11.432 19.8357 11.3815 19.8021 11.3142C19.7684 11.2469 19.718 11.1965 19.6675 11.146C19.617 11.0955 19.5666 11.0451 19.5329 10.9778C19.1965 10.574 18.86 10.2376 18.5236 9.96842L18.3217 9.76655C18.1983 9.67397 18.089 9.58139 17.9873 9.4953C17.8674 9.39367 17.7581 9.30109 17.6488 9.22823C17.5142 9.16094 17.4469 9.09365 17.3796 9.02636C17.346 8.99272 17.3123 8.9759 17.2787 8.95907C17.2451 8.94225 17.2114 8.92543 17.1778 8.89178H17.1105L16.9086 8.82449V7.14225C16.9086 6.87309 16.8413 6.67122 16.6394 6.46935C16.5049 6.33477 16.2357 6.2002 15.9666 6.2002C15.4282 6.2002 14.9572 6.67122 14.9572 7.20954V8.35347H14.8226L14.5535 8.28618L14.2843 8.21889L12.3329 7.68057C12.1983 7.61328 12.131 7.74786 12.1983 7.81515L12.5348 8.35347C12.5684 8.38711 12.5852 8.42076 12.6021 8.4544C12.6189 8.48805 12.6357 8.52169 12.6694 8.55534C12.703 8.62263 12.7198 8.67309 12.7366 8.72356C12.7535 8.77403 12.7703 8.82449 12.8039 8.89178C12.8376 8.92543 12.8544 8.9759 12.8712 9.02636C12.888 9.07683 12.9049 9.1273 12.9385 9.16094C13.0058 9.29552 13.0563 9.41328 13.1067 9.53104C13.1572 9.64879 13.2077 9.76655 13.275 9.90113C13.3086 10.0021 13.3423 10.0862 13.3759 10.1703C13.4095 10.2544 13.4432 10.3385 13.4768 10.4394C13.5441 10.675 13.6282 10.9105 13.7123 11.146C13.7965 11.3815 13.8806 11.617 13.9479 11.8525C14.0151 11.9871 14.0151 12.1217 13.9479 12.3236V12.3908C13.9815 12.4918 13.9983 12.6095 14.0151 12.7273C14.032 12.8451 14.0488 12.9628 14.0824 13.0637C14.0824 13.1749 14.1028 13.2656 14.1212 13.3472C14.1361 13.4138 14.1497 13.4743 14.1497 13.5348C14.217 13.7366 14.217 13.8712 14.217 14.0731V14.0731V14.5441C14.217 14.9479 14.1497 15.3516 14.0824 15.688C14.0824 15.8226 14.0824 15.8899 14.0151 16.0245C13.9815 16.0918 13.9647 16.1591 13.9479 16.2264C13.931 16.2937 13.9142 16.3609 13.8806 16.4282C13.8806 16.4955 13.8806 16.5628 13.8133 16.6301C13.7166 16.9683 13.5506 17.2719 13.3899 17.5656C13.3268 17.681 13.2646 17.7948 13.2077 17.9086C12.8712 18.4469 12.5348 18.9852 12.3329 19.3217C12.3329 19.3553 12.3161 19.3722 12.2993 19.389C12.2824 19.4058 12.2656 19.4226 12.2656 19.4563C12.1983 19.5908 12.2656 19.7254 12.4002 19.7254H14.8899V21.6768H12.4002C11.7273 21.6768 11.0544 21.2731 10.7852 20.6675C10.5834 20.331 10.5161 19.9946 10.5834 19.6581C10.6507 19.5236 10.5161 19.4563 10.4488 19.4563H5.33478C5.26749 19.4563 5.2002 19.5236 5.2002 19.5909V19.7254C5.2002 22.9553 7.82449 25.5796 11.0544 25.5796H20.2058C21.8848 25.5796 22.8683 24.0249 23.8263 22.5106C24.0968 22.0829 24.3653 21.6584 24.6469 21.2731C25.1852 20.5329 26.3965 19.9946 26.7329 19.86C26.7329 19.86 26.8002 19.7927 26.8002 19.7254Z" fill="#2081E2"/>
</g>
</g>
<defs>
<clipPath id="clip0_1934_278">
<rect width="32" height="32" fill="white"/>
</clipPath>
</defs>
</svg>
