<svg width="32" height="32" viewBox="0 0 32 32" fill="none" xmlns="http://www.w3.org/2000/svg">
<g clip-path="url(#clip0_1934_334)">
<path d="M3.28 0H28.76C30.52 0 32 1.48 32 3.28V28.76C32 30.56 30.52 32.04 28.72 32.04H3.28C1.48 32 0 30.52 0 28.72V3.28C0 1.48 1.48 0 3.28 0Z" fill="url(#paint0_linear_1934_334)"/>
<path d="M23.72 10.52C23.68 10.64 23.68 10.8 23.64 10.92C22.72 15.6 19.52 17.24 15.48 17.24H13.4C12.92 17.24 12.48 17.6 12.4 18.08L11.36 24.64L11.08 26.52C11.04 26.84 11.28 27.12 11.6 27.12H15.28C15.72 27.12 16.08 26.8 16.16 26.4L16.2 26.2L16.88 21.92L16.92 21.68C17 21.24 17.36 20.96 17.8 20.96H18.36C21.92 20.96 24.68 19.56 25.52 15.44C25.84 13.72 25.68 12.32 24.8 11.32C24.44 11 24.08 10.76 23.72 10.52Z" fill="#ADD0E5"/>
<path d="M22.7199 10.1598C22.5599 10.1198 22.4399 10.0798 22.2799 10.0398C22.1599 9.99984 21.9999 9.99984 21.8399 9.95984C21.2799 9.87984 20.6799 9.83984 19.9999 9.83984H14.4799C14.3599 9.83984 14.1999 9.87984 14.0799 9.91984C13.8399 10.0398 13.6399 10.2798 13.5999 10.5598L12.4399 17.8398L12.3999 18.0798C12.4799 17.5998 12.8799 17.2398 13.3999 17.2398H15.4799C19.5199 17.2398 22.7199 15.6398 23.6399 10.9598C23.6799 10.8398 23.6799 10.6798 23.7199 10.5598C23.4799 10.4398 23.2399 10.3198 22.9599 10.2398C22.8799 10.1998 22.7999 10.1598 22.7199 10.1598Z" fill="#E6EFF6"/>
<path d="M13.5998 10.5599C13.6398 10.2799 13.8398 10.0399 14.0798 9.91992C14.1998 9.87992 14.3198 9.83992 14.4798 9.83992H19.9998C20.6398 9.83992 21.2798 9.87992 21.8398 9.95992C21.9998 9.99992 22.1598 9.99992 22.3198 10.0399C22.4798 10.0799 22.5998 10.1199 22.7598 10.1599C22.8398 10.1999 22.9198 10.1999 22.9598 10.2399C23.2398 10.3199 23.4798 10.4399 23.7198 10.5599C23.9998 8.83992 23.7198 7.63992 22.7598 6.59992C21.7198 5.43992 19.7998 4.91992 17.3998 4.91992H10.3198C9.83981 4.91992 9.39981 5.27992 9.31981 5.75992L6.39981 23.9599C6.35981 24.3199 6.63981 24.6399 6.99981 24.6399H11.3598L12.4398 17.8399L13.5998 10.5599Z" fill="white"/>
</g>
<defs>
<linearGradient id="paint0_linear_1934_334" x1="2.00428" y1="0.81312" x2="30.7528" y2="32.0084" gradientUnits="userSpaceOnUse">
<stop stop-color="#002B6F"/>
<stop offset="1" stop-color="#0097D9"/>
</linearGradient>
<clipPath id="clip0_1934_334">
<rect width="32" height="32" fill="white"/>
</clipPath>
</defs>
</svg>
