<svg width="32" height="32" viewBox="0 0 32 32" fill="none" xmlns="http://www.w3.org/2000/svg">
<g clip-path="url(#clip0_1934_263)">
<mask id="mask0_1934_263" style="mask-type:luminance" maskUnits="userSpaceOnUse" x="0" y="0" width="32" height="32">
<path d="M32 0H0V32H32V0Z" fill="white"/>
</mask>
<g mask="url(#mask0_1934_263)">
<path fill-rule="evenodd" clip-rule="evenodd" d="M24 32H8C5.87828 31.9999 3.84352 31.157 2.34325 29.6568C0.842976 28.1565 9.28184e-05 26.1217 0 24V8C9.28184e-05 5.87828 0.842976 3.84352 2.34325 2.34325C3.84352 0.842976 5.87828 9.28184e-05 8 0H24C26.1217 0 28.1566 0.842856 29.6568 2.34314C31.1572 3.84344 32 5.87828 32 8V24C32 26.1217 31.1572 28.1566 29.6568 29.6568C28.1566 31.1572 26.1217 32 24 32Z" fill="#E60019"/>
<path fill-rule="evenodd" clip-rule="evenodd" d="M15 9H24C25.1536 8.99992 26.2632 8.55684 27.0995 7.7622C27.9358 6.9676 28.4351 5.88212 28.4941 4.73C28.5532 3.57788 28.1675 2.44708 27.4168 1.57113C26.666 0.695184 25.6076 0.140991 24.46 0.023C24.307 0.0145 24.1555 0 24 0H8C5.87828 9.28184e-05 3.84352 0.842976 2.34325 2.34325C0.842976 3.84352 9.28184e-05 5.87828 0 8V24C9.2822e-05 20.0218 1.58048 16.2065 4.39352 13.3935C7.20652 10.5805 11.0218 9.00008 15 9Z" fill="#FF1E37"/>
<path fill-rule="evenodd" clip-rule="evenodd" d="M24 16C22.4178 16 20.871 16.4692 19.5554 17.3482C18.2398 18.2273 17.2145 19.4767 16.609 20.9385C16.0035 22.4004 15.845 24.0089 16.1537 25.5607C16.4624 27.1126 17.2243 28.538 18.3432 29.6568C19.462 30.7757 20.8874 31.5376 22.4393 31.8463C23.9911 32.155 25.5997 31.9965 27.0615 31.391C28.5233 30.7855 29.7727 29.7602 30.6518 28.4446C31.5308 27.129 32 25.5822 32 24V8C32 10.1217 31.1572 12.1566 29.6568 13.6568C28.1566 15.1572 26.1217 16 24 16Z" fill="#C80000"/>
<path d="M16.009 5.00001C13.4451 4.99601 10.9605 5.88837 8.98509 7.52269C7.00965 9.15705 5.66765 11.4305 5.19137 13.9498C4.71505 16.469 5.13441 19.0755 6.37685 21.3182C7.61929 23.5609 9.60661 25.2988 11.995 26.231C11.849 25.1828 11.8613 24.1186 12.0315 23.074C12.2305 22.2145 13.318 17.61 13.318 17.61C13.0962 17.0963 12.985 16.5416 12.9915 15.982C12.9915 14.453 13.8795 13.3135 14.985 13.3135C15.9275 13.3135 16.3805 14.019 16.3805 14.86C16.3805 15.801 15.7825 17.212 15.4655 18.524C15.404 18.7667 15.4003 19.0203 15.4548 19.2646C15.5092 19.5089 15.6202 19.737 15.7788 19.9306C15.9375 20.1242 16.1394 20.2778 16.3682 20.3791C16.5971 20.4805 16.8465 20.5267 17.0965 20.514C19.0535 20.514 20.5575 18.4515 20.5575 15.4845C20.5575 12.852 18.664 11.0155 15.9545 11.0155C15.311 10.9866 14.6683 11.0886 14.0654 11.3153C13.4624 11.542 12.9118 11.8887 12.4467 12.3344C11.9816 12.7801 11.6118 13.3156 11.3598 13.9083C11.1076 14.5011 10.9784 15.1389 10.98 15.783C10.9819 16.6831 11.2672 17.5597 11.7955 18.2885C11.8343 18.3304 11.8614 18.3817 11.8741 18.4373C11.8869 18.493 11.8847 18.551 11.868 18.6055C11.7865 18.949 11.5965 19.7 11.56 19.8535C11.515 20.0525 11.397 20.098 11.1885 19.9985C9.81149 19.356 8.95049 17.357 8.95049 15.7375C8.95049 12.273 11.4695 9.08901 16.2265 9.08901C20.041 9.08901 23.013 11.8025 23.013 15.439C23.013 19.2295 20.621 22.278 17.3045 22.278C16.1905 22.278 15.139 21.699 14.786 21.0115C14.786 21.0115 14.233 23.11 14.097 23.626C13.772 24.6447 13.3119 25.6151 12.729 26.5115C14.2417 26.9819 15.8382 27.1201 17.4093 26.9166C18.9804 26.7131 20.489 26.1729 21.832 25.3327C23.175 24.4925 24.3208 23.3722 25.191 22.0485C26.0613 20.7247 26.6354 19.2286 26.8742 17.6625C27.113 16.0965 27.0108 14.4973 26.5746 12.9743C26.1385 11.4513 25.3786 10.0405 24.347 8.83825C23.3154 7.63597 22.0364 6.67065 20.5973 6.00821C19.1583 5.34577 17.5932 5.00189 16.009 5.00001Z" fill="white"/>
</g>
</g>
<defs>
<clipPath id="clip0_1934_263">
<rect width="32" height="32" fill="white"/>
</clipPath>
</defs>
</svg>
