<svg width="32" height="32" viewBox="0 0 32 32" fill="none" xmlns="http://www.w3.org/2000/svg">
<g clip-path="url(#clip0_1934_135)">
<path fill-rule="evenodd" clip-rule="evenodd" d="M3.28 0H28.76C30.52 0 32 1.48 32 3.28V28.76C32 30.56 30.52 32.04 28.72 32.04H3.28C1.48 32 0 30.52 0 28.72V3.28C0 1.48 1.48 0 3.28 0ZM16.0401 7.31992C11.8801 7.31992 8.48008 10.7199 8.48008 14.8799C8.48008 17.4799 9.80008 19.7599 11.7601 21.1199C11.7601 21.1199 11.8801 21.1999 11.9201 21.1199V19.3599C10.6801 18.2399 9.88008 16.5999 9.88008 14.7999C9.88008 11.4399 12.6001 8.67992 16.0001 8.67992C19.3601 8.67992 22.1201 11.3999 22.1201 14.7999C22.1201 16.6399 21.3201 18.2799 20.0401 19.3999V21.1199C20.0801 21.1599 20.2801 21.1199 20.2801 21.1199C22.2801 19.7599 23.5601 17.4799 23.5601 14.8799C23.6001 10.7199 20.2401 7.31992 16.0401 7.31992ZM4.7999 14.64C4.9199 8.51997 10.0399 3.51997 16.1599 3.59997C22.3199 3.67997 27.3199 8.67997 27.3199 14.84C27.3199 19.8 24.0799 24 19.6399 25.48C19.6399 25.48 19.5999 25.48 19.5999 25.44L19.7199 24C19.7352 23.9847 19.7446 23.9694 19.7527 23.9564C19.7657 23.9353 19.7752 23.92 19.7999 23.92C23.3599 22.44 25.8799 18.92 25.8799 14.84C25.8799 9.39997 21.3999 4.95997 15.9199 5.03997C10.5599 5.11997 6.2399 9.51997 6.2399 14.88C6.2399 18.96 8.7199 22.44 12.2399 23.92C12.2399 23.92 12.2799 23.92 12.2799 23.96L12.4799 25.48C12.4799 25.5 12.4799 25.51 12.4749 25.515C12.4699 25.52 12.4599 25.52 12.4399 25.52C7.9199 24 4.7199 19.68 4.7999 14.64ZM16.04 16.6C17.52 16.6 18.72 15.4 18.72 13.92C18.72 12.44 17.52 11.24 16.04 11.24C14.56 11.24 13.36 12.44 13.36 13.92C13.4 15.4 14.6 16.6 16.04 16.6ZM18.7999 19.2C18.5599 17.36 14.3599 16.84 13.3999 18.96C12.7199 20.48 13.9599 27.12 14.3199 27.6C15.0399 28.48 17.0799 28.68 17.7599 27.48C18.1199 26.84 19.0799 21.32 18.7999 19.2Z" fill="url(#paint0_linear_1934_135)"/>
</g>
<defs>
<linearGradient id="paint0_linear_1934_135" x1="16" y1="7" x2="16" y2="35.2" gradientUnits="userSpaceOnUse">
<stop stop-color="#D16AF8"/>
<stop offset="1" stop-color="#872DC3"/>
</linearGradient>
<clipPath id="clip0_1934_135">
<rect width="32" height="32" fill="white"/>
</clipPath>
</defs>
</svg>
