<svg width="32" height="32" viewBox="0 0 32 32" fill="none" xmlns="http://www.w3.org/2000/svg">
<g clip-path="url(#clip0_1934_272)">
<path fill-rule="evenodd" clip-rule="evenodd" d="M0.700195 3.2802C0.700195 1.83634 1.83634 0.700195 3.2802 0.700195H28.7602C30.1683 0.700195 31.3402 1.84056 31.3402 3.2802V28.7602C31.3402 30.1683 30.1998 31.3402 28.7602 31.3402H3.2802C1.8721 31.3402 0.700195 30.1998 0.700195 28.7602V3.2802ZM3.2802 -0.299805C1.28405 -0.299805 -0.299805 1.28405 -0.299805 3.2802V28.7602C-0.299805 30.7606 1.32829 32.3402 3.2802 32.3402H28.7602C30.7606 32.3402 32.3402 30.7121 32.3402 28.7602V3.2802C32.3402 1.27983 30.7121 -0.299805 28.7602 -0.299805H3.2802ZM28.7602 0.000195324H3.2802C1.4802 0.000195324 0.000195324 1.4802 0.000195324 3.2802V28.7202C0.000195324 30.5202 1.4802 32.0002 3.2802 32.0402H28.7202C30.5202 32.0402 32.0002 30.5602 32.0002 28.7602V3.2802C32.0002 1.4802 30.5202 0.000195324 28.7602 0.000195324ZM19.0802 5.60012C17.4802 5.60012 15.9602 6.24012 14.8002 7.36012C13.6402 8.48012 13.0402 10.0401 13.0402 11.6401V21.1201H15.2802V11.6401C15.2802 10.8801 15.4802 10.1601 15.9202 9.56012C16.3202 8.96012 16.9202 8.44012 17.6002 8.16012C18.2802 7.88012 19.0402 7.76012 19.7602 7.92012C20.4802 8.04012 21.1602 8.40012 21.7202 8.88012C22.2402 9.40012 22.6402 10.0401 22.8002 10.7601C22.9602 11.4801 22.9202 12.2401 22.6802 12.9201C22.4402 13.6001 21.9602 14.2401 21.3602 14.6801C20.7602 15.1201 20.0402 15.4001 19.3202 15.4401V17.6801C20.9202 17.6401 22.4402 17.0001 23.5602 15.8401C24.6802 14.6801 25.2802 13.1601 25.2402 11.5601C25.2002 9.96012 24.5602 8.44012 23.4002 7.32012C22.2402 6.16012 20.6802 5.56012 19.0802 5.60012ZM15.6002 22.7602C16.0402 22.1602 16.2402 21.4402 16.2402 20.6802H16.2002V11.2002H18.4402V20.7202C18.4402 21.8802 18.0802 23.0402 17.4402 24.0402C16.7602 25.0402 15.8402 25.8002 14.7602 26.2802C13.6802 26.7202 12.4802 26.8402 11.3202 26.6402C10.1602 26.4002 9.08021 25.8802 8.24021 25.0402C7.40021 24.2002 6.84021 23.1602 6.56021 22.0002C6.28021 20.8402 6.36021 19.6402 6.80021 18.5202C7.20021 17.4002 7.96021 16.4402 8.92021 15.7602C9.88021 15.0802 11.0002 14.6802 12.2002 14.6402V16.8802C11.4802 16.9202 10.7602 17.2002 10.1602 17.6402C9.56021 18.0802 9.08021 18.7202 8.84021 19.4002C8.60021 20.0802 8.56021 20.8402 8.72021 21.5602C8.88021 22.2802 9.28021 22.9202 9.80021 23.4402C10.3602 23.9202 11.0402 24.2802 11.7602 24.4002C12.4802 24.5602 13.2402 24.4402 13.9202 24.1602C14.6002 23.8802 15.2002 23.3602 15.6002 22.7602Z" fill="url(#paint0_linear_1934_272)"/>
</g>
<defs>
<linearGradient id="paint0_linear_1934_272" x1="16.0202" y1="-0.299805" x2="16.0202" y2="32.3402" gradientUnits="userSpaceOnUse">
<stop stop-color="#EC2848"/>
<stop offset="1" stop-color="#892635"/>
</linearGradient>
<clipPath id="clip0_1934_272">
<rect width="32" height="32" fill="white"/>
</clipPath>
</defs>
</svg>
