<svg width="32" height="32" viewBox="0 0 32 32" fill="none" xmlns="http://www.w3.org/2000/svg">
<g clip-path="url(#clip0_1934_291)">
<mask id="mask0_1934_291" style="mask-type:luminance" maskUnits="userSpaceOnUse" x="0" y="0" width="32" height="32">
<path d="M31.684 0H0.0791016V32H31.684V0Z" fill="white"/>
</mask>
<g mask="url(#mask0_1934_291)">
<path d="M3.31861 0H28.4445C30.2223 0 31.684 1.48 31.684 3.28V28.72C31.684 30.52 30.2223 32 28.4445 32H3.31861C1.54083 32 0.0791016 30.52 0.0791016 28.72V3.28C0.0791016 1.48 1.54083 0 3.31861 0Z" fill="#E6E6E6"/>
<path d="M3.31883 0.200195H28.4448C30.104 0.200195 31.4867 1.5602 31.4867 3.2802V28.7202C31.4867 30.4002 30.1435 31.8002 28.4448 31.8002H3.31883C1.65957 31.8002 0.276855 30.4402 0.276855 28.7202V3.2802C0.276855 1.5602 1.65957 0.200195 3.31883 0.200195Z" fill="#F2F2F2" stroke="black" stroke-opacity="0.05"/>
<mask id="mask1_1934_291" style="mask-type:luminance" maskUnits="userSpaceOnUse" x="5" y="5" width="21" height="22">
<path d="M25.9952 5.52002H5.76807V26.48H25.9952V5.52002Z" fill="white"/>
</mask>
<g mask="url(#mask1_1934_291)">
<path d="M25.9952 16.2001C25.9952 15.3601 25.9161 14.7201 25.7581 14.0801H16.0791V17.9601H21.768C21.6495 18.9201 21.0174 20.3601 19.6742 21.3601V21.4801L22.7556 23.8801L22.9532 23.9201C24.889 22.0401 25.9952 19.3601 25.9952 16.2001Z" fill="#4285F4"/>
<path d="M16.0789 26.4C18.8839 26.4 21.2147 25.48 22.9135 23.88L19.674 21.32C18.8048 21.92 17.6197 22.36 16.0789 22.36C13.353 22.36 11.0221 20.52 10.1925 18H10.074L6.87398 20.48L6.83447 20.6C8.57274 24.08 12.0493 26.4 16.0789 26.4Z" fill="#34A853"/>
<path d="M10.2322 18.0402C9.99518 17.4002 9.87666 16.6802 9.87666 15.9602C9.87666 15.2402 9.99518 14.5602 10.1927 13.8802V13.7602L6.95321 11.2402L6.83469 11.2802C6.12358 12.6802 5.72852 14.2802 5.72852 15.9602C5.72852 17.6402 6.12358 19.2402 6.83469 20.6402L10.2322 18.0402Z" fill="#FBBC05"/>
<path d="M16.079 9.56002C18.0148 9.56002 19.3185 10.4 20.0691 11.12L22.9925 8.24002C21.2148 6.56002 18.8839 5.52002 16.079 5.52002C12.0493 5.52002 8.57279 7.88002 6.87402 11.28L10.1925 13.92C11.0617 11.36 13.353 9.56002 16.079 9.56002Z" fill="#EB4335"/>
</g>
</g>
</g>
<defs>
<clipPath id="clip0_1934_291">
<rect width="32" height="32" fill="white"/>
</clipPath>
</defs>
</svg>
