<svg width="32" height="32" viewBox="0 0 32 32" fill="none" xmlns="http://www.w3.org/2000/svg">
<g clip-path="url(#clip0_1934_11)">
<mask id="mask0_1934_11" style="mask-type:luminance" maskUnits="userSpaceOnUse" x="0" y="0" width="32" height="32">
<path d="M32 0H0V32H32V0Z" fill="white"/>
</mask>
<g mask="url(#mask0_1934_11)">
<path fill-rule="evenodd" clip-rule="evenodd" d="M3.28 0H28.76C30.52 0 32 1.48 32 3.28V28.76C32 30.56 30.52 32.04 28.72 32.04H3.28C1.48 32 0 30.52 0 28.72V3.28C0 1.48 1.48 0 3.28 0Z" fill="#FFFA04"/>
<path d="M9.03979 13.3201C8.91979 11.6001 8.79979 9.48008 9.35979 8.20008C10.0398 6.72008 10.9598 5.68008 12.1598 5.04008C13.3198 4.40008 14.7198 4.08008 16.2398 4.08008C16.9198 4.08008 18.5598 4.20008 20.1198 5.20008C21.0798 5.80008 21.9998 6.76008 22.6398 8.20008C23.2398 9.52008 23.0798 11.6401 22.9998 13.2801C22.9998 13.4401 22.9598 13.6001 22.9598 13.7601C22.9998 13.7601 23.0398 13.7601 23.0798 13.7601C23.1998 13.7601 23.3598 13.7201 23.5198 13.6801C23.6798 13.6401 23.8798 13.5601 24.0398 13.4801C24.1198 13.4401 24.2398 13.4001 24.3198 13.4001C24.4398 13.3601 24.5598 13.3601 24.6398 13.3601C24.7598 13.3601 24.8398 13.3601 24.9598 13.4001C25.0798 13.4001 25.1598 13.4401 25.2398 13.4801C25.5198 13.5601 25.7198 13.7201 25.8798 13.9201C26.0398 14.1201 26.1598 14.3601 26.1598 14.6001C26.1598 14.9201 26.0398 15.2001 25.7598 15.4401C25.5198 15.6801 25.1598 15.8801 24.7198 16.0401C24.6798 16.0801 24.5998 16.0801 24.5198 16.1201C24.3998 16.1601 24.3598 16.1601 24.3198 16.2001C24.0798 16.2801 23.7998 16.3601 23.5598 16.4801C23.3598 16.6001 23.1598 16.7201 23.0798 16.8801C23.0398 16.9601 23.0398 17.0401 23.0398 17.1601C23.0398 17.2801 23.1198 17.4001 23.1598 17.5601C23.1598 17.5601 23.1598 17.5601 23.1598 17.6001C23.1998 17.6801 23.5598 18.5201 24.3598 19.4401C25.1198 20.3601 26.3198 21.3201 27.9198 21.6001C28.1198 21.6401 28.2798 21.7201 28.3998 21.8801C28.5198 22.0401 28.5998 22.2001 28.5598 22.4001C28.5598 22.4401 28.5598 22.5201 28.5198 22.5601C28.5198 22.6001 28.4798 22.6801 28.4798 22.7201C28.3198 23.0801 27.9598 23.4001 27.3198 23.6401C26.7998 23.8401 26.0798 24.0401 25.1198 24.2001C25.0798 24.3201 25.0398 24.4801 25.0398 24.6001C25.0398 24.6801 24.9998 24.7601 24.9598 24.8801C24.9198 25.0001 24.9198 25.0801 24.8798 25.2001C24.8398 25.4001 24.7198 25.5601 24.5598 25.6401C24.3998 25.7601 24.2398 25.8001 24.0398 25.8001C23.9598 25.8001 23.8798 25.8001 23.7598 25.8001C23.6798 25.8001 23.5598 25.7601 23.4398 25.7601C23.2398 25.7201 23.0798 25.6801 22.8398 25.6801C22.7598 25.6001 22.5198 25.6001 22.2798 25.6001C22.1198 25.6001 21.9998 25.6001 21.8398 25.6001C21.6798 25.6001 21.5198 25.6401 21.3998 25.6401C20.8398 25.7201 20.3198 26.0801 19.7198 26.5201C18.3998 27.4801 17.1998 27.9201 15.9998 27.9201C14.7998 27.9201 13.5998 27.4401 12.2798 26.5201C11.6798 26.1201 11.1998 25.7601 10.5998 25.6401C10.4398 25.6001 10.2798 25.6001 10.1598 25.6001C9.99979 25.6001 9.87978 25.6001 9.71978 25.6001C9.43978 25.6001 9.19979 25.6401 8.99979 25.6401C8.79979 25.6801 8.59979 25.7201 8.43979 25.7201C8.31979 25.7601 8.23979 25.7601 8.11978 25.7601C7.99978 25.7601 7.91979 25.8001 7.83979 25.8001C7.59979 25.8001 7.43979 25.7201 7.27979 25.6401C7.11979 25.5201 6.99979 25.3201 6.95979 25.1601C6.91979 25.0401 6.91979 24.9601 6.87979 24.8401C6.83979 24.7601 6.83979 24.6401 6.79979 24.5601C6.75979 24.4401 6.71978 24.2801 6.71978 24.1601C5.79978 24.0001 5.07979 23.8401 4.51979 23.6001C3.91979 23.3601 3.51979 23.0401 3.35979 22.6801C3.31979 22.6401 3.31979 22.5601 3.31979 22.5201C3.31979 22.4801 3.27979 22.4001 3.27979 22.3601C3.27979 22.1601 3.31979 21.9601 3.43979 21.8401C3.55979 21.6801 3.71979 21.6001 3.91979 21.5601C5.51979 21.2801 6.67979 20.3201 7.47979 19.4001C8.27979 18.4801 8.63979 17.6001 8.67979 17.5201C8.67979 17.4801 8.67979 17.4801 8.67979 17.4801C8.75979 17.3201 8.79979 17.2001 8.79979 17.0801C8.79979 16.9601 8.79979 16.8801 8.75979 16.8001C8.59979 16.4401 7.95979 16.2401 7.55979 16.1201C7.51979 16.1201 7.47979 16.0801 7.35979 16.0401C7.27979 16.0001 7.19979 16.0001 7.15979 15.9601C6.63979 15.7601 6.27979 15.5201 6.07979 15.2801C5.75979 14.9201 5.71979 14.6001 5.75979 14.3201C5.79979 14.0001 6.03979 13.7601 6.27979 13.5601C6.55979 13.3601 6.91979 13.2401 7.23979 13.2401C7.31979 13.2401 7.39978 13.2401 7.51978 13.2801C7.59978 13.2801 7.67979 13.3201 7.75979 13.3601C7.95979 13.4401 8.15978 13.5201 8.31979 13.5601C8.47979 13.6001 8.63979 13.6401 8.79979 13.6401C8.87979 13.6401 8.95979 13.6401 8.99979 13.6401C8.99979 13.5601 8.99979 13.4401 8.99979 13.3601L9.03979 13.3201Z" fill="#FFFFFE"/>
<path d="M8.72012 13.4002V13.3202C8.60012 11.5602 8.48012 9.40018 9.08012 8.04018C9.44012 7.28018 9.84012 6.60018 10.3201 6.04018C10.8001 5.48018 11.3601 5.04018 12.0001 4.68018C12.6001 4.32018 13.2801 4.08018 14.0001 3.92018C14.7201 3.76018 15.4401 3.68018 16.2401 3.68018C16.6401 3.68018 17.4401 3.72018 18.4001 4.00018C19.0001 4.16018 19.6801 4.44018 20.3201 4.88018C20.8401 5.24018 21.3601 5.68018 21.8401 6.24018C22.2401 6.72018 22.6401 7.32018 22.9601 8.04018C23.6001 9.44018 23.4401 11.6002 23.3201 13.2802V13.3202V13.4002C23.3601 13.4002 23.4001 13.4002 23.4401 13.3602C23.5201 13.3602 23.6001 13.3202 23.6801 13.2802C23.7601 13.2402 23.8401 13.2002 23.9201 13.1602C24.0001 13.1202 24.0401 13.1202 24.0801 13.0802C24.1201 13.0802 24.2001 13.0402 24.2801 13.0402H24.3201V13.0002H24.6401C24.6801 13.0002 24.7601 13.0002 24.8401 13.0002C24.9201 13.0002 24.9601 13.0002 25.0401 13.0402C25.0801 13.0402 25.1601 13.0802 25.2001 13.0802C25.2401 13.0802 25.3201 13.1202 25.3601 13.1202C25.5201 13.1602 25.6801 13.2402 25.8001 13.3202C25.9201 13.4002 26.0401 13.5202 26.1601 13.6402C26.2801 13.7602 26.3601 13.9202 26.4001 14.0402C26.4801 14.2002 26.4801 14.3602 26.4801 14.5202C26.4801 14.7202 26.4401 14.9202 26.3601 15.1202C26.2801 15.3202 26.1601 15.4802 26.0001 15.6402C25.8801 15.7602 25.6801 15.8802 25.5201 16.0002C25.3201 16.1202 25.1201 16.2002 24.8801 16.3202C24.8001 16.3602 24.8001 16.4002 24.7601 16.4002C24.7601 16.4002 24.7201 16.4002 24.6401 16.4402L24.5201 16.4802C24.4401 16.5202 24.4401 16.5202 24.4401 16.5202C24.3201 16.5602 24.1601 16.6002 24.0801 16.6402C23.9601 16.6802 23.8401 16.7202 23.7201 16.8002C23.6401 16.8402 23.5601 16.8802 23.4801 16.9202C23.4401 16.9602 23.4001 17.0002 23.4001 17.0002C23.4001 17.0002 23.4001 17.0002 23.4001 17.0402C23.4001 17.0402 23.4001 17.0802 23.4001 17.1202C23.4001 17.1602 23.4001 17.2002 23.4401 17.2402V17.2802L23.5201 17.4402C23.5201 17.4802 23.6401 17.6802 23.8001 18.0002C24.0001 18.3202 24.2801 18.7602 24.6401 19.2002C25.0401 19.6802 25.5601 20.1602 26.2001 20.5602C26.7201 20.8802 27.3201 21.1202 27.9601 21.2402C28.0801 21.2802 28.2401 21.3202 28.3601 21.3602C28.4801 21.4402 28.6001 21.5202 28.6801 21.6402C28.7601 21.7602 28.8401 21.8802 28.8801 22.0002C28.9201 22.1202 28.9201 22.2802 28.9201 22.4002C28.9201 22.4402 28.9201 22.4802 28.9201 22.5202C28.9201 22.5602 28.9201 22.6002 28.8801 22.6402C28.8801 22.6802 28.8401 22.7202 28.8401 22.7602C28.8401 22.8002 28.8001 22.8402 28.8001 22.8802L28.6801 23.1602H28.6401C28.5601 23.2802 28.4401 23.4002 28.2801 23.5202C28.0801 23.6802 27.8001 23.8402 27.4401 24.0002C27.1601 24.1202 26.8401 24.2002 26.4401 24.3202C26.1201 24.4002 25.7601 24.4802 25.4001 24.5202C25.4001 24.5602 25.3601 24.6402 25.3601 24.6802L25.4801 24.8002C25.4801 24.8402 25.4401 24.8802 25.4401 24.9602L25.3601 25.2802L25.2401 25.6002H25.2001L25.1601 25.6402C25.0801 25.7602 25.0001 25.8402 24.8801 25.9202C24.7601 26.0002 24.6801 26.0402 24.5201 26.0802C24.4801 26.0802 24.4801 26.0802 24.4401 26.1202V26.1602H24.1601C24.1601 26.1602 24.1601 26.1602 24.1201 26.1602C24.0801 26.1602 24.0401 26.1602 23.9601 26.1602C23.9201 26.1602 23.8401 26.1602 23.8001 26.1602C23.7601 26.1602 23.7201 26.1602 23.6401 26.1202C23.5601 26.1202 23.5201 26.0802 23.4401 26.0802C23.3601 26.0802 23.2401 26.0402 23.1601 26.0402C23.0801 26.0402 23.0001 26.0002 22.8801 26.0002C22.7601 26.0002 22.6801 25.9602 22.5601 25.9602C22.4401 25.9602 22.3601 25.9602 22.2001 25.9602C22.1201 25.9602 22.0401 25.9602 22.0001 25.9602C21.9601 25.9602 21.8801 25.9602 21.8001 25.9602C21.7201 25.9602 21.6401 25.9602 21.6001 26.0002C21.5201 26.0002 21.4401 26.0402 21.4001 26.0402C20.9201 26.1202 20.4401 26.4402 19.9201 26.8402L19.6801 27.1202L19.6401 27.0802C19.0401 27.4802 18.4801 27.7602 17.9201 27.9602C17.2801 28.2002 16.6401 28.3202 16.0001 28.3202C15.3601 28.3202 14.7201 28.2002 14.0801 27.9602C13.4401 27.7202 12.8001 27.3602 12.1201 26.8802C11.5601 26.4802 11.0801 26.1602 10.6001 26.0802H10.5601C10.5201 26.0802 10.4401 26.0802 10.4001 26.0402C10.3201 26.0402 10.2401 26.0402 10.2001 26.0002C10.1201 26.0002 10.0401 26.0002 10.0001 26.0002C9.96012 26.0002 9.88012 26.0002 9.80012 26.0002C9.68012 26.0002 9.56012 26.0002 9.44012 26.0002C9.32012 26.0002 9.20012 26.0002 9.12012 26.0402C8.96012 26.0802 8.76012 26.1202 8.60012 26.1202C8.56012 26.1202 8.56012 26.1202 8.44012 26.1602C8.36012 26.1602 8.32012 26.2002 8.28012 26.2002C8.24012 26.2002 8.16012 26.2002 8.12012 26.2402C8.04012 26.2402 8.00012 26.2402 7.96012 26.2402C7.80012 26.2402 7.68012 26.2002 7.56012 26.2002C7.44012 26.1602 7.32012 26.1202 7.20012 26.0402L7.08012 25.9202C7.04012 25.8802 7.00012 25.8002 6.96012 25.7602C6.88012 25.6402 6.84012 25.5202 6.80012 25.4002C6.80012 25.3202 6.76012 25.2802 6.76012 25.2402C6.76012 25.1602 6.72012 25.1202 6.72012 25.0802C6.72012 25.0802 6.72012 25.0402 6.68012 24.9202C6.64012 24.7202 6.64012 24.8402 6.64012 24.7602C6.64012 24.7202 6.60012 24.6402 6.60012 24.6002C6.20012 24.5202 5.88012 24.4802 5.56012 24.4002C5.20012 24.3202 4.84012 24.2002 4.56012 24.0802C4.24012 23.9602 3.96012 23.8002 3.72012 23.6002C3.48012 23.4002 3.32012 23.2002 3.24012 22.9602C3.24012 22.9202 3.20012 22.8802 3.20012 22.8402C3.20012 22.8002 3.16012 22.7602 3.16012 22.7202C3.16012 22.6802 3.16012 22.6402 3.12012 22.6002C3.12012 22.5602 3.12012 22.5202 3.12012 22.4802C3.12012 22.3602 3.12012 22.2002 3.16012 22.0802C3.20012 21.9602 3.28012 21.8402 3.36012 21.7202C3.44012 21.6002 3.56012 21.5202 3.68012 21.4402C3.80012 21.3602 3.92012 21.3202 4.08012 21.3202C4.76012 21.2002 5.36012 20.9602 5.84012 20.6402C6.48012 20.2402 7.00012 19.7602 7.40012 19.2802C7.76012 18.8402 8.04012 18.4002 8.24012 18.0802C8.44012 17.7602 8.52012 17.5202 8.52012 17.5202L8.64012 17.2802C8.64012 17.2402 8.68012 17.2002 8.68012 17.1602C8.68012 17.1202 8.68012 17.1202 8.68012 17.0802C8.64012 17.0002 8.52012 16.9202 8.32012 16.8402C8.20012 16.7602 8.04012 16.7202 7.88012 16.6802L7.64012 16.6002C7.64012 16.6002 7.64012 16.6002 7.56012 16.5602L7.44012 16.5202C7.40012 16.5202 7.36012 16.4802 7.32012 16.4802C7.28012 16.4802 7.24012 16.4402 7.24012 16.4402C6.96012 16.3202 6.76012 16.2002 6.56012 16.0802C6.32012 15.9602 6.16012 15.8002 6.04012 15.6802C5.84012 15.4802 5.76012 15.2802 5.68012 15.0802C5.60012 14.8402 5.60012 14.6002 5.64012 14.4002C5.68012 14.2002 5.76012 14.0402 5.88012 13.8802C6.00012 13.7202 6.16012 13.5602 6.32012 13.4402C6.48012 13.3202 6.68012 13.2402 6.88012 13.1602C7.08012 13.0802 7.28012 13.0802 7.48012 13.0802C7.52012 13.0802 7.60012 13.0802 7.64012 13.0802C7.68012 13.0802 7.76012 13.0802 7.80012 13.1202C7.88012 13.1202 7.92012 13.1602 7.96012 13.1602C8.00012 13.1602 8.08012 13.2002 8.12012 13.2402C8.20012 13.2802 8.32012 13.3202 8.40012 13.3602C8.48012 13.4002 8.56012 13.4002 8.64012 13.4402C8.56012 13.4002 8.64012 13.4002 8.72012 13.4002ZM9.36012 13.3202V13.4402V13.7202V14.0002L9.08012 14.0402C9.04012 14.0402 9.00012 14.0402 8.96012 14.0402C8.92012 14.0402 8.88012 14.0402 8.80012 14.0402C8.72012 14.0402 8.64012 14.0402 8.52012 14.0002C8.44012 14.0002 8.32012 13.9602 8.24012 13.9602C8.16012 13.9202 8.04012 13.9202 7.92012 13.8802C7.80012 13.8402 7.72012 13.8002 7.60012 13.7602C7.56012 13.7602 7.56012 13.7202 7.52012 13.7202C7.48012 13.7202 7.44012 13.7202 7.44012 13.6802C7.40012 13.6802 7.36012 13.6802 7.36012 13.6802C7.32012 13.6802 7.32012 13.6802 7.28012 13.6802C7.16012 13.6802 7.00012 13.7202 6.88012 13.7602C6.76012 13.8002 6.64012 13.8802 6.52012 13.9202C6.40012 14.0002 6.32012 14.0802 6.24012 14.1602C6.20012 14.2402 6.12012 14.3202 6.12012 14.4402C6.12012 14.5602 6.12012 14.6402 6.12012 14.7602C6.16012 14.8802 6.20012 14.9602 6.32012 15.0802C6.40012 15.2002 6.52012 15.2802 6.72012 15.4002C6.88012 15.4802 7.08012 15.6002 7.32012 15.6802C7.36012 15.6802 7.36012 15.7202 7.40012 15.7202C7.44012 15.7202 7.48012 15.7602 7.48012 15.7602C7.48012 15.7602 7.56012 15.8002 7.60012 15.8002C7.64012 15.8002 7.60012 15.8002 7.68012 15.8002C7.92012 15.8802 8.20012 15.9602 8.44012 16.0802C8.64012 16.1602 8.80012 16.2802 8.92012 16.4002L9.00012 16.3602L9.12012 16.6402C9.16012 16.7202 9.16012 16.8002 9.16012 16.8402C9.16012 16.9202 9.16012 17.0002 9.16012 17.0402C9.16012 17.1202 9.12012 17.2002 9.08012 17.2802C9.04012 17.3602 9.00012 17.4402 8.96012 17.5602L8.84012 17.8802C8.80012 17.9602 8.72012 18.0802 8.64012 18.2002C8.44012 18.5602 8.12012 19.0402 7.72012 19.4802C7.28012 20.0002 6.68012 20.5602 5.96012 21.0002C5.40012 21.3602 4.72012 21.6402 3.96012 21.7602C3.92012 21.7602 3.84012 21.8002 3.80012 21.8002C3.76012 21.8402 3.72012 21.8802 3.68012 21.9202C3.64012 21.9602 3.60012 22.0002 3.60012 22.0802C3.60012 22.1202 3.56012 22.2002 3.56012 22.2402V22.2802V22.3202C3.56012 22.3602 3.56012 22.3602 3.56012 22.3602C3.56012 22.3602 3.56012 22.4002 3.60012 22.4002C3.64012 22.5202 3.76012 22.6402 3.92012 22.7602C4.08012 22.8802 4.32012 23.0002 4.56012 23.1202C4.80012 23.2402 5.12012 23.3202 5.44012 23.4002C5.80012 23.4802 6.20012 23.5602 6.64012 23.6402L6.84012 23.6802L6.88012 23.8802C6.92012 24.0002 6.96012 24.1602 7.00012 24.2802C7.04012 24.4402 7.00012 24.3202 7.04012 24.4402L7.20012 24.8002C7.20012 24.8802 7.24012 24.9202 7.24012 24.9202C7.24012 24.9602 7.28012 25.0402 7.28012 25.0802C7.28012 25.1202 7.32012 25.2002 7.36012 25.2402C7.40012 25.2802 7.44012 25.3202 7.48012 25.3602H7.52012C7.56012 25.4002 7.60012 25.4002 7.64012 25.4002C7.68012 25.4002 7.76012 25.4402 7.84012 25.4402C7.88012 25.4402 7.92012 25.4402 7.96012 25.4402C8.00012 25.4402 8.04012 25.4402 8.08012 25.4402C8.12012 25.4402 8.16012 25.4402 8.20012 25.4002L8.36012 25.3602C8.52012 25.3202 8.72012 25.2802 8.92012 25.2802C9.04012 25.2802 9.16012 25.2402 9.28012 25.2402C9.40012 25.2402 9.56012 25.2402 9.68012 25.2402C9.76012 25.2402 9.84012 25.2402 9.92012 25.2402C10.0001 25.2402 10.0801 25.2402 10.1601 25.2402C10.2401 25.2402 10.3201 25.2402 10.4001 25.2802C10.4801 25.2802 10.5601 25.3202 10.6401 25.3202L10.9601 25.3602V25.4002C11.4801 25.5602 11.9201 25.8802 12.4401 26.2402L12.8401 26.4402L12.8001 26.4802C13.3201 26.8002 13.8001 27.0802 14.2801 27.2402C14.8401 27.4402 15.4001 27.5602 15.9601 27.5602C16.5201 27.5602 17.0801 27.4402 17.6401 27.2402C18.2001 27.0402 18.8001 26.7202 19.4001 26.2802L19.4401 26.2402L19.7201 26.0402C20.2401 25.6802 20.7201 25.4002 21.2401 25.3202C21.3201 25.3202 21.4001 25.2802 21.4801 25.2802C21.5601 25.2802 21.6401 25.2802 21.7201 25.2402C21.8001 25.2402 21.8801 25.2402 21.9601 25.2402C22.0401 25.2402 22.1201 25.2402 22.2001 25.2402C22.3201 25.2402 22.4401 25.2402 22.6001 25.2402C22.7201 25.2402 22.8401 25.2402 22.9601 25.2802C23.0801 25.2802 23.1601 25.3202 23.2801 25.3202C23.4001 25.3202 23.4801 25.3602 23.5601 25.3602C23.6401 25.3602 23.6801 25.4002 23.7201 25.4002C23.7601 25.4002 23.8001 25.4002 23.8801 25.4402C23.9201 25.4402 23.9601 25.4402 24.0001 25.4402C24.0401 25.4402 24.0801 25.4402 24.1201 25.4402C24.2001 25.4402 24.2401 25.4402 24.3201 25.4002C24.3601 25.4002 24.4401 25.3602 24.4801 25.3202C24.5201 25.2802 24.5601 25.2402 24.6001 25.2002C24.6401 25.1602 24.6401 25.0802 24.6801 25.0402C24.6801 25.0002 24.7201 24.9602 24.7201 24.8802C24.7201 24.8002 24.7601 24.7602 24.7601 24.7202C24.7601 24.6802 24.8001 24.6002 24.8001 24.5602C24.8001 24.5602 24.8001 24.5202 24.8401 24.4402C24.8401 24.4002 24.8801 24.3202 24.8801 24.2402C24.8801 24.1602 24.9201 24.0802 24.9201 24.0402L24.9601 23.8402L25.1601 23.8002C25.6001 23.7202 26.0001 23.6402 26.3601 23.5602C26.7201 23.4802 27.0001 23.3602 27.2401 23.2802C27.5201 23.1602 27.7201 23.0402 27.8801 22.9202C28.0401 22.8002 28.1201 22.6802 28.2001 22.5602V22.5202C28.2001 22.5202 28.2001 22.5202 28.2001 22.4802C28.2001 22.4402 28.2001 22.4402 28.2001 22.4402V22.4002C28.2001 22.3602 28.2001 22.3602 28.2001 22.3602C28.2001 22.3202 28.2001 22.2402 28.1601 22.2002C28.1601 22.1602 28.1201 22.0802 28.0801 22.0402C28.0401 22.0002 28.0001 21.9602 27.9601 21.9202C27.9201 21.8802 27.8801 21.8802 27.8001 21.8802C27.0401 21.7602 26.3601 21.4802 25.8001 21.1202C25.0801 20.6802 24.5201 20.1602 24.0401 19.6002C23.6401 19.1202 23.3201 18.6402 23.1201 18.3202C23.0401 18.2002 22.9601 18.0402 22.9201 17.9602L22.8401 17.8002C22.8001 17.7202 22.8001 17.6802 22.7601 17.6402V17.6002C22.7201 17.5202 22.6801 17.4402 22.6401 17.3602C22.6001 17.2802 22.6001 17.2002 22.5601 17.1202C22.5601 17.0402 22.5601 16.9602 22.5601 16.8802C22.5601 16.8002 22.6001 16.7202 22.6001 16.6802C22.6401 16.5602 22.7601 16.4402 22.8801 16.3202C23.0001 16.2402 23.1201 16.1602 23.2401 16.1202C23.3601 16.0402 23.5201 16.0002 23.6801 15.9602C23.8401 15.9202 23.9601 15.8802 24.0801 15.8402C24.1201 15.8402 24.1201 15.8402 24.1601 15.8002C24.2001 15.8002 24.2801 15.7602 24.2801 15.7602C24.2801 15.7602 24.3201 15.7602 24.3601 15.7202C24.4001 15.7202 24.4001 15.7202 24.4401 15.6802C24.6401 15.6002 24.8401 15.5202 25.0001 15.4002C25.1601 15.3202 25.2801 15.2002 25.3601 15.1202C25.4801 15.0402 25.5201 14.9202 25.6001 14.8002C25.6401 14.7202 25.6801 14.6002 25.6801 14.4802C25.6801 14.4002 25.6801 14.3202 25.6401 14.2402C25.6001 14.1602 25.5601 14.0802 25.4801 14.0002C25.4001 13.9202 25.3601 13.8802 25.2401 13.8002C25.1601 13.7602 25.0401 13.6802 24.9601 13.6402C24.9201 13.6402 24.8801 13.6002 24.8401 13.6002C24.8001 13.6002 24.7601 13.6002 24.7201 13.5602C24.6801 13.5602 24.6401 13.5602 24.6001 13.5602C24.5601 13.5602 24.5201 13.5602 24.4801 13.5602C24.4401 13.5602 24.4001 13.5602 24.3601 13.5602C24.3201 13.5602 24.2801 13.5602 24.2401 13.5602C24.2001 13.5602 24.1601 13.5602 24.1201 13.6002C24.0801 13.6002 24.0401 13.6402 24.0401 13.6402C23.9201 13.6802 23.8401 13.7202 23.7601 13.7602C23.6801 13.8002 23.5601 13.8402 23.4801 13.8402C23.4001 13.8802 23.3201 13.8802 23.2401 13.8802C23.1601 13.8802 23.0801 13.9202 23.0001 13.9202H22.9601C22.9201 13.9202 22.8801 13.9202 22.8801 13.9202C22.8401 13.9202 22.8001 13.9202 22.8001 13.9202L22.6001 14.0002V13.7202C22.6001 13.5602 22.6001 13.4402 22.6401 13.2802V13.2402C22.7601 11.6402 22.8801 9.56018 22.3201 8.32018C22.0401 7.68018 21.6801 7.12018 21.3201 6.68018C20.8801 6.16018 20.4401 5.76018 19.9601 5.48018C19.3601 5.12018 18.7601 4.84018 18.2401 4.68018C17.4001 4.44018 16.6801 4.40018 16.2801 4.40018C15.5601 4.40018 14.8401 4.48018 14.2001 4.60018C13.5601 4.76018 12.9601 4.96018 12.4001 5.28018C11.8401 5.60018 11.3601 6.00018 10.8801 6.48018C10.4401 7.00018 10.0401 7.60018 9.72012 8.28018C9.20012 9.44018 9.28012 11.3202 9.40012 12.9602L9.36012 13.3202Z" fill="#212121"/>
</g>
</g>
<defs>
<clipPath id="clip0_1934_11">
<rect width="32" height="32" fill="white"/>
</clipPath>
</defs>
</svg>
