<svg width="32" height="32" viewBox="0 0 32 32" fill="none" xmlns="http://www.w3.org/2000/svg">
<g clip-path="url(#clip0_1934_40)">
<mask id="mask0_1934_40" style="mask-type:luminance" maskUnits="userSpaceOnUse" x="0" y="0" width="32" height="32">
<path d="M32 0H0V32H32V0Z" fill="white"/>
</mask>
<g mask="url(#mask0_1934_40)">
<path fill-rule="evenodd" clip-rule="evenodd" d="M28.76 0H3.28C1.48 0 0 1.48 0 3.28V28.72C0 30.52 1.48 32 3.28 32.04H28.72C30.52 32.04 32 30.56 32 28.76V3.28C32 1.48 30.52 0 28.76 0ZM3.28008 17C3.28008 16.92 3.36008 16.88 3.40008 16.88C3.44008 16.88 3.48008 16.92 3.48008 16.96L3.72008 18.4L3.52008 19.8C3.48008 19.88 3.44008 19.92 3.40008 19.92C3.32008 19.92 3.28008 19.88 3.28008 19.8L3.08008 18.4L3.28008 17ZM4.32008 15.96C4.40008 15.96 4.44008 16 4.44008 16.08L4.76008 18.4L4.48008 20.68C4.48008 20.76 4.40008 20.8 4.36008 20.8C4.28008 20.8 4.24008 20.76 4.24008 20.68L4.00008 18.4L4.20008 16.08C4.20008 16 4.28008 15.96 4.32008 15.96ZM8.24008 14.16C8.24008 14.04 8.32008 13.96 8.44008 13.96C8.56008 13.96 8.64008 14.04 8.64008 14.16L8.88008 18.4L8.64008 21.16C8.64008 21.28 8.56008 21.36 8.44008 21.36C8.32008 21.36 8.24008 21.28 8.24008 21.16L8.04008 18.4L8.24008 14.16ZM6.20008 15.6C6.20008 15.52 6.28008 15.44 6.36008 15.44C6.48008 15.44 6.52008 15.52 6.56008 15.6L6.80008 18.4L6.56008 21.12C6.56008 21.2 6.48008 21.28 6.40008 21.28C6.32008 21.28 6.24008 21.2 6.24008 21.12L6.00008 18.4L6.20008 15.6ZM10.8001 21.12C10.8001 21.24 10.6801 21.36 10.5601 21.36C10.4001 21.36 10.3201 21.24 10.2801 21.12L10.1201 18.4L10.3201 12.72C10.3201 12.6 10.4401 12.48 10.5601 12.48C10.6801 12.48 10.8001 12.6 10.8001 12.72L11.0001 18.4L10.8001 21.12ZM15.1601 21.04C15.1601 21.2 15.0001 21.36 14.8401 21.36C14.6801 21.36 14.5201 21.2 14.5201 21.04L14.4001 18.4L14.5601 11.84C14.5601 11.68 14.7201 11.52 14.8801 11.52C15.0401 11.52 15.2001 11.68 15.2001 11.84L15.3201 18.4L15.1601 21.04ZM13.1201 18.4L12.9601 21.08C12.9601 21.24 12.8401 21.36 12.6801 21.36C12.5201 21.36 12.4001 21.24 12.4001 21.08L12.2401 18.4L12.4001 12.68C12.4001 12.52 12.5201 12.4 12.6801 12.4C12.8401 12.4 12.9601 12.52 12.9601 12.68L13.1201 18.4ZM7.56008 21.16C7.56008 21.24 7.48008 21.32 7.40008 21.32C7.32008 21.32 7.24008 21.24 7.20008 21.16L7.00008 18.4L7.28008 15.8C7.28008 15.72 7.36008 15.64 7.44008 15.64C7.52008 15.64 7.60008 15.68 7.60008 15.8L7.80008 18.4L7.56008 21.16ZM5.48008 21.04C5.48008 21.12 5.44008 21.16 5.36008 21.16C5.28008 21.16 5.24008 21.12 5.24008 21.04L5.00008 18.4L5.24008 15.64C5.24008 15.56 5.28008 15.52 5.36008 15.52C5.40008 15.52 5.48008 15.56 5.48008 15.64L5.76008 18.4L5.48008 21.04ZM13.4401 12.92C13.4401 12.72 13.6001 12.6 13.7601 12.6C13.9201 12.6 14.0801 12.72 14.1201 12.88L14.2801 18.4L14.1201 21.04C14.1201 21.24 13.9601 21.36 13.8001 21.36C13.6401 21.36 13.4801 21.2 13.4801 21.04L13.3201 18.4L13.4401 12.92ZM9.68008 21.16C9.68008 21.28 9.60008 21.36 9.48008 21.36C9.40008 21.36 9.28008 21.28 9.28008 21.16L9.08008 18.4L9.28008 13.16C9.28008 13.04 9.36008 12.96 9.48008 12.96C9.56008 12.96 9.68008 13.04 9.68008 13.16L9.88008 18.4L9.68008 21.16ZM12.0401 18.4L11.8801 21.08C11.8801 21.24 11.7601 21.36 11.6001 21.32C11.4801 21.32 11.3601 21.24 11.3601 21.08L11.2001 18.4L11.4001 12.52C11.4001 12.4 11.4801 12.28 11.6401 12.28C11.7601 12.28 11.8801 12.36 11.8801 12.52L12.0401 18.4ZM24.4801 15.28C24.8801 15.12 25.2801 15.04 25.7201 15.04C27.4801 15.04 28.9201 16.44 28.8801 18.2C28.8801 19.96 27.4801 21.36 25.7201 21.36H16.9201C16.7201 21.36 16.5601 21.2 16.5601 21V10.96C16.5601 10.8 16.6401 10.68 16.8801 10.6C17.5201 10.36 18.2001 10.2 18.9201 10.2C21.8401 10.2 24.2401 12.44 24.4801 15.28ZM15.6001 11.28C15.6001 11.08 15.7601 10.92 15.9601 10.92C16.1201 10.92 16.2801 11.08 16.3201 11.28L16.4801 18.4L16.3201 21C16.3201 21.2 16.1601 21.36 15.9601 21.36C15.7601 21.36 15.6001 21.2 15.6001 21L15.4401 18.4L15.6001 11.28Z" fill="url(#paint0_linear_1934_40)"/>
</g>
</g>
<defs>
<linearGradient id="paint0_linear_1934_40" x1="16" y1="0" x2="16" y2="32.04" gradientUnits="userSpaceOnUse">
<stop stop-color="#FF9901"/>
<stop offset="1" stop-color="#FF2300"/>
</linearGradient>
<clipPath id="clip0_1934_40">
<rect width="32" height="32" fill="white"/>
</clipPath>
</defs>
</svg>
