<svg width="32" height="32" viewBox="0 0 32 32" fill="none" xmlns="http://www.w3.org/2000/svg">
<g clip-path="url(#clip0_1934_52)">
<mask id="mask0_1934_52" style="mask-type:luminance" maskUnits="userSpaceOnUse" x="0" y="0" width="32" height="32">
<path d="M32 0H0V32H32V0Z" fill="white"/>
</mask>
<g mask="url(#mask0_1934_52)">
<path fill-rule="evenodd" clip-rule="evenodd" d="M3.28 0H28.72C30.52 0 32 1.48 32.04 3.28V28.72C32.04 30.52 30.56 32 28.76 32H3.28C1.48 32 0 30.52 0 28.76V3.28C0 1.48 1.48 0 3.28 0ZM21.2401 22.36C21.4801 22.28 21.6801 22.12 21.8001 21.92C21.8401 21.8 21.8801 21.68 21.9601 21.56C21.9601 21.44 21.9601 21.32 21.9201 21.2C21.8801 21.08 21.8401 20.96 21.7601 20.88C21.6801 20.8 21.6001 20.72 21.4801 20.64C20.1201 19.84 18.6401 19.32 17.1201 19.04C15.8001 18.8 14.4401 18.72 13.0801 18.76C11.6801 18.8 10.2401 18.96 8.8801 19.32C8.6401 19.4 8.4801 19.56 8.3601 19.76C8.2401 19.96 8.2001 20.2 8.2801 20.44C8.3201 20.68 8.4801 20.88 8.6801 21C8.8801 21.12 9.1201 21.16 9.3601 21.12C10.6001 20.8 11.8801 20.64 13.1601 20.6C15.1201 20.56 18.0001 20.8 20.5201 22.28C20.7201 22.4 21.0001 22.44 21.2401 22.36ZM23.5201 18.2401C23.4401 18.4001 23.2801 18.5601 23.1201 18.6401C22.9601 18.7201 22.7601 18.8001 22.5601 18.8001C22.3601 18.8001 22.1601 18.7601 22.0001 18.6401C19.0401 16.9201 15.6401 16.6401 13.3201 16.7201C11.8001 16.7601 10.2801 16.9601 8.80006 17.3201C8.52006 17.4001 8.24006 17.3601 7.96006 17.2001C7.68006 17.0401 7.52006 16.8001 7.44006 16.5201C7.36006 16.2401 7.40006 15.9601 7.52006 15.6801C7.64006 15.4401 7.88006 15.2401 8.16006 15.1601C9.80006 14.7601 11.4401 14.5201 13.1201 14.4801C14.7201 14.4001 16.3201 14.5201 17.9201 14.8401C19.7201 15.1601 21.4801 15.8001 23.0801 16.7201C23.3201 16.8801 23.5201 17.1201 23.6001 17.4001C23.7201 17.6801 23.6801 18.0001 23.5201 18.2401ZM25.4401 14.6399C25.6001 14.5199 25.7201 14.3999 25.8001 14.2399C25.9201 14.0799 25.9601 13.9199 25.9601 13.7599V13.7599C25.9601 13.5999 25.9601 13.3999 25.9201 13.2399C25.8801 13.0799 25.8001 12.9199 25.6801 12.7599C25.5601 12.5999 25.4401 12.4799 25.2801 12.3999C23.3201 11.2399 21.2001 10.4799 18.9601 10.0799C17.0001 9.71992 15.0401 9.55992 13.0801 9.63992C11.0401 9.67992 9.00008 9.95992 7.00008 10.4399C6.80008 10.4799 6.64008 10.5599 6.48008 10.6799C6.45068 10.7093 6.41888 10.7387 6.38645 10.7687C6.28649 10.8611 6.18048 10.9591 6.12008 11.0799C6.00008 11.2399 5.96008 11.3999 5.92008 11.5999C5.88008 11.7999 5.92008 11.9999 5.96008 12.1599C6.00008 12.3199 6.08008 12.4799 6.20008 12.6399C6.32008 12.7999 6.48008 12.9199 6.64008 12.9999C6.80008 13.0799 6.96008 13.1199 7.16008 13.1599C7.36008 13.1999 7.56008 13.1599 7.72008 13.1199C7.84008 13.0799 16.9201 10.6799 23.9201 14.7599C24.0541 14.8269 24.2162 14.8659 24.3594 14.9003C24.3871 14.9069 24.4141 14.9134 24.4401 14.9199C24.6001 14.9199 24.8001 14.9199 24.9601 14.8799C25.1201 14.8399 25.2801 14.7599 25.4401 14.6399Z" fill="#12C64B"/>
</g>
</g>
<defs>
<clipPath id="clip0_1934_52">
<rect width="32" height="32" fill="white"/>
</clipPath>
</defs>
</svg>
