<svg width="32" height="32" viewBox="0 0 32 32" fill="none" xmlns="http://www.w3.org/2000/svg">
<g clip-path="url(#clip0_1934_324)">
<mask id="mask0_1934_324" style="mask-type:luminance" maskUnits="userSpaceOnUse" x="0" y="0" width="32" height="32">
<path d="M31.8813 0.197754H0.276367V31.8027H31.8813V0.197754Z" fill="white"/>
</mask>
<g mask="url(#mask0_1934_324)">
<path opacity="0.3" fill-rule="evenodd" clip-rule="evenodd" d="M28.6813 0.197754H3.51587C1.7381 0.197754 0.276367 1.61998 0.276367 3.39775V28.6027C0.276367 30.3805 1.7381 31.8422 3.51587 31.8422H28.6813C30.4591 31.8422 31.9208 30.3805 31.9208 28.6027V3.43726C31.9208 1.65948 30.4591 0.197754 28.6813 0.197754ZM9.75785 6.51874C8.01958 6.51874 6.59736 7.94096 6.59736 9.67924V22.3212C6.59736 24.0595 8.01958 25.4817 9.75785 25.4817H22.3998C24.1381 25.4817 25.5603 24.0595 25.5603 22.3212V9.67924C25.5603 7.94096 24.1381 6.51874 22.3998 6.51874H9.75785ZM10.943 10.0743C10.5085 10.0743 10.1529 10.4299 10.1529 10.8644V21.136C10.1529 21.5706 10.5085 21.9261 10.943 21.9261H21.2146C21.6492 21.9261 22.0048 21.5706 22.0048 21.136V10.8644C22.0048 10.4299 21.6492 10.0743 21.2146 10.0743H10.943ZM13.5109 13.9854C13.5109 13.6694 13.748 13.4323 14.064 13.4323H18.0937C18.4097 13.4323 18.6467 13.6694 18.6467 13.9854V18.015C18.6467 18.3311 18.4097 18.5681 18.0937 18.5681H14.064C13.748 18.5681 13.5109 18.3311 13.5109 18.015V13.9854Z" fill="black"/>
</g>
</g>
<defs>
<clipPath id="clip0_1934_324">
<rect width="32" height="32" fill="white"/>
</clipPath>
</defs>
</svg>
