<svg width="32" height="32" viewBox="0 0 32 32" fill="none" xmlns="http://www.w3.org/2000/svg">
<g clip-path="url(#clip0_1934_309)">
<mask id="mask0_1934_309" style="mask-type:luminance" maskUnits="userSpaceOnUse" x="0" y="0" width="32" height="32">
<path d="M32 0H0V32H32V0Z" fill="white"/>
</mask>
<g mask="url(#mask0_1934_309)">
<path d="M4.37333 0H27.6267C30.0267 0 32 1.97333 32 4.37333V27.6267C32 30.0267 30.0267 32 27.6267 32H4.37333C1.97333 32 0 30.0267 0 27.6267V4.37333C0 1.97333 1.97333 0 4.37333 0Z" fill="#4A9EF4"/>
<path d="M4.37333 0H27.6267C30.0267 0 32 1.97333 32 4.37333V27.6267C32 30.0267 30.0267 32 27.6267 32H4.37333C1.97333 32 0 30.0267 0 27.6267V4.37333C0 1.97333 1.97333 0 4.37333 0Z" fill="url(#paint0_linear_1934_309)"/>
<path fill-rule="evenodd" clip-rule="evenodd" d="M18.5807 24.4337C19.4545 23.9632 20.3954 23.6943 21.4036 23.6943C22.4118 23.6943 23.3528 23.9632 24.2265 24.4337C25.1003 24.9042 25.8396 25.5763 26.3773 26.3828C26.6462 26.7861 26.5117 27.391 26.1085 27.6599C25.7052 27.9287 25.1003 27.7943 24.8314 27.391C24.4954 26.8533 23.9577 26.3828 23.3528 26.0468C22.7479 25.7107 22.0757 25.5763 21.4036 25.5763C20.7315 25.5763 20.0594 25.7107 19.4545 26.0468C18.8495 26.3828 18.3791 26.8533 17.9758 27.391C17.7069 27.7943 17.102 27.9287 16.6988 27.6599C16.2955 27.391 16.1611 26.7861 16.4299 26.3828C16.9676 25.5763 17.7069 24.9042 18.5807 24.4337Z" fill="white"/>
<path fill-rule="evenodd" clip-rule="evenodd" d="M7.49085 24.4337C8.36461 23.9632 9.30558 23.6943 10.3138 23.6943C11.3219 23.6943 12.2629 23.9632 13.1367 24.4337C14.0104 24.9042 14.7498 25.5763 15.2875 26.3828C15.5563 26.7861 15.4219 27.391 15.0186 27.6599C14.6153 27.9287 14.0104 27.7943 13.7416 27.391C13.4055 26.8533 12.8678 26.3828 12.2629 26.0468C11.658 25.7107 10.9859 25.5763 10.3138 25.5763C9.64164 25.5763 8.96952 25.7107 8.36461 26.0468C7.7597 26.3828 7.28922 26.8533 6.88595 27.391C6.6171 27.7943 6.01219 27.9287 5.60891 27.6599C5.20564 27.391 5.07122 26.7861 5.34007 26.3828C5.87776 25.5763 6.6171 24.9042 7.49085 24.4337Z" fill="white"/>
<path fill-rule="evenodd" clip-rule="evenodd" d="M13.0695 11.9996C13.9432 11.5291 14.8842 11.2603 15.8924 11.2603C16.9006 11.2603 17.8415 11.5291 18.7153 11.9996C19.589 12.4701 20.3284 13.1422 20.8661 13.9487C21.1349 14.352 21.0005 14.9569 20.5972 15.2258C20.194 15.4946 19.589 15.3602 19.3202 14.9569C18.9841 14.4192 18.4464 13.9487 17.8415 13.6127C17.2366 13.2766 16.5645 13.1422 15.8924 13.1422C15.2203 13.1422 14.5481 13.2766 13.9432 13.6127C13.3383 13.9487 12.8678 14.4192 12.4646 14.9569C12.1957 15.3602 11.5908 15.4946 11.1875 15.2258C10.7843 14.9569 10.6498 14.352 10.9187 13.9487C11.4564 13.1422 12.1957 12.4701 13.0695 11.9996Z" fill="white"/>
<path fill-rule="evenodd" clip-rule="evenodd" d="M13.1363 4.94241C13.8756 4.20308 14.8838 3.7998 15.892 3.7998C16.9001 3.7998 17.9083 4.20308 18.6477 4.94241C19.387 5.68174 19.7903 6.68993 19.7903 7.69811C19.7903 8.70629 19.387 9.71447 18.6477 10.4538C17.9083 11.1931 16.9001 11.5964 15.892 11.5964C14.8838 11.5964 13.8756 11.1931 13.1363 10.4538C12.3969 9.71447 11.9937 8.70629 11.9937 7.69811C11.9937 6.68993 12.3969 5.68174 13.1363 4.94241ZM15.892 5.68174C15.3543 5.68174 14.8166 5.88338 14.4133 6.28665C14.01 6.68993 13.8084 7.22762 13.8084 7.76532C13.8084 8.30302 14.01 8.84072 14.4133 9.24399C14.8166 9.64726 15.3543 9.8489 15.892 9.8489C16.4297 9.8489 16.9674 9.64726 17.3706 9.24399C17.7739 8.84072 17.9755 8.30302 17.9755 7.76532C17.9755 7.22762 17.7739 6.68993 17.3706 6.28665C16.9674 5.88338 16.4297 5.68174 15.892 5.68174Z" fill="white"/>
<path fill-rule="evenodd" clip-rule="evenodd" d="M8.83516 16.5701C9.30565 16.3685 9.84335 16.3013 10.3138 16.3013C10.8515 16.3013 11.322 16.4357 11.7925 16.5701C12.263 16.7718 12.7335 17.0406 13.0695 17.4439C13.4056 17.7799 13.7417 18.2504 13.9433 18.7209C14.1449 19.1914 14.2121 19.7291 14.2121 20.1996C14.2121 20.6701 14.0777 21.2078 13.9433 21.6782C13.7417 22.1487 13.4728 22.6192 13.0695 22.9553C12.7335 23.2913 12.263 23.6274 11.7925 23.829C11.322 24.0307 10.7843 24.0979 10.3138 24.0979C9.77614 24.0979 9.30565 23.9635 8.83516 23.829C8.36468 23.6274 7.8942 23.3585 7.55813 22.9553C7.22207 22.6192 6.88601 22.1487 6.68438 21.6782C6.48274 21.2078 6.41553 20.6701 6.41553 20.1996C6.41553 19.7291 6.54995 19.1914 6.68438 18.7209C6.88601 18.2504 7.15486 17.7799 7.55813 17.4439C7.96141 17.1078 8.36468 16.7718 8.83516 16.5701ZM10.381 18.116C10.1122 18.116 9.84335 18.1832 9.5745 18.2504C9.30565 18.3848 9.10401 18.5193 8.90238 18.7209C8.70074 18.9225 8.56632 19.1242 8.43189 19.393C8.29747 19.6619 8.29747 19.9307 8.29747 20.1996C8.29747 20.4684 8.36468 20.7373 8.43189 21.0061C8.56632 21.275 8.70074 21.4766 8.90238 21.6782C9.10401 21.8799 9.30565 22.0143 9.5745 22.1487C9.84335 22.2832 10.1122 22.2831 10.381 22.2831C10.6499 22.2831 10.9187 22.2159 11.1876 22.1487C11.4564 22.0143 11.6581 21.8799 11.8597 21.6782C12.0613 21.4766 12.1958 21.275 12.3302 21.0061C12.4646 20.7373 12.4646 20.4684 12.4646 20.1996C12.4646 19.9307 12.3974 19.6619 12.3302 19.393C12.1958 19.1242 12.0613 18.9225 11.8597 18.7209C11.6581 18.5193 11.4564 18.3848 11.1876 18.2504C10.9187 18.1832 10.6499 18.116 10.381 18.116Z" fill="white"/>
<path fill-rule="evenodd" clip-rule="evenodd" d="M18.648 17.4439C19.3873 16.7045 20.3955 16.3013 21.4037 16.3013C22.4119 16.3013 23.42 16.7045 24.1594 17.4439C24.8987 18.1832 25.302 19.1914 25.302 20.1996C25.302 21.2078 24.8987 22.2159 24.1594 22.9553C23.42 23.6946 22.4119 24.0979 21.4037 24.0979C20.3955 24.0979 19.3873 23.6946 18.648 22.9553C17.9086 22.2159 17.5054 21.2078 17.5054 20.1996C17.5054 19.1914 17.9086 18.1832 18.648 17.4439ZM21.4709 18.116C20.9332 18.116 20.3955 18.3176 19.9922 18.7209C19.5889 19.1242 19.3873 19.6619 19.3873 20.1996C19.3873 20.7373 19.5889 21.275 19.9922 21.6782C20.3955 22.0815 20.9332 22.2831 21.4709 22.2831C22.0086 22.2831 22.5463 22.0815 22.9496 21.6782C23.3528 21.275 23.5545 20.7373 23.5545 20.1996C23.5545 19.6619 23.3528 19.1242 22.9496 18.7209C22.5463 18.3176 22.0086 18.116 21.4709 18.116Z" fill="white"/>
</g>
</g>
<defs>
<linearGradient id="paint0_linear_1934_309" x1="0.463039" y1="2.40235" x2="31.1317" y2="29.243" gradientUnits="userSpaceOnUse">
<stop stop-color="#4BAFFF"/>
<stop offset="1" stop-color="#4F4BFF" stop-opacity="0.9294"/>
</linearGradient>
<clipPath id="clip0_1934_309">
<rect width="32" height="32" fill="white"/>
</clipPath>
</defs>
</svg>
