<svg width="32" height="32" viewBox="0 0 32 32" fill="none" xmlns="http://www.w3.org/2000/svg">
<g clip-path="url(#clip0_1934_21)">
<mask id="mask0_1934_21" style="mask-type:luminance" maskUnits="userSpaceOnUse" x="0" y="0" width="32" height="32">
<path d="M32 0H0V32H32V0Z" fill="white"/>
</mask>
<g mask="url(#mask0_1934_21)">
<path d="M28.72 0H3.28C1.48 0 0 1.48 0 3.28V28.76C0 30.52 1.48 32 3.28 32H28.76C30.56 32 32.04 30.52 32.04 28.72V3.28C32 1.48 30.52 0 28.72 0Z" fill="#1C8ADB"/>
<path d="M24.72 8.28018L24.4 8.40018L6.44 14.8802C6.32 14.9202 6.2 15.0002 6.12 15.1202C6.04 15.2002 6 15.3202 6 15.4802C6 15.6002 6.04 15.7602 6.16 15.8402C6.24 15.9602 6.36 16.0002 6.48 16.0402L11.12 17.3202L12 19.8802L12.88 22.4402C12.92 22.5602 13 22.6802 13.12 22.7602C13.24 22.8402 13.36 22.9202 13.48 22.9202C13.6 22.9602 13.76 22.9602 13.88 22.9202C14 22.8802 14.12 22.8002 14.24 22.7202L16.64 20.4402L21.36 23.6402C21.92 24.0402 22.76 23.7602 22.92 23.0802L26.04 9.28018C26.12 8.60018 25.4 8.04018 24.72 8.28018ZM22.44 11.3202L14.32 17.9602L13.92 18.2802C13.84 18.3602 13.8 18.4402 13.76 18.5602L13.68 19.2802L13.44 21.2802C13.44 21.3202 13.44 21.3202 13.4 21.3602C13.4 21.3602 13.36 21.4002 13.32 21.4002C13.28 21.4002 13.28 21.4002 13.24 21.3602C13.24 21.3602 13.2 21.3202 13.2 21.2802L12.52 19.2802L11.84 17.2402C11.8 17.1602 11.8 17.0402 11.84 16.9602C11.88 16.8802 11.96 16.8002 12.04 16.7602L20.48 11.9202L22.08 11.0002C22.4 10.8802 22.64 11.1602 22.44 11.3202Z" fill="white"/>
</g>
</g>
<defs>
<clipPath id="clip0_1934_21">
<rect width="32" height="32" fill="white"/>
</clipPath>
</defs>
</svg>
