<svg width="32" height="32" viewBox="0 0 32 32" fill="none" xmlns="http://www.w3.org/2000/svg">
<g clip-path="url(#clip0_1934_212)">
<mask id="mask0_1934_212" style="mask-type:luminance" maskUnits="userSpaceOnUse" x="0" y="0" width="32" height="32">
<path d="M32 0H0V32H32V0Z" fill="white"/>
</mask>
<g mask="url(#mask0_1934_212)">
<path fill-rule="evenodd" clip-rule="evenodd" d="M3.28 0H28.56H28.72C30.52 0 32 1.48 32.04 3.28V28.72C32.04 30.52 30.56 32 28.76 32H3.28C1.48 32 0 30.52 0 28.76V3.28C0 1.48 1.48 0 3.28 0ZM7.91996 24.6C9.79996 26.96 12.56 28.12 16.2 28.16C19.4 28.12 21.68 27.28 23.68 25.44C26.12 23.04 26.04 20.04 25.24 18.2C24.64 16.88 23.56 15.8 22.04 15.08C21.92 15 21.84 14.96 21.72 14.92C21.52 11.48 19.6 9.52004 16.36 9.48004H16.32C14.4 9.48004 12.8 10.28 11.8 11.76L13.56 12.96C14.32 11.88 15.48 11.64 16.32 11.64H16.36C17.44 11.68 18.24 11.96 18.76 12.56C19.16 12.96 19.4 13.56 19.52 14.32C18.6 14.16 17.56 14.08 16.48 14.16C15 14.24 13.72 14.72 12.84 15.48C11.88 16.28 11.4 17.4 11.48 18.6C11.52 19.84 12.16 20.92 13.24 21.6C14.12 22.16 15.32 22.48 16.52 22.4C18.12 22.32 19.4 21.72 20.28 20.6C20.92 19.76 21.36 18.64 21.56 17.28C22.32 17.72 22.88 18.32 23.2 19.04C23.72 20.24 23.76 22.24 22.08 23.88C20.6 25.32 18.84 25.96 16.2 25.96C13.28 25.92 11.04 25 9.59996 23.2C8.23996 21.52 7.55996 19.08 7.51996 15.96C7.55996 12.84 8.23996 10.4 9.59996 8.72004C11.04 6.92004 13.24 6.00004 16.2 5.96004C20.64 6.00004 23.48 8.04004 24.6 12.04L26.68 11.48C26 9.12004 24.8 7.28004 23.12 5.96004C21.32 4.56004 18.96 3.84004 16.2 3.84004C12.56 3.88004 9.79996 5.08004 7.91996 7.40004C6.23996 9.48004 5.39996 12.36 5.35996 16C5.39996 19.64 6.23996 22.52 7.91996 24.6ZM16.44 16.36C16.72 16.32 16.96 16.32 17.2 16.32C18 16.32 18.76 16.4 19.4 16.56C19.12 19.76 17.52 20.24 16.28 20.32C14.96 20.4 13.56 19.8 13.48 18.52C13.44 17.32 14.6 16.48 16.44 16.36Z" fill="black"/>
</g>
</g>
<defs>
<clipPath id="clip0_1934_212">
<rect width="32" height="32" fill="white"/>
</clipPath>
</defs>
</svg>
