<svg width="32" height="32" viewBox="0 0 32 32" fill="none" xmlns="http://www.w3.org/2000/svg">
<g clip-path="url(#clip0_1934_3)">
<mask id="mask0_1934_3" style="mask-type:luminance" maskUnits="userSpaceOnUse" x="0" y="0" width="32" height="32">
<path d="M32 0H0V32H32V0Z" fill="white"/>
</mask>
<g mask="url(#mask0_1934_3)">
<path d="M28.72 0H3.28C1.48 0 0 1.48 0 3.28V28.76C0 30.52 1.48 32 3.28 32H28.76C30.56 32 32.04 30.52 32.04 28.72V3.28C32 1.48 30.52 0 28.72 0ZM25.88 13.92C23.84 13.92 21.96 13.28 20.44 12.16V20.12C20.44 23.12 18.6 25.92 15.72 26.88C13.28 27.72 10.88 27.24 9.12 26C7.28 24.68 6.04 22.56 6.04 20.12C6.04 16.16 9.28 12.92 13.24 12.92C13.56 12.92 13.88 12.96 14.2 13V17C13.4 16.76 12.44 16.76 11.48 17.36C10.84 17.76 10.36 18.36 10.12 19.04C9.6 20.72 10.36 22.32 11.72 23C12.16 23.24 12.68 23.36 13.24 23.36C15 23.36 16.44 21.96 16.52 20.2V4.56H20.44C20.44 4.88 20.48 5.24 20.52 5.56C20.8 7.04 21.68 8.32 22.92 9.12C23.76 9.68 24.8 10 25.88 10V13.92Z" fill="black"/>
</g>
</g>
<defs>
<clipPath id="clip0_1934_3">
<rect width="32" height="32" fill="white"/>
</clipPath>
</defs>
</svg>
