<svg width="32" height="32" viewBox="0 0 32 32" fill="none" xmlns="http://www.w3.org/2000/svg">
<g clip-path="url(#clip0_1934_77)">
<path fill-rule="evenodd" clip-rule="evenodd" d="M28.76 0H3.28C1.48 0 0 1.48 0 3.28V28.72C0 30.52 1.48 32 3.28 32.04H28.72C30.52 32.04 32 30.56 32 28.76V3.28C32 1.48 30.52 0 28.76 0ZM25.1199 10.32C25.1199 8.80004 24.7999 7.60004 24.0799 6.44004L17.9999 7.68004C18.3999 8.48004 18.6399 9.48004 18.6399 10.92C18.6399 13.56 16.7599 17.44 15.2399 19.92L13.5999 6.84004L6.91992 7.52004L9.99992 25.88H17.6399C20.9999 21.44 25.1199 15.16 25.1199 10.32Z" fill="#008CFF"/>
</g>
<defs>
<clipPath id="clip0_1934_77">
<rect width="32" height="32" fill="white"/>
</clipPath>
</defs>
</svg>
