<svg width="32" height="32" viewBox="0 0 32 32" fill="none" xmlns="http://www.w3.org/2000/svg">
<g clip-path="url(#clip0_1934_164)">
<mask id="mask0_1934_164" style="mask-type:luminance" maskUnits="userSpaceOnUse" x="0" y="0" width="32" height="32">
<path d="M32 0H0V32H32V0Z" fill="white"/>
</mask>
<g mask="url(#mask0_1934_164)">
<path d="M28.72 0H3.28C1.48 0 0 1.48 0 3.28V28.76C0 30.52 1.48 32 3.28 32H28.76C30.56 32 32.04 30.52 32.04 28.72V3.28C32 1.48 30.52 0 28.72 0Z" fill="#2DC100"/>
<path d="M17.32 8.71982C11.76 5.55982 4.84 9.95982 6.16 15.1598C6.52 16.6798 7.6 17.9998 8.88 18.8398C8.64 19.5598 8.4 20.2398 8.16 20.9598C8.96 20.5198 9.8 20.0798 10.6 19.6398C11.6 19.9598 12.6 20.1198 13.64 20.0798C12.36 16.3998 15.64 12.5198 20.48 12.8798C20.16 11.1198 18.88 9.59982 17.32 8.71982ZM10.76 12.7598C10.56 12.7598 10.36 12.6798 10.16 12.5998C10 12.4798 9.84 12.3198 9.76 12.1198C9.68 11.9198 9.64 11.7198 9.72 11.5198C9.8 11.3198 9.88 11.1198 10 10.9998C10.12 10.8798 10.32 10.7598 10.52 10.7198C10.72 10.6798 10.92 10.7198 11.12 10.7598C11.32 10.8398 11.48 10.9598 11.6 11.1598C11.72 11.3198 11.76 11.5198 11.76 11.7598C11.76 12.0398 11.64 12.3198 11.44 12.5198C11.24 12.7198 11.04 12.7598 10.76 12.7598ZM15.76 12.7598C15.56 12.7598 15.36 12.6798 15.16 12.5998C15 12.4798 14.84 12.3198 14.76 12.1198C14.68 11.9198 14.64 11.7198 14.68 11.5198C14.72 11.3198 14.84 11.1198 14.96 10.9998C15.12 10.8398 15.28 10.7598 15.48 10.7198C15.68 10.6798 15.88 10.7198 16.08 10.7598C16.28 10.8398 16.44 10.9598 16.56 11.1598C16.68 11.3198 16.72 11.5198 16.72 11.7598C16.72 12.0398 16.6 12.3198 16.4 12.5198C16.2 12.7198 16.04 12.7598 15.76 12.7598Z" fill="white"/>
<path d="M23.0401 13.9999C17.7201 11.2799 11.6801 16.2799 14.4401 20.7999C15.7201 22.9199 18.6801 24.2799 22.2001 23.2799C22.9201 23.5599 23.5201 23.9999 24.2001 24.3199C24.0001 23.7199 23.8401 23.1599 23.6401 22.5599C27.2401 19.9999 26.4401 15.7599 23.0401 13.9999ZM17.8801 17.5999C17.7201 17.5999 17.5601 17.5599 17.4401 17.4799C17.3201 17.3999 17.2001 17.2799 17.1201 17.1199C17.0401 16.9599 17.0401 16.7999 17.0801 16.6399C17.1201 16.4799 17.2001 16.3199 17.3201 16.2399C17.4401 16.1199 17.5601 16.0399 17.7201 15.9999C17.8801 15.9599 18.0401 15.9999 18.2001 16.0399C18.3601 16.1199 18.4801 16.1999 18.5601 16.3599C18.6401 16.4799 18.6801 16.6399 18.6801 16.7999C18.6801 16.9999 18.6001 17.2399 18.4401 17.3599C18.2801 17.5199 18.0801 17.5999 17.8801 17.5999ZM21.8801 17.5999C21.7201 17.5999 21.5601 17.5599 21.4401 17.4799C21.3201 17.3999 21.2001 17.2799 21.1201 17.1199C21.0401 16.9599 21.0401 16.7999 21.0801 16.6399C21.1201 16.4799 21.2001 16.3199 21.3201 16.2399C21.4401 16.1199 21.5601 16.0399 21.7201 15.9999C21.8801 15.9599 22.0401 15.9999 22.2001 16.0399C22.3601 16.1199 22.4801 16.1999 22.5601 16.3599C22.6401 16.4799 22.6801 16.6399 22.6801 16.7999C22.6801 16.9999 22.6001 17.2399 22.4401 17.3599C22.2801 17.5199 22.0801 17.5999 21.8801 17.5999Z" fill="white"/>
</g>
</g>
<defs>
<clipPath id="clip0_1934_164">
<rect width="32" height="32" fill="white"/>
</clipPath>
</defs>
</svg>
