<svg width="32" height="32" viewBox="0 0 32 32" fill="none" xmlns="http://www.w3.org/2000/svg">
<g clip-path="url(#clip0_1934_30)">
<mask id="mask0_1934_30" style="mask-type:luminance" maskUnits="userSpaceOnUse" x="0" y="0" width="32" height="32">
<path d="M32 0H0V32H32V0Z" fill="white"/>
</mask>
<g mask="url(#mask0_1934_30)">
<path d="M28.72 0H3.28C1.48 0 0 1.48 0 3.28V28.76C0 30.52 1.48 32 3.28 32H28.76C30.56 32 32.04 30.52 32.04 28.72V3.28C32 1.48 30.52 0 28.72 0Z" fill="url(#paint0_linear_1934_30)"/>
<path d="M23.0401 8.95976C21.3601 7.27976 19.1601 6.23976 16.8001 6.03976C14.4401 5.83976 12.0801 6.47976 10.1601 7.87976C8.24007 9.27976 6.88007 11.2798 6.32007 13.5998C5.76007 15.8798 6.04007 18.3198 7.12007 20.4398L6.08007 25.5598C6.08007 25.5998 6.08007 25.6798 6.08007 25.7198C6.08007 25.7598 6.12007 25.7998 6.16007 25.8798C6.20007 25.9598 6.28007 25.9998 6.32007 26.0398C6.40007 26.0798 6.48007 26.0798 6.56007 26.0398L11.6001 24.7998C13.7201 25.8398 16.1201 26.1198 18.4001 25.5598C20.6801 24.9998 22.6801 23.6398 24.0801 21.7598C25.4401 19.8398 26.1201 17.5198 25.9201 15.1998C25.7201 12.7998 24.7201 10.5998 23.0401 8.95976ZM21.4801 21.3998C20.3201 22.5598 18.8401 23.3198 17.2401 23.5598C15.6401 23.8398 14.0001 23.5598 12.5201 22.8398L11.8401 22.4798L8.76007 23.1998V23.1598L9.40007 20.0798L9.04007 19.3998C8.28007 17.9198 8.04007 16.2798 8.28007 14.6398C8.52007 12.9998 9.28007 11.5198 10.4401 10.3598C11.8801 8.91976 13.8801 8.07976 15.9201 8.07976C17.9601 8.07976 19.9601 8.87976 21.4001 10.3598L21.4401 10.3998C22.8801 11.8798 23.6801 13.8398 23.6801 15.8798C23.6801 17.9198 22.9601 19.9598 21.4801 21.3998Z" fill="white"/>
<path d="M21.2001 19.1598C20.8401 19.7598 20.2401 20.4798 19.4801 20.6398C18.1601 20.9598 16.1601 20.6398 13.6801 18.3198L13.6401 18.2798C11.4401 16.2398 10.8801 14.5598 11.0001 13.1998C11.0801 12.4398 11.7201 11.7598 12.2401 11.2798C12.3201 11.1998 12.4401 11.1598 12.5201 11.1198C12.6401 11.0798 12.7601 11.0798 12.8401 11.1198C12.9601 11.1598 13.0401 11.1998 13.1201 11.2798C13.2001 11.3598 13.2801 11.4398 13.3201 11.5598L14.1201 13.3598C14.1601 13.4798 14.2001 13.5998 14.1601 13.7198C14.1601 13.8398 14.0801 13.9598 14.0001 14.0798L13.6001 14.5998C13.5201 14.7198 13.4401 14.8398 13.4401 14.9998C13.4401 15.1198 13.4401 15.2798 13.5201 15.3998C13.7601 15.7998 14.2801 16.3998 14.9201 16.9198C15.6001 17.5198 16.3601 18.1198 16.8401 18.2798C16.9601 18.3198 17.1201 18.3598 17.2401 18.3198C17.3601 18.2798 17.4801 18.2398 17.6001 18.1198L18.0801 17.6398C18.1601 17.5598 18.2801 17.4798 18.4001 17.4398C18.5201 17.3998 18.6401 17.3998 18.7601 17.4398L20.6801 17.9998C20.8001 18.0398 20.8801 18.0798 20.9601 18.1598C21.0401 18.2398 21.1201 18.3198 21.1601 18.4398C21.2001 18.5598 21.2001 18.6398 21.2001 18.7598C21.3201 18.9598 21.2801 19.0398 21.2001 19.1598Z" fill="white"/>
</g>
</g>
<defs>
<linearGradient id="paint0_linear_1934_30" x1="16" y1="0.13092" x2="16" y2="30.4509" gradientUnits="userSpaceOnUse">
<stop stop-color="#35DB23"/>
<stop offset="1" stop-color="#27A11A"/>
</linearGradient>
<clipPath id="clip0_1934_30">
<rect width="32" height="32" fill="white"/>
</clipPath>
</defs>
</svg>
