<svg width="32" height="32" viewBox="0 0 32 32" fill="none" xmlns="http://www.w3.org/2000/svg">
<g clip-path="url(#clip0_1934_101)">
<path fill-rule="evenodd" clip-rule="evenodd" d="M28.76 0H3.28C1.48 0 0 1.48 0 3.28V28.72C0 30.52 1.48 32 3.28 32.04H28.72C30.52 32.04 32 30.56 32 28.76V3.28C32 1.48 30.52 0 28.76 0ZM20.6399 11.5199L21.3199 11.3599C21.3399 11.3599 21.3499 11.3599 21.3549 11.3649C21.3599 11.3699 21.3599 11.3799 21.3599 11.3999C21.5199 11.3599 21.7199 11.2399 21.7999 11.0799C21.8799 10.9199 21.9199 10.7199 21.8799 10.5199L21.7599 10.2799C21.6799 10.1599 21.5999 10.0799 21.4799 10.0399C21.4199 10.0199 21.3499 9.98992 21.2799 9.95992C21.2099 9.92992 21.1399 9.89992 21.0799 9.87992L20.3199 9.59992C20.079 9.50355 19.8381 9.42169 19.5884 9.33686C19.4236 9.28085 19.2549 9.22355 19.0799 9.15992C19.0399 9.11992 18.9599 9.07992 18.9199 9.07992C18.8048 9.0569 18.703 9.02063 18.6067 8.98635C18.5358 8.96108 18.4679 8.9369 18.3999 8.91992C18.3799 8.91992 18.3599 8.90992 18.3399 8.89992C18.3199 8.88992 18.2999 8.87992 18.2799 8.87992C18.0399 8.79992 17.8799 8.75992 17.7199 8.75992C17.6399 8.75992 17.5199 8.75992 17.4399 8.79992C17.3599 8.83992 17.2799 8.87992 17.1999 8.95992C17.1999 8.99992 17.1599 9.03992 17.1199 9.07992C17.0588 9.14104 17.0211 9.2255 16.9888 9.29763C16.9788 9.31992 16.9694 9.34104 16.9599 9.35992C16.8399 9.75992 16.7599 10.1599 16.7599 10.5999C16.7599 10.9599 16.7999 11.4799 16.9999 11.7999C17.0399 11.8799 17.1199 11.9599 17.1999 11.9999C17.3599 12.0799 17.5199 12.1199 17.6799 12.1199C17.871 12.1518 18.0621 12.1076 18.2329 12.068C18.2767 12.0579 18.3192 12.0481 18.3599 12.0399H18.3999L20.6399 11.5199ZM28.1999 7.99992C28.0399 7.59992 27.7999 7.27992 27.4799 6.95992C27.4399 6.91992 27.3999 6.87992 27.3199 6.87992C27.2999 6.85992 27.2799 6.84992 27.2599 6.83992C27.2399 6.82992 27.2199 6.81992 27.1999 6.79992C27.1599 6.75992 27.1199 6.71992 27.0799 6.71992C26.9999 6.67992 26.9199 6.67992 26.7999 6.67992C26.6799 6.67992 26.5999 6.71992 26.5199 6.75992C26.4299 6.78992 26.3399 6.86493 26.2162 6.96806C26.1749 7.00243 26.1299 7.03993 26.0799 7.07992L25.9999 7.15992H25.9599L25.5599 7.55992L25.4399 7.67992C25.2799 7.83993 25.1299 7.99993 24.9799 8.15994C24.8299 8.31993 24.6799 8.47993 24.5199 8.63992L23.9599 9.19992C23.8399 9.27992 23.7599 9.39992 23.6799 9.51992C23.5999 9.59992 23.5599 9.71992 23.5199 9.83992C23.4926 9.89459 23.5026 9.96794 23.5117 10.0344C23.5159 10.0653 23.5199 10.0946 23.5199 10.1199C23.5599 10.2799 23.6799 10.4399 23.8399 10.5599C23.9999 10.6799 24.1999 10.7199 24.3999 10.6799H24.4799L27.3999 9.99992H27.4399C27.6799 9.95992 27.8799 9.91992 28.0799 9.79992C28.0994 9.78694 28.1199 9.77396 28.141 9.76063C28.2498 9.69185 28.3729 9.61396 28.4399 9.47992C28.4799 9.39992 28.5199 9.27992 28.5199 9.19992C28.5592 8.80773 28.3677 8.37709 28.2094 8.0211L28.1999 7.99992ZM22.9599 9.19992C23.1599 8.95992 23.1999 8.63992 23.1999 8.31992V8.19992C23.1999 8.09992 23.2099 8.00992 23.2199 7.91992C23.2299 7.82992 23.2399 7.73992 23.2399 7.63992C23.3199 6.75992 23.3599 5.87992 23.3999 4.99992V4.67992C23.4399 4.39992 23.4399 4.11992 23.4399 3.79992V3.71992C23.4331 3.6649 23.4274 3.6087 23.4216 3.55212C23.394 3.27967 23.3656 2.99866 23.1999 2.79992C22.7999 2.31992 21.9999 2.35992 21.4399 2.39992C21.2399 2.39992 21.0799 2.43992 20.9199 2.47992C20.7199 2.51992 20.5599 2.55992 20.3999 2.59992C19.8799 2.75992 19.1199 3.07992 18.9999 3.67992C18.9599 3.99992 19.0799 4.31992 19.1999 4.59992C19.1999 4.61992 19.2099 4.62992 19.2199 4.63992C19.2299 4.64992 19.2399 4.65992 19.2399 4.67992C19.3199 4.95992 19.4799 5.23992 19.6399 5.47992C19.6599 5.51992 19.6899 5.56992 19.7199 5.61992C19.7499 5.66992 19.7799 5.71992 19.7999 5.75992C20.2399 6.59992 20.6799 7.39992 21.1599 8.19992C21.1999 8.35992 21.2799 8.47992 21.3599 8.59992C21.3599 8.61992 21.3699 8.62992 21.3799 8.63992C21.3899 8.64992 21.3999 8.65992 21.3999 8.67992C21.4272 8.72076 21.4544 8.7639 21.4822 8.80799C21.6179 9.02302 21.7676 9.26034 21.9999 9.35992C22.0229 9.38293 22.0327 9.3927 22.0445 9.39685C22.0532 9.39992 22.063 9.39992 22.0799 9.39992C22.2399 9.47992 22.3599 9.47992 22.5199 9.43992H22.5599C22.7199 9.39992 22.8399 9.31992 22.9199 9.23992L22.9599 9.19992ZM22.7199 12.0399C22.6399 11.9199 22.5199 11.8399 22.3999 11.7999C22.2399 11.7599 22.1199 11.7599 22.0399 11.7599C22.0399 11.7599 21.9999 11.7999 21.9599 11.7999C21.9399 11.8199 21.9199 11.8299 21.8999 11.8399C21.8799 11.8499 21.8599 11.8599 21.8399 11.8799C21.7199 11.9599 21.5999 12.0799 21.5199 12.1999C21.4799 12.1999 21.4799 12.2399 21.4799 12.2399C21.4799 12.2799 21.4399 12.3199 21.4399 12.3199L20.9599 12.9599C20.8199 13.1399 20.6899 13.3199 20.5599 13.4999C20.4299 13.6799 20.2999 13.8599 20.1599 14.0399C20.1399 14.0599 20.1299 14.0799 20.1199 14.0999C20.1099 14.1199 20.0999 14.1399 20.0799 14.1599C19.9199 14.3199 19.7999 14.4799 19.7199 14.6399C19.6799 14.6399 19.6799 14.6799 19.6799 14.6799C19.6799 14.7199 19.6399 14.7599 19.6399 14.7599C19.4799 14.9999 19.3999 15.1599 19.3599 15.2799C19.3199 15.3599 19.3199 15.4799 19.3199 15.5599C19.3399 15.5999 19.3599 15.6499 19.3799 15.6999C19.3999 15.7499 19.4199 15.7999 19.4399 15.8399C19.4399 15.8799 19.4799 15.9199 19.5199 15.9599C19.5599 15.9999 19.5999 16.0299 19.6399 16.0599C19.6799 16.0899 19.7199 16.1199 19.7599 16.1599C20.0799 16.3999 20.4399 16.5599 20.7999 16.6799C21.1199 16.7999 21.4399 16.8799 21.7599 16.8799H21.9199C21.9599 16.8399 22.0399 16.8399 22.0799 16.8399C22.1268 16.8399 22.1599 16.8262 22.1874 16.8148C22.2068 16.8068 22.2234 16.7999 22.2399 16.7999C22.3199 16.7599 22.3999 16.7199 22.4799 16.6399C22.5599 16.5599 22.5999 16.4799 22.6399 16.3999C22.6799 16.2799 22.7199 16.0799 22.7599 15.8399V15.7599V15.7199C22.7999 15.5199 22.7999 15.3599 22.7999 15.1199V14.9599C22.7999 14.7399 22.8099 14.5199 22.8199 14.2999C22.8299 14.0799 22.8399 13.8599 22.8399 13.6399L22.8799 12.8399C22.8799 12.6799 22.8799 12.4799 22.8399 12.2799L22.7199 12.0399ZM28.0399 13.3199C27.9599 13.1999 27.8399 13.0799 27.5999 12.9599C27.5599 12.9199 27.5599 12.9199 27.5999 12.9199H27.5599C27.541 12.9073 27.521 12.8936 27.4999 12.8792C27.3883 12.8029 27.2483 12.7073 27.0799 12.6399C27.0399 12.6399 26.9599 12.5999 26.9199 12.5599C26.5199 12.3199 26.1199 12.1199 25.7199 11.9199L24.9999 11.5599C24.9799 11.5599 24.9699 11.5499 24.9599 11.5399C24.9499 11.5299 24.9399 11.5199 24.9199 11.5199H24.8799C24.7199 11.4399 24.5999 11.3999 24.4399 11.3599H24.2799H24.1599C24.0399 11.3999 23.9199 11.4799 23.7999 11.5599C23.693 11.6312 23.6496 11.7661 23.6131 11.8796C23.6086 11.8934 23.6043 11.9069 23.5999 11.9199C23.5726 12.0019 23.5826 12.0653 23.5917 12.1227C23.5959 12.1493 23.5999 12.1746 23.5999 12.1999C23.6399 12.3599 23.7199 12.5599 23.7999 12.7199L24.1599 13.3999C24.2599 13.5999 24.3699 13.7899 24.48 13.9799C24.59 14.1699 24.6999 14.3599 24.7999 14.5599C24.8152 14.5905 24.8247 14.6152 24.8327 14.6363C24.8458 14.6705 24.8552 14.6952 24.8799 14.7199C24.9999 14.8799 25.0799 15.0399 25.1599 15.1999V15.2399C25.1599 15.2599 25.1699 15.2699 25.1799 15.2799C25.1899 15.2899 25.1999 15.2999 25.1999 15.3199C25.2556 15.3894 25.3015 15.4541 25.3428 15.5123C25.4204 15.6215 25.4817 15.7077 25.5599 15.7599C25.5922 15.8245 25.6767 15.863 25.7501 15.8965C25.7676 15.9045 25.7845 15.9122 25.7999 15.9199C25.8799 15.9599 25.9999 15.9599 26.0799 15.9599C26.0999 15.9599 26.1299 15.9499 26.1599 15.9399C26.1899 15.9299 26.2199 15.9199 26.2399 15.9199L26.24 15.9199C26.36 15.8799 26.48 15.8399 26.5599 15.7999C26.8799 15.6799 27.1199 15.4799 27.3599 15.2399C27.6399 14.9599 27.8799 14.6799 28.0799 14.3199C28.1199 14.2799 28.1599 14.1999 28.1599 14.1599C28.1599 14.1131 28.1737 14.0799 28.185 14.0525C28.1931 14.0331 28.1999 14.0165 28.1999 13.9999C28.2399 13.9599 28.2399 13.8799 28.2399 13.8399C28.2399 13.7599 28.2399 13.6399 28.1999 13.5599C28.1599 13.4799 28.1199 13.3999 28.0399 13.3199ZM18.2799 19.6799C18.2799 19.1999 18.6799 18.7999 19.1599 18.7999C19.6399 18.7999 20.0399 19.1999 20.0399 19.6799V26.4399C20.0399 26.9199 19.6399 27.3199 19.1599 27.3199C19.0799 27.3199 18.9599 27.2799 18.8399 27.2399C18.7199 27.1999 18.6399 27.1199 18.5599 27.0399C18.4799 26.9599 18.3999 26.8799 18.3599 26.7599C18.3199 26.6799 18.2799 26.5599 18.2799 26.4399V19.6799ZM17.4799 23.8399C17.4799 23.9599 17.4399 24.1999 17.2799 24.3999C17.0799 24.5999 16.8399 24.6399 16.7599 24.5599H14.8799H12.9999C13.0399 24.7199 13.1599 24.9599 13.3999 25.1999C13.5599 25.3199 13.6799 25.3999 13.7599 25.4399C13.7999 25.5199 14.0799 25.6399 14.3999 25.6399C14.7199 25.6399 15.0399 25.5599 15.3199 25.3999H15.3599C15.4178 25.3768 15.4756 25.3503 15.5344 25.3234C15.679 25.2572 15.8294 25.1884 15.9999 25.1599C16.2399 25.1199 16.4799 25.1599 16.6399 25.3199C16.8399 25.4799 16.9199 25.7199 16.8399 25.9999C16.7599 26.3199 16.5199 26.5599 16.2399 26.7199C16.0799 26.8399 15.9199 26.9199 15.7599 26.9599C15.3199 27.1199 14.8799 27.1599 14.4399 27.1599H14.0799C14.0199 27.1399 13.9599 27.1299 13.8999 27.1199C13.8399 27.1099 13.7799 27.0999 13.7199 27.0799C13.5199 27.0399 13.3199 26.9599 13.1599 26.8799L13.1599 26.8799C12.9999 26.7999 12.8399 26.7199 12.6799 26.5999C12.5199 26.4799 12.3599 26.3599 12.2399 26.2399C12.1199 26.1199 11.9999 25.9599 11.8799 25.7999C11.4799 25.2399 11.3199 24.5599 11.3599 23.9199C11.3999 23.2799 11.5999 22.6399 11.9999 22.1199C12.0199 22.0999 12.0399 22.0699 12.0599 22.0399C12.0799 22.0099 12.0999 21.9799 12.1199 21.9599L12.1599 21.9199C12.6399 21.3599 13.2799 21.1599 13.5599 21.0799C14.1199 20.9199 14.6799 20.9199 15.2399 21.0799C15.3999 21.1199 16.1199 21.3199 16.6799 21.9199L16.68 21.9199C16.72 21.9599 16.8 22.0399 16.8799 22.1599C17.1199 22.4799 17.2799 22.8399 17.3999 23.2399C17.4399 23.3999 17.4799 23.5999 17.4799 23.8399ZM13.4799 22.7599C13.2399 22.9599 13.0399 23.2799 12.9599 23.5999H15.9199C15.8399 23.2799 15.6799 22.9599 15.3999 22.7599C15.1199 22.5599 14.7999 22.4399 14.4399 22.4399C14.0799 22.4399 13.7599 22.5599 13.4799 22.7599ZM24.7999 20.9199C23.9999 20.9199 23.3199 21.2799 22.7999 21.8399C22.7999 21.5999 22.7199 21.3999 22.4799 21.2399C22.3199 21.0799 22.1199 20.9599 21.8799 20.9999C21.6399 21.0399 21.4399 21.1199 21.2799 21.2799C21.1199 21.4399 21.0399 21.6399 21.0399 21.8799V28.2799C21.0399 28.3749 21.065 28.4448 21.0953 28.5293C21.1033 28.5516 21.1116 28.5749 21.1199 28.5999C21.1599 28.7199 21.2399 28.7999 21.3199 28.8799C21.3999 28.9599 21.4799 29.0399 21.5999 29.0799C21.6799 29.1199 21.7999 29.1599 21.9199 29.1599C21.9999 29.1599 22.1199 29.1199 22.2399 29.0799L22.2399 29.0799C22.3599 29.0399 22.4399 28.9599 22.5199 28.8799C22.5999 28.7999 22.6799 28.7199 22.7199 28.5999C22.7599 28.5199 22.7999 28.3999 22.7999 28.2799V26.2799C23.3199 26.8399 23.9999 27.1999 24.7999 27.1999C26.3599 27.1999 27.6399 25.7999 27.6399 24.0799C27.6399 22.3199 26.3599 20.9199 24.7999 20.9199ZM24.3999 25.8399C23.5199 25.8399 22.7999 25.0799 22.7999 24.1199C22.7999 23.1599 23.5199 22.3999 24.3999 22.3999C25.2799 22.3999 25.9999 23.1599 25.9999 24.1199C25.9999 25.0799 25.2799 25.8399 24.3999 25.8399ZM9.99995 24.5599L9.71995 25.1599C9.59995 25.4399 9.47995 25.7199 9.27995 25.9199L9.15995 26.1599C9.14656 26.1886 9.13313 26.2174 9.11964 26.2464C8.56892 27.4281 7.92648 28.8066 6.55995 29.0799C5.87995 29.2399 4.87995 29.0399 4.47995 28.3999C4.11995 27.7599 4.67995 27.0399 5.39995 27.1999C5.47994 27.1999 5.55994 27.2355 5.63994 27.271C5.67994 27.2888 5.71994 27.3066 5.75995 27.3199C5.95995 27.4399 6.15995 27.5199 6.35995 27.4799C6.55995 27.4399 6.67995 27.3199 6.83995 27.1199C7.07995 26.8399 7.15995 26.5999 7.19995 26.4399V26.3999V26.3599C6.99995 26.0399 6.83995 25.7599 6.71995 25.5199C6.67995 25.4599 6.63995 25.3899 6.59995 25.3199C6.55995 25.2499 6.51995 25.1799 6.47995 25.1199L6.19995 24.5599C5.95995 24.1599 5.91995 24.0799 5.83995 23.9199C5.71994 23.7199 5.60994 23.5299 5.49994 23.3399C5.38994 23.1499 5.27994 22.9599 5.15995 22.7599C4.87995 22.3599 4.63995 21.8799 4.83995 21.3999C4.91995 21.1999 5.03995 21.0399 5.23995 20.9599C5.43995 20.8799 5.63995 20.8399 5.83995 20.9199C6.24148 21.0294 6.40983 21.3721 6.5882 21.7352C6.60528 21.77 6.62246 21.805 6.63995 21.8399V21.8799C6.65995 21.8999 6.66995 21.9299 6.67995 21.9599C6.68995 21.9899 6.69995 22.0199 6.71995 22.0399C6.96065 22.4612 7.17872 22.905 7.39118 23.3375C7.46118 23.4799 7.53056 23.6212 7.59995 23.7599L7.71995 23.9999C7.79995 24.0799 7.83995 24.1599 7.87995 24.2799L7.95995 24.4399C7.99995 24.4399 7.99995 24.4799 7.99995 24.4799C7.99995 24.4999 8.00995 24.5199 8.01995 24.5399C8.02995 24.5599 8.03995 24.5799 8.03995 24.5999C8.09995 24.4799 8.14995 24.3499 8.19994 24.2199C8.24994 24.0899 8.29994 23.9599 8.35995 23.8399C8.37995 23.7999 8.38995 23.7699 8.39995 23.7399C8.40995 23.7099 8.41995 23.6799 8.43995 23.6399C8.49995 23.4799 8.56994 23.3199 8.63994 23.1599C8.70994 22.9999 8.77995 22.8399 8.83995 22.6799C8.83995 22.6599 8.84995 22.6399 8.86495 22.6099C8.87995 22.5799 8.89995 22.5399 8.91995 22.4799C8.93206 22.4557 8.94784 22.4278 8.96506 22.3974C9.00472 22.3273 9.05206 22.2436 9.07995 22.1599L9.11995 22.0399C9.13444 22.008 9.14893 21.9757 9.16352 21.9432C9.3504 21.5267 9.55472 21.0712 9.99995 20.9599C10.1599 20.8799 10.3599 20.9199 10.5199 20.9599C10.6799 21.0399 10.7999 21.1199 10.9199 21.2799C11.0399 21.4399 11.0799 21.5999 11.0799 21.7599C11.0799 22.1199 10.9199 22.5199 10.7599 22.8399L10.2799 23.9199C10.2399 24.0199 10.1899 24.1299 10.1399 24.2399C10.0899 24.3499 10.0399 24.4599 9.99995 24.5599Z" fill="#FF3753"/>
</g>
<defs>
<clipPath id="clip0_1934_101">
<rect width="32" height="32" fill="white"/>
</clipPath>
</defs>
</svg>
