<svg width="32" height="32" viewBox="0 0 32 32" fill="none" xmlns="http://www.w3.org/2000/svg">
<g clip-path="url(#clip0_1934_247)">
<mask id="mask0_1934_247" style="mask-type:luminance" maskUnits="userSpaceOnUse" x="0" y="0" width="32" height="32">
<path d="M32 0H0V32H32V0Z" fill="white"/>
</mask>
<g mask="url(#mask0_1934_247)">
<path d="M26.2764 31.4546C19.4472 32.1831 12.56 32.1831 5.73092 31.4546C4.40476 31.3145 3.16668 30.7241 2.22308 29.7818C1.27947 28.8396 0.687364 27.6023 0.54546 26.2764C-0.183122 19.4472 -0.183122 12.56 0.54546 5.73092C0.6855 4.40476 1.27588 3.16668 2.21816 2.22308C3.16044 1.27947 4.39768 0.687364 5.72364 0.54546C12.5528 -0.183122 19.44 -0.183122 26.2691 0.54546C27.5952 0.6855 28.8333 1.27588 29.7769 2.21816C30.7205 3.16044 31.3126 4.39768 31.4546 5.72364C32.1831 12.5528 32.1831 19.44 31.4546 26.2691C31.3145 27.5952 30.7241 28.8333 29.7818 29.7769C28.8396 30.7205 27.6023 31.3126 26.2764 31.4546Z" fill="#E60000"/>
<path d="M25.5327 11.1892C25.1327 9.95835 23.809 9.21287 22.5909 9.04195C18.2093 8.57651 13.7907 8.57651 9.40904 9.04195C8.19088 9.21287 6.8636 9.95107 6.46724 11.1892C5.8436 14.3668 5.8436 17.6353 6.46724 20.8129C6.86724 22.042 8.19088 22.7892 9.40904 22.9602C13.7907 23.4256 18.2093 23.4256 22.5909 22.9602C23.809 22.7892 25.1363 22.0511 25.5327 20.8129C26.1563 17.6353 26.1563 14.3668 25.5327 11.1892ZM13.6072 19.8329V12.1674L19.8472 16.0002C17.7436 17.2929 15.7018 18.5456 13.6072 19.8329Z" fill="white"/>
</g>
</g>
<defs>
<clipPath id="clip0_1934_247">
<rect width="32" height="32" fill="white"/>
</clipPath>
</defs>
</svg>
