<svg width="32" height="32" viewBox="0 0 32 32" fill="none" xmlns="http://www.w3.org/2000/svg">
<path fill-rule="evenodd" clip-rule="evenodd" d="M28.76 0H3.28C1.48 0 0 1.47815 0 3.2759V28.6841C0 30.4819 1.48 31.96 3.28 32H28.72C30.52 32 32 30.5218 32 28.7241V3.2759C32 1.47815 30.52 0 28.76 0ZM14.56 4.3945V7.2709V7.3508H9.76V11.0662H17.44L9.6 20.814L9.56 20.8539C9.44 20.9738 9.36 21.1735 9.36 21.3733V24.2497H14.56V27.5655H18.28V24.2497H23.04V20.5343H14.96L22.8 10.7466C22.96 10.5868 23.04 10.387 23.04 10.1473V7.2709H18.28V4.3945H14.56Z" fill="#AA00FF"/>
</svg>
