<svg width="32" height="32" viewBox="0 0 32 32" fill="none" xmlns="http://www.w3.org/2000/svg">
<path fill-rule="evenodd" clip-rule="evenodd" d="M28.76 0H3.28C1.48 0 0 1.47815 0 3.2759V28.6841C0 30.4819 1.48 31.96 3.28 32H28.72C30.52 32 32 30.5218 32 28.7241V3.2759C32 1.47815 30.52 0 28.76 0ZM20.4621 12.1672C20.1223 11.6815 19.7677 11.1747 19.6 10.9863C19.47 11.0187 19.3321 11.053 19.187 11.0892C16.1179 11.8532 9.83542 13.4172 7.2 14.9813V12.5843L16 5.593L24.8 12.5843V16.1798C22.4 16.3795 17.64 17.0587 15.48 17.9775C15.48 17.9775 15.44 17.9775 15.48 17.9376C16.72 16.3795 21.2 13.1835 21.2 13.1835C21.0668 13.0314 20.7705 12.608 20.4621 12.1672ZM11.2423 22.2349C11.2256 22.2073 11.2112 22.1835 11.2 22.1723L9.8 20.3745C9.76 20.3346 9.76 20.2547 9.8 20.1748C11.08 18.2971 14.12 15.8202 15.8 14.5818C15.3535 14.727 14.6832 14.9206 13.9032 15.146C11.6788 15.7887 8.56232 16.6891 7.2 17.4582V24.769H24.8V19.216C24.5513 19.2567 24.2483 19.3044 23.901 19.3592C20.8404 19.8415 14.3457 20.8651 11.4 22.372C11.3425 22.4007 11.2849 22.3055 11.2423 22.2349Z" fill="#006AFF"/>
</svg>
