<svg width="12" height="24" viewBox="0 0 12 24" fill="none" xmlns="http://www.w3.org/2000/svg">
<path d="M3.99316 18.6938V7.46044L7.60247 5.63672V10.7278H10.7306V13.9699H7.60247V18.6938C7.60247 19.099 7.69739 19.441 7.88738 19.7196C8.07736 19.9981 8.3158 20.1882 8.60298 20.2895C8.83088 20.374 9.0716 20.4162 9.32479 20.4162C9.38371 20.4162 9.44707 20.412 9.51477 20.4035C9.83559 20.3781 10.131 20.2895 10.4013 20.1375L11.6423 22.911C11.0513 23.6373 10.093 24.0002 8.7676 24.0002C8.13437 23.9832 7.53684 23.8609 6.97552 23.633C6.4139 23.405 5.9073 23.0757 5.4558 22.6452C5.00407 22.2145 4.64726 21.6595 4.38567 20.9798C4.124 20.3002 3.99316 19.5381 3.99316 18.6938Z" fill="black"/>
<path d="M2.94169 9.02742C2.87856 9.02742 2.81425 9.01636 2.75178 8.99217C1.25426 8.41838 0.351032 7.27634 0.0673108 5.59762C-0.372836 2.98852 1.3921 0.50731 4.00172 0.0670148C6.61185 -0.371879 9.09203 1.39129 9.53232 4.00046C9.67171 4.83466 9.59494 5.88569 9.34101 6.61716C9.24491 6.89387 8.94194 7.04049 8.66486 6.94469C8.38785 6.84851 8.24131 6.54591 8.3374 6.26853C8.53181 5.70861 8.59369 4.82876 8.48476 4.1768C8.14167 2.14562 6.21035 0.768758 4.1785 1.11495C2.14658 1.45767 0.772299 3.38929 1.11487 5.42084C1.33465 6.72026 1.99436 7.56412 3.1319 8.00029C3.40596 8.10509 3.54298 8.41256 3.43796 8.68647C3.35691 8.89777 3.15542 9.02742 2.94169 9.02742Z" fill="#652DBF"/>
<path d="M3.59419 7.36219C3.49161 7.36219 3.38791 7.33247 3.29653 7.27059C2.91664 7.01328 2.61109 6.67668 2.38851 6.27105C2.01894 5.59593 1.93442 4.81815 2.15022 4.08004C2.36601 3.34194 2.85631 2.73187 3.53084 2.36282C4.2053 1.99274 4.98345 1.90903 5.72118 2.12379C6.45995 2.33966 7.07002 2.83011 7.43899 3.50486C7.68495 3.95378 7.80694 4.46045 7.79211 4.97022C7.78348 5.26353 7.52993 5.50389 7.24562 5.4856C6.95238 5.47726 6.72139 5.23241 6.73002 4.9391C6.73939 4.61813 6.66224 4.29857 6.507 4.015C6.27387 3.58923 5.88926 3.2797 5.42374 3.14377C4.95749 3.00785 4.46638 3.06147 4.04098 3.29459C3.61543 3.52772 3.30627 3.91226 3.1699 4.37807C3.03383 4.84396 3.08708 5.3347 3.32021 5.76017C3.46078 6.01675 3.65342 6.22915 3.89289 6.39141C4.13568 6.55602 4.19903 6.88628 4.03434 7.12907C3.93175 7.28055 3.76441 7.36219 3.59419 7.36219Z" fill="#652DBF"/>
</svg>
