<svg width="156" height="60" viewBox="0 0 156 60" fill="none" xmlns="http://www.w3.org/2000/svg">
<g clip-path="url(#clip0_331_3924)">
<path d="M110.206 20.6327C109.424 20.6327 108.638 20.3618 108 19.8091L102.281 14.8518C100.876 13.6327 100.724 11.5055 101.943 10.0991C103.163 8.69363 105.287 8.54 106.696 9.76L112.415 14.7173C113.82 15.9364 113.973 18.0645 112.754 19.47C112.086 20.2382 111.149 20.6327 110.206 20.6327Z" fill="#652DBF"/>
<path d="M121.155 15.4509C119.406 15.4509 117.928 14.0991 117.799 12.3273L117.248 4.77546C117.114 2.91909 118.508 1.30546 120.364 1.17C122.212 1.03091 123.834 2.42909 123.97 4.28546L124.521 11.8364C124.656 13.6927 123.261 15.3064 121.406 15.4418C121.321 15.4482 121.237 15.4509 121.155 15.4509Z" fill="#652DBF"/>
<path d="M0.570068 36.3336V12.0173L8.38279 8.07001V19.09H15.1546V26.1082H8.38279V36.3336C8.38279 37.2109 8.58916 37.95 9.00007 38.5527C9.41188 39.1564 9.92734 39.5682 10.5492 39.7864C11.0428 39.97 11.5637 40.0618 12.1119 40.0618C12.2373 40.0618 12.3755 40.0527 12.5228 40.0346C13.2164 39.9782 13.8555 39.7873 14.4428 39.4573L17.1292 45.4618C15.8492 47.0336 13.7737 47.8191 10.9055 47.8191C9.53552 47.7818 8.24189 47.5173 7.02552 47.0246C5.80916 46.5309 4.71189 45.8173 3.73643 44.8855C2.75734 43.9536 1.98461 42.7518 1.42007 41.28C0.851886 39.81 0.570068 38.1609 0.570068 36.3336Z" fill="#010E21"/>
<path d="M19.9255 39.6218C19.9255 38.1973 20.1392 36.9218 20.5692 35.7982C20.9964 34.6746 21.5146 33.7618 22.1174 33.0564C22.721 32.3555 23.5464 31.7464 24.5992 31.2337C25.6492 30.7228 26.5855 30.3491 27.4092 30.1109C28.231 29.8728 29.3037 29.6909 30.6301 29.5618C31.9546 29.4346 32.9628 29.3618 33.6601 29.3428C34.3528 29.3246 35.3128 29.3155 36.5383 29.3155C36.6092 29.3155 36.6619 29.3155 36.6892 29.3155C36.7164 29.3155 36.7583 29.3155 36.8128 29.3155C36.8674 29.3155 36.911 29.3155 36.9501 29.3155C36.6564 26.2091 34.9374 24.6546 31.7955 24.6546C30.7546 24.6546 29.7683 24.88 28.8355 25.3264C27.9028 25.7746 27.1801 26.4282 26.6692 27.2864L21.4601 24.6546C21.8992 23.5037 22.6837 22.4673 23.8183 21.5437C24.951 20.6209 26.2746 19.9046 27.7937 19.3918C29.3101 18.8809 30.8637 18.6246 32.4546 18.6246C34.0064 18.6246 35.4974 18.8673 36.9228 19.3509C38.3483 19.8364 39.6528 20.5673 40.8437 21.5437C42.031 22.5228 42.9828 23.8473 43.6946 25.5191C44.4074 27.1918 44.7637 29.1064 44.7637 31.2618V47.38H38.5683L38.1301 44.9137C34.8564 46.8518 31.861 47.8191 29.1383 47.8191C26.4674 47.8191 24.2655 47.0564 22.531 45.53C20.7919 44.0046 19.9255 42.0346 19.9255 39.6218ZM27.7383 38.3891C27.7383 39.6155 28.1492 40.5773 28.9719 41.2818C29.7946 41.9864 30.8246 42.3373 32.0701 42.3373C33.421 42.3373 34.591 41.94 35.5783 41.1446C36.5655 40.3491 37.0592 39.2118 37.0592 37.7318L37.0037 34.0309H35.3864C34.7637 34.0309 34.2246 34.0446 33.7683 34.0718C33.311 34.0991 32.7546 34.1528 32.0964 34.2364C31.4392 34.3191 30.8801 34.4546 30.4246 34.6473C29.9674 34.84 29.5201 35.0909 29.081 35.4009C28.6419 35.7128 28.3074 36.1191 28.0792 36.6218C27.8501 37.1237 27.7383 37.7128 27.7383 38.3891Z" fill="#010E21"/>
<path d="M49.231 58.84V19.09H57.0455V21.6673C59.42 19.6391 62.1728 18.6246 65.2973 18.6246C67.5064 18.6246 69.4664 19.3237 71.1773 20.7209C72.8846 22.1173 74.1664 23.9064 75.0155 26.0882C75.8646 28.2709 76.2891 30.6118 76.2891 33.1128C76.2891 34.6482 76.1664 36.1137 75.9191 37.5018C75.671 38.8937 75.261 40.2237 74.6864 41.4964C74.111 42.7664 73.3964 43.8646 72.5473 44.7891C71.6973 45.7146 70.6219 46.4491 69.3255 46.9991C68.0264 47.5482 66.5837 47.8209 64.9946 47.8209C61.8855 47.8209 59.2373 46.8137 57.0446 44.7937V58.8409L49.231 58.84ZM57.8537 27.1728C56.7464 28.6691 56.1955 30.6491 56.1955 33.1118C56.1955 35.5746 56.7464 37.5564 57.8537 39.0509C58.9582 40.5473 60.4064 41.2964 62.1991 41.2964C64.08 41.2964 65.5982 40.5482 66.7501 39.0509C67.9028 37.5555 68.4782 35.5746 68.4782 33.1118C68.4782 30.65 67.9028 28.67 66.7501 27.1728C65.5982 25.6773 64.08 24.9291 62.1991 24.9291C60.4055 24.9291 58.9582 25.6773 57.8537 27.1728Z" fill="#010E21"/>
<path d="M79.0864 33.1255C79.0864 31.7746 79.2682 30.4227 79.6355 29.0691C80.0001 27.7173 80.5701 26.4155 81.3482 25.1627C82.1246 23.9118 83.0482 22.8009 84.1182 21.8309C85.1873 20.8637 86.4919 20.0864 88.0392 19.5009C89.5819 18.9173 91.2401 18.6237 93.0155 18.6237C94.5664 18.6237 95.9919 18.7973 97.2901 19.1446C98.5891 19.4927 99.6837 19.9637 100.581 20.5564C101.475 21.1518 102.281 21.85 102.994 22.6537C103.706 23.4582 104.268 24.2991 104.679 25.1755C105.089 26.0518 105.436 26.9582 105.721 27.89C106.003 28.8218 106.201 29.7091 106.31 30.5482C106.402 31.3891 106.456 32.1918 106.475 32.9609C106.475 33.1437 106.475 33.3264 106.475 33.5091C106.475 34.0209 106.456 34.4773 106.419 34.8791C106.365 35.3918 106.291 35.7946 106.201 36.0855H86.901C87.211 37.53 87.9701 38.6773 89.1764 39.5264C90.3828 40.3755 91.8628 40.8009 93.6173 40.8009C94.7501 40.8009 95.8128 40.5818 96.811 40.1428C97.8073 39.7037 98.5619 39.12 99.0737 38.3873L105.132 41.87C103.796 43.6609 102.015 45.0991 99.7864 46.1873C97.5546 47.2755 95.2982 47.8182 93.0155 47.8182C90.7837 47.8182 88.7673 47.4027 86.971 46.5709C85.1701 45.7409 83.7082 44.63 82.5837 43.2409C81.4601 41.8527 80.5955 40.2891 79.9919 38.5518C79.3882 36.8173 79.0864 35.0091 79.0864 33.1255ZM86.7901 30.3027H99.1819C98.8328 28.64 98.1155 27.3291 97.0301 26.3691C95.9419 25.41 94.6046 24.93 93.0146 24.93C91.2946 24.93 89.8773 25.42 88.7646 26.3964C87.6482 27.3746 86.9901 28.6764 86.7901 30.3027Z" fill="#010E21"/>
<path d="M109.27 33.2491C109.27 28.8591 110.535 25.3246 113.067 22.6437C115.598 19.9637 118.936 18.6237 123.087 18.6237C125.335 18.6237 127.473 19.0891 129.503 20.0218C131.532 20.9537 133.094 22.1973 134.19 23.7509L128.023 27.1809C127.509 26.54 126.829 26.0237 125.98 25.6291C125.129 25.2355 124.238 25.0382 123.306 25.0382C121.425 25.0382 119.916 25.7855 118.782 27.2773C117.648 28.77 117.084 30.7418 117.084 33.1927C117.084 35.6109 117.654 37.5646 118.797 39.0564C119.937 40.5482 121.442 41.2955 123.306 41.2955C124.238 41.2955 125.13 41.0982 125.98 40.7046C126.83 40.3109 127.509 39.7946 128.023 39.1537L134.19 42.5773C133.038 44.1437 131.447 45.4091 129.42 46.3737C127.392 47.3391 125.28 47.82 123.087 47.82C118.936 47.82 115.598 46.4827 113.067 43.8082C110.535 41.1337 109.27 37.6137 109.27 33.2491Z" fill="#010E21"/>
<path d="M139.235 36.3336V12.0173L147.049 8.07001V19.09H153.819V26.1082H147.049V36.3336C147.049 37.2109 147.255 37.95 147.666 38.5527C148.076 39.1564 148.592 39.5682 149.215 39.7864C149.707 39.97 150.228 40.0618 150.777 40.0618C150.903 40.0618 151.04 40.0527 151.188 40.0346C151.882 39.9782 152.521 39.7873 153.106 39.4573L155.794 45.4618C154.514 47.0336 152.439 47.8191 149.57 47.8191C148.199 47.7818 146.906 47.5173 145.691 47.0246C144.474 46.5309 143.376 45.8173 142.401 44.8855C141.422 43.9536 140.648 42.7518 140.085 41.28C139.518 39.81 139.235 38.1609 139.235 36.3336Z" fill="#010E21"/>
</g>
<defs>
<clipPath id="clip0_331_3924">
<rect width="156" height="60" fill="white"/>
</clipPath>
</defs>
</svg>
